G75*
%MOIN*%
%OFA0B0*%
%FSLAX25Y25*%
%IPPOS*%
%LPD*%
%AMOC8*
5,1,8,0,0,1.08239X$1,22.5*
%
%ADD10C,0.00000*%
%ADD11C,0.00100*%
%ADD12C,0.01000*%
%ADD13C,0.00600*%
%ADD14C,0.00200*%
D10*
X0013811Y0013041D02*
X0246094Y0013041D01*
X0246379Y0013044D01*
X0246665Y0013055D01*
X0246950Y0013072D01*
X0247234Y0013096D01*
X0247518Y0013127D01*
X0247801Y0013165D01*
X0248082Y0013210D01*
X0248363Y0013261D01*
X0248643Y0013319D01*
X0248921Y0013384D01*
X0249197Y0013456D01*
X0249471Y0013534D01*
X0249744Y0013619D01*
X0250014Y0013711D01*
X0250282Y0013809D01*
X0250548Y0013913D01*
X0250811Y0014024D01*
X0251071Y0014141D01*
X0251329Y0014264D01*
X0251583Y0014394D01*
X0251834Y0014530D01*
X0252082Y0014671D01*
X0252326Y0014819D01*
X0252567Y0014972D01*
X0252803Y0015132D01*
X0253036Y0015297D01*
X0253265Y0015467D01*
X0253490Y0015643D01*
X0253710Y0015825D01*
X0253926Y0016011D01*
X0254137Y0016203D01*
X0254344Y0016400D01*
X0254546Y0016602D01*
X0254743Y0016809D01*
X0254935Y0017020D01*
X0255121Y0017236D01*
X0255303Y0017456D01*
X0255479Y0017681D01*
X0255649Y0017910D01*
X0255814Y0018143D01*
X0255974Y0018379D01*
X0256127Y0018620D01*
X0256275Y0018864D01*
X0256416Y0019112D01*
X0256552Y0019363D01*
X0256682Y0019617D01*
X0256805Y0019875D01*
X0256922Y0020135D01*
X0257033Y0020398D01*
X0257137Y0020664D01*
X0257235Y0020932D01*
X0257327Y0021202D01*
X0257412Y0021475D01*
X0257490Y0021749D01*
X0257562Y0022025D01*
X0257627Y0022303D01*
X0257685Y0022583D01*
X0257736Y0022864D01*
X0257781Y0023145D01*
X0257819Y0023428D01*
X0257850Y0023712D01*
X0257874Y0023996D01*
X0257891Y0024281D01*
X0257902Y0024567D01*
X0257905Y0024852D01*
X0257906Y0024852D02*
X0257906Y0119340D01*
X0257905Y0119340D02*
X0257902Y0119625D01*
X0257891Y0119911D01*
X0257874Y0120196D01*
X0257850Y0120480D01*
X0257819Y0120764D01*
X0257781Y0121047D01*
X0257736Y0121328D01*
X0257685Y0121609D01*
X0257627Y0121889D01*
X0257562Y0122167D01*
X0257490Y0122443D01*
X0257412Y0122717D01*
X0257327Y0122990D01*
X0257235Y0123260D01*
X0257137Y0123528D01*
X0257033Y0123794D01*
X0256922Y0124057D01*
X0256805Y0124317D01*
X0256682Y0124575D01*
X0256552Y0124829D01*
X0256416Y0125080D01*
X0256275Y0125328D01*
X0256127Y0125572D01*
X0255974Y0125813D01*
X0255814Y0126049D01*
X0255649Y0126282D01*
X0255479Y0126511D01*
X0255303Y0126736D01*
X0255121Y0126956D01*
X0254935Y0127172D01*
X0254743Y0127383D01*
X0254546Y0127590D01*
X0254344Y0127792D01*
X0254137Y0127989D01*
X0253926Y0128181D01*
X0253710Y0128367D01*
X0253490Y0128549D01*
X0253265Y0128725D01*
X0253036Y0128895D01*
X0252803Y0129060D01*
X0252567Y0129220D01*
X0252326Y0129373D01*
X0252082Y0129521D01*
X0251834Y0129662D01*
X0251583Y0129798D01*
X0251329Y0129928D01*
X0251071Y0130051D01*
X0250811Y0130168D01*
X0250548Y0130279D01*
X0250282Y0130383D01*
X0250014Y0130481D01*
X0249744Y0130573D01*
X0249471Y0130658D01*
X0249197Y0130736D01*
X0248921Y0130808D01*
X0248643Y0130873D01*
X0248363Y0130931D01*
X0248082Y0130982D01*
X0247801Y0131027D01*
X0247518Y0131065D01*
X0247234Y0131096D01*
X0246950Y0131120D01*
X0246665Y0131137D01*
X0246379Y0131148D01*
X0246094Y0131151D01*
X0013811Y0131151D01*
X0013526Y0131148D01*
X0013240Y0131137D01*
X0012955Y0131120D01*
X0012671Y0131096D01*
X0012387Y0131065D01*
X0012104Y0131027D01*
X0011823Y0130982D01*
X0011542Y0130931D01*
X0011262Y0130873D01*
X0010984Y0130808D01*
X0010708Y0130736D01*
X0010434Y0130658D01*
X0010161Y0130573D01*
X0009891Y0130481D01*
X0009623Y0130383D01*
X0009357Y0130279D01*
X0009094Y0130168D01*
X0008834Y0130051D01*
X0008576Y0129928D01*
X0008322Y0129798D01*
X0008071Y0129662D01*
X0007823Y0129521D01*
X0007579Y0129373D01*
X0007338Y0129220D01*
X0007102Y0129060D01*
X0006869Y0128895D01*
X0006640Y0128725D01*
X0006415Y0128549D01*
X0006195Y0128367D01*
X0005979Y0128181D01*
X0005768Y0127989D01*
X0005561Y0127792D01*
X0005359Y0127590D01*
X0005162Y0127383D01*
X0004970Y0127172D01*
X0004784Y0126956D01*
X0004602Y0126736D01*
X0004426Y0126511D01*
X0004256Y0126282D01*
X0004091Y0126049D01*
X0003931Y0125813D01*
X0003778Y0125572D01*
X0003630Y0125328D01*
X0003489Y0125080D01*
X0003353Y0124829D01*
X0003223Y0124575D01*
X0003100Y0124317D01*
X0002983Y0124057D01*
X0002872Y0123794D01*
X0002768Y0123528D01*
X0002670Y0123260D01*
X0002578Y0122990D01*
X0002493Y0122717D01*
X0002415Y0122443D01*
X0002343Y0122167D01*
X0002278Y0121889D01*
X0002220Y0121609D01*
X0002169Y0121328D01*
X0002124Y0121047D01*
X0002086Y0120764D01*
X0002055Y0120480D01*
X0002031Y0120196D01*
X0002014Y0119911D01*
X0002003Y0119625D01*
X0002000Y0119340D01*
X0002000Y0024852D01*
X0002003Y0024567D01*
X0002014Y0024281D01*
X0002031Y0023996D01*
X0002055Y0023712D01*
X0002086Y0023428D01*
X0002124Y0023145D01*
X0002169Y0022864D01*
X0002220Y0022583D01*
X0002278Y0022303D01*
X0002343Y0022025D01*
X0002415Y0021749D01*
X0002493Y0021475D01*
X0002578Y0021202D01*
X0002670Y0020932D01*
X0002768Y0020664D01*
X0002872Y0020398D01*
X0002983Y0020135D01*
X0003100Y0019875D01*
X0003223Y0019617D01*
X0003353Y0019363D01*
X0003489Y0019112D01*
X0003630Y0018864D01*
X0003778Y0018620D01*
X0003931Y0018379D01*
X0004091Y0018143D01*
X0004256Y0017910D01*
X0004426Y0017681D01*
X0004602Y0017456D01*
X0004784Y0017236D01*
X0004970Y0017020D01*
X0005162Y0016809D01*
X0005359Y0016602D01*
X0005561Y0016400D01*
X0005768Y0016203D01*
X0005979Y0016011D01*
X0006195Y0015825D01*
X0006415Y0015643D01*
X0006640Y0015467D01*
X0006869Y0015297D01*
X0007102Y0015132D01*
X0007338Y0014972D01*
X0007579Y0014819D01*
X0007823Y0014671D01*
X0008071Y0014530D01*
X0008322Y0014394D01*
X0008576Y0014264D01*
X0008834Y0014141D01*
X0009094Y0014024D01*
X0009357Y0013913D01*
X0009623Y0013809D01*
X0009891Y0013711D01*
X0010161Y0013619D01*
X0010434Y0013534D01*
X0010708Y0013456D01*
X0010984Y0013384D01*
X0011262Y0013319D01*
X0011542Y0013261D01*
X0011823Y0013210D01*
X0012104Y0013165D01*
X0012387Y0013127D01*
X0012671Y0013096D01*
X0012955Y0013072D01*
X0013240Y0013055D01*
X0013526Y0013044D01*
X0013811Y0013041D01*
X0010367Y0026820D02*
X0010369Y0026967D01*
X0010375Y0027113D01*
X0010385Y0027259D01*
X0010399Y0027405D01*
X0010417Y0027551D01*
X0010438Y0027696D01*
X0010464Y0027840D01*
X0010494Y0027984D01*
X0010527Y0028126D01*
X0010564Y0028268D01*
X0010605Y0028409D01*
X0010650Y0028548D01*
X0010699Y0028687D01*
X0010751Y0028824D01*
X0010808Y0028959D01*
X0010867Y0029093D01*
X0010931Y0029225D01*
X0010998Y0029355D01*
X0011068Y0029484D01*
X0011142Y0029611D01*
X0011219Y0029735D01*
X0011300Y0029858D01*
X0011384Y0029978D01*
X0011471Y0030096D01*
X0011561Y0030211D01*
X0011654Y0030324D01*
X0011751Y0030435D01*
X0011850Y0030543D01*
X0011952Y0030648D01*
X0012057Y0030750D01*
X0012165Y0030849D01*
X0012276Y0030946D01*
X0012389Y0031039D01*
X0012504Y0031129D01*
X0012622Y0031216D01*
X0012742Y0031300D01*
X0012865Y0031381D01*
X0012989Y0031458D01*
X0013116Y0031532D01*
X0013245Y0031602D01*
X0013375Y0031669D01*
X0013507Y0031733D01*
X0013641Y0031792D01*
X0013776Y0031849D01*
X0013913Y0031901D01*
X0014052Y0031950D01*
X0014191Y0031995D01*
X0014332Y0032036D01*
X0014474Y0032073D01*
X0014616Y0032106D01*
X0014760Y0032136D01*
X0014904Y0032162D01*
X0015049Y0032183D01*
X0015195Y0032201D01*
X0015341Y0032215D01*
X0015487Y0032225D01*
X0015633Y0032231D01*
X0015780Y0032233D01*
X0015927Y0032231D01*
X0016073Y0032225D01*
X0016219Y0032215D01*
X0016365Y0032201D01*
X0016511Y0032183D01*
X0016656Y0032162D01*
X0016800Y0032136D01*
X0016944Y0032106D01*
X0017086Y0032073D01*
X0017228Y0032036D01*
X0017369Y0031995D01*
X0017508Y0031950D01*
X0017647Y0031901D01*
X0017784Y0031849D01*
X0017919Y0031792D01*
X0018053Y0031733D01*
X0018185Y0031669D01*
X0018315Y0031602D01*
X0018444Y0031532D01*
X0018571Y0031458D01*
X0018695Y0031381D01*
X0018818Y0031300D01*
X0018938Y0031216D01*
X0019056Y0031129D01*
X0019171Y0031039D01*
X0019284Y0030946D01*
X0019395Y0030849D01*
X0019503Y0030750D01*
X0019608Y0030648D01*
X0019710Y0030543D01*
X0019809Y0030435D01*
X0019906Y0030324D01*
X0019999Y0030211D01*
X0020089Y0030096D01*
X0020176Y0029978D01*
X0020260Y0029858D01*
X0020341Y0029735D01*
X0020418Y0029611D01*
X0020492Y0029484D01*
X0020562Y0029355D01*
X0020629Y0029225D01*
X0020693Y0029093D01*
X0020752Y0028959D01*
X0020809Y0028824D01*
X0020861Y0028687D01*
X0020910Y0028548D01*
X0020955Y0028409D01*
X0020996Y0028268D01*
X0021033Y0028126D01*
X0021066Y0027984D01*
X0021096Y0027840D01*
X0021122Y0027696D01*
X0021143Y0027551D01*
X0021161Y0027405D01*
X0021175Y0027259D01*
X0021185Y0027113D01*
X0021191Y0026967D01*
X0021193Y0026820D01*
X0021191Y0026673D01*
X0021185Y0026527D01*
X0021175Y0026381D01*
X0021161Y0026235D01*
X0021143Y0026089D01*
X0021122Y0025944D01*
X0021096Y0025800D01*
X0021066Y0025656D01*
X0021033Y0025514D01*
X0020996Y0025372D01*
X0020955Y0025231D01*
X0020910Y0025092D01*
X0020861Y0024953D01*
X0020809Y0024816D01*
X0020752Y0024681D01*
X0020693Y0024547D01*
X0020629Y0024415D01*
X0020562Y0024285D01*
X0020492Y0024156D01*
X0020418Y0024029D01*
X0020341Y0023905D01*
X0020260Y0023782D01*
X0020176Y0023662D01*
X0020089Y0023544D01*
X0019999Y0023429D01*
X0019906Y0023316D01*
X0019809Y0023205D01*
X0019710Y0023097D01*
X0019608Y0022992D01*
X0019503Y0022890D01*
X0019395Y0022791D01*
X0019284Y0022694D01*
X0019171Y0022601D01*
X0019056Y0022511D01*
X0018938Y0022424D01*
X0018818Y0022340D01*
X0018695Y0022259D01*
X0018571Y0022182D01*
X0018444Y0022108D01*
X0018315Y0022038D01*
X0018185Y0021971D01*
X0018053Y0021907D01*
X0017919Y0021848D01*
X0017784Y0021791D01*
X0017647Y0021739D01*
X0017508Y0021690D01*
X0017369Y0021645D01*
X0017228Y0021604D01*
X0017086Y0021567D01*
X0016944Y0021534D01*
X0016800Y0021504D01*
X0016656Y0021478D01*
X0016511Y0021457D01*
X0016365Y0021439D01*
X0016219Y0021425D01*
X0016073Y0021415D01*
X0015927Y0021409D01*
X0015780Y0021407D01*
X0015633Y0021409D01*
X0015487Y0021415D01*
X0015341Y0021425D01*
X0015195Y0021439D01*
X0015049Y0021457D01*
X0014904Y0021478D01*
X0014760Y0021504D01*
X0014616Y0021534D01*
X0014474Y0021567D01*
X0014332Y0021604D01*
X0014191Y0021645D01*
X0014052Y0021690D01*
X0013913Y0021739D01*
X0013776Y0021791D01*
X0013641Y0021848D01*
X0013507Y0021907D01*
X0013375Y0021971D01*
X0013245Y0022038D01*
X0013116Y0022108D01*
X0012989Y0022182D01*
X0012865Y0022259D01*
X0012742Y0022340D01*
X0012622Y0022424D01*
X0012504Y0022511D01*
X0012389Y0022601D01*
X0012276Y0022694D01*
X0012165Y0022791D01*
X0012057Y0022890D01*
X0011952Y0022992D01*
X0011850Y0023097D01*
X0011751Y0023205D01*
X0011654Y0023316D01*
X0011561Y0023429D01*
X0011471Y0023544D01*
X0011384Y0023662D01*
X0011300Y0023782D01*
X0011219Y0023905D01*
X0011142Y0024029D01*
X0011068Y0024156D01*
X0010998Y0024285D01*
X0010931Y0024415D01*
X0010867Y0024547D01*
X0010808Y0024681D01*
X0010751Y0024816D01*
X0010699Y0024953D01*
X0010650Y0025092D01*
X0010605Y0025231D01*
X0010564Y0025372D01*
X0010527Y0025514D01*
X0010494Y0025656D01*
X0010464Y0025800D01*
X0010438Y0025944D01*
X0010417Y0026089D01*
X0010399Y0026235D01*
X0010385Y0026381D01*
X0010375Y0026527D01*
X0010369Y0026673D01*
X0010367Y0026820D01*
X0010367Y0117371D02*
X0010369Y0117518D01*
X0010375Y0117664D01*
X0010385Y0117810D01*
X0010399Y0117956D01*
X0010417Y0118102D01*
X0010438Y0118247D01*
X0010464Y0118391D01*
X0010494Y0118535D01*
X0010527Y0118677D01*
X0010564Y0118819D01*
X0010605Y0118960D01*
X0010650Y0119099D01*
X0010699Y0119238D01*
X0010751Y0119375D01*
X0010808Y0119510D01*
X0010867Y0119644D01*
X0010931Y0119776D01*
X0010998Y0119906D01*
X0011068Y0120035D01*
X0011142Y0120162D01*
X0011219Y0120286D01*
X0011300Y0120409D01*
X0011384Y0120529D01*
X0011471Y0120647D01*
X0011561Y0120762D01*
X0011654Y0120875D01*
X0011751Y0120986D01*
X0011850Y0121094D01*
X0011952Y0121199D01*
X0012057Y0121301D01*
X0012165Y0121400D01*
X0012276Y0121497D01*
X0012389Y0121590D01*
X0012504Y0121680D01*
X0012622Y0121767D01*
X0012742Y0121851D01*
X0012865Y0121932D01*
X0012989Y0122009D01*
X0013116Y0122083D01*
X0013245Y0122153D01*
X0013375Y0122220D01*
X0013507Y0122284D01*
X0013641Y0122343D01*
X0013776Y0122400D01*
X0013913Y0122452D01*
X0014052Y0122501D01*
X0014191Y0122546D01*
X0014332Y0122587D01*
X0014474Y0122624D01*
X0014616Y0122657D01*
X0014760Y0122687D01*
X0014904Y0122713D01*
X0015049Y0122734D01*
X0015195Y0122752D01*
X0015341Y0122766D01*
X0015487Y0122776D01*
X0015633Y0122782D01*
X0015780Y0122784D01*
X0015927Y0122782D01*
X0016073Y0122776D01*
X0016219Y0122766D01*
X0016365Y0122752D01*
X0016511Y0122734D01*
X0016656Y0122713D01*
X0016800Y0122687D01*
X0016944Y0122657D01*
X0017086Y0122624D01*
X0017228Y0122587D01*
X0017369Y0122546D01*
X0017508Y0122501D01*
X0017647Y0122452D01*
X0017784Y0122400D01*
X0017919Y0122343D01*
X0018053Y0122284D01*
X0018185Y0122220D01*
X0018315Y0122153D01*
X0018444Y0122083D01*
X0018571Y0122009D01*
X0018695Y0121932D01*
X0018818Y0121851D01*
X0018938Y0121767D01*
X0019056Y0121680D01*
X0019171Y0121590D01*
X0019284Y0121497D01*
X0019395Y0121400D01*
X0019503Y0121301D01*
X0019608Y0121199D01*
X0019710Y0121094D01*
X0019809Y0120986D01*
X0019906Y0120875D01*
X0019999Y0120762D01*
X0020089Y0120647D01*
X0020176Y0120529D01*
X0020260Y0120409D01*
X0020341Y0120286D01*
X0020418Y0120162D01*
X0020492Y0120035D01*
X0020562Y0119906D01*
X0020629Y0119776D01*
X0020693Y0119644D01*
X0020752Y0119510D01*
X0020809Y0119375D01*
X0020861Y0119238D01*
X0020910Y0119099D01*
X0020955Y0118960D01*
X0020996Y0118819D01*
X0021033Y0118677D01*
X0021066Y0118535D01*
X0021096Y0118391D01*
X0021122Y0118247D01*
X0021143Y0118102D01*
X0021161Y0117956D01*
X0021175Y0117810D01*
X0021185Y0117664D01*
X0021191Y0117518D01*
X0021193Y0117371D01*
X0021191Y0117224D01*
X0021185Y0117078D01*
X0021175Y0116932D01*
X0021161Y0116786D01*
X0021143Y0116640D01*
X0021122Y0116495D01*
X0021096Y0116351D01*
X0021066Y0116207D01*
X0021033Y0116065D01*
X0020996Y0115923D01*
X0020955Y0115782D01*
X0020910Y0115643D01*
X0020861Y0115504D01*
X0020809Y0115367D01*
X0020752Y0115232D01*
X0020693Y0115098D01*
X0020629Y0114966D01*
X0020562Y0114836D01*
X0020492Y0114707D01*
X0020418Y0114580D01*
X0020341Y0114456D01*
X0020260Y0114333D01*
X0020176Y0114213D01*
X0020089Y0114095D01*
X0019999Y0113980D01*
X0019906Y0113867D01*
X0019809Y0113756D01*
X0019710Y0113648D01*
X0019608Y0113543D01*
X0019503Y0113441D01*
X0019395Y0113342D01*
X0019284Y0113245D01*
X0019171Y0113152D01*
X0019056Y0113062D01*
X0018938Y0112975D01*
X0018818Y0112891D01*
X0018695Y0112810D01*
X0018571Y0112733D01*
X0018444Y0112659D01*
X0018315Y0112589D01*
X0018185Y0112522D01*
X0018053Y0112458D01*
X0017919Y0112399D01*
X0017784Y0112342D01*
X0017647Y0112290D01*
X0017508Y0112241D01*
X0017369Y0112196D01*
X0017228Y0112155D01*
X0017086Y0112118D01*
X0016944Y0112085D01*
X0016800Y0112055D01*
X0016656Y0112029D01*
X0016511Y0112008D01*
X0016365Y0111990D01*
X0016219Y0111976D01*
X0016073Y0111966D01*
X0015927Y0111960D01*
X0015780Y0111958D01*
X0015633Y0111960D01*
X0015487Y0111966D01*
X0015341Y0111976D01*
X0015195Y0111990D01*
X0015049Y0112008D01*
X0014904Y0112029D01*
X0014760Y0112055D01*
X0014616Y0112085D01*
X0014474Y0112118D01*
X0014332Y0112155D01*
X0014191Y0112196D01*
X0014052Y0112241D01*
X0013913Y0112290D01*
X0013776Y0112342D01*
X0013641Y0112399D01*
X0013507Y0112458D01*
X0013375Y0112522D01*
X0013245Y0112589D01*
X0013116Y0112659D01*
X0012989Y0112733D01*
X0012865Y0112810D01*
X0012742Y0112891D01*
X0012622Y0112975D01*
X0012504Y0113062D01*
X0012389Y0113152D01*
X0012276Y0113245D01*
X0012165Y0113342D01*
X0012057Y0113441D01*
X0011952Y0113543D01*
X0011850Y0113648D01*
X0011751Y0113756D01*
X0011654Y0113867D01*
X0011561Y0113980D01*
X0011471Y0114095D01*
X0011384Y0114213D01*
X0011300Y0114333D01*
X0011219Y0114456D01*
X0011142Y0114580D01*
X0011068Y0114707D01*
X0010998Y0114836D01*
X0010931Y0114966D01*
X0010867Y0115098D01*
X0010808Y0115232D01*
X0010751Y0115367D01*
X0010699Y0115504D01*
X0010650Y0115643D01*
X0010605Y0115782D01*
X0010564Y0115923D01*
X0010527Y0116065D01*
X0010494Y0116207D01*
X0010464Y0116351D01*
X0010438Y0116495D01*
X0010417Y0116640D01*
X0010399Y0116786D01*
X0010385Y0116932D01*
X0010375Y0117078D01*
X0010369Y0117224D01*
X0010367Y0117371D01*
X0238713Y0117371D02*
X0238715Y0117518D01*
X0238721Y0117664D01*
X0238731Y0117810D01*
X0238745Y0117956D01*
X0238763Y0118102D01*
X0238784Y0118247D01*
X0238810Y0118391D01*
X0238840Y0118535D01*
X0238873Y0118677D01*
X0238910Y0118819D01*
X0238951Y0118960D01*
X0238996Y0119099D01*
X0239045Y0119238D01*
X0239097Y0119375D01*
X0239154Y0119510D01*
X0239213Y0119644D01*
X0239277Y0119776D01*
X0239344Y0119906D01*
X0239414Y0120035D01*
X0239488Y0120162D01*
X0239565Y0120286D01*
X0239646Y0120409D01*
X0239730Y0120529D01*
X0239817Y0120647D01*
X0239907Y0120762D01*
X0240000Y0120875D01*
X0240097Y0120986D01*
X0240196Y0121094D01*
X0240298Y0121199D01*
X0240403Y0121301D01*
X0240511Y0121400D01*
X0240622Y0121497D01*
X0240735Y0121590D01*
X0240850Y0121680D01*
X0240968Y0121767D01*
X0241088Y0121851D01*
X0241211Y0121932D01*
X0241335Y0122009D01*
X0241462Y0122083D01*
X0241591Y0122153D01*
X0241721Y0122220D01*
X0241853Y0122284D01*
X0241987Y0122343D01*
X0242122Y0122400D01*
X0242259Y0122452D01*
X0242398Y0122501D01*
X0242537Y0122546D01*
X0242678Y0122587D01*
X0242820Y0122624D01*
X0242962Y0122657D01*
X0243106Y0122687D01*
X0243250Y0122713D01*
X0243395Y0122734D01*
X0243541Y0122752D01*
X0243687Y0122766D01*
X0243833Y0122776D01*
X0243979Y0122782D01*
X0244126Y0122784D01*
X0244273Y0122782D01*
X0244419Y0122776D01*
X0244565Y0122766D01*
X0244711Y0122752D01*
X0244857Y0122734D01*
X0245002Y0122713D01*
X0245146Y0122687D01*
X0245290Y0122657D01*
X0245432Y0122624D01*
X0245574Y0122587D01*
X0245715Y0122546D01*
X0245854Y0122501D01*
X0245993Y0122452D01*
X0246130Y0122400D01*
X0246265Y0122343D01*
X0246399Y0122284D01*
X0246531Y0122220D01*
X0246661Y0122153D01*
X0246790Y0122083D01*
X0246917Y0122009D01*
X0247041Y0121932D01*
X0247164Y0121851D01*
X0247284Y0121767D01*
X0247402Y0121680D01*
X0247517Y0121590D01*
X0247630Y0121497D01*
X0247741Y0121400D01*
X0247849Y0121301D01*
X0247954Y0121199D01*
X0248056Y0121094D01*
X0248155Y0120986D01*
X0248252Y0120875D01*
X0248345Y0120762D01*
X0248435Y0120647D01*
X0248522Y0120529D01*
X0248606Y0120409D01*
X0248687Y0120286D01*
X0248764Y0120162D01*
X0248838Y0120035D01*
X0248908Y0119906D01*
X0248975Y0119776D01*
X0249039Y0119644D01*
X0249098Y0119510D01*
X0249155Y0119375D01*
X0249207Y0119238D01*
X0249256Y0119099D01*
X0249301Y0118960D01*
X0249342Y0118819D01*
X0249379Y0118677D01*
X0249412Y0118535D01*
X0249442Y0118391D01*
X0249468Y0118247D01*
X0249489Y0118102D01*
X0249507Y0117956D01*
X0249521Y0117810D01*
X0249531Y0117664D01*
X0249537Y0117518D01*
X0249539Y0117371D01*
X0249537Y0117224D01*
X0249531Y0117078D01*
X0249521Y0116932D01*
X0249507Y0116786D01*
X0249489Y0116640D01*
X0249468Y0116495D01*
X0249442Y0116351D01*
X0249412Y0116207D01*
X0249379Y0116065D01*
X0249342Y0115923D01*
X0249301Y0115782D01*
X0249256Y0115643D01*
X0249207Y0115504D01*
X0249155Y0115367D01*
X0249098Y0115232D01*
X0249039Y0115098D01*
X0248975Y0114966D01*
X0248908Y0114836D01*
X0248838Y0114707D01*
X0248764Y0114580D01*
X0248687Y0114456D01*
X0248606Y0114333D01*
X0248522Y0114213D01*
X0248435Y0114095D01*
X0248345Y0113980D01*
X0248252Y0113867D01*
X0248155Y0113756D01*
X0248056Y0113648D01*
X0247954Y0113543D01*
X0247849Y0113441D01*
X0247741Y0113342D01*
X0247630Y0113245D01*
X0247517Y0113152D01*
X0247402Y0113062D01*
X0247284Y0112975D01*
X0247164Y0112891D01*
X0247041Y0112810D01*
X0246917Y0112733D01*
X0246790Y0112659D01*
X0246661Y0112589D01*
X0246531Y0112522D01*
X0246399Y0112458D01*
X0246265Y0112399D01*
X0246130Y0112342D01*
X0245993Y0112290D01*
X0245854Y0112241D01*
X0245715Y0112196D01*
X0245574Y0112155D01*
X0245432Y0112118D01*
X0245290Y0112085D01*
X0245146Y0112055D01*
X0245002Y0112029D01*
X0244857Y0112008D01*
X0244711Y0111990D01*
X0244565Y0111976D01*
X0244419Y0111966D01*
X0244273Y0111960D01*
X0244126Y0111958D01*
X0243979Y0111960D01*
X0243833Y0111966D01*
X0243687Y0111976D01*
X0243541Y0111990D01*
X0243395Y0112008D01*
X0243250Y0112029D01*
X0243106Y0112055D01*
X0242962Y0112085D01*
X0242820Y0112118D01*
X0242678Y0112155D01*
X0242537Y0112196D01*
X0242398Y0112241D01*
X0242259Y0112290D01*
X0242122Y0112342D01*
X0241987Y0112399D01*
X0241853Y0112458D01*
X0241721Y0112522D01*
X0241591Y0112589D01*
X0241462Y0112659D01*
X0241335Y0112733D01*
X0241211Y0112810D01*
X0241088Y0112891D01*
X0240968Y0112975D01*
X0240850Y0113062D01*
X0240735Y0113152D01*
X0240622Y0113245D01*
X0240511Y0113342D01*
X0240403Y0113441D01*
X0240298Y0113543D01*
X0240196Y0113648D01*
X0240097Y0113756D01*
X0240000Y0113867D01*
X0239907Y0113980D01*
X0239817Y0114095D01*
X0239730Y0114213D01*
X0239646Y0114333D01*
X0239565Y0114456D01*
X0239488Y0114580D01*
X0239414Y0114707D01*
X0239344Y0114836D01*
X0239277Y0114966D01*
X0239213Y0115098D01*
X0239154Y0115232D01*
X0239097Y0115367D01*
X0239045Y0115504D01*
X0238996Y0115643D01*
X0238951Y0115782D01*
X0238910Y0115923D01*
X0238873Y0116065D01*
X0238840Y0116207D01*
X0238810Y0116351D01*
X0238784Y0116495D01*
X0238763Y0116640D01*
X0238745Y0116786D01*
X0238731Y0116932D01*
X0238721Y0117078D01*
X0238715Y0117224D01*
X0238713Y0117371D01*
X0238713Y0026820D02*
X0238715Y0026967D01*
X0238721Y0027113D01*
X0238731Y0027259D01*
X0238745Y0027405D01*
X0238763Y0027551D01*
X0238784Y0027696D01*
X0238810Y0027840D01*
X0238840Y0027984D01*
X0238873Y0028126D01*
X0238910Y0028268D01*
X0238951Y0028409D01*
X0238996Y0028548D01*
X0239045Y0028687D01*
X0239097Y0028824D01*
X0239154Y0028959D01*
X0239213Y0029093D01*
X0239277Y0029225D01*
X0239344Y0029355D01*
X0239414Y0029484D01*
X0239488Y0029611D01*
X0239565Y0029735D01*
X0239646Y0029858D01*
X0239730Y0029978D01*
X0239817Y0030096D01*
X0239907Y0030211D01*
X0240000Y0030324D01*
X0240097Y0030435D01*
X0240196Y0030543D01*
X0240298Y0030648D01*
X0240403Y0030750D01*
X0240511Y0030849D01*
X0240622Y0030946D01*
X0240735Y0031039D01*
X0240850Y0031129D01*
X0240968Y0031216D01*
X0241088Y0031300D01*
X0241211Y0031381D01*
X0241335Y0031458D01*
X0241462Y0031532D01*
X0241591Y0031602D01*
X0241721Y0031669D01*
X0241853Y0031733D01*
X0241987Y0031792D01*
X0242122Y0031849D01*
X0242259Y0031901D01*
X0242398Y0031950D01*
X0242537Y0031995D01*
X0242678Y0032036D01*
X0242820Y0032073D01*
X0242962Y0032106D01*
X0243106Y0032136D01*
X0243250Y0032162D01*
X0243395Y0032183D01*
X0243541Y0032201D01*
X0243687Y0032215D01*
X0243833Y0032225D01*
X0243979Y0032231D01*
X0244126Y0032233D01*
X0244273Y0032231D01*
X0244419Y0032225D01*
X0244565Y0032215D01*
X0244711Y0032201D01*
X0244857Y0032183D01*
X0245002Y0032162D01*
X0245146Y0032136D01*
X0245290Y0032106D01*
X0245432Y0032073D01*
X0245574Y0032036D01*
X0245715Y0031995D01*
X0245854Y0031950D01*
X0245993Y0031901D01*
X0246130Y0031849D01*
X0246265Y0031792D01*
X0246399Y0031733D01*
X0246531Y0031669D01*
X0246661Y0031602D01*
X0246790Y0031532D01*
X0246917Y0031458D01*
X0247041Y0031381D01*
X0247164Y0031300D01*
X0247284Y0031216D01*
X0247402Y0031129D01*
X0247517Y0031039D01*
X0247630Y0030946D01*
X0247741Y0030849D01*
X0247849Y0030750D01*
X0247954Y0030648D01*
X0248056Y0030543D01*
X0248155Y0030435D01*
X0248252Y0030324D01*
X0248345Y0030211D01*
X0248435Y0030096D01*
X0248522Y0029978D01*
X0248606Y0029858D01*
X0248687Y0029735D01*
X0248764Y0029611D01*
X0248838Y0029484D01*
X0248908Y0029355D01*
X0248975Y0029225D01*
X0249039Y0029093D01*
X0249098Y0028959D01*
X0249155Y0028824D01*
X0249207Y0028687D01*
X0249256Y0028548D01*
X0249301Y0028409D01*
X0249342Y0028268D01*
X0249379Y0028126D01*
X0249412Y0027984D01*
X0249442Y0027840D01*
X0249468Y0027696D01*
X0249489Y0027551D01*
X0249507Y0027405D01*
X0249521Y0027259D01*
X0249531Y0027113D01*
X0249537Y0026967D01*
X0249539Y0026820D01*
X0249537Y0026673D01*
X0249531Y0026527D01*
X0249521Y0026381D01*
X0249507Y0026235D01*
X0249489Y0026089D01*
X0249468Y0025944D01*
X0249442Y0025800D01*
X0249412Y0025656D01*
X0249379Y0025514D01*
X0249342Y0025372D01*
X0249301Y0025231D01*
X0249256Y0025092D01*
X0249207Y0024953D01*
X0249155Y0024816D01*
X0249098Y0024681D01*
X0249039Y0024547D01*
X0248975Y0024415D01*
X0248908Y0024285D01*
X0248838Y0024156D01*
X0248764Y0024029D01*
X0248687Y0023905D01*
X0248606Y0023782D01*
X0248522Y0023662D01*
X0248435Y0023544D01*
X0248345Y0023429D01*
X0248252Y0023316D01*
X0248155Y0023205D01*
X0248056Y0023097D01*
X0247954Y0022992D01*
X0247849Y0022890D01*
X0247741Y0022791D01*
X0247630Y0022694D01*
X0247517Y0022601D01*
X0247402Y0022511D01*
X0247284Y0022424D01*
X0247164Y0022340D01*
X0247041Y0022259D01*
X0246917Y0022182D01*
X0246790Y0022108D01*
X0246661Y0022038D01*
X0246531Y0021971D01*
X0246399Y0021907D01*
X0246265Y0021848D01*
X0246130Y0021791D01*
X0245993Y0021739D01*
X0245854Y0021690D01*
X0245715Y0021645D01*
X0245574Y0021604D01*
X0245432Y0021567D01*
X0245290Y0021534D01*
X0245146Y0021504D01*
X0245002Y0021478D01*
X0244857Y0021457D01*
X0244711Y0021439D01*
X0244565Y0021425D01*
X0244419Y0021415D01*
X0244273Y0021409D01*
X0244126Y0021407D01*
X0243979Y0021409D01*
X0243833Y0021415D01*
X0243687Y0021425D01*
X0243541Y0021439D01*
X0243395Y0021457D01*
X0243250Y0021478D01*
X0243106Y0021504D01*
X0242962Y0021534D01*
X0242820Y0021567D01*
X0242678Y0021604D01*
X0242537Y0021645D01*
X0242398Y0021690D01*
X0242259Y0021739D01*
X0242122Y0021791D01*
X0241987Y0021848D01*
X0241853Y0021907D01*
X0241721Y0021971D01*
X0241591Y0022038D01*
X0241462Y0022108D01*
X0241335Y0022182D01*
X0241211Y0022259D01*
X0241088Y0022340D01*
X0240968Y0022424D01*
X0240850Y0022511D01*
X0240735Y0022601D01*
X0240622Y0022694D01*
X0240511Y0022791D01*
X0240403Y0022890D01*
X0240298Y0022992D01*
X0240196Y0023097D01*
X0240097Y0023205D01*
X0240000Y0023316D01*
X0239907Y0023429D01*
X0239817Y0023544D01*
X0239730Y0023662D01*
X0239646Y0023782D01*
X0239565Y0023905D01*
X0239488Y0024029D01*
X0239414Y0024156D01*
X0239344Y0024285D01*
X0239277Y0024415D01*
X0239213Y0024547D01*
X0239154Y0024681D01*
X0239097Y0024816D01*
X0239045Y0024953D01*
X0238996Y0025092D01*
X0238951Y0025231D01*
X0238910Y0025372D01*
X0238873Y0025514D01*
X0238840Y0025656D01*
X0238810Y0025800D01*
X0238784Y0025944D01*
X0238763Y0026089D01*
X0238745Y0026235D01*
X0238731Y0026381D01*
X0238721Y0026527D01*
X0238715Y0026673D01*
X0238713Y0026820D01*
D11*
X0204706Y0037614D02*
X0204706Y0037948D01*
X0204706Y0037781D02*
X0203206Y0037781D01*
X0203206Y0037614D02*
X0203206Y0037948D01*
X0203539Y0038513D02*
X0204373Y0038513D01*
X0204408Y0038515D01*
X0204442Y0038520D01*
X0204476Y0038529D01*
X0204508Y0038542D01*
X0204539Y0038558D01*
X0204569Y0038577D01*
X0204596Y0038599D01*
X0204620Y0038623D01*
X0204642Y0038650D01*
X0204661Y0038679D01*
X0204677Y0038711D01*
X0204690Y0038743D01*
X0204699Y0038777D01*
X0204704Y0038811D01*
X0204706Y0038846D01*
X0204706Y0039179D01*
X0204373Y0039800D02*
X0204338Y0039802D01*
X0204304Y0039807D01*
X0204270Y0039816D01*
X0204238Y0039829D01*
X0204207Y0039845D01*
X0204177Y0039864D01*
X0204150Y0039886D01*
X0204126Y0039910D01*
X0204104Y0039937D01*
X0204085Y0039967D01*
X0204069Y0039998D01*
X0204056Y0040030D01*
X0204047Y0040064D01*
X0204042Y0040098D01*
X0204040Y0040133D01*
X0204042Y0040168D01*
X0204047Y0040202D01*
X0204056Y0040236D01*
X0204069Y0040268D01*
X0204085Y0040300D01*
X0204104Y0040329D01*
X0204126Y0040356D01*
X0204150Y0040380D01*
X0204177Y0040402D01*
X0204207Y0040421D01*
X0204238Y0040437D01*
X0204270Y0040450D01*
X0204304Y0040459D01*
X0204338Y0040464D01*
X0204373Y0040466D01*
X0204408Y0040464D01*
X0204442Y0040459D01*
X0204476Y0040450D01*
X0204508Y0040437D01*
X0204540Y0040421D01*
X0204569Y0040402D01*
X0204596Y0040380D01*
X0204620Y0040356D01*
X0204642Y0040329D01*
X0204661Y0040300D01*
X0204677Y0040268D01*
X0204690Y0040236D01*
X0204699Y0040202D01*
X0204704Y0040168D01*
X0204706Y0040133D01*
X0204704Y0040098D01*
X0204699Y0040064D01*
X0204690Y0040030D01*
X0204677Y0039998D01*
X0204661Y0039967D01*
X0204642Y0039937D01*
X0204620Y0039910D01*
X0204596Y0039886D01*
X0204569Y0039864D01*
X0204540Y0039845D01*
X0204508Y0039829D01*
X0204476Y0039816D01*
X0204442Y0039807D01*
X0204408Y0039802D01*
X0204373Y0039800D01*
X0203623Y0039716D02*
X0203583Y0039718D01*
X0203544Y0039724D01*
X0203506Y0039733D01*
X0203468Y0039746D01*
X0203432Y0039762D01*
X0203398Y0039782D01*
X0203365Y0039805D01*
X0203335Y0039831D01*
X0203308Y0039860D01*
X0203283Y0039891D01*
X0203262Y0039925D01*
X0203244Y0039960D01*
X0203229Y0039997D01*
X0203218Y0040035D01*
X0203210Y0040074D01*
X0203206Y0040113D01*
X0203206Y0040153D01*
X0203210Y0040192D01*
X0203218Y0040231D01*
X0203229Y0040269D01*
X0203244Y0040306D01*
X0203262Y0040342D01*
X0203283Y0040375D01*
X0203308Y0040406D01*
X0203335Y0040435D01*
X0203365Y0040461D01*
X0203398Y0040484D01*
X0203432Y0040504D01*
X0203468Y0040520D01*
X0203506Y0040533D01*
X0203544Y0040542D01*
X0203583Y0040548D01*
X0203623Y0040550D01*
X0203663Y0040548D01*
X0203702Y0040542D01*
X0203740Y0040533D01*
X0203778Y0040520D01*
X0203814Y0040504D01*
X0203848Y0040484D01*
X0203881Y0040461D01*
X0203911Y0040435D01*
X0203938Y0040406D01*
X0203963Y0040375D01*
X0203984Y0040342D01*
X0204002Y0040306D01*
X0204017Y0040269D01*
X0204028Y0040231D01*
X0204036Y0040192D01*
X0204040Y0040153D01*
X0204040Y0040113D01*
X0204036Y0040074D01*
X0204028Y0040035D01*
X0204017Y0039997D01*
X0204002Y0039960D01*
X0203984Y0039925D01*
X0203963Y0039891D01*
X0203938Y0039860D01*
X0203911Y0039831D01*
X0203881Y0039805D01*
X0203848Y0039782D01*
X0203814Y0039762D01*
X0203778Y0039746D01*
X0203740Y0039733D01*
X0203702Y0039724D01*
X0203663Y0039718D01*
X0203623Y0039716D01*
X0203206Y0039179D02*
X0203206Y0038846D01*
X0203208Y0038811D01*
X0203213Y0038777D01*
X0203222Y0038743D01*
X0203235Y0038711D01*
X0203251Y0038680D01*
X0203270Y0038650D01*
X0203292Y0038623D01*
X0203316Y0038599D01*
X0203343Y0038577D01*
X0203373Y0038558D01*
X0203404Y0038542D01*
X0203436Y0038529D01*
X0203470Y0038520D01*
X0203504Y0038515D01*
X0203539Y0038513D01*
X0220922Y0063205D02*
X0220922Y0063538D01*
X0220922Y0063371D02*
X0222422Y0063371D01*
X0222422Y0063205D02*
X0222422Y0063538D01*
X0222089Y0064103D02*
X0221256Y0064103D01*
X0221221Y0064105D01*
X0221187Y0064110D01*
X0221153Y0064119D01*
X0221121Y0064132D01*
X0221090Y0064148D01*
X0221060Y0064167D01*
X0221033Y0064189D01*
X0221009Y0064213D01*
X0220987Y0064240D01*
X0220968Y0064270D01*
X0220952Y0064301D01*
X0220939Y0064333D01*
X0220930Y0064367D01*
X0220925Y0064401D01*
X0220923Y0064436D01*
X0220922Y0064436D02*
X0220922Y0064770D01*
X0220922Y0065307D02*
X0220922Y0065807D01*
X0220923Y0065807D02*
X0220925Y0065842D01*
X0220930Y0065876D01*
X0220939Y0065910D01*
X0220952Y0065942D01*
X0220968Y0065974D01*
X0220987Y0066003D01*
X0221009Y0066030D01*
X0221033Y0066054D01*
X0221060Y0066076D01*
X0221090Y0066095D01*
X0221121Y0066111D01*
X0221153Y0066124D01*
X0221187Y0066133D01*
X0221221Y0066138D01*
X0221256Y0066140D01*
X0221422Y0066140D01*
X0221457Y0066138D01*
X0221491Y0066133D01*
X0221525Y0066124D01*
X0221557Y0066111D01*
X0221589Y0066095D01*
X0221618Y0066076D01*
X0221645Y0066054D01*
X0221669Y0066030D01*
X0221691Y0066003D01*
X0221710Y0065974D01*
X0221726Y0065942D01*
X0221739Y0065910D01*
X0221748Y0065876D01*
X0221753Y0065842D01*
X0221755Y0065807D01*
X0221756Y0065807D02*
X0221756Y0065307D01*
X0222422Y0065307D01*
X0222422Y0066140D01*
X0222422Y0064770D02*
X0222422Y0064436D01*
X0222420Y0064401D01*
X0222415Y0064367D01*
X0222406Y0064333D01*
X0222393Y0064301D01*
X0222377Y0064269D01*
X0222358Y0064240D01*
X0222336Y0064213D01*
X0222312Y0064189D01*
X0222285Y0064167D01*
X0222255Y0064148D01*
X0222224Y0064132D01*
X0222192Y0064119D01*
X0222158Y0064110D01*
X0222124Y0064105D01*
X0222089Y0064103D01*
X0221538Y0095768D02*
X0221538Y0096101D01*
X0221538Y0095934D02*
X0223038Y0095934D01*
X0223038Y0095768D02*
X0223038Y0096101D01*
X0222705Y0096666D02*
X0221872Y0096666D01*
X0221837Y0096668D01*
X0221803Y0096673D01*
X0221769Y0096682D01*
X0221737Y0096695D01*
X0221706Y0096711D01*
X0221676Y0096730D01*
X0221649Y0096752D01*
X0221625Y0096776D01*
X0221603Y0096803D01*
X0221584Y0096833D01*
X0221568Y0096864D01*
X0221555Y0096896D01*
X0221546Y0096930D01*
X0221541Y0096964D01*
X0221539Y0096999D01*
X0221538Y0096999D02*
X0221538Y0097333D01*
X0221538Y0098036D02*
X0221540Y0098086D01*
X0221545Y0098135D01*
X0221555Y0098184D01*
X0221568Y0098233D01*
X0221584Y0098280D01*
X0221604Y0098325D01*
X0221627Y0098370D01*
X0221654Y0098412D01*
X0221684Y0098452D01*
X0221716Y0098490D01*
X0221751Y0098525D01*
X0221789Y0098557D01*
X0221829Y0098587D01*
X0221872Y0098614D01*
X0221916Y0098637D01*
X0221961Y0098657D01*
X0222008Y0098673D01*
X0222057Y0098686D01*
X0222106Y0098696D01*
X0222155Y0098701D01*
X0222205Y0098703D01*
X0222622Y0098703D01*
X0222662Y0098701D01*
X0222701Y0098695D01*
X0222739Y0098686D01*
X0222777Y0098673D01*
X0222813Y0098657D01*
X0222847Y0098637D01*
X0222880Y0098614D01*
X0222910Y0098588D01*
X0222937Y0098559D01*
X0222962Y0098528D01*
X0222983Y0098495D01*
X0223001Y0098459D01*
X0223016Y0098422D01*
X0223027Y0098384D01*
X0223035Y0098345D01*
X0223039Y0098306D01*
X0223039Y0098266D01*
X0223035Y0098227D01*
X0223027Y0098188D01*
X0223016Y0098150D01*
X0223001Y0098113D01*
X0222983Y0098078D01*
X0222962Y0098044D01*
X0222937Y0098013D01*
X0222910Y0097984D01*
X0222880Y0097958D01*
X0222847Y0097935D01*
X0222813Y0097915D01*
X0222777Y0097899D01*
X0222739Y0097886D01*
X0222701Y0097877D01*
X0222662Y0097871D01*
X0222622Y0097869D01*
X0222622Y0097870D02*
X0222538Y0097870D01*
X0222503Y0097872D01*
X0222469Y0097877D01*
X0222435Y0097886D01*
X0222403Y0097899D01*
X0222372Y0097915D01*
X0222342Y0097934D01*
X0222315Y0097956D01*
X0222291Y0097980D01*
X0222269Y0098007D01*
X0222250Y0098037D01*
X0222234Y0098068D01*
X0222221Y0098100D01*
X0222212Y0098134D01*
X0222207Y0098168D01*
X0222205Y0098203D01*
X0222205Y0098703D01*
X0223038Y0097333D02*
X0223038Y0096999D01*
X0223036Y0096964D01*
X0223031Y0096930D01*
X0223022Y0096896D01*
X0223009Y0096864D01*
X0222993Y0096832D01*
X0222974Y0096803D01*
X0222952Y0096776D01*
X0222928Y0096752D01*
X0222901Y0096730D01*
X0222871Y0096711D01*
X0222840Y0096695D01*
X0222808Y0096682D01*
X0222774Y0096673D01*
X0222740Y0096668D01*
X0222705Y0096666D01*
X0093485Y0083523D02*
X0093485Y0083023D01*
X0093485Y0082486D02*
X0093485Y0082153D01*
X0093483Y0082118D01*
X0093478Y0082084D01*
X0093469Y0082050D01*
X0093456Y0082018D01*
X0093440Y0081986D01*
X0093421Y0081957D01*
X0093399Y0081930D01*
X0093375Y0081906D01*
X0093348Y0081884D01*
X0093318Y0081865D01*
X0093287Y0081849D01*
X0093255Y0081836D01*
X0093221Y0081827D01*
X0093187Y0081822D01*
X0093152Y0081820D01*
X0092319Y0081820D01*
X0092284Y0081822D01*
X0092250Y0081827D01*
X0092216Y0081836D01*
X0092184Y0081849D01*
X0092153Y0081865D01*
X0092123Y0081884D01*
X0092096Y0081906D01*
X0092072Y0081930D01*
X0092050Y0081957D01*
X0092031Y0081987D01*
X0092015Y0082018D01*
X0092002Y0082050D01*
X0091993Y0082084D01*
X0091988Y0082118D01*
X0091986Y0082153D01*
X0091985Y0082153D02*
X0091985Y0082486D01*
X0091985Y0083023D02*
X0091985Y0083440D01*
X0091987Y0083480D01*
X0091993Y0083519D01*
X0092002Y0083557D01*
X0092015Y0083595D01*
X0092031Y0083631D01*
X0092051Y0083665D01*
X0092074Y0083698D01*
X0092100Y0083728D01*
X0092129Y0083755D01*
X0092160Y0083780D01*
X0092194Y0083801D01*
X0092229Y0083819D01*
X0092266Y0083834D01*
X0092304Y0083845D01*
X0092343Y0083853D01*
X0092382Y0083857D01*
X0092422Y0083857D01*
X0092461Y0083853D01*
X0092500Y0083845D01*
X0092538Y0083834D01*
X0092575Y0083819D01*
X0092611Y0083801D01*
X0092644Y0083780D01*
X0092675Y0083755D01*
X0092704Y0083728D01*
X0092730Y0083698D01*
X0092753Y0083665D01*
X0092773Y0083631D01*
X0092789Y0083595D01*
X0092802Y0083557D01*
X0092811Y0083519D01*
X0092817Y0083480D01*
X0092819Y0083440D01*
X0092819Y0083523D02*
X0092819Y0083190D01*
X0092819Y0083523D02*
X0092821Y0083558D01*
X0092826Y0083592D01*
X0092835Y0083626D01*
X0092848Y0083658D01*
X0092864Y0083690D01*
X0092883Y0083719D01*
X0092905Y0083746D01*
X0092929Y0083770D01*
X0092956Y0083792D01*
X0092986Y0083811D01*
X0093017Y0083827D01*
X0093049Y0083840D01*
X0093083Y0083849D01*
X0093117Y0083854D01*
X0093152Y0083856D01*
X0093187Y0083854D01*
X0093221Y0083849D01*
X0093255Y0083840D01*
X0093287Y0083827D01*
X0093319Y0083811D01*
X0093348Y0083792D01*
X0093375Y0083770D01*
X0093399Y0083746D01*
X0093421Y0083719D01*
X0093440Y0083690D01*
X0093456Y0083658D01*
X0093469Y0083626D01*
X0093478Y0083592D01*
X0093483Y0083558D01*
X0093485Y0083523D01*
X0093485Y0081255D02*
X0093485Y0080921D01*
X0093485Y0081088D02*
X0091985Y0081088D01*
X0091985Y0080921D02*
X0091985Y0081255D01*
X0049194Y0081016D02*
X0047694Y0081016D01*
X0047694Y0081432D02*
X0047694Y0080599D01*
X0047694Y0080062D02*
X0047694Y0079729D01*
X0047696Y0079694D01*
X0047701Y0079660D01*
X0047710Y0079626D01*
X0047723Y0079594D01*
X0047739Y0079563D01*
X0047758Y0079533D01*
X0047780Y0079506D01*
X0047804Y0079482D01*
X0047831Y0079460D01*
X0047861Y0079441D01*
X0047892Y0079425D01*
X0047924Y0079412D01*
X0047958Y0079403D01*
X0047992Y0079398D01*
X0048027Y0079396D01*
X0048027Y0079395D02*
X0048861Y0079395D01*
X0048861Y0079396D02*
X0048896Y0079398D01*
X0048930Y0079403D01*
X0048964Y0079412D01*
X0048996Y0079425D01*
X0049027Y0079441D01*
X0049057Y0079460D01*
X0049084Y0079482D01*
X0049108Y0079506D01*
X0049130Y0079533D01*
X0049149Y0079562D01*
X0049165Y0079594D01*
X0049178Y0079626D01*
X0049187Y0079660D01*
X0049192Y0079694D01*
X0049194Y0079729D01*
X0049194Y0080062D01*
X0048861Y0080599D02*
X0049194Y0081016D01*
X0049194Y0082039D02*
X0049194Y0082872D01*
X0047694Y0082456D01*
X0049027Y0082039D02*
X0049194Y0082039D01*
X0034062Y0081723D02*
X0034062Y0081223D01*
X0034062Y0080686D02*
X0034062Y0080353D01*
X0034061Y0080353D02*
X0034059Y0080318D01*
X0034054Y0080284D01*
X0034045Y0080250D01*
X0034032Y0080218D01*
X0034016Y0080186D01*
X0033997Y0080157D01*
X0033975Y0080130D01*
X0033951Y0080106D01*
X0033924Y0080084D01*
X0033894Y0080065D01*
X0033863Y0080049D01*
X0033831Y0080036D01*
X0033797Y0080027D01*
X0033763Y0080022D01*
X0033728Y0080020D01*
X0032895Y0080020D01*
X0032860Y0080022D01*
X0032826Y0080027D01*
X0032792Y0080036D01*
X0032760Y0080049D01*
X0032729Y0080065D01*
X0032699Y0080084D01*
X0032672Y0080106D01*
X0032648Y0080130D01*
X0032626Y0080157D01*
X0032607Y0080187D01*
X0032591Y0080218D01*
X0032578Y0080250D01*
X0032569Y0080284D01*
X0032564Y0080318D01*
X0032562Y0080353D01*
X0032562Y0080686D01*
X0032562Y0081223D02*
X0032562Y0081640D01*
X0032561Y0081640D02*
X0032563Y0081680D01*
X0032569Y0081719D01*
X0032578Y0081757D01*
X0032591Y0081795D01*
X0032607Y0081831D01*
X0032627Y0081865D01*
X0032650Y0081898D01*
X0032676Y0081928D01*
X0032705Y0081955D01*
X0032736Y0081980D01*
X0032770Y0082001D01*
X0032805Y0082019D01*
X0032842Y0082034D01*
X0032880Y0082045D01*
X0032919Y0082053D01*
X0032958Y0082057D01*
X0032998Y0082057D01*
X0033037Y0082053D01*
X0033076Y0082045D01*
X0033114Y0082034D01*
X0033151Y0082019D01*
X0033187Y0082001D01*
X0033220Y0081980D01*
X0033251Y0081955D01*
X0033280Y0081928D01*
X0033306Y0081898D01*
X0033329Y0081865D01*
X0033349Y0081831D01*
X0033365Y0081795D01*
X0033378Y0081757D01*
X0033387Y0081719D01*
X0033393Y0081680D01*
X0033395Y0081640D01*
X0033395Y0081723D02*
X0033395Y0081390D01*
X0033395Y0081723D02*
X0033397Y0081758D01*
X0033402Y0081792D01*
X0033411Y0081826D01*
X0033424Y0081858D01*
X0033440Y0081890D01*
X0033459Y0081919D01*
X0033481Y0081946D01*
X0033505Y0081970D01*
X0033532Y0081992D01*
X0033562Y0082011D01*
X0033593Y0082027D01*
X0033625Y0082040D01*
X0033659Y0082049D01*
X0033693Y0082054D01*
X0033728Y0082056D01*
X0033763Y0082054D01*
X0033797Y0082049D01*
X0033831Y0082040D01*
X0033863Y0082027D01*
X0033895Y0082011D01*
X0033924Y0081992D01*
X0033951Y0081970D01*
X0033975Y0081946D01*
X0033997Y0081919D01*
X0034016Y0081890D01*
X0034032Y0081858D01*
X0034045Y0081826D01*
X0034054Y0081792D01*
X0034059Y0081758D01*
X0034061Y0081723D01*
X0034430Y0072046D02*
X0034430Y0071212D01*
X0033764Y0071212D01*
X0033764Y0071712D01*
X0033763Y0071712D02*
X0033761Y0071747D01*
X0033756Y0071781D01*
X0033747Y0071815D01*
X0033734Y0071847D01*
X0033718Y0071879D01*
X0033699Y0071908D01*
X0033677Y0071935D01*
X0033653Y0071959D01*
X0033626Y0071981D01*
X0033597Y0072000D01*
X0033565Y0072016D01*
X0033533Y0072029D01*
X0033499Y0072038D01*
X0033465Y0072043D01*
X0033430Y0072045D01*
X0033430Y0072046D02*
X0033264Y0072046D01*
X0033264Y0072045D02*
X0033229Y0072043D01*
X0033195Y0072038D01*
X0033161Y0072029D01*
X0033129Y0072016D01*
X0033098Y0072000D01*
X0033068Y0071981D01*
X0033041Y0071959D01*
X0033017Y0071935D01*
X0032995Y0071908D01*
X0032976Y0071879D01*
X0032960Y0071847D01*
X0032947Y0071815D01*
X0032938Y0071781D01*
X0032933Y0071747D01*
X0032931Y0071712D01*
X0032930Y0071712D02*
X0032930Y0071212D01*
X0032930Y0070675D02*
X0032930Y0070342D01*
X0032931Y0070342D02*
X0032933Y0070307D01*
X0032938Y0070273D01*
X0032947Y0070239D01*
X0032960Y0070207D01*
X0032976Y0070176D01*
X0032995Y0070146D01*
X0033017Y0070119D01*
X0033041Y0070095D01*
X0033068Y0070073D01*
X0033098Y0070054D01*
X0033129Y0070038D01*
X0033161Y0070025D01*
X0033195Y0070016D01*
X0033229Y0070011D01*
X0033264Y0070009D01*
X0034097Y0070009D01*
X0034132Y0070011D01*
X0034166Y0070016D01*
X0034200Y0070025D01*
X0034232Y0070038D01*
X0034263Y0070054D01*
X0034293Y0070073D01*
X0034320Y0070095D01*
X0034344Y0070119D01*
X0034366Y0070146D01*
X0034385Y0070175D01*
X0034401Y0070207D01*
X0034414Y0070239D01*
X0034423Y0070273D01*
X0034428Y0070307D01*
X0034430Y0070342D01*
X0034430Y0070675D01*
X0034014Y0064172D02*
X0033597Y0064172D01*
X0033597Y0063672D01*
X0033597Y0064172D02*
X0033547Y0064170D01*
X0033498Y0064165D01*
X0033449Y0064155D01*
X0033400Y0064142D01*
X0033353Y0064126D01*
X0033308Y0064106D01*
X0033264Y0064083D01*
X0033221Y0064056D01*
X0033181Y0064026D01*
X0033143Y0063994D01*
X0033108Y0063959D01*
X0033076Y0063921D01*
X0033046Y0063881D01*
X0033019Y0063839D01*
X0032996Y0063794D01*
X0032976Y0063749D01*
X0032960Y0063702D01*
X0032947Y0063653D01*
X0032937Y0063604D01*
X0032932Y0063555D01*
X0032930Y0063505D01*
X0032930Y0062732D02*
X0032930Y0061898D01*
X0032930Y0062315D02*
X0034430Y0062315D01*
X0034097Y0061898D01*
X0034430Y0061361D02*
X0034430Y0061028D01*
X0034428Y0060993D01*
X0034423Y0060959D01*
X0034414Y0060925D01*
X0034401Y0060893D01*
X0034385Y0060861D01*
X0034366Y0060832D01*
X0034344Y0060805D01*
X0034320Y0060781D01*
X0034293Y0060759D01*
X0034263Y0060740D01*
X0034232Y0060724D01*
X0034200Y0060711D01*
X0034166Y0060702D01*
X0034132Y0060697D01*
X0034097Y0060695D01*
X0033264Y0060695D01*
X0033229Y0060697D01*
X0033195Y0060702D01*
X0033161Y0060711D01*
X0033129Y0060724D01*
X0033098Y0060740D01*
X0033068Y0060759D01*
X0033041Y0060781D01*
X0033017Y0060805D01*
X0032995Y0060832D01*
X0032976Y0060862D01*
X0032960Y0060893D01*
X0032947Y0060925D01*
X0032938Y0060959D01*
X0032933Y0060993D01*
X0032931Y0061028D01*
X0032930Y0061028D02*
X0032930Y0061361D01*
X0033930Y0063338D02*
X0034014Y0063338D01*
X0033930Y0063339D02*
X0033895Y0063341D01*
X0033861Y0063346D01*
X0033827Y0063355D01*
X0033795Y0063368D01*
X0033764Y0063384D01*
X0033734Y0063403D01*
X0033707Y0063425D01*
X0033683Y0063449D01*
X0033661Y0063476D01*
X0033642Y0063506D01*
X0033626Y0063537D01*
X0033613Y0063569D01*
X0033604Y0063603D01*
X0033599Y0063637D01*
X0033597Y0063672D01*
X0034014Y0063338D02*
X0034054Y0063340D01*
X0034093Y0063346D01*
X0034131Y0063355D01*
X0034169Y0063368D01*
X0034205Y0063384D01*
X0034239Y0063404D01*
X0034272Y0063427D01*
X0034302Y0063453D01*
X0034329Y0063482D01*
X0034354Y0063513D01*
X0034375Y0063547D01*
X0034393Y0063582D01*
X0034408Y0063619D01*
X0034419Y0063657D01*
X0034427Y0063696D01*
X0034431Y0063735D01*
X0034431Y0063775D01*
X0034427Y0063814D01*
X0034419Y0063853D01*
X0034408Y0063891D01*
X0034393Y0063928D01*
X0034375Y0063964D01*
X0034354Y0063997D01*
X0034329Y0064028D01*
X0034302Y0064057D01*
X0034272Y0064083D01*
X0034239Y0064106D01*
X0034205Y0064126D01*
X0034169Y0064142D01*
X0034131Y0064155D01*
X0034093Y0064164D01*
X0034054Y0064170D01*
X0034014Y0064172D01*
X0047694Y0069886D02*
X0047694Y0070220D01*
X0047694Y0069886D02*
X0047696Y0069851D01*
X0047701Y0069817D01*
X0047710Y0069783D01*
X0047723Y0069751D01*
X0047739Y0069720D01*
X0047758Y0069690D01*
X0047780Y0069663D01*
X0047804Y0069639D01*
X0047831Y0069617D01*
X0047861Y0069598D01*
X0047892Y0069582D01*
X0047924Y0069569D01*
X0047958Y0069560D01*
X0047992Y0069555D01*
X0048027Y0069553D01*
X0048861Y0069553D01*
X0048896Y0069555D01*
X0048930Y0069560D01*
X0048964Y0069569D01*
X0048996Y0069582D01*
X0049027Y0069598D01*
X0049057Y0069617D01*
X0049084Y0069639D01*
X0049108Y0069663D01*
X0049130Y0069690D01*
X0049149Y0069719D01*
X0049165Y0069751D01*
X0049178Y0069783D01*
X0049187Y0069817D01*
X0049192Y0069851D01*
X0049194Y0069886D01*
X0049194Y0070220D01*
X0048861Y0070757D02*
X0049194Y0071173D01*
X0047694Y0071173D01*
X0047694Y0070757D02*
X0047694Y0071590D01*
X0048111Y0072197D02*
X0048527Y0072197D01*
X0048527Y0072697D01*
X0048527Y0072196D02*
X0048577Y0072198D01*
X0048626Y0072203D01*
X0048675Y0072213D01*
X0048724Y0072226D01*
X0048771Y0072242D01*
X0048816Y0072262D01*
X0048860Y0072285D01*
X0048903Y0072312D01*
X0048943Y0072342D01*
X0048981Y0072374D01*
X0049016Y0072409D01*
X0049048Y0072447D01*
X0049078Y0072487D01*
X0049105Y0072529D01*
X0049128Y0072574D01*
X0049148Y0072619D01*
X0049164Y0072666D01*
X0049177Y0072715D01*
X0049187Y0072764D01*
X0049192Y0072813D01*
X0049194Y0072863D01*
X0048527Y0072697D02*
X0048525Y0072732D01*
X0048520Y0072766D01*
X0048511Y0072800D01*
X0048498Y0072832D01*
X0048482Y0072864D01*
X0048463Y0072893D01*
X0048441Y0072920D01*
X0048417Y0072944D01*
X0048390Y0072966D01*
X0048361Y0072985D01*
X0048329Y0073001D01*
X0048297Y0073014D01*
X0048263Y0073023D01*
X0048229Y0073028D01*
X0048194Y0073030D01*
X0048111Y0073030D01*
X0048071Y0073028D01*
X0048032Y0073022D01*
X0047994Y0073013D01*
X0047956Y0073000D01*
X0047920Y0072984D01*
X0047886Y0072964D01*
X0047853Y0072941D01*
X0047823Y0072915D01*
X0047796Y0072886D01*
X0047771Y0072855D01*
X0047750Y0072822D01*
X0047732Y0072786D01*
X0047717Y0072749D01*
X0047706Y0072711D01*
X0047698Y0072672D01*
X0047694Y0072633D01*
X0047694Y0072593D01*
X0047698Y0072554D01*
X0047706Y0072515D01*
X0047717Y0072477D01*
X0047732Y0072440D01*
X0047750Y0072405D01*
X0047771Y0072371D01*
X0047796Y0072340D01*
X0047823Y0072311D01*
X0047853Y0072285D01*
X0047886Y0072262D01*
X0047920Y0072242D01*
X0047956Y0072226D01*
X0047994Y0072213D01*
X0048032Y0072204D01*
X0048071Y0072198D01*
X0048111Y0072196D01*
X0047694Y0052361D02*
X0047694Y0051527D01*
X0048527Y0052236D01*
X0049194Y0051986D02*
X0049192Y0051946D01*
X0049187Y0051906D01*
X0049179Y0051866D01*
X0049167Y0051827D01*
X0049152Y0051790D01*
X0049134Y0051754D01*
X0049113Y0051719D01*
X0049090Y0051686D01*
X0049063Y0051656D01*
X0049034Y0051628D01*
X0049003Y0051602D01*
X0048970Y0051579D01*
X0048935Y0051559D01*
X0048898Y0051541D01*
X0048860Y0051527D01*
X0048527Y0052236D02*
X0048553Y0052261D01*
X0048582Y0052284D01*
X0048612Y0052304D01*
X0048644Y0052321D01*
X0048677Y0052335D01*
X0048712Y0052346D01*
X0048747Y0052354D01*
X0048783Y0052359D01*
X0048819Y0052361D01*
X0048856Y0052359D01*
X0048892Y0052354D01*
X0048928Y0052345D01*
X0048963Y0052332D01*
X0048996Y0052317D01*
X0049027Y0052298D01*
X0049057Y0052276D01*
X0049084Y0052251D01*
X0049109Y0052224D01*
X0049131Y0052194D01*
X0049150Y0052163D01*
X0049165Y0052130D01*
X0049178Y0052095D01*
X0049187Y0052059D01*
X0049192Y0052023D01*
X0049194Y0051986D01*
X0049194Y0050990D02*
X0049194Y0050657D01*
X0049192Y0050622D01*
X0049187Y0050588D01*
X0049178Y0050554D01*
X0049165Y0050522D01*
X0049149Y0050490D01*
X0049130Y0050461D01*
X0049108Y0050434D01*
X0049084Y0050410D01*
X0049057Y0050388D01*
X0049027Y0050369D01*
X0048996Y0050353D01*
X0048964Y0050340D01*
X0048930Y0050331D01*
X0048896Y0050326D01*
X0048861Y0050324D01*
X0048027Y0050324D01*
X0047992Y0050326D01*
X0047958Y0050331D01*
X0047924Y0050340D01*
X0047892Y0050353D01*
X0047861Y0050369D01*
X0047831Y0050388D01*
X0047804Y0050410D01*
X0047780Y0050434D01*
X0047758Y0050461D01*
X0047739Y0050491D01*
X0047723Y0050522D01*
X0047710Y0050554D01*
X0047701Y0050588D01*
X0047696Y0050622D01*
X0047694Y0050657D01*
X0047694Y0050990D01*
X0034430Y0050990D02*
X0034430Y0050657D01*
X0034428Y0050622D01*
X0034423Y0050588D01*
X0034414Y0050554D01*
X0034401Y0050522D01*
X0034385Y0050490D01*
X0034366Y0050461D01*
X0034344Y0050434D01*
X0034320Y0050410D01*
X0034293Y0050388D01*
X0034263Y0050369D01*
X0034232Y0050353D01*
X0034200Y0050340D01*
X0034166Y0050331D01*
X0034132Y0050326D01*
X0034097Y0050324D01*
X0033264Y0050324D01*
X0033229Y0050326D01*
X0033195Y0050331D01*
X0033161Y0050340D01*
X0033129Y0050353D01*
X0033098Y0050369D01*
X0033068Y0050388D01*
X0033041Y0050410D01*
X0033017Y0050434D01*
X0032995Y0050461D01*
X0032976Y0050491D01*
X0032960Y0050522D01*
X0032947Y0050554D01*
X0032938Y0050588D01*
X0032933Y0050622D01*
X0032931Y0050657D01*
X0032930Y0050657D02*
X0032930Y0050990D01*
X0033264Y0051527D02*
X0033264Y0052361D01*
X0033597Y0052111D02*
X0032930Y0052111D01*
X0033264Y0051527D02*
X0034430Y0051861D01*
D12*
X0102394Y0033710D02*
X0103378Y0032726D01*
X0156528Y0032726D01*
X0157512Y0033710D01*
X0157512Y0084891D01*
X0154559Y0087844D01*
X0103378Y0087844D01*
X0102394Y0086859D01*
X0102394Y0033710D01*
X0152591Y0083907D02*
X0152593Y0083969D01*
X0152599Y0084032D01*
X0152609Y0084093D01*
X0152623Y0084154D01*
X0152640Y0084214D01*
X0152661Y0084273D01*
X0152687Y0084330D01*
X0152715Y0084385D01*
X0152747Y0084439D01*
X0152783Y0084490D01*
X0152821Y0084540D01*
X0152863Y0084586D01*
X0152907Y0084630D01*
X0152955Y0084671D01*
X0153004Y0084709D01*
X0153056Y0084743D01*
X0153110Y0084774D01*
X0153166Y0084802D01*
X0153224Y0084826D01*
X0153283Y0084847D01*
X0153343Y0084863D01*
X0153404Y0084876D01*
X0153466Y0084885D01*
X0153528Y0084890D01*
X0153591Y0084891D01*
X0153653Y0084888D01*
X0153715Y0084881D01*
X0153777Y0084870D01*
X0153837Y0084855D01*
X0153897Y0084837D01*
X0153955Y0084815D01*
X0154012Y0084789D01*
X0154067Y0084759D01*
X0154120Y0084726D01*
X0154171Y0084690D01*
X0154219Y0084651D01*
X0154265Y0084608D01*
X0154308Y0084563D01*
X0154348Y0084515D01*
X0154385Y0084465D01*
X0154419Y0084412D01*
X0154450Y0084358D01*
X0154476Y0084302D01*
X0154500Y0084244D01*
X0154519Y0084184D01*
X0154535Y0084124D01*
X0154547Y0084062D01*
X0154555Y0084001D01*
X0154559Y0083938D01*
X0154559Y0083876D01*
X0154555Y0083813D01*
X0154547Y0083752D01*
X0154535Y0083690D01*
X0154519Y0083630D01*
X0154500Y0083570D01*
X0154476Y0083512D01*
X0154450Y0083456D01*
X0154419Y0083402D01*
X0154385Y0083349D01*
X0154348Y0083299D01*
X0154308Y0083251D01*
X0154265Y0083206D01*
X0154219Y0083163D01*
X0154171Y0083124D01*
X0154120Y0083088D01*
X0154067Y0083055D01*
X0154012Y0083025D01*
X0153955Y0082999D01*
X0153897Y0082977D01*
X0153837Y0082959D01*
X0153777Y0082944D01*
X0153715Y0082933D01*
X0153653Y0082926D01*
X0153591Y0082923D01*
X0153528Y0082924D01*
X0153466Y0082929D01*
X0153404Y0082938D01*
X0153343Y0082951D01*
X0153283Y0082967D01*
X0153224Y0082988D01*
X0153166Y0083012D01*
X0153110Y0083040D01*
X0153056Y0083071D01*
X0153004Y0083105D01*
X0152955Y0083143D01*
X0152907Y0083184D01*
X0152863Y0083228D01*
X0152821Y0083274D01*
X0152783Y0083324D01*
X0152747Y0083375D01*
X0152715Y0083429D01*
X0152687Y0083484D01*
X0152661Y0083541D01*
X0152640Y0083600D01*
X0152623Y0083660D01*
X0152609Y0083721D01*
X0152599Y0083782D01*
X0152593Y0083845D01*
X0152591Y0083907D01*
D13*
X0223945Y0087651D02*
X0223945Y0097887D01*
X0223944Y0097887D02*
X0223946Y0097956D01*
X0223952Y0098025D01*
X0223961Y0098094D01*
X0223974Y0098162D01*
X0223991Y0098229D01*
X0224011Y0098296D01*
X0224035Y0098361D01*
X0224062Y0098424D01*
X0224093Y0098487D01*
X0224127Y0098547D01*
X0224165Y0098605D01*
X0224205Y0098662D01*
X0224248Y0098716D01*
X0224295Y0098767D01*
X0224344Y0098816D01*
X0224395Y0098863D01*
X0224449Y0098906D01*
X0224506Y0098946D01*
X0224564Y0098984D01*
X0224624Y0099018D01*
X0224687Y0099049D01*
X0224750Y0099076D01*
X0224815Y0099100D01*
X0224882Y0099120D01*
X0224949Y0099137D01*
X0225017Y0099150D01*
X0225086Y0099159D01*
X0225155Y0099165D01*
X0225224Y0099167D01*
X0235461Y0099167D02*
X0235530Y0099165D01*
X0235599Y0099159D01*
X0235668Y0099150D01*
X0235736Y0099137D01*
X0235803Y0099120D01*
X0235870Y0099100D01*
X0235935Y0099076D01*
X0235998Y0099049D01*
X0236061Y0099018D01*
X0236121Y0098984D01*
X0236179Y0098946D01*
X0236236Y0098906D01*
X0236290Y0098863D01*
X0236341Y0098816D01*
X0236390Y0098767D01*
X0236437Y0098716D01*
X0236480Y0098662D01*
X0236520Y0098605D01*
X0236558Y0098547D01*
X0236592Y0098487D01*
X0236623Y0098424D01*
X0236650Y0098361D01*
X0236674Y0098296D01*
X0236694Y0098229D01*
X0236711Y0098162D01*
X0236724Y0098094D01*
X0236733Y0098025D01*
X0236739Y0097956D01*
X0236741Y0097887D01*
X0236740Y0097887D02*
X0236740Y0087651D01*
X0236741Y0087651D02*
X0236739Y0087582D01*
X0236733Y0087513D01*
X0236724Y0087444D01*
X0236711Y0087376D01*
X0236694Y0087309D01*
X0236674Y0087242D01*
X0236650Y0087177D01*
X0236623Y0087114D01*
X0236592Y0087051D01*
X0236558Y0086991D01*
X0236520Y0086933D01*
X0236480Y0086876D01*
X0236437Y0086822D01*
X0236390Y0086771D01*
X0236341Y0086722D01*
X0236290Y0086675D01*
X0236236Y0086632D01*
X0236179Y0086592D01*
X0236121Y0086554D01*
X0236061Y0086520D01*
X0235998Y0086489D01*
X0235935Y0086462D01*
X0235870Y0086438D01*
X0235803Y0086418D01*
X0235736Y0086401D01*
X0235668Y0086388D01*
X0235599Y0086379D01*
X0235530Y0086373D01*
X0235461Y0086371D01*
X0225224Y0086371D02*
X0225155Y0086373D01*
X0225086Y0086379D01*
X0225017Y0086388D01*
X0224949Y0086401D01*
X0224882Y0086418D01*
X0224815Y0086438D01*
X0224750Y0086462D01*
X0224687Y0086489D01*
X0224624Y0086520D01*
X0224564Y0086554D01*
X0224506Y0086592D01*
X0224449Y0086632D01*
X0224395Y0086675D01*
X0224344Y0086722D01*
X0224295Y0086771D01*
X0224248Y0086822D01*
X0224205Y0086876D01*
X0224165Y0086933D01*
X0224127Y0086991D01*
X0224093Y0087051D01*
X0224062Y0087114D01*
X0224035Y0087177D01*
X0224011Y0087242D01*
X0223991Y0087309D01*
X0223974Y0087376D01*
X0223961Y0087444D01*
X0223952Y0087513D01*
X0223946Y0087582D01*
X0223944Y0087651D01*
X0223945Y0066391D02*
X0223945Y0056155D01*
X0223944Y0056155D02*
X0223946Y0056086D01*
X0223952Y0056017D01*
X0223961Y0055948D01*
X0223974Y0055880D01*
X0223991Y0055813D01*
X0224011Y0055746D01*
X0224035Y0055681D01*
X0224062Y0055618D01*
X0224093Y0055555D01*
X0224127Y0055495D01*
X0224165Y0055437D01*
X0224205Y0055380D01*
X0224248Y0055326D01*
X0224295Y0055275D01*
X0224344Y0055226D01*
X0224395Y0055179D01*
X0224449Y0055136D01*
X0224506Y0055096D01*
X0224564Y0055058D01*
X0224624Y0055024D01*
X0224687Y0054993D01*
X0224750Y0054966D01*
X0224815Y0054942D01*
X0224882Y0054922D01*
X0224949Y0054905D01*
X0225017Y0054892D01*
X0225086Y0054883D01*
X0225155Y0054877D01*
X0225224Y0054875D01*
X0235461Y0054875D02*
X0235530Y0054877D01*
X0235599Y0054883D01*
X0235668Y0054892D01*
X0235736Y0054905D01*
X0235803Y0054922D01*
X0235870Y0054942D01*
X0235935Y0054966D01*
X0235998Y0054993D01*
X0236061Y0055024D01*
X0236121Y0055058D01*
X0236179Y0055096D01*
X0236236Y0055136D01*
X0236290Y0055179D01*
X0236341Y0055226D01*
X0236390Y0055275D01*
X0236437Y0055326D01*
X0236480Y0055380D01*
X0236520Y0055437D01*
X0236558Y0055495D01*
X0236592Y0055555D01*
X0236623Y0055618D01*
X0236650Y0055681D01*
X0236674Y0055746D01*
X0236694Y0055813D01*
X0236711Y0055880D01*
X0236724Y0055948D01*
X0236733Y0056017D01*
X0236739Y0056086D01*
X0236741Y0056155D01*
X0236740Y0056155D02*
X0236740Y0066391D01*
X0236741Y0066391D02*
X0236739Y0066460D01*
X0236733Y0066529D01*
X0236724Y0066598D01*
X0236711Y0066666D01*
X0236694Y0066733D01*
X0236674Y0066800D01*
X0236650Y0066865D01*
X0236623Y0066928D01*
X0236592Y0066991D01*
X0236558Y0067051D01*
X0236520Y0067109D01*
X0236480Y0067166D01*
X0236437Y0067220D01*
X0236390Y0067271D01*
X0236341Y0067320D01*
X0236290Y0067367D01*
X0236236Y0067410D01*
X0236179Y0067450D01*
X0236121Y0067488D01*
X0236061Y0067522D01*
X0235998Y0067553D01*
X0235935Y0067580D01*
X0235870Y0067604D01*
X0235803Y0067624D01*
X0235736Y0067641D01*
X0235668Y0067654D01*
X0235599Y0067663D01*
X0235530Y0067669D01*
X0235461Y0067671D01*
X0225224Y0067671D02*
X0225155Y0067669D01*
X0225086Y0067663D01*
X0225017Y0067654D01*
X0224949Y0067641D01*
X0224882Y0067624D01*
X0224815Y0067604D01*
X0224750Y0067580D01*
X0224687Y0067553D01*
X0224624Y0067522D01*
X0224564Y0067488D01*
X0224506Y0067450D01*
X0224449Y0067410D01*
X0224395Y0067367D01*
X0224344Y0067320D01*
X0224295Y0067271D01*
X0224248Y0067220D01*
X0224205Y0067166D01*
X0224165Y0067109D01*
X0224127Y0067051D01*
X0224093Y0066991D01*
X0224062Y0066928D01*
X0224035Y0066865D01*
X0224011Y0066800D01*
X0223991Y0066733D01*
X0223974Y0066666D01*
X0223961Y0066598D01*
X0223952Y0066529D01*
X0223946Y0066460D01*
X0223944Y0066391D01*
X0219024Y0040800D02*
X0219024Y0030564D01*
X0219022Y0030495D01*
X0219016Y0030426D01*
X0219007Y0030357D01*
X0218994Y0030289D01*
X0218977Y0030222D01*
X0218957Y0030155D01*
X0218933Y0030090D01*
X0218906Y0030027D01*
X0218875Y0029964D01*
X0218841Y0029904D01*
X0218803Y0029846D01*
X0218763Y0029789D01*
X0218720Y0029735D01*
X0218673Y0029684D01*
X0218624Y0029635D01*
X0218573Y0029588D01*
X0218519Y0029545D01*
X0218462Y0029505D01*
X0218404Y0029467D01*
X0218344Y0029433D01*
X0218281Y0029402D01*
X0218218Y0029375D01*
X0218153Y0029351D01*
X0218086Y0029331D01*
X0218019Y0029314D01*
X0217951Y0029301D01*
X0217882Y0029292D01*
X0217813Y0029286D01*
X0217744Y0029284D01*
X0207508Y0029284D02*
X0207439Y0029286D01*
X0207370Y0029292D01*
X0207301Y0029301D01*
X0207233Y0029314D01*
X0207166Y0029331D01*
X0207099Y0029351D01*
X0207034Y0029375D01*
X0206971Y0029402D01*
X0206908Y0029433D01*
X0206848Y0029467D01*
X0206790Y0029505D01*
X0206733Y0029545D01*
X0206679Y0029588D01*
X0206628Y0029635D01*
X0206579Y0029684D01*
X0206532Y0029735D01*
X0206489Y0029789D01*
X0206449Y0029846D01*
X0206411Y0029904D01*
X0206377Y0029964D01*
X0206346Y0030027D01*
X0206319Y0030090D01*
X0206295Y0030155D01*
X0206275Y0030222D01*
X0206258Y0030289D01*
X0206245Y0030357D01*
X0206236Y0030426D01*
X0206230Y0030495D01*
X0206228Y0030564D01*
X0206228Y0040800D01*
X0206230Y0040869D01*
X0206236Y0040938D01*
X0206245Y0041007D01*
X0206258Y0041075D01*
X0206275Y0041142D01*
X0206295Y0041209D01*
X0206319Y0041274D01*
X0206346Y0041337D01*
X0206377Y0041400D01*
X0206411Y0041460D01*
X0206449Y0041518D01*
X0206489Y0041575D01*
X0206532Y0041629D01*
X0206579Y0041680D01*
X0206628Y0041729D01*
X0206679Y0041776D01*
X0206733Y0041819D01*
X0206790Y0041859D01*
X0206848Y0041897D01*
X0206908Y0041931D01*
X0206971Y0041962D01*
X0207034Y0041989D01*
X0207099Y0042013D01*
X0207166Y0042033D01*
X0207233Y0042050D01*
X0207301Y0042063D01*
X0207370Y0042072D01*
X0207439Y0042078D01*
X0207508Y0042080D01*
X0217744Y0042080D02*
X0217813Y0042078D01*
X0217882Y0042072D01*
X0217951Y0042063D01*
X0218019Y0042050D01*
X0218086Y0042033D01*
X0218153Y0042013D01*
X0218218Y0041989D01*
X0218281Y0041962D01*
X0218344Y0041931D01*
X0218404Y0041897D01*
X0218462Y0041859D01*
X0218519Y0041819D01*
X0218573Y0041776D01*
X0218624Y0041729D01*
X0218673Y0041680D01*
X0218720Y0041629D01*
X0218763Y0041575D01*
X0218803Y0041518D01*
X0218841Y0041460D01*
X0218875Y0041400D01*
X0218906Y0041337D01*
X0218933Y0041274D01*
X0218957Y0041209D01*
X0218977Y0041142D01*
X0218994Y0041075D01*
X0219007Y0041007D01*
X0219016Y0040938D01*
X0219022Y0040869D01*
X0219024Y0040800D01*
D14*
X0206938Y0038791D02*
X0206940Y0038879D01*
X0206946Y0038967D01*
X0206956Y0039055D01*
X0206970Y0039143D01*
X0206987Y0039229D01*
X0207009Y0039315D01*
X0207034Y0039399D01*
X0207064Y0039483D01*
X0207096Y0039565D01*
X0207133Y0039645D01*
X0207173Y0039724D01*
X0207217Y0039801D01*
X0207264Y0039876D01*
X0207314Y0039948D01*
X0207368Y0040019D01*
X0207424Y0040086D01*
X0207484Y0040152D01*
X0207546Y0040214D01*
X0207612Y0040274D01*
X0207679Y0040330D01*
X0207750Y0040384D01*
X0207822Y0040434D01*
X0207897Y0040481D01*
X0207974Y0040525D01*
X0208053Y0040565D01*
X0208133Y0040602D01*
X0208215Y0040634D01*
X0208299Y0040664D01*
X0208383Y0040689D01*
X0208469Y0040711D01*
X0208555Y0040728D01*
X0208643Y0040742D01*
X0208731Y0040752D01*
X0208819Y0040758D01*
X0208907Y0040760D01*
X0208995Y0040758D01*
X0209083Y0040752D01*
X0209171Y0040742D01*
X0209259Y0040728D01*
X0209345Y0040711D01*
X0209431Y0040689D01*
X0209515Y0040664D01*
X0209599Y0040634D01*
X0209681Y0040602D01*
X0209761Y0040565D01*
X0209840Y0040525D01*
X0209917Y0040481D01*
X0209992Y0040434D01*
X0210064Y0040384D01*
X0210135Y0040330D01*
X0210202Y0040274D01*
X0210268Y0040214D01*
X0210330Y0040152D01*
X0210390Y0040086D01*
X0210446Y0040019D01*
X0210500Y0039948D01*
X0210550Y0039876D01*
X0210597Y0039801D01*
X0210641Y0039724D01*
X0210681Y0039645D01*
X0210718Y0039565D01*
X0210750Y0039483D01*
X0210780Y0039399D01*
X0210805Y0039315D01*
X0210827Y0039229D01*
X0210844Y0039143D01*
X0210858Y0039055D01*
X0210868Y0038967D01*
X0210874Y0038879D01*
X0210876Y0038791D01*
X0210874Y0038703D01*
X0210868Y0038615D01*
X0210858Y0038527D01*
X0210844Y0038439D01*
X0210827Y0038353D01*
X0210805Y0038267D01*
X0210780Y0038183D01*
X0210750Y0038099D01*
X0210718Y0038017D01*
X0210681Y0037937D01*
X0210641Y0037858D01*
X0210597Y0037781D01*
X0210550Y0037706D01*
X0210500Y0037634D01*
X0210446Y0037563D01*
X0210390Y0037496D01*
X0210330Y0037430D01*
X0210268Y0037368D01*
X0210202Y0037308D01*
X0210135Y0037252D01*
X0210064Y0037198D01*
X0209992Y0037148D01*
X0209917Y0037101D01*
X0209840Y0037057D01*
X0209761Y0037017D01*
X0209681Y0036980D01*
X0209599Y0036948D01*
X0209515Y0036918D01*
X0209431Y0036893D01*
X0209345Y0036871D01*
X0209259Y0036854D01*
X0209171Y0036840D01*
X0209083Y0036830D01*
X0208995Y0036824D01*
X0208907Y0036822D01*
X0208819Y0036824D01*
X0208731Y0036830D01*
X0208643Y0036840D01*
X0208555Y0036854D01*
X0208469Y0036871D01*
X0208383Y0036893D01*
X0208299Y0036918D01*
X0208215Y0036948D01*
X0208133Y0036980D01*
X0208053Y0037017D01*
X0207974Y0037057D01*
X0207897Y0037101D01*
X0207822Y0037148D01*
X0207750Y0037198D01*
X0207679Y0037252D01*
X0207612Y0037308D01*
X0207546Y0037368D01*
X0207484Y0037430D01*
X0207424Y0037496D01*
X0207368Y0037563D01*
X0207314Y0037634D01*
X0207264Y0037706D01*
X0207217Y0037781D01*
X0207173Y0037858D01*
X0207133Y0037937D01*
X0207096Y0038017D01*
X0207064Y0038099D01*
X0207034Y0038183D01*
X0207009Y0038267D01*
X0206987Y0038353D01*
X0206970Y0038439D01*
X0206956Y0038527D01*
X0206946Y0038615D01*
X0206940Y0038703D01*
X0206938Y0038791D01*
X0224655Y0064381D02*
X0224657Y0064469D01*
X0224663Y0064557D01*
X0224673Y0064645D01*
X0224687Y0064733D01*
X0224704Y0064819D01*
X0224726Y0064905D01*
X0224751Y0064989D01*
X0224781Y0065073D01*
X0224813Y0065155D01*
X0224850Y0065235D01*
X0224890Y0065314D01*
X0224934Y0065391D01*
X0224981Y0065466D01*
X0225031Y0065538D01*
X0225085Y0065609D01*
X0225141Y0065676D01*
X0225201Y0065742D01*
X0225263Y0065804D01*
X0225329Y0065864D01*
X0225396Y0065920D01*
X0225467Y0065974D01*
X0225539Y0066024D01*
X0225614Y0066071D01*
X0225691Y0066115D01*
X0225770Y0066155D01*
X0225850Y0066192D01*
X0225932Y0066224D01*
X0226016Y0066254D01*
X0226100Y0066279D01*
X0226186Y0066301D01*
X0226272Y0066318D01*
X0226360Y0066332D01*
X0226448Y0066342D01*
X0226536Y0066348D01*
X0226624Y0066350D01*
X0226712Y0066348D01*
X0226800Y0066342D01*
X0226888Y0066332D01*
X0226976Y0066318D01*
X0227062Y0066301D01*
X0227148Y0066279D01*
X0227232Y0066254D01*
X0227316Y0066224D01*
X0227398Y0066192D01*
X0227478Y0066155D01*
X0227557Y0066115D01*
X0227634Y0066071D01*
X0227709Y0066024D01*
X0227781Y0065974D01*
X0227852Y0065920D01*
X0227919Y0065864D01*
X0227985Y0065804D01*
X0228047Y0065742D01*
X0228107Y0065676D01*
X0228163Y0065609D01*
X0228217Y0065538D01*
X0228267Y0065466D01*
X0228314Y0065391D01*
X0228358Y0065314D01*
X0228398Y0065235D01*
X0228435Y0065155D01*
X0228467Y0065073D01*
X0228497Y0064989D01*
X0228522Y0064905D01*
X0228544Y0064819D01*
X0228561Y0064733D01*
X0228575Y0064645D01*
X0228585Y0064557D01*
X0228591Y0064469D01*
X0228593Y0064381D01*
X0228591Y0064293D01*
X0228585Y0064205D01*
X0228575Y0064117D01*
X0228561Y0064029D01*
X0228544Y0063943D01*
X0228522Y0063857D01*
X0228497Y0063773D01*
X0228467Y0063689D01*
X0228435Y0063607D01*
X0228398Y0063527D01*
X0228358Y0063448D01*
X0228314Y0063371D01*
X0228267Y0063296D01*
X0228217Y0063224D01*
X0228163Y0063153D01*
X0228107Y0063086D01*
X0228047Y0063020D01*
X0227985Y0062958D01*
X0227919Y0062898D01*
X0227852Y0062842D01*
X0227781Y0062788D01*
X0227709Y0062738D01*
X0227634Y0062691D01*
X0227557Y0062647D01*
X0227478Y0062607D01*
X0227398Y0062570D01*
X0227316Y0062538D01*
X0227232Y0062508D01*
X0227148Y0062483D01*
X0227062Y0062461D01*
X0226976Y0062444D01*
X0226888Y0062430D01*
X0226800Y0062420D01*
X0226712Y0062414D01*
X0226624Y0062412D01*
X0226536Y0062414D01*
X0226448Y0062420D01*
X0226360Y0062430D01*
X0226272Y0062444D01*
X0226186Y0062461D01*
X0226100Y0062483D01*
X0226016Y0062508D01*
X0225932Y0062538D01*
X0225850Y0062570D01*
X0225770Y0062607D01*
X0225691Y0062647D01*
X0225614Y0062691D01*
X0225539Y0062738D01*
X0225467Y0062788D01*
X0225396Y0062842D01*
X0225329Y0062898D01*
X0225263Y0062958D01*
X0225201Y0063020D01*
X0225141Y0063086D01*
X0225085Y0063153D01*
X0225031Y0063224D01*
X0224981Y0063296D01*
X0224934Y0063371D01*
X0224890Y0063448D01*
X0224850Y0063527D01*
X0224813Y0063607D01*
X0224781Y0063689D01*
X0224751Y0063773D01*
X0224726Y0063857D01*
X0224704Y0063943D01*
X0224687Y0064029D01*
X0224673Y0064117D01*
X0224663Y0064205D01*
X0224657Y0064293D01*
X0224655Y0064381D01*
X0224655Y0095878D02*
X0224657Y0095966D01*
X0224663Y0096054D01*
X0224673Y0096142D01*
X0224687Y0096230D01*
X0224704Y0096316D01*
X0224726Y0096402D01*
X0224751Y0096486D01*
X0224781Y0096570D01*
X0224813Y0096652D01*
X0224850Y0096732D01*
X0224890Y0096811D01*
X0224934Y0096888D01*
X0224981Y0096963D01*
X0225031Y0097035D01*
X0225085Y0097106D01*
X0225141Y0097173D01*
X0225201Y0097239D01*
X0225263Y0097301D01*
X0225329Y0097361D01*
X0225396Y0097417D01*
X0225467Y0097471D01*
X0225539Y0097521D01*
X0225614Y0097568D01*
X0225691Y0097612D01*
X0225770Y0097652D01*
X0225850Y0097689D01*
X0225932Y0097721D01*
X0226016Y0097751D01*
X0226100Y0097776D01*
X0226186Y0097798D01*
X0226272Y0097815D01*
X0226360Y0097829D01*
X0226448Y0097839D01*
X0226536Y0097845D01*
X0226624Y0097847D01*
X0226712Y0097845D01*
X0226800Y0097839D01*
X0226888Y0097829D01*
X0226976Y0097815D01*
X0227062Y0097798D01*
X0227148Y0097776D01*
X0227232Y0097751D01*
X0227316Y0097721D01*
X0227398Y0097689D01*
X0227478Y0097652D01*
X0227557Y0097612D01*
X0227634Y0097568D01*
X0227709Y0097521D01*
X0227781Y0097471D01*
X0227852Y0097417D01*
X0227919Y0097361D01*
X0227985Y0097301D01*
X0228047Y0097239D01*
X0228107Y0097173D01*
X0228163Y0097106D01*
X0228217Y0097035D01*
X0228267Y0096963D01*
X0228314Y0096888D01*
X0228358Y0096811D01*
X0228398Y0096732D01*
X0228435Y0096652D01*
X0228467Y0096570D01*
X0228497Y0096486D01*
X0228522Y0096402D01*
X0228544Y0096316D01*
X0228561Y0096230D01*
X0228575Y0096142D01*
X0228585Y0096054D01*
X0228591Y0095966D01*
X0228593Y0095878D01*
X0228591Y0095790D01*
X0228585Y0095702D01*
X0228575Y0095614D01*
X0228561Y0095526D01*
X0228544Y0095440D01*
X0228522Y0095354D01*
X0228497Y0095270D01*
X0228467Y0095186D01*
X0228435Y0095104D01*
X0228398Y0095024D01*
X0228358Y0094945D01*
X0228314Y0094868D01*
X0228267Y0094793D01*
X0228217Y0094721D01*
X0228163Y0094650D01*
X0228107Y0094583D01*
X0228047Y0094517D01*
X0227985Y0094455D01*
X0227919Y0094395D01*
X0227852Y0094339D01*
X0227781Y0094285D01*
X0227709Y0094235D01*
X0227634Y0094188D01*
X0227557Y0094144D01*
X0227478Y0094104D01*
X0227398Y0094067D01*
X0227316Y0094035D01*
X0227232Y0094005D01*
X0227148Y0093980D01*
X0227062Y0093958D01*
X0226976Y0093941D01*
X0226888Y0093927D01*
X0226800Y0093917D01*
X0226712Y0093911D01*
X0226624Y0093909D01*
X0226536Y0093911D01*
X0226448Y0093917D01*
X0226360Y0093927D01*
X0226272Y0093941D01*
X0226186Y0093958D01*
X0226100Y0093980D01*
X0226016Y0094005D01*
X0225932Y0094035D01*
X0225850Y0094067D01*
X0225770Y0094104D01*
X0225691Y0094144D01*
X0225614Y0094188D01*
X0225539Y0094235D01*
X0225467Y0094285D01*
X0225396Y0094339D01*
X0225329Y0094395D01*
X0225263Y0094455D01*
X0225201Y0094517D01*
X0225141Y0094583D01*
X0225085Y0094650D01*
X0225031Y0094721D01*
X0224981Y0094793D01*
X0224934Y0094868D01*
X0224890Y0094945D01*
X0224850Y0095024D01*
X0224813Y0095104D01*
X0224781Y0095186D01*
X0224751Y0095270D01*
X0224726Y0095354D01*
X0224704Y0095440D01*
X0224687Y0095526D01*
X0224673Y0095614D01*
X0224663Y0095702D01*
X0224657Y0095790D01*
X0224655Y0095878D01*
M02*
