%
M48
M72
T01C0.01969
T02C0.03740
T03C0.04000
T04C0.10827
%
T01
X197866Y46505
X203772Y49458
X205878Y53257
X214598Y51426
X219520Y48474
X214598Y73080
X214598Y82922
X235268Y74064
X199107Y95718
X195534Y99655
X191961Y103592
X214598Y104576
X234283Y105560
X167354Y88828
X151606Y85875
X173260Y78985
X175228Y68159
X153575Y64222
X141764Y67174
X136843Y67174
X130937Y67174
X126016Y67174
X119126Y61269
X119827Y54938
X108299Y53395
X114205Y45521
X124047Y45521
X137827Y40600
X148654Y40600
X154559Y42568
X168339Y48110
X171291Y44537
X196882Y25836
X141764Y20915
X140780Y16978
X132906Y17962
X126016Y20915
X101409Y22883
X88614Y36663
X81724Y40600
X69913Y37647
X52197Y74064
X116173Y84891
X140780Y98670
T02
X181961Y80048
X191961Y80048
X201961Y80048
X201961Y70048
X191961Y70048
X181961Y70048
T03
X33496Y21584
X226409Y20915
X226409Y30915
X226409Y40915
X244126Y46505
X244126Y56505
X244126Y66505
X244126Y78001
X244126Y88001
X244126Y98001
X224953Y112371
X214953Y112371
X204953Y112371
X194953Y112371
X184953Y112371
X174953Y112371
X164953Y112371
X154953Y112371
X144953Y112371
X134953Y112371
X124953Y112371
X114953Y112371
X104953Y112371
X94953Y112371
X84953Y112371
X74953Y112371
X64953Y112371
X54953Y112371
X44953Y112371
X34953Y112371
X34953Y122371
X44953Y122371
X54953Y122371
X64953Y122371
X74953Y122371
X84953Y122371
X94953Y122371
X104953Y122371
X114953Y122371
X124953Y122371
X134953Y122371
X144953Y122371
X154953Y122371
X164953Y122371
X174953Y122371
X184953Y122371
X194953Y122371
X204953Y122371
X214953Y122371
X224953Y122371
X33496Y41584
X33496Y31584
X10850Y54352
X10850Y64352
X10850Y74352
X10850Y84352
X10858Y98670
X25622Y98670
T04
X15780Y26820
X15780Y117371
X244126Y117371
X244126Y26820
M30
