G75*
%MOIN*%
%OFA0B0*%
%FSLAX25Y25*%
%IPPOS*%
%LPD*%
%AMOC8*
5,1,8,0,0,1.08239X$1,22.5*
%
%ADD10C,0.00000*%
%ADD11OC8,0.06000*%
%ADD12R,0.04724X0.04724*%
%ADD13C,0.02830*%
%ADD14R,0.07874X0.02756*%
%ADD15C,0.00827*%
%ADD16R,0.05512X0.07087*%
%ADD17R,0.01181X0.04724*%
%ADD18OC8,0.10000*%
%ADD19OC8,0.06102*%
%ADD20C,0.07400*%
%ADD21R,0.03937X0.04331*%
%ADD22R,0.04331X0.03937*%
%ADD23R,0.00787X0.04331*%
%ADD24R,0.00787X0.03937*%
%ADD25C,0.01000*%
%ADD26C,0.00600*%
%ADD27C,0.01200*%
%ADD28C,0.03169*%
%ADD29C,0.10000*%
%ADD30C,0.02000*%
%ADD31C,0.01600*%
D10*
X0013811Y0013041D02*
X0246094Y0013041D01*
X0246379Y0013044D01*
X0246665Y0013055D01*
X0246950Y0013072D01*
X0247234Y0013096D01*
X0247518Y0013127D01*
X0247801Y0013165D01*
X0248082Y0013210D01*
X0248363Y0013261D01*
X0248643Y0013319D01*
X0248921Y0013384D01*
X0249197Y0013456D01*
X0249471Y0013534D01*
X0249744Y0013619D01*
X0250014Y0013711D01*
X0250282Y0013809D01*
X0250548Y0013913D01*
X0250811Y0014024D01*
X0251071Y0014141D01*
X0251329Y0014264D01*
X0251583Y0014394D01*
X0251834Y0014530D01*
X0252082Y0014671D01*
X0252326Y0014819D01*
X0252567Y0014972D01*
X0252803Y0015132D01*
X0253036Y0015297D01*
X0253265Y0015467D01*
X0253490Y0015643D01*
X0253710Y0015825D01*
X0253926Y0016011D01*
X0254137Y0016203D01*
X0254344Y0016400D01*
X0254546Y0016602D01*
X0254743Y0016809D01*
X0254935Y0017020D01*
X0255121Y0017236D01*
X0255303Y0017456D01*
X0255479Y0017681D01*
X0255649Y0017910D01*
X0255814Y0018143D01*
X0255974Y0018379D01*
X0256127Y0018620D01*
X0256275Y0018864D01*
X0256416Y0019112D01*
X0256552Y0019363D01*
X0256682Y0019617D01*
X0256805Y0019875D01*
X0256922Y0020135D01*
X0257033Y0020398D01*
X0257137Y0020664D01*
X0257235Y0020932D01*
X0257327Y0021202D01*
X0257412Y0021475D01*
X0257490Y0021749D01*
X0257562Y0022025D01*
X0257627Y0022303D01*
X0257685Y0022583D01*
X0257736Y0022864D01*
X0257781Y0023145D01*
X0257819Y0023428D01*
X0257850Y0023712D01*
X0257874Y0023996D01*
X0257891Y0024281D01*
X0257902Y0024567D01*
X0257905Y0024852D01*
X0257906Y0024852D02*
X0257906Y0119340D01*
X0257905Y0119340D02*
X0257902Y0119625D01*
X0257891Y0119911D01*
X0257874Y0120196D01*
X0257850Y0120480D01*
X0257819Y0120764D01*
X0257781Y0121047D01*
X0257736Y0121328D01*
X0257685Y0121609D01*
X0257627Y0121889D01*
X0257562Y0122167D01*
X0257490Y0122443D01*
X0257412Y0122717D01*
X0257327Y0122990D01*
X0257235Y0123260D01*
X0257137Y0123528D01*
X0257033Y0123794D01*
X0256922Y0124057D01*
X0256805Y0124317D01*
X0256682Y0124575D01*
X0256552Y0124829D01*
X0256416Y0125080D01*
X0256275Y0125328D01*
X0256127Y0125572D01*
X0255974Y0125813D01*
X0255814Y0126049D01*
X0255649Y0126282D01*
X0255479Y0126511D01*
X0255303Y0126736D01*
X0255121Y0126956D01*
X0254935Y0127172D01*
X0254743Y0127383D01*
X0254546Y0127590D01*
X0254344Y0127792D01*
X0254137Y0127989D01*
X0253926Y0128181D01*
X0253710Y0128367D01*
X0253490Y0128549D01*
X0253265Y0128725D01*
X0253036Y0128895D01*
X0252803Y0129060D01*
X0252567Y0129220D01*
X0252326Y0129373D01*
X0252082Y0129521D01*
X0251834Y0129662D01*
X0251583Y0129798D01*
X0251329Y0129928D01*
X0251071Y0130051D01*
X0250811Y0130168D01*
X0250548Y0130279D01*
X0250282Y0130383D01*
X0250014Y0130481D01*
X0249744Y0130573D01*
X0249471Y0130658D01*
X0249197Y0130736D01*
X0248921Y0130808D01*
X0248643Y0130873D01*
X0248363Y0130931D01*
X0248082Y0130982D01*
X0247801Y0131027D01*
X0247518Y0131065D01*
X0247234Y0131096D01*
X0246950Y0131120D01*
X0246665Y0131137D01*
X0246379Y0131148D01*
X0246094Y0131151D01*
X0013811Y0131151D01*
X0013526Y0131148D01*
X0013240Y0131137D01*
X0012955Y0131120D01*
X0012671Y0131096D01*
X0012387Y0131065D01*
X0012104Y0131027D01*
X0011823Y0130982D01*
X0011542Y0130931D01*
X0011262Y0130873D01*
X0010984Y0130808D01*
X0010708Y0130736D01*
X0010434Y0130658D01*
X0010161Y0130573D01*
X0009891Y0130481D01*
X0009623Y0130383D01*
X0009357Y0130279D01*
X0009094Y0130168D01*
X0008834Y0130051D01*
X0008576Y0129928D01*
X0008322Y0129798D01*
X0008071Y0129662D01*
X0007823Y0129521D01*
X0007579Y0129373D01*
X0007338Y0129220D01*
X0007102Y0129060D01*
X0006869Y0128895D01*
X0006640Y0128725D01*
X0006415Y0128549D01*
X0006195Y0128367D01*
X0005979Y0128181D01*
X0005768Y0127989D01*
X0005561Y0127792D01*
X0005359Y0127590D01*
X0005162Y0127383D01*
X0004970Y0127172D01*
X0004784Y0126956D01*
X0004602Y0126736D01*
X0004426Y0126511D01*
X0004256Y0126282D01*
X0004091Y0126049D01*
X0003931Y0125813D01*
X0003778Y0125572D01*
X0003630Y0125328D01*
X0003489Y0125080D01*
X0003353Y0124829D01*
X0003223Y0124575D01*
X0003100Y0124317D01*
X0002983Y0124057D01*
X0002872Y0123794D01*
X0002768Y0123528D01*
X0002670Y0123260D01*
X0002578Y0122990D01*
X0002493Y0122717D01*
X0002415Y0122443D01*
X0002343Y0122167D01*
X0002278Y0121889D01*
X0002220Y0121609D01*
X0002169Y0121328D01*
X0002124Y0121047D01*
X0002086Y0120764D01*
X0002055Y0120480D01*
X0002031Y0120196D01*
X0002014Y0119911D01*
X0002003Y0119625D01*
X0002000Y0119340D01*
X0002000Y0024852D01*
X0002003Y0024567D01*
X0002014Y0024281D01*
X0002031Y0023996D01*
X0002055Y0023712D01*
X0002086Y0023428D01*
X0002124Y0023145D01*
X0002169Y0022864D01*
X0002220Y0022583D01*
X0002278Y0022303D01*
X0002343Y0022025D01*
X0002415Y0021749D01*
X0002493Y0021475D01*
X0002578Y0021202D01*
X0002670Y0020932D01*
X0002768Y0020664D01*
X0002872Y0020398D01*
X0002983Y0020135D01*
X0003100Y0019875D01*
X0003223Y0019617D01*
X0003353Y0019363D01*
X0003489Y0019112D01*
X0003630Y0018864D01*
X0003778Y0018620D01*
X0003931Y0018379D01*
X0004091Y0018143D01*
X0004256Y0017910D01*
X0004426Y0017681D01*
X0004602Y0017456D01*
X0004784Y0017236D01*
X0004970Y0017020D01*
X0005162Y0016809D01*
X0005359Y0016602D01*
X0005561Y0016400D01*
X0005768Y0016203D01*
X0005979Y0016011D01*
X0006195Y0015825D01*
X0006415Y0015643D01*
X0006640Y0015467D01*
X0006869Y0015297D01*
X0007102Y0015132D01*
X0007338Y0014972D01*
X0007579Y0014819D01*
X0007823Y0014671D01*
X0008071Y0014530D01*
X0008322Y0014394D01*
X0008576Y0014264D01*
X0008834Y0014141D01*
X0009094Y0014024D01*
X0009357Y0013913D01*
X0009623Y0013809D01*
X0009891Y0013711D01*
X0010161Y0013619D01*
X0010434Y0013534D01*
X0010708Y0013456D01*
X0010984Y0013384D01*
X0011262Y0013319D01*
X0011542Y0013261D01*
X0011823Y0013210D01*
X0012104Y0013165D01*
X0012387Y0013127D01*
X0012671Y0013096D01*
X0012955Y0013072D01*
X0013240Y0013055D01*
X0013526Y0013044D01*
X0013811Y0013041D01*
X0010367Y0026820D02*
X0010369Y0026967D01*
X0010375Y0027113D01*
X0010385Y0027259D01*
X0010399Y0027405D01*
X0010417Y0027551D01*
X0010438Y0027696D01*
X0010464Y0027840D01*
X0010494Y0027984D01*
X0010527Y0028126D01*
X0010564Y0028268D01*
X0010605Y0028409D01*
X0010650Y0028548D01*
X0010699Y0028687D01*
X0010751Y0028824D01*
X0010808Y0028959D01*
X0010867Y0029093D01*
X0010931Y0029225D01*
X0010998Y0029355D01*
X0011068Y0029484D01*
X0011142Y0029611D01*
X0011219Y0029735D01*
X0011300Y0029858D01*
X0011384Y0029978D01*
X0011471Y0030096D01*
X0011561Y0030211D01*
X0011654Y0030324D01*
X0011751Y0030435D01*
X0011850Y0030543D01*
X0011952Y0030648D01*
X0012057Y0030750D01*
X0012165Y0030849D01*
X0012276Y0030946D01*
X0012389Y0031039D01*
X0012504Y0031129D01*
X0012622Y0031216D01*
X0012742Y0031300D01*
X0012865Y0031381D01*
X0012989Y0031458D01*
X0013116Y0031532D01*
X0013245Y0031602D01*
X0013375Y0031669D01*
X0013507Y0031733D01*
X0013641Y0031792D01*
X0013776Y0031849D01*
X0013913Y0031901D01*
X0014052Y0031950D01*
X0014191Y0031995D01*
X0014332Y0032036D01*
X0014474Y0032073D01*
X0014616Y0032106D01*
X0014760Y0032136D01*
X0014904Y0032162D01*
X0015049Y0032183D01*
X0015195Y0032201D01*
X0015341Y0032215D01*
X0015487Y0032225D01*
X0015633Y0032231D01*
X0015780Y0032233D01*
X0015927Y0032231D01*
X0016073Y0032225D01*
X0016219Y0032215D01*
X0016365Y0032201D01*
X0016511Y0032183D01*
X0016656Y0032162D01*
X0016800Y0032136D01*
X0016944Y0032106D01*
X0017086Y0032073D01*
X0017228Y0032036D01*
X0017369Y0031995D01*
X0017508Y0031950D01*
X0017647Y0031901D01*
X0017784Y0031849D01*
X0017919Y0031792D01*
X0018053Y0031733D01*
X0018185Y0031669D01*
X0018315Y0031602D01*
X0018444Y0031532D01*
X0018571Y0031458D01*
X0018695Y0031381D01*
X0018818Y0031300D01*
X0018938Y0031216D01*
X0019056Y0031129D01*
X0019171Y0031039D01*
X0019284Y0030946D01*
X0019395Y0030849D01*
X0019503Y0030750D01*
X0019608Y0030648D01*
X0019710Y0030543D01*
X0019809Y0030435D01*
X0019906Y0030324D01*
X0019999Y0030211D01*
X0020089Y0030096D01*
X0020176Y0029978D01*
X0020260Y0029858D01*
X0020341Y0029735D01*
X0020418Y0029611D01*
X0020492Y0029484D01*
X0020562Y0029355D01*
X0020629Y0029225D01*
X0020693Y0029093D01*
X0020752Y0028959D01*
X0020809Y0028824D01*
X0020861Y0028687D01*
X0020910Y0028548D01*
X0020955Y0028409D01*
X0020996Y0028268D01*
X0021033Y0028126D01*
X0021066Y0027984D01*
X0021096Y0027840D01*
X0021122Y0027696D01*
X0021143Y0027551D01*
X0021161Y0027405D01*
X0021175Y0027259D01*
X0021185Y0027113D01*
X0021191Y0026967D01*
X0021193Y0026820D01*
X0021191Y0026673D01*
X0021185Y0026527D01*
X0021175Y0026381D01*
X0021161Y0026235D01*
X0021143Y0026089D01*
X0021122Y0025944D01*
X0021096Y0025800D01*
X0021066Y0025656D01*
X0021033Y0025514D01*
X0020996Y0025372D01*
X0020955Y0025231D01*
X0020910Y0025092D01*
X0020861Y0024953D01*
X0020809Y0024816D01*
X0020752Y0024681D01*
X0020693Y0024547D01*
X0020629Y0024415D01*
X0020562Y0024285D01*
X0020492Y0024156D01*
X0020418Y0024029D01*
X0020341Y0023905D01*
X0020260Y0023782D01*
X0020176Y0023662D01*
X0020089Y0023544D01*
X0019999Y0023429D01*
X0019906Y0023316D01*
X0019809Y0023205D01*
X0019710Y0023097D01*
X0019608Y0022992D01*
X0019503Y0022890D01*
X0019395Y0022791D01*
X0019284Y0022694D01*
X0019171Y0022601D01*
X0019056Y0022511D01*
X0018938Y0022424D01*
X0018818Y0022340D01*
X0018695Y0022259D01*
X0018571Y0022182D01*
X0018444Y0022108D01*
X0018315Y0022038D01*
X0018185Y0021971D01*
X0018053Y0021907D01*
X0017919Y0021848D01*
X0017784Y0021791D01*
X0017647Y0021739D01*
X0017508Y0021690D01*
X0017369Y0021645D01*
X0017228Y0021604D01*
X0017086Y0021567D01*
X0016944Y0021534D01*
X0016800Y0021504D01*
X0016656Y0021478D01*
X0016511Y0021457D01*
X0016365Y0021439D01*
X0016219Y0021425D01*
X0016073Y0021415D01*
X0015927Y0021409D01*
X0015780Y0021407D01*
X0015633Y0021409D01*
X0015487Y0021415D01*
X0015341Y0021425D01*
X0015195Y0021439D01*
X0015049Y0021457D01*
X0014904Y0021478D01*
X0014760Y0021504D01*
X0014616Y0021534D01*
X0014474Y0021567D01*
X0014332Y0021604D01*
X0014191Y0021645D01*
X0014052Y0021690D01*
X0013913Y0021739D01*
X0013776Y0021791D01*
X0013641Y0021848D01*
X0013507Y0021907D01*
X0013375Y0021971D01*
X0013245Y0022038D01*
X0013116Y0022108D01*
X0012989Y0022182D01*
X0012865Y0022259D01*
X0012742Y0022340D01*
X0012622Y0022424D01*
X0012504Y0022511D01*
X0012389Y0022601D01*
X0012276Y0022694D01*
X0012165Y0022791D01*
X0012057Y0022890D01*
X0011952Y0022992D01*
X0011850Y0023097D01*
X0011751Y0023205D01*
X0011654Y0023316D01*
X0011561Y0023429D01*
X0011471Y0023544D01*
X0011384Y0023662D01*
X0011300Y0023782D01*
X0011219Y0023905D01*
X0011142Y0024029D01*
X0011068Y0024156D01*
X0010998Y0024285D01*
X0010931Y0024415D01*
X0010867Y0024547D01*
X0010808Y0024681D01*
X0010751Y0024816D01*
X0010699Y0024953D01*
X0010650Y0025092D01*
X0010605Y0025231D01*
X0010564Y0025372D01*
X0010527Y0025514D01*
X0010494Y0025656D01*
X0010464Y0025800D01*
X0010438Y0025944D01*
X0010417Y0026089D01*
X0010399Y0026235D01*
X0010385Y0026381D01*
X0010375Y0026527D01*
X0010369Y0026673D01*
X0010367Y0026820D01*
X0010367Y0117371D02*
X0010369Y0117518D01*
X0010375Y0117664D01*
X0010385Y0117810D01*
X0010399Y0117956D01*
X0010417Y0118102D01*
X0010438Y0118247D01*
X0010464Y0118391D01*
X0010494Y0118535D01*
X0010527Y0118677D01*
X0010564Y0118819D01*
X0010605Y0118960D01*
X0010650Y0119099D01*
X0010699Y0119238D01*
X0010751Y0119375D01*
X0010808Y0119510D01*
X0010867Y0119644D01*
X0010931Y0119776D01*
X0010998Y0119906D01*
X0011068Y0120035D01*
X0011142Y0120162D01*
X0011219Y0120286D01*
X0011300Y0120409D01*
X0011384Y0120529D01*
X0011471Y0120647D01*
X0011561Y0120762D01*
X0011654Y0120875D01*
X0011751Y0120986D01*
X0011850Y0121094D01*
X0011952Y0121199D01*
X0012057Y0121301D01*
X0012165Y0121400D01*
X0012276Y0121497D01*
X0012389Y0121590D01*
X0012504Y0121680D01*
X0012622Y0121767D01*
X0012742Y0121851D01*
X0012865Y0121932D01*
X0012989Y0122009D01*
X0013116Y0122083D01*
X0013245Y0122153D01*
X0013375Y0122220D01*
X0013507Y0122284D01*
X0013641Y0122343D01*
X0013776Y0122400D01*
X0013913Y0122452D01*
X0014052Y0122501D01*
X0014191Y0122546D01*
X0014332Y0122587D01*
X0014474Y0122624D01*
X0014616Y0122657D01*
X0014760Y0122687D01*
X0014904Y0122713D01*
X0015049Y0122734D01*
X0015195Y0122752D01*
X0015341Y0122766D01*
X0015487Y0122776D01*
X0015633Y0122782D01*
X0015780Y0122784D01*
X0015927Y0122782D01*
X0016073Y0122776D01*
X0016219Y0122766D01*
X0016365Y0122752D01*
X0016511Y0122734D01*
X0016656Y0122713D01*
X0016800Y0122687D01*
X0016944Y0122657D01*
X0017086Y0122624D01*
X0017228Y0122587D01*
X0017369Y0122546D01*
X0017508Y0122501D01*
X0017647Y0122452D01*
X0017784Y0122400D01*
X0017919Y0122343D01*
X0018053Y0122284D01*
X0018185Y0122220D01*
X0018315Y0122153D01*
X0018444Y0122083D01*
X0018571Y0122009D01*
X0018695Y0121932D01*
X0018818Y0121851D01*
X0018938Y0121767D01*
X0019056Y0121680D01*
X0019171Y0121590D01*
X0019284Y0121497D01*
X0019395Y0121400D01*
X0019503Y0121301D01*
X0019608Y0121199D01*
X0019710Y0121094D01*
X0019809Y0120986D01*
X0019906Y0120875D01*
X0019999Y0120762D01*
X0020089Y0120647D01*
X0020176Y0120529D01*
X0020260Y0120409D01*
X0020341Y0120286D01*
X0020418Y0120162D01*
X0020492Y0120035D01*
X0020562Y0119906D01*
X0020629Y0119776D01*
X0020693Y0119644D01*
X0020752Y0119510D01*
X0020809Y0119375D01*
X0020861Y0119238D01*
X0020910Y0119099D01*
X0020955Y0118960D01*
X0020996Y0118819D01*
X0021033Y0118677D01*
X0021066Y0118535D01*
X0021096Y0118391D01*
X0021122Y0118247D01*
X0021143Y0118102D01*
X0021161Y0117956D01*
X0021175Y0117810D01*
X0021185Y0117664D01*
X0021191Y0117518D01*
X0021193Y0117371D01*
X0021191Y0117224D01*
X0021185Y0117078D01*
X0021175Y0116932D01*
X0021161Y0116786D01*
X0021143Y0116640D01*
X0021122Y0116495D01*
X0021096Y0116351D01*
X0021066Y0116207D01*
X0021033Y0116065D01*
X0020996Y0115923D01*
X0020955Y0115782D01*
X0020910Y0115643D01*
X0020861Y0115504D01*
X0020809Y0115367D01*
X0020752Y0115232D01*
X0020693Y0115098D01*
X0020629Y0114966D01*
X0020562Y0114836D01*
X0020492Y0114707D01*
X0020418Y0114580D01*
X0020341Y0114456D01*
X0020260Y0114333D01*
X0020176Y0114213D01*
X0020089Y0114095D01*
X0019999Y0113980D01*
X0019906Y0113867D01*
X0019809Y0113756D01*
X0019710Y0113648D01*
X0019608Y0113543D01*
X0019503Y0113441D01*
X0019395Y0113342D01*
X0019284Y0113245D01*
X0019171Y0113152D01*
X0019056Y0113062D01*
X0018938Y0112975D01*
X0018818Y0112891D01*
X0018695Y0112810D01*
X0018571Y0112733D01*
X0018444Y0112659D01*
X0018315Y0112589D01*
X0018185Y0112522D01*
X0018053Y0112458D01*
X0017919Y0112399D01*
X0017784Y0112342D01*
X0017647Y0112290D01*
X0017508Y0112241D01*
X0017369Y0112196D01*
X0017228Y0112155D01*
X0017086Y0112118D01*
X0016944Y0112085D01*
X0016800Y0112055D01*
X0016656Y0112029D01*
X0016511Y0112008D01*
X0016365Y0111990D01*
X0016219Y0111976D01*
X0016073Y0111966D01*
X0015927Y0111960D01*
X0015780Y0111958D01*
X0015633Y0111960D01*
X0015487Y0111966D01*
X0015341Y0111976D01*
X0015195Y0111990D01*
X0015049Y0112008D01*
X0014904Y0112029D01*
X0014760Y0112055D01*
X0014616Y0112085D01*
X0014474Y0112118D01*
X0014332Y0112155D01*
X0014191Y0112196D01*
X0014052Y0112241D01*
X0013913Y0112290D01*
X0013776Y0112342D01*
X0013641Y0112399D01*
X0013507Y0112458D01*
X0013375Y0112522D01*
X0013245Y0112589D01*
X0013116Y0112659D01*
X0012989Y0112733D01*
X0012865Y0112810D01*
X0012742Y0112891D01*
X0012622Y0112975D01*
X0012504Y0113062D01*
X0012389Y0113152D01*
X0012276Y0113245D01*
X0012165Y0113342D01*
X0012057Y0113441D01*
X0011952Y0113543D01*
X0011850Y0113648D01*
X0011751Y0113756D01*
X0011654Y0113867D01*
X0011561Y0113980D01*
X0011471Y0114095D01*
X0011384Y0114213D01*
X0011300Y0114333D01*
X0011219Y0114456D01*
X0011142Y0114580D01*
X0011068Y0114707D01*
X0010998Y0114836D01*
X0010931Y0114966D01*
X0010867Y0115098D01*
X0010808Y0115232D01*
X0010751Y0115367D01*
X0010699Y0115504D01*
X0010650Y0115643D01*
X0010605Y0115782D01*
X0010564Y0115923D01*
X0010527Y0116065D01*
X0010494Y0116207D01*
X0010464Y0116351D01*
X0010438Y0116495D01*
X0010417Y0116640D01*
X0010399Y0116786D01*
X0010385Y0116932D01*
X0010375Y0117078D01*
X0010369Y0117224D01*
X0010367Y0117371D01*
X0238713Y0117371D02*
X0238715Y0117518D01*
X0238721Y0117664D01*
X0238731Y0117810D01*
X0238745Y0117956D01*
X0238763Y0118102D01*
X0238784Y0118247D01*
X0238810Y0118391D01*
X0238840Y0118535D01*
X0238873Y0118677D01*
X0238910Y0118819D01*
X0238951Y0118960D01*
X0238996Y0119099D01*
X0239045Y0119238D01*
X0239097Y0119375D01*
X0239154Y0119510D01*
X0239213Y0119644D01*
X0239277Y0119776D01*
X0239344Y0119906D01*
X0239414Y0120035D01*
X0239488Y0120162D01*
X0239565Y0120286D01*
X0239646Y0120409D01*
X0239730Y0120529D01*
X0239817Y0120647D01*
X0239907Y0120762D01*
X0240000Y0120875D01*
X0240097Y0120986D01*
X0240196Y0121094D01*
X0240298Y0121199D01*
X0240403Y0121301D01*
X0240511Y0121400D01*
X0240622Y0121497D01*
X0240735Y0121590D01*
X0240850Y0121680D01*
X0240968Y0121767D01*
X0241088Y0121851D01*
X0241211Y0121932D01*
X0241335Y0122009D01*
X0241462Y0122083D01*
X0241591Y0122153D01*
X0241721Y0122220D01*
X0241853Y0122284D01*
X0241987Y0122343D01*
X0242122Y0122400D01*
X0242259Y0122452D01*
X0242398Y0122501D01*
X0242537Y0122546D01*
X0242678Y0122587D01*
X0242820Y0122624D01*
X0242962Y0122657D01*
X0243106Y0122687D01*
X0243250Y0122713D01*
X0243395Y0122734D01*
X0243541Y0122752D01*
X0243687Y0122766D01*
X0243833Y0122776D01*
X0243979Y0122782D01*
X0244126Y0122784D01*
X0244273Y0122782D01*
X0244419Y0122776D01*
X0244565Y0122766D01*
X0244711Y0122752D01*
X0244857Y0122734D01*
X0245002Y0122713D01*
X0245146Y0122687D01*
X0245290Y0122657D01*
X0245432Y0122624D01*
X0245574Y0122587D01*
X0245715Y0122546D01*
X0245854Y0122501D01*
X0245993Y0122452D01*
X0246130Y0122400D01*
X0246265Y0122343D01*
X0246399Y0122284D01*
X0246531Y0122220D01*
X0246661Y0122153D01*
X0246790Y0122083D01*
X0246917Y0122009D01*
X0247041Y0121932D01*
X0247164Y0121851D01*
X0247284Y0121767D01*
X0247402Y0121680D01*
X0247517Y0121590D01*
X0247630Y0121497D01*
X0247741Y0121400D01*
X0247849Y0121301D01*
X0247954Y0121199D01*
X0248056Y0121094D01*
X0248155Y0120986D01*
X0248252Y0120875D01*
X0248345Y0120762D01*
X0248435Y0120647D01*
X0248522Y0120529D01*
X0248606Y0120409D01*
X0248687Y0120286D01*
X0248764Y0120162D01*
X0248838Y0120035D01*
X0248908Y0119906D01*
X0248975Y0119776D01*
X0249039Y0119644D01*
X0249098Y0119510D01*
X0249155Y0119375D01*
X0249207Y0119238D01*
X0249256Y0119099D01*
X0249301Y0118960D01*
X0249342Y0118819D01*
X0249379Y0118677D01*
X0249412Y0118535D01*
X0249442Y0118391D01*
X0249468Y0118247D01*
X0249489Y0118102D01*
X0249507Y0117956D01*
X0249521Y0117810D01*
X0249531Y0117664D01*
X0249537Y0117518D01*
X0249539Y0117371D01*
X0249537Y0117224D01*
X0249531Y0117078D01*
X0249521Y0116932D01*
X0249507Y0116786D01*
X0249489Y0116640D01*
X0249468Y0116495D01*
X0249442Y0116351D01*
X0249412Y0116207D01*
X0249379Y0116065D01*
X0249342Y0115923D01*
X0249301Y0115782D01*
X0249256Y0115643D01*
X0249207Y0115504D01*
X0249155Y0115367D01*
X0249098Y0115232D01*
X0249039Y0115098D01*
X0248975Y0114966D01*
X0248908Y0114836D01*
X0248838Y0114707D01*
X0248764Y0114580D01*
X0248687Y0114456D01*
X0248606Y0114333D01*
X0248522Y0114213D01*
X0248435Y0114095D01*
X0248345Y0113980D01*
X0248252Y0113867D01*
X0248155Y0113756D01*
X0248056Y0113648D01*
X0247954Y0113543D01*
X0247849Y0113441D01*
X0247741Y0113342D01*
X0247630Y0113245D01*
X0247517Y0113152D01*
X0247402Y0113062D01*
X0247284Y0112975D01*
X0247164Y0112891D01*
X0247041Y0112810D01*
X0246917Y0112733D01*
X0246790Y0112659D01*
X0246661Y0112589D01*
X0246531Y0112522D01*
X0246399Y0112458D01*
X0246265Y0112399D01*
X0246130Y0112342D01*
X0245993Y0112290D01*
X0245854Y0112241D01*
X0245715Y0112196D01*
X0245574Y0112155D01*
X0245432Y0112118D01*
X0245290Y0112085D01*
X0245146Y0112055D01*
X0245002Y0112029D01*
X0244857Y0112008D01*
X0244711Y0111990D01*
X0244565Y0111976D01*
X0244419Y0111966D01*
X0244273Y0111960D01*
X0244126Y0111958D01*
X0243979Y0111960D01*
X0243833Y0111966D01*
X0243687Y0111976D01*
X0243541Y0111990D01*
X0243395Y0112008D01*
X0243250Y0112029D01*
X0243106Y0112055D01*
X0242962Y0112085D01*
X0242820Y0112118D01*
X0242678Y0112155D01*
X0242537Y0112196D01*
X0242398Y0112241D01*
X0242259Y0112290D01*
X0242122Y0112342D01*
X0241987Y0112399D01*
X0241853Y0112458D01*
X0241721Y0112522D01*
X0241591Y0112589D01*
X0241462Y0112659D01*
X0241335Y0112733D01*
X0241211Y0112810D01*
X0241088Y0112891D01*
X0240968Y0112975D01*
X0240850Y0113062D01*
X0240735Y0113152D01*
X0240622Y0113245D01*
X0240511Y0113342D01*
X0240403Y0113441D01*
X0240298Y0113543D01*
X0240196Y0113648D01*
X0240097Y0113756D01*
X0240000Y0113867D01*
X0239907Y0113980D01*
X0239817Y0114095D01*
X0239730Y0114213D01*
X0239646Y0114333D01*
X0239565Y0114456D01*
X0239488Y0114580D01*
X0239414Y0114707D01*
X0239344Y0114836D01*
X0239277Y0114966D01*
X0239213Y0115098D01*
X0239154Y0115232D01*
X0239097Y0115367D01*
X0239045Y0115504D01*
X0238996Y0115643D01*
X0238951Y0115782D01*
X0238910Y0115923D01*
X0238873Y0116065D01*
X0238840Y0116207D01*
X0238810Y0116351D01*
X0238784Y0116495D01*
X0238763Y0116640D01*
X0238745Y0116786D01*
X0238731Y0116932D01*
X0238721Y0117078D01*
X0238715Y0117224D01*
X0238713Y0117371D01*
X0238713Y0026820D02*
X0238715Y0026967D01*
X0238721Y0027113D01*
X0238731Y0027259D01*
X0238745Y0027405D01*
X0238763Y0027551D01*
X0238784Y0027696D01*
X0238810Y0027840D01*
X0238840Y0027984D01*
X0238873Y0028126D01*
X0238910Y0028268D01*
X0238951Y0028409D01*
X0238996Y0028548D01*
X0239045Y0028687D01*
X0239097Y0028824D01*
X0239154Y0028959D01*
X0239213Y0029093D01*
X0239277Y0029225D01*
X0239344Y0029355D01*
X0239414Y0029484D01*
X0239488Y0029611D01*
X0239565Y0029735D01*
X0239646Y0029858D01*
X0239730Y0029978D01*
X0239817Y0030096D01*
X0239907Y0030211D01*
X0240000Y0030324D01*
X0240097Y0030435D01*
X0240196Y0030543D01*
X0240298Y0030648D01*
X0240403Y0030750D01*
X0240511Y0030849D01*
X0240622Y0030946D01*
X0240735Y0031039D01*
X0240850Y0031129D01*
X0240968Y0031216D01*
X0241088Y0031300D01*
X0241211Y0031381D01*
X0241335Y0031458D01*
X0241462Y0031532D01*
X0241591Y0031602D01*
X0241721Y0031669D01*
X0241853Y0031733D01*
X0241987Y0031792D01*
X0242122Y0031849D01*
X0242259Y0031901D01*
X0242398Y0031950D01*
X0242537Y0031995D01*
X0242678Y0032036D01*
X0242820Y0032073D01*
X0242962Y0032106D01*
X0243106Y0032136D01*
X0243250Y0032162D01*
X0243395Y0032183D01*
X0243541Y0032201D01*
X0243687Y0032215D01*
X0243833Y0032225D01*
X0243979Y0032231D01*
X0244126Y0032233D01*
X0244273Y0032231D01*
X0244419Y0032225D01*
X0244565Y0032215D01*
X0244711Y0032201D01*
X0244857Y0032183D01*
X0245002Y0032162D01*
X0245146Y0032136D01*
X0245290Y0032106D01*
X0245432Y0032073D01*
X0245574Y0032036D01*
X0245715Y0031995D01*
X0245854Y0031950D01*
X0245993Y0031901D01*
X0246130Y0031849D01*
X0246265Y0031792D01*
X0246399Y0031733D01*
X0246531Y0031669D01*
X0246661Y0031602D01*
X0246790Y0031532D01*
X0246917Y0031458D01*
X0247041Y0031381D01*
X0247164Y0031300D01*
X0247284Y0031216D01*
X0247402Y0031129D01*
X0247517Y0031039D01*
X0247630Y0030946D01*
X0247741Y0030849D01*
X0247849Y0030750D01*
X0247954Y0030648D01*
X0248056Y0030543D01*
X0248155Y0030435D01*
X0248252Y0030324D01*
X0248345Y0030211D01*
X0248435Y0030096D01*
X0248522Y0029978D01*
X0248606Y0029858D01*
X0248687Y0029735D01*
X0248764Y0029611D01*
X0248838Y0029484D01*
X0248908Y0029355D01*
X0248975Y0029225D01*
X0249039Y0029093D01*
X0249098Y0028959D01*
X0249155Y0028824D01*
X0249207Y0028687D01*
X0249256Y0028548D01*
X0249301Y0028409D01*
X0249342Y0028268D01*
X0249379Y0028126D01*
X0249412Y0027984D01*
X0249442Y0027840D01*
X0249468Y0027696D01*
X0249489Y0027551D01*
X0249507Y0027405D01*
X0249521Y0027259D01*
X0249531Y0027113D01*
X0249537Y0026967D01*
X0249539Y0026820D01*
X0249537Y0026673D01*
X0249531Y0026527D01*
X0249521Y0026381D01*
X0249507Y0026235D01*
X0249489Y0026089D01*
X0249468Y0025944D01*
X0249442Y0025800D01*
X0249412Y0025656D01*
X0249379Y0025514D01*
X0249342Y0025372D01*
X0249301Y0025231D01*
X0249256Y0025092D01*
X0249207Y0024953D01*
X0249155Y0024816D01*
X0249098Y0024681D01*
X0249039Y0024547D01*
X0248975Y0024415D01*
X0248908Y0024285D01*
X0248838Y0024156D01*
X0248764Y0024029D01*
X0248687Y0023905D01*
X0248606Y0023782D01*
X0248522Y0023662D01*
X0248435Y0023544D01*
X0248345Y0023429D01*
X0248252Y0023316D01*
X0248155Y0023205D01*
X0248056Y0023097D01*
X0247954Y0022992D01*
X0247849Y0022890D01*
X0247741Y0022791D01*
X0247630Y0022694D01*
X0247517Y0022601D01*
X0247402Y0022511D01*
X0247284Y0022424D01*
X0247164Y0022340D01*
X0247041Y0022259D01*
X0246917Y0022182D01*
X0246790Y0022108D01*
X0246661Y0022038D01*
X0246531Y0021971D01*
X0246399Y0021907D01*
X0246265Y0021848D01*
X0246130Y0021791D01*
X0245993Y0021739D01*
X0245854Y0021690D01*
X0245715Y0021645D01*
X0245574Y0021604D01*
X0245432Y0021567D01*
X0245290Y0021534D01*
X0245146Y0021504D01*
X0245002Y0021478D01*
X0244857Y0021457D01*
X0244711Y0021439D01*
X0244565Y0021425D01*
X0244419Y0021415D01*
X0244273Y0021409D01*
X0244126Y0021407D01*
X0243979Y0021409D01*
X0243833Y0021415D01*
X0243687Y0021425D01*
X0243541Y0021439D01*
X0243395Y0021457D01*
X0243250Y0021478D01*
X0243106Y0021504D01*
X0242962Y0021534D01*
X0242820Y0021567D01*
X0242678Y0021604D01*
X0242537Y0021645D01*
X0242398Y0021690D01*
X0242259Y0021739D01*
X0242122Y0021791D01*
X0241987Y0021848D01*
X0241853Y0021907D01*
X0241721Y0021971D01*
X0241591Y0022038D01*
X0241462Y0022108D01*
X0241335Y0022182D01*
X0241211Y0022259D01*
X0241088Y0022340D01*
X0240968Y0022424D01*
X0240850Y0022511D01*
X0240735Y0022601D01*
X0240622Y0022694D01*
X0240511Y0022791D01*
X0240403Y0022890D01*
X0240298Y0022992D01*
X0240196Y0023097D01*
X0240097Y0023205D01*
X0240000Y0023316D01*
X0239907Y0023429D01*
X0239817Y0023544D01*
X0239730Y0023662D01*
X0239646Y0023782D01*
X0239565Y0023905D01*
X0239488Y0024029D01*
X0239414Y0024156D01*
X0239344Y0024285D01*
X0239277Y0024415D01*
X0239213Y0024547D01*
X0239154Y0024681D01*
X0239097Y0024816D01*
X0239045Y0024953D01*
X0238996Y0025092D01*
X0238951Y0025231D01*
X0238910Y0025372D01*
X0238873Y0025514D01*
X0238840Y0025656D01*
X0238810Y0025800D01*
X0238784Y0025944D01*
X0238763Y0026089D01*
X0238745Y0026235D01*
X0238731Y0026381D01*
X0238721Y0026527D01*
X0238715Y0026673D01*
X0238713Y0026820D01*
D11*
X0224953Y0112371D03*
X0214953Y0112371D03*
X0204953Y0112371D03*
X0194953Y0112371D03*
X0184953Y0112371D03*
X0174953Y0112371D03*
X0164953Y0112371D03*
X0154953Y0112371D03*
X0144953Y0112371D03*
X0134953Y0112371D03*
X0124953Y0112371D03*
X0114953Y0112371D03*
X0104953Y0112371D03*
X0094953Y0112371D03*
X0084953Y0112371D03*
X0074953Y0112371D03*
X0064953Y0112371D03*
X0054953Y0112371D03*
X0044953Y0112371D03*
X0034953Y0112371D03*
X0034953Y0122371D03*
X0044953Y0122371D03*
X0054953Y0122371D03*
X0064953Y0122371D03*
X0074953Y0122371D03*
X0084953Y0122371D03*
X0094953Y0122371D03*
X0104953Y0122371D03*
X0114953Y0122371D03*
X0124953Y0122371D03*
X0134953Y0122371D03*
X0144953Y0122371D03*
X0154953Y0122371D03*
X0164953Y0122371D03*
X0174953Y0122371D03*
X0184953Y0122371D03*
X0194953Y0122371D03*
X0204953Y0122371D03*
X0214953Y0122371D03*
X0224953Y0122371D03*
D12*
X0225228Y0098670D03*
X0233496Y0098670D03*
X0233496Y0087844D03*
X0225228Y0087844D03*
X0225228Y0067174D03*
X0233496Y0067174D03*
X0233496Y0056348D03*
X0225228Y0056348D03*
X0215780Y0041584D03*
X0207512Y0041584D03*
X0207512Y0030757D03*
X0215780Y0030757D03*
X0052394Y0031741D03*
X0044126Y0031741D03*
X0044126Y0020915D03*
X0052394Y0020915D03*
X0029756Y0053395D03*
X0021488Y0053395D03*
X0021488Y0064222D03*
X0029756Y0064222D03*
X0029756Y0075048D03*
X0021488Y0075048D03*
D13*
X0089289Y0019499D02*
X0089289Y0017999D01*
X0089289Y0019499D02*
X0089995Y0019499D01*
X0089995Y0017999D01*
X0089289Y0017999D01*
X0096289Y0017999D02*
X0096289Y0019499D01*
X0096995Y0019499D01*
X0096995Y0017999D01*
X0096289Y0017999D01*
X0162199Y0017768D02*
X0162199Y0017062D01*
X0160699Y0017062D01*
X0160699Y0017768D01*
X0162199Y0017768D01*
X0162199Y0024062D02*
X0162199Y0024768D01*
X0162199Y0024062D02*
X0160699Y0024062D01*
X0160699Y0024768D01*
X0162199Y0024768D01*
D14*
X0150819Y0025048D03*
X0150819Y0021111D03*
X0150819Y0017174D03*
D15*
X0133476Y0034320D02*
X0128004Y0034320D01*
X0128004Y0039006D01*
X0133476Y0039006D01*
X0133476Y0034320D01*
X0133476Y0035146D02*
X0128004Y0035146D01*
X0128004Y0035972D02*
X0133476Y0035972D01*
X0133476Y0036798D02*
X0128004Y0036798D01*
X0128004Y0037624D02*
X0133476Y0037624D01*
X0133476Y0038450D02*
X0128004Y0038450D01*
X0128004Y0052036D02*
X0133476Y0052036D01*
X0128004Y0052036D02*
X0128004Y0056722D01*
X0133476Y0056722D01*
X0133476Y0052036D01*
X0133476Y0052862D02*
X0128004Y0052862D01*
X0128004Y0053688D02*
X0133476Y0053688D01*
X0133476Y0054514D02*
X0128004Y0054514D01*
X0128004Y0055340D02*
X0133476Y0055340D01*
X0133476Y0056166D02*
X0128004Y0056166D01*
X0100405Y0052036D02*
X0094933Y0052036D01*
X0094933Y0056722D01*
X0100405Y0056722D01*
X0100405Y0052036D01*
X0100405Y0052862D02*
X0094933Y0052862D01*
X0094933Y0053688D02*
X0100405Y0053688D01*
X0100405Y0054514D02*
X0094933Y0054514D01*
X0094933Y0055340D02*
X0100405Y0055340D01*
X0100405Y0056166D02*
X0094933Y0056166D01*
X0094933Y0043178D02*
X0100405Y0043178D01*
X0094933Y0043178D02*
X0094933Y0047864D01*
X0100405Y0047864D01*
X0100405Y0043178D01*
X0100405Y0044004D02*
X0094933Y0044004D01*
X0094933Y0044830D02*
X0100405Y0044830D01*
X0100405Y0045656D02*
X0094933Y0045656D01*
X0094933Y0046482D02*
X0100405Y0046482D01*
X0100405Y0047308D02*
X0094933Y0047308D01*
X0094933Y0034320D02*
X0100405Y0034320D01*
X0094933Y0034320D02*
X0094933Y0039006D01*
X0100405Y0039006D01*
X0100405Y0034320D01*
X0100405Y0035146D02*
X0094933Y0035146D01*
X0094933Y0035972D02*
X0100405Y0035972D01*
X0100405Y0036798D02*
X0094933Y0036798D01*
X0094933Y0037624D02*
X0100405Y0037624D01*
X0100405Y0038450D02*
X0094933Y0038450D01*
D16*
X0094717Y0027804D03*
X0108102Y0027804D03*
D17*
X0081622Y0035135D03*
X0079063Y0035135D03*
X0076504Y0035135D03*
X0073945Y0035135D03*
X0058984Y0050981D03*
X0056425Y0050981D03*
X0053866Y0050981D03*
X0051307Y0050981D03*
X0051307Y0067615D03*
X0053866Y0067615D03*
X0056425Y0067615D03*
X0058984Y0067615D03*
X0073945Y0018501D03*
X0076504Y0018501D03*
X0079063Y0018501D03*
X0081622Y0018501D03*
D18*
X0025622Y0098670D03*
X0010858Y0098670D03*
D19*
X0181961Y0080048D03*
X0191961Y0080048D03*
X0201961Y0080048D03*
X0201961Y0070048D03*
X0191961Y0070048D03*
X0181961Y0070048D03*
D20*
X0226409Y0040915D03*
X0244126Y0046505D03*
X0244126Y0056505D03*
X0244126Y0066505D03*
X0244126Y0078001D03*
X0244126Y0088001D03*
X0244126Y0098001D03*
X0226409Y0030915D03*
X0226409Y0020915D03*
X0033496Y0021584D03*
X0033496Y0031584D03*
X0033496Y0041584D03*
X0010850Y0054352D03*
X0010850Y0064352D03*
X0010850Y0074352D03*
X0010850Y0084352D03*
D21*
X0022276Y0083907D03*
X0028969Y0083907D03*
X0038024Y0064222D03*
X0044717Y0064222D03*
X0044717Y0053395D03*
X0038024Y0053395D03*
X0059677Y0031741D03*
X0066370Y0031741D03*
X0066370Y0020915D03*
X0059677Y0020915D03*
X0105937Y0018946D03*
X0112630Y0018946D03*
X0193535Y0030757D03*
X0200228Y0030757D03*
X0200228Y0041584D03*
X0193535Y0041584D03*
X0211252Y0056348D03*
X0217945Y0056348D03*
X0217945Y0067174D03*
X0211252Y0067174D03*
X0211252Y0087844D03*
X0217945Y0087844D03*
X0217945Y0098670D03*
X0211252Y0098670D03*
D22*
X0055150Y0101033D03*
X0045307Y0101033D03*
X0045307Y0094340D03*
X0055150Y0094340D03*
D23*
X0131724Y0075639D03*
D24*
X0133299Y0075442D03*
X0134874Y0075442D03*
X0136449Y0075442D03*
X0138024Y0075442D03*
X0139598Y0075442D03*
X0141173Y0075442D03*
X0142748Y0075442D03*
X0144323Y0075442D03*
X0145898Y0075442D03*
X0145898Y0082529D03*
X0144323Y0082529D03*
X0142748Y0082529D03*
X0141173Y0082529D03*
X0139598Y0082529D03*
X0138024Y0082529D03*
X0136449Y0082529D03*
X0134874Y0082529D03*
X0133299Y0082529D03*
X0131724Y0082529D03*
D25*
X0114953Y0112371D02*
X0096921Y0094340D01*
X0055150Y0094340D01*
X0045307Y0094340D01*
X0040780Y0094340D01*
X0037433Y0097686D01*
X0037433Y0109891D01*
X0034953Y0112371D01*
X0044953Y0112371D02*
X0044953Y0101387D01*
X0054953Y0101230D02*
X0054953Y0112371D01*
X0028969Y0083907D02*
X0029756Y0083119D01*
X0029756Y0075048D01*
X0015850Y0066423D02*
X0010850Y0071423D01*
X0010850Y0074352D01*
X0015850Y0066423D02*
X0015850Y0063167D01*
X0019717Y0059300D01*
X0055150Y0059300D01*
X0058984Y0063135D01*
X0058984Y0063237D01*
X0117157Y0063237D01*
X0119126Y0061269D01*
X0112386Y0054938D02*
X0108889Y0058435D01*
X0061465Y0058435D01*
X0056425Y0053395D01*
X0056425Y0053686D01*
X0056425Y0053395D02*
X0056425Y0050981D01*
X0055757Y0050313D01*
X0055757Y0048081D01*
X0054260Y0046584D01*
X0018618Y0046584D01*
X0010850Y0054352D01*
X0010850Y0064352D02*
X0021488Y0053713D01*
X0021488Y0053395D01*
X0029756Y0053395D02*
X0038024Y0053395D01*
X0044717Y0053395D02*
X0047130Y0050981D01*
X0051307Y0050981D01*
X0053866Y0050981D01*
X0058984Y0063237D02*
X0058984Y0067615D01*
X0056425Y0067615D02*
X0053866Y0067615D01*
X0053198Y0066947D01*
X0053198Y0064715D01*
X0052436Y0063953D01*
X0050178Y0063953D01*
X0049910Y0064222D01*
X0044717Y0064222D01*
X0051307Y0067615D02*
X0051307Y0072985D01*
X0052197Y0074064D01*
X0038024Y0064222D02*
X0029756Y0064222D01*
X0069913Y0037647D02*
X0072425Y0035135D01*
X0073945Y0035135D01*
X0075835Y0034467D02*
X0076504Y0035135D01*
X0079063Y0035135D01*
X0081622Y0035135D02*
X0081622Y0040497D01*
X0081724Y0040600D01*
X0088614Y0036663D02*
X0088614Y0032726D01*
X0079063Y0023174D01*
X0079063Y0018501D01*
X0079063Y0017646D01*
X0078394Y0016978D01*
X0078394Y0015600D01*
X0077633Y0014839D01*
X0040241Y0014839D01*
X0033496Y0021584D01*
X0035567Y0026584D02*
X0041236Y0020915D01*
X0044126Y0020915D01*
X0038417Y0026820D02*
X0075819Y0026820D01*
X0081622Y0032623D01*
X0081622Y0035135D01*
X0075835Y0034467D02*
X0075835Y0032234D01*
X0075074Y0031473D01*
X0072816Y0031473D01*
X0072547Y0031741D01*
X0066370Y0031741D01*
X0059677Y0031741D02*
X0052394Y0031741D01*
X0038417Y0026820D02*
X0033654Y0031584D01*
X0033496Y0031584D01*
X0035567Y0026584D02*
X0029795Y0026584D01*
X0029559Y0026820D01*
X0052394Y0020915D02*
X0059677Y0020915D01*
X0066370Y0020915D02*
X0068783Y0018501D01*
X0073945Y0018501D01*
X0076504Y0018501D01*
X0094717Y0027804D02*
X0097669Y0030757D01*
X0097669Y0036663D01*
X0130740Y0036663D01*
X0144717Y0036663D01*
X0148654Y0040600D01*
X0151675Y0043621D01*
X0151675Y0049763D01*
X0180882Y0078970D01*
X0180882Y0078970D01*
X0181961Y0080048D01*
X0181961Y0109282D01*
X0180653Y0110590D01*
X0180653Y0118071D01*
X0184953Y0122371D01*
X0191961Y0103592D02*
X0191961Y0080048D01*
X0186312Y0074400D01*
X0186312Y0066083D01*
X0168339Y0048110D01*
X0171291Y0044537D02*
X0191961Y0065206D01*
X0191961Y0070048D01*
X0191961Y0073895D01*
X0196312Y0078246D01*
X0196312Y0081851D01*
X0195534Y0082629D01*
X0195534Y0099655D01*
X0199107Y0095718D02*
X0199107Y0082902D01*
X0201961Y0080048D01*
X0211252Y0084300D02*
X0212630Y0082922D01*
X0214598Y0082922D01*
X0211252Y0084300D02*
X0211252Y0087844D01*
X0217945Y0087844D02*
X0225228Y0087844D01*
X0225228Y0098670D02*
X0217945Y0098670D01*
X0211252Y0098670D02*
X0211252Y0103198D01*
X0212630Y0104576D01*
X0214598Y0104576D01*
X0214598Y0073080D02*
X0212630Y0073080D01*
X0211252Y0071702D01*
X0211252Y0067174D01*
X0217945Y0067174D02*
X0225228Y0067174D01*
X0225228Y0056348D02*
X0217945Y0056348D01*
X0211252Y0056348D02*
X0211252Y0052804D01*
X0212630Y0051426D01*
X0214598Y0051426D01*
X0205878Y0053257D02*
X0194198Y0053257D01*
X0171530Y0030589D01*
X0142002Y0030589D01*
X0132328Y0020915D01*
X0126016Y0020915D01*
X0132906Y0017962D02*
X0143732Y0028789D01*
X0172276Y0028789D01*
X0192945Y0049458D01*
X0203772Y0049458D01*
X0197866Y0046505D02*
X0194913Y0046505D01*
X0193535Y0045127D01*
X0193535Y0041584D01*
X0200228Y0041584D02*
X0207512Y0041584D01*
X0207512Y0030757D02*
X0200228Y0030757D01*
X0193535Y0030757D02*
X0193535Y0027214D01*
X0194913Y0025836D01*
X0196882Y0025836D01*
X0161449Y0024415D02*
X0160815Y0025048D01*
X0150819Y0025048D01*
X0145898Y0025048D01*
X0141764Y0020915D01*
X0140780Y0016978D02*
X0150622Y0016978D01*
X0150819Y0017174D01*
X0161209Y0017174D01*
X0161449Y0017415D01*
X0154559Y0042568D02*
X0154559Y0050101D01*
X0171462Y0067004D01*
X0174074Y0067004D01*
X0175228Y0068159D01*
X0119827Y0054938D02*
X0112386Y0054938D01*
X0094717Y0027804D02*
X0096642Y0025879D01*
X0096642Y0018749D01*
X0105740Y0018749D01*
X0105937Y0018946D01*
D26*
X0126016Y0067174D02*
X0131724Y0072883D01*
X0131724Y0075639D01*
X0133299Y0075442D02*
X0133299Y0069537D01*
X0130937Y0067174D01*
X0134874Y0069143D02*
X0134874Y0075442D01*
X0136449Y0075442D02*
X0136449Y0072489D01*
X0141764Y0067174D01*
X0136843Y0067174D02*
X0134874Y0069143D01*
X0138024Y0075442D02*
X0137943Y0075523D01*
X0137943Y0077866D01*
X0136349Y0079460D01*
X0130875Y0079460D01*
X0130231Y0080105D01*
X0130231Y0084953D01*
X0130324Y0085047D01*
X0130324Y0100639D01*
X0118592Y0112371D01*
X0114953Y0112371D01*
X0130853Y0110673D02*
X0131724Y0109801D01*
X0131724Y0082529D01*
X0133299Y0082529D02*
X0133299Y0109497D01*
X0134953Y0111151D01*
X0134953Y0112371D01*
X0130853Y0110673D02*
X0130853Y0118271D01*
X0134953Y0122371D01*
X0139053Y0116471D02*
X0139053Y0110673D01*
X0134874Y0106494D01*
X0134874Y0082529D01*
X0136449Y0082529D02*
X0136449Y0103867D01*
X0144953Y0112371D01*
X0139053Y0116471D02*
X0144953Y0122371D01*
X0133299Y0109733D02*
X0133299Y0109497D01*
X0140780Y0098670D02*
X0138024Y0095915D01*
X0138024Y0082529D01*
X0139598Y0082529D02*
X0139680Y0082610D01*
X0139680Y0084953D01*
X0140602Y0085875D01*
X0151606Y0085875D01*
X0139598Y0075442D02*
X0138024Y0075442D01*
D27*
X0139752Y0071874D02*
X0146954Y0071874D01*
X0147891Y0072811D01*
X0147891Y0078073D01*
X0146979Y0078985D01*
X0147891Y0079897D01*
X0147891Y0085160D01*
X0146954Y0086097D01*
X0139924Y0086097D01*
X0139924Y0095128D01*
X0140282Y0095486D01*
X0141413Y0095486D01*
X0142583Y0095971D01*
X0143479Y0096867D01*
X0143964Y0098037D01*
X0143964Y0099304D01*
X0143479Y0100474D01*
X0142583Y0101370D01*
X0141413Y0101855D01*
X0140146Y0101855D01*
X0138976Y0101370D01*
X0138349Y0100743D01*
X0138349Y0103080D01*
X0143044Y0107775D01*
X0143047Y0107771D01*
X0146858Y0107771D01*
X0149553Y0110466D01*
X0149553Y0114277D01*
X0146858Y0116971D01*
X0143047Y0116971D01*
X0140953Y0114877D01*
X0140953Y0115684D01*
X0143044Y0117775D01*
X0143047Y0117771D01*
X0146858Y0117771D01*
X0149553Y0120466D01*
X0149553Y0124277D01*
X0146858Y0126971D01*
X0143047Y0126971D01*
X0140353Y0124277D01*
X0140353Y0120466D01*
X0140357Y0120462D01*
X0138266Y0118371D01*
X0137153Y0117258D01*
X0137153Y0116677D01*
X0136858Y0116971D01*
X0133047Y0116971D01*
X0132753Y0116677D01*
X0132753Y0117484D01*
X0133044Y0117775D01*
X0133047Y0117771D01*
X0136858Y0117771D01*
X0139553Y0120466D01*
X0139553Y0124277D01*
X0136858Y0126971D01*
X0133047Y0126971D01*
X0130353Y0124277D01*
X0130353Y0120466D01*
X0130357Y0120462D01*
X0128953Y0119058D01*
X0128953Y0114877D01*
X0126858Y0116971D01*
X0123047Y0116971D01*
X0120353Y0114277D01*
X0120353Y0113298D01*
X0119553Y0114098D01*
X0119553Y0114277D01*
X0116858Y0116971D01*
X0113047Y0116971D01*
X0110353Y0114277D01*
X0110353Y0110741D01*
X0096051Y0096440D01*
X0058915Y0096440D01*
X0058915Y0096971D01*
X0058200Y0097686D01*
X0058915Y0098401D01*
X0058915Y0103664D01*
X0057978Y0104601D01*
X0057053Y0104601D01*
X0057053Y0107966D01*
X0059553Y0110466D01*
X0059553Y0114277D01*
X0056858Y0116971D01*
X0053047Y0116971D01*
X0050353Y0114277D01*
X0050353Y0110466D01*
X0052853Y0107966D01*
X0052853Y0104601D01*
X0052322Y0104601D01*
X0051384Y0103664D01*
X0051384Y0098401D01*
X0052099Y0097686D01*
X0051384Y0096971D01*
X0051384Y0096440D01*
X0049072Y0096440D01*
X0049072Y0096971D01*
X0048357Y0097686D01*
X0049072Y0098401D01*
X0049072Y0103664D01*
X0048135Y0104601D01*
X0047053Y0104601D01*
X0047053Y0107966D01*
X0049553Y0110466D01*
X0049553Y0114277D01*
X0046858Y0116971D01*
X0043047Y0116971D01*
X0040353Y0114277D01*
X0040353Y0110466D01*
X0042853Y0107966D01*
X0042853Y0104601D01*
X0042479Y0104601D01*
X0041542Y0103664D01*
X0041542Y0098401D01*
X0042257Y0097686D01*
X0041542Y0096971D01*
X0041542Y0096547D01*
X0039533Y0098556D01*
X0039533Y0110446D01*
X0039553Y0110466D01*
X0039553Y0114277D01*
X0036858Y0116971D01*
X0033047Y0116971D01*
X0030353Y0114277D01*
X0030353Y0110466D01*
X0033047Y0107771D01*
X0035333Y0107771D01*
X0035333Y0096816D01*
X0038680Y0093470D01*
X0039910Y0092240D01*
X0041542Y0092240D01*
X0041542Y0091708D01*
X0042479Y0090771D01*
X0048135Y0090771D01*
X0049072Y0091708D01*
X0049072Y0092240D01*
X0051384Y0092240D01*
X0051384Y0091708D01*
X0052322Y0090771D01*
X0057978Y0090771D01*
X0058915Y0091708D01*
X0058915Y0092240D01*
X0097791Y0092240D01*
X0099021Y0093470D01*
X0113323Y0107771D01*
X0116858Y0107771D01*
X0118682Y0109595D01*
X0128424Y0099852D01*
X0128424Y0085834D01*
X0128331Y0085740D01*
X0128331Y0079318D01*
X0128975Y0078673D01*
X0129731Y0077918D01*
X0129731Y0073576D01*
X0126513Y0070359D01*
X0125382Y0070359D01*
X0124212Y0069874D01*
X0123316Y0068978D01*
X0122831Y0067808D01*
X0122831Y0066541D01*
X0123316Y0065371D01*
X0124212Y0064475D01*
X0125382Y0063990D01*
X0126649Y0063990D01*
X0127819Y0064475D01*
X0128476Y0065132D01*
X0129133Y0064475D01*
X0130304Y0063990D01*
X0131570Y0063990D01*
X0132741Y0064475D01*
X0133636Y0065371D01*
X0133890Y0065982D01*
X0134143Y0065371D01*
X0135039Y0064475D01*
X0136209Y0063990D01*
X0137476Y0063990D01*
X0138646Y0064475D01*
X0139303Y0065132D01*
X0139960Y0064475D01*
X0141130Y0063990D01*
X0142397Y0063990D01*
X0143568Y0064475D01*
X0144463Y0065371D01*
X0144948Y0066541D01*
X0144948Y0067808D01*
X0144463Y0068978D01*
X0143568Y0069874D01*
X0142397Y0070359D01*
X0141267Y0070359D01*
X0139752Y0071874D01*
X0139858Y0071768D02*
X0170710Y0071768D01*
X0171908Y0072966D02*
X0147891Y0072966D01*
X0147891Y0074165D02*
X0173107Y0074165D01*
X0174305Y0075363D02*
X0147891Y0075363D01*
X0147891Y0076562D02*
X0171180Y0076562D01*
X0171456Y0076286D02*
X0172626Y0075801D01*
X0173893Y0075801D01*
X0175064Y0076286D01*
X0175959Y0077182D01*
X0176444Y0078352D01*
X0176444Y0079619D01*
X0175959Y0080789D01*
X0175860Y0080889D01*
X0175860Y0083440D01*
X0175464Y0084395D01*
X0170539Y0089321D01*
X0170539Y0089461D01*
X0170054Y0090632D01*
X0169158Y0091527D01*
X0167988Y0092012D01*
X0166721Y0092012D01*
X0165551Y0091527D01*
X0164655Y0090632D01*
X0164170Y0089461D01*
X0164170Y0088195D01*
X0164655Y0087024D01*
X0165551Y0086128D01*
X0166721Y0085644D01*
X0166862Y0085644D01*
X0170660Y0081845D01*
X0170660Y0080889D01*
X0170560Y0080789D01*
X0170076Y0079619D01*
X0170076Y0078352D01*
X0170560Y0077182D01*
X0171456Y0076286D01*
X0170321Y0077760D02*
X0147891Y0077760D01*
X0147006Y0078959D02*
X0170076Y0078959D01*
X0170299Y0080157D02*
X0147891Y0080157D01*
X0147891Y0081356D02*
X0170660Y0081356D01*
X0169951Y0082554D02*
X0147891Y0082554D01*
X0147891Y0083753D02*
X0168753Y0083753D01*
X0167554Y0084951D02*
X0147891Y0084951D01*
X0139924Y0086150D02*
X0165529Y0086150D01*
X0164521Y0087348D02*
X0139924Y0087348D01*
X0139924Y0088547D02*
X0164170Y0088547D01*
X0164288Y0089745D02*
X0139924Y0089745D01*
X0139924Y0090944D02*
X0164967Y0090944D01*
X0169742Y0090944D02*
X0179861Y0090944D01*
X0179861Y0092142D02*
X0139924Y0092142D01*
X0139924Y0093341D02*
X0179861Y0093341D01*
X0179861Y0094539D02*
X0139924Y0094539D01*
X0142020Y0095738D02*
X0179861Y0095738D01*
X0179861Y0096936D02*
X0143508Y0096936D01*
X0143964Y0098135D02*
X0179861Y0098135D01*
X0179861Y0099333D02*
X0143952Y0099333D01*
X0143421Y0100532D02*
X0179861Y0100532D01*
X0179861Y0101730D02*
X0141713Y0101730D01*
X0139846Y0101730D02*
X0138349Y0101730D01*
X0138349Y0102929D02*
X0179861Y0102929D01*
X0179861Y0104127D02*
X0139396Y0104127D01*
X0140594Y0105326D02*
X0179861Y0105326D01*
X0179861Y0106524D02*
X0141793Y0106524D01*
X0142991Y0107723D02*
X0179861Y0107723D01*
X0179861Y0108412D02*
X0179861Y0084526D01*
X0177309Y0081975D01*
X0177309Y0078367D01*
X0150805Y0051863D01*
X0149575Y0050632D01*
X0149575Y0044491D01*
X0148868Y0043784D01*
X0148020Y0043784D01*
X0146850Y0043299D01*
X0145954Y0042403D01*
X0145469Y0041233D01*
X0145469Y0040385D01*
X0143847Y0038763D01*
X0135490Y0038763D01*
X0135490Y0039839D01*
X0134310Y0041018D01*
X0127170Y0041018D01*
X0125991Y0039839D01*
X0125991Y0038763D01*
X0102419Y0038763D01*
X0102419Y0039839D01*
X0101239Y0041018D01*
X0094099Y0041018D01*
X0092920Y0039839D01*
X0092920Y0033486D01*
X0093458Y0032948D01*
X0091298Y0032948D01*
X0090714Y0032364D01*
X0090714Y0034259D01*
X0091314Y0034859D01*
X0091798Y0036029D01*
X0091798Y0037296D01*
X0091314Y0038466D01*
X0090418Y0039362D01*
X0089248Y0039847D01*
X0087981Y0039847D01*
X0086810Y0039362D01*
X0085915Y0038466D01*
X0085430Y0037296D01*
X0085430Y0036029D01*
X0085915Y0034859D01*
X0086514Y0034259D01*
X0086514Y0033595D01*
X0076963Y0024044D01*
X0076963Y0022463D01*
X0075251Y0022463D01*
X0075224Y0022437D01*
X0075198Y0022463D01*
X0072692Y0022463D01*
X0071754Y0021526D01*
X0071754Y0020601D01*
X0069939Y0020601D01*
X0069939Y0023743D01*
X0069001Y0024680D01*
X0063739Y0024680D01*
X0063024Y0023965D01*
X0062308Y0024680D01*
X0057046Y0024680D01*
X0056331Y0023965D01*
X0055575Y0024720D01*
X0076689Y0024720D01*
X0082492Y0030523D01*
X0083722Y0031753D01*
X0083722Y0032020D01*
X0083813Y0032110D01*
X0083813Y0038160D01*
X0083800Y0038172D01*
X0084424Y0038796D01*
X0084909Y0039966D01*
X0084909Y0041233D01*
X0084424Y0042403D01*
X0083528Y0043299D01*
X0082358Y0043784D01*
X0081091Y0043784D01*
X0079921Y0043299D01*
X0079025Y0042403D01*
X0078540Y0041233D01*
X0078540Y0039966D01*
X0078900Y0039097D01*
X0077810Y0039097D01*
X0077783Y0039071D01*
X0077757Y0039097D01*
X0075251Y0039097D01*
X0075224Y0039071D01*
X0075198Y0039097D01*
X0072759Y0039097D01*
X0072613Y0039451D01*
X0071717Y0040346D01*
X0070547Y0040831D01*
X0069280Y0040831D01*
X0068110Y0040346D01*
X0067214Y0039451D01*
X0066729Y0038280D01*
X0066729Y0037013D01*
X0067214Y0035843D01*
X0067550Y0035507D01*
X0063739Y0035507D01*
X0063024Y0034791D01*
X0062308Y0035507D01*
X0057046Y0035507D01*
X0056331Y0034791D01*
X0055419Y0035704D01*
X0049369Y0035704D01*
X0048431Y0034766D01*
X0048431Y0028920D01*
X0048022Y0028920D01*
X0048088Y0029168D01*
X0048088Y0031160D01*
X0044707Y0031160D01*
X0044707Y0032322D01*
X0048088Y0032322D01*
X0048088Y0034314D01*
X0047979Y0034721D01*
X0047768Y0035086D01*
X0047471Y0035384D01*
X0047106Y0035594D01*
X0046699Y0035704D01*
X0044707Y0035704D01*
X0044707Y0032322D01*
X0043545Y0032322D01*
X0043545Y0031160D01*
X0040164Y0031160D01*
X0040164Y0029168D01*
X0040230Y0028920D01*
X0039287Y0028920D01*
X0038468Y0029739D01*
X0038796Y0030530D01*
X0038796Y0032638D01*
X0037989Y0034586D01*
X0036498Y0036077D01*
X0035268Y0036587D01*
X0035531Y0036672D01*
X0036274Y0037051D01*
X0036949Y0037541D01*
X0037539Y0038131D01*
X0038029Y0038806D01*
X0038408Y0039549D01*
X0038666Y0040343D01*
X0038796Y0041167D01*
X0038796Y0041184D01*
X0033896Y0041184D01*
X0033896Y0041984D01*
X0038796Y0041984D01*
X0038796Y0042001D01*
X0038666Y0042825D01*
X0038408Y0043618D01*
X0038029Y0044362D01*
X0037940Y0044484D01*
X0055130Y0044484D01*
X0056360Y0045714D01*
X0057665Y0047019D01*
X0057678Y0047019D01*
X0057785Y0047126D01*
X0058183Y0047019D01*
X0058984Y0047019D01*
X0058984Y0050981D01*
X0058984Y0050981D01*
X0058984Y0047019D01*
X0059785Y0047019D01*
X0060192Y0047128D01*
X0060557Y0047339D01*
X0060855Y0047637D01*
X0061066Y0048002D01*
X0061175Y0048409D01*
X0061175Y0050981D01*
X0058984Y0050981D01*
X0058984Y0050982D01*
X0061175Y0050982D01*
X0061175Y0053554D01*
X0061066Y0053961D01*
X0060855Y0054326D01*
X0060591Y0054591D01*
X0062335Y0056335D01*
X0092920Y0056335D01*
X0092920Y0054979D01*
X0097069Y0054979D01*
X0097069Y0053779D01*
X0092920Y0053779D01*
X0092920Y0051772D01*
X0093057Y0051259D01*
X0093322Y0050800D01*
X0093697Y0050425D01*
X0094156Y0050160D01*
X0094668Y0050023D01*
X0097069Y0050023D01*
X0097069Y0053779D01*
X0098269Y0053779D01*
X0098269Y0050023D01*
X0100671Y0050023D01*
X0101183Y0050160D01*
X0101642Y0050425D01*
X0102017Y0050800D01*
X0102282Y0051259D01*
X0102419Y0051772D01*
X0102419Y0053779D01*
X0098269Y0053779D01*
X0098269Y0054979D01*
X0102419Y0054979D01*
X0102419Y0056335D01*
X0108019Y0056335D01*
X0111516Y0052838D01*
X0117424Y0052838D01*
X0118023Y0052239D01*
X0119193Y0051754D01*
X0120460Y0051754D01*
X0121631Y0052239D01*
X0122526Y0053134D01*
X0123011Y0054305D01*
X0123011Y0055572D01*
X0122526Y0056742D01*
X0121631Y0057638D01*
X0120460Y0058122D01*
X0119851Y0058122D01*
X0120930Y0058569D01*
X0121825Y0059465D01*
X0122310Y0060635D01*
X0122310Y0061902D01*
X0121825Y0063073D01*
X0120930Y0063968D01*
X0119759Y0064453D01*
X0118912Y0064453D01*
X0118027Y0065337D01*
X0061175Y0065337D01*
X0061175Y0070640D01*
X0060238Y0071578D01*
X0057731Y0071578D01*
X0057705Y0071551D01*
X0057678Y0071578D01*
X0055172Y0071578D01*
X0055146Y0071551D01*
X0055119Y0071578D01*
X0054213Y0071578D01*
X0054896Y0072260D01*
X0055381Y0073431D01*
X0055381Y0074698D01*
X0054896Y0075868D01*
X0054001Y0076764D01*
X0052830Y0077248D01*
X0051563Y0077248D01*
X0050393Y0076764D01*
X0049497Y0075868D01*
X0049013Y0074698D01*
X0049013Y0073431D01*
X0049198Y0072984D01*
X0049207Y0072885D01*
X0049207Y0070731D01*
X0049117Y0070640D01*
X0049117Y0066322D01*
X0048285Y0066322D01*
X0048285Y0067050D01*
X0047348Y0067987D01*
X0042085Y0067987D01*
X0041370Y0067272D01*
X0040655Y0067987D01*
X0035392Y0067987D01*
X0034455Y0067050D01*
X0034455Y0066322D01*
X0033718Y0066322D01*
X0033718Y0067247D01*
X0032781Y0068184D01*
X0026731Y0068184D01*
X0025794Y0067247D01*
X0025794Y0061400D01*
X0025384Y0061400D01*
X0025450Y0061649D01*
X0025450Y0063641D01*
X0022069Y0063641D01*
X0022069Y0064803D01*
X0020907Y0064803D01*
X0020907Y0068184D01*
X0018915Y0068184D01*
X0018508Y0068075D01*
X0018144Y0067864D01*
X0017846Y0067566D01*
X0017784Y0067459D01*
X0014618Y0070624D01*
X0015343Y0071349D01*
X0016150Y0073297D01*
X0016150Y0075406D01*
X0015343Y0077354D01*
X0014130Y0078567D01*
X0014589Y0078756D01*
X0016453Y0080621D01*
X0016737Y0081307D01*
X0018707Y0081307D01*
X0018707Y0081079D01*
X0019644Y0080141D01*
X0024907Y0080141D01*
X0025622Y0080857D01*
X0026337Y0080141D01*
X0027656Y0080141D01*
X0027656Y0079011D01*
X0026731Y0079011D01*
X0025794Y0078073D01*
X0025794Y0072023D01*
X0026731Y0071086D01*
X0032781Y0071086D01*
X0033718Y0072023D01*
X0033718Y0078073D01*
X0032781Y0079011D01*
X0031856Y0079011D01*
X0031856Y0080397D01*
X0032537Y0081079D01*
X0032537Y0086735D01*
X0031600Y0087672D01*
X0026337Y0087672D01*
X0025622Y0086957D01*
X0024907Y0087672D01*
X0019644Y0087672D01*
X0018707Y0086735D01*
X0018707Y0086507D01*
X0017458Y0086507D01*
X0017458Y0101404D01*
X0016453Y0102409D01*
X0014597Y0104266D01*
X0013592Y0105270D01*
X0008124Y0105270D01*
X0007120Y0104266D01*
X0007120Y0104266D01*
X0005263Y0102409D01*
X0004258Y0101404D01*
X0004258Y0085684D01*
X0004250Y0085664D01*
X0004250Y0083039D01*
X0005255Y0080613D01*
X0007111Y0078756D01*
X0007570Y0078567D01*
X0006357Y0077354D01*
X0005550Y0075406D01*
X0005550Y0073297D01*
X0006357Y0071349D01*
X0007848Y0069858D01*
X0009078Y0069349D01*
X0008816Y0069263D01*
X0008072Y0068885D01*
X0007397Y0068394D01*
X0006807Y0067804D01*
X0006317Y0067129D01*
X0005938Y0066386D01*
X0005680Y0065593D01*
X0005550Y0064769D01*
X0005550Y0064752D01*
X0010450Y0064752D01*
X0010450Y0063952D01*
X0005550Y0063952D01*
X0005550Y0063934D01*
X0005680Y0063110D01*
X0005938Y0062317D01*
X0006317Y0061574D01*
X0006807Y0060899D01*
X0007397Y0060309D01*
X0008072Y0059819D01*
X0008816Y0059440D01*
X0009078Y0059354D01*
X0007848Y0058845D01*
X0006357Y0057354D01*
X0005550Y0055406D01*
X0005550Y0053297D01*
X0006357Y0051349D01*
X0007848Y0049858D01*
X0009796Y0049052D01*
X0011904Y0049052D01*
X0012806Y0049425D01*
X0016518Y0045714D01*
X0017748Y0044484D01*
X0029052Y0044484D01*
X0028963Y0044362D01*
X0028584Y0043618D01*
X0028327Y0042825D01*
X0028196Y0042001D01*
X0028196Y0041984D01*
X0033096Y0041984D01*
X0033096Y0041184D01*
X0028196Y0041184D01*
X0028196Y0041167D01*
X0028327Y0040343D01*
X0028584Y0039549D01*
X0028963Y0038806D01*
X0029453Y0038131D01*
X0030043Y0037541D01*
X0030718Y0037051D01*
X0031462Y0036672D01*
X0031725Y0036587D01*
X0030494Y0036077D01*
X0029003Y0034586D01*
X0028196Y0032638D01*
X0028196Y0030530D01*
X0029003Y0028582D01*
X0030494Y0027091D01*
X0031718Y0026584D01*
X0030494Y0026077D01*
X0029003Y0024586D01*
X0028196Y0022638D01*
X0028196Y0020530D01*
X0029003Y0018582D01*
X0030494Y0017091D01*
X0032442Y0016284D01*
X0034550Y0016284D01*
X0035452Y0016658D01*
X0037470Y0014641D01*
X0013811Y0014641D01*
X0012214Y0014766D01*
X0009175Y0015753D01*
X0006591Y0017631D01*
X0004713Y0020216D01*
X0003726Y0023254D01*
X0003600Y0024852D01*
X0003600Y0119340D01*
X0003726Y0120937D01*
X0004713Y0123975D01*
X0006591Y0126560D01*
X0009175Y0128438D01*
X0012214Y0129425D01*
X0013811Y0129551D01*
X0246094Y0129551D01*
X0247692Y0129425D01*
X0250730Y0128438D01*
X0253315Y0126560D01*
X0255193Y0123975D01*
X0256180Y0120937D01*
X0256306Y0119340D01*
X0256306Y0024852D01*
X0256180Y0023254D01*
X0255193Y0020216D01*
X0253315Y0017631D01*
X0250730Y0015753D01*
X0247692Y0014766D01*
X0246094Y0014641D01*
X0164043Y0014641D01*
X0164755Y0015353D01*
X0165214Y0016461D01*
X0165214Y0018368D01*
X0164755Y0019476D01*
X0163907Y0020324D01*
X0162799Y0020783D01*
X0160099Y0020783D01*
X0158991Y0020324D01*
X0158142Y0019476D01*
X0158059Y0019274D01*
X0156297Y0019274D01*
X0156291Y0019280D01*
X0156356Y0019523D01*
X0156356Y0021022D01*
X0150908Y0021022D01*
X0150908Y0021200D01*
X0156356Y0021200D01*
X0156356Y0022700D01*
X0156291Y0022943D01*
X0156297Y0022948D01*
X0157896Y0022948D01*
X0158142Y0022353D01*
X0158991Y0021505D01*
X0160099Y0021046D01*
X0162799Y0021046D01*
X0163907Y0021505D01*
X0164755Y0022353D01*
X0165214Y0023461D01*
X0165214Y0025368D01*
X0164755Y0026476D01*
X0164543Y0026689D01*
X0173145Y0026689D01*
X0189967Y0043510D01*
X0189967Y0038756D01*
X0190904Y0037818D01*
X0196167Y0037818D01*
X0196882Y0038534D01*
X0197597Y0037818D01*
X0202860Y0037818D01*
X0203575Y0038534D01*
X0204487Y0037622D01*
X0210537Y0037622D01*
X0211474Y0038559D01*
X0211474Y0044609D01*
X0210537Y0045546D01*
X0204487Y0045546D01*
X0203575Y0044634D01*
X0202860Y0045349D01*
X0200834Y0045349D01*
X0201050Y0045872D01*
X0201050Y0047138D01*
X0200960Y0047358D01*
X0201368Y0047358D01*
X0201968Y0046758D01*
X0203138Y0046274D01*
X0204405Y0046274D01*
X0205575Y0046758D01*
X0206471Y0047654D01*
X0206956Y0048824D01*
X0206956Y0050091D01*
X0206897Y0050233D01*
X0207682Y0050558D01*
X0208577Y0051453D01*
X0209045Y0052582D01*
X0209152Y0052582D01*
X0209152Y0051934D01*
X0211760Y0049326D01*
X0212195Y0049326D01*
X0212795Y0048727D01*
X0213965Y0048242D01*
X0215232Y0048242D01*
X0216402Y0048727D01*
X0217298Y0049623D01*
X0217783Y0050793D01*
X0217783Y0052060D01*
X0217566Y0052582D01*
X0220576Y0052582D01*
X0221291Y0053297D01*
X0222203Y0052385D01*
X0228253Y0052385D01*
X0229191Y0053323D01*
X0229191Y0059373D01*
X0228253Y0060310D01*
X0222203Y0060310D01*
X0221291Y0059398D01*
X0220576Y0060113D01*
X0215314Y0060113D01*
X0214598Y0059398D01*
X0213883Y0060113D01*
X0208621Y0060113D01*
X0207683Y0059176D01*
X0207683Y0055955D01*
X0207682Y0055957D01*
X0206511Y0056441D01*
X0205245Y0056441D01*
X0204074Y0055957D01*
X0203475Y0055357D01*
X0193329Y0055357D01*
X0170660Y0032689D01*
X0141133Y0032689D01*
X0131459Y0023015D01*
X0128419Y0023015D01*
X0127819Y0023614D01*
X0126649Y0024099D01*
X0125382Y0024099D01*
X0124212Y0023614D01*
X0123316Y0022718D01*
X0122831Y0021548D01*
X0122831Y0020281D01*
X0123316Y0019111D01*
X0124212Y0018215D01*
X0125382Y0017730D01*
X0126649Y0017730D01*
X0127819Y0018215D01*
X0128419Y0018815D01*
X0129812Y0018815D01*
X0129721Y0018595D01*
X0129721Y0017328D01*
X0130206Y0016158D01*
X0131102Y0015262D01*
X0132272Y0014778D01*
X0133539Y0014778D01*
X0134709Y0015262D01*
X0135605Y0016158D01*
X0136090Y0017328D01*
X0136090Y0018176D01*
X0138580Y0020666D01*
X0138580Y0020281D01*
X0138873Y0019574D01*
X0138080Y0018781D01*
X0137595Y0017611D01*
X0137595Y0016344D01*
X0138080Y0015174D01*
X0138613Y0014641D01*
X0082802Y0014641D01*
X0082830Y0014648D01*
X0083195Y0014859D01*
X0083493Y0015157D01*
X0083704Y0015521D01*
X0083813Y0015928D01*
X0083813Y0018501D01*
X0081622Y0018501D01*
X0081622Y0018501D01*
X0083813Y0018501D01*
X0083813Y0021074D01*
X0083704Y0021481D01*
X0083493Y0021846D01*
X0083195Y0022144D01*
X0082830Y0022354D01*
X0082423Y0022463D01*
X0081622Y0022463D01*
X0081322Y0022463D01*
X0089484Y0030626D01*
X0090361Y0031502D01*
X0090361Y0023598D01*
X0091298Y0022661D01*
X0094542Y0022661D01*
X0094542Y0022017D01*
X0093732Y0021207D01*
X0093273Y0020099D01*
X0093273Y0017399D01*
X0093732Y0016291D01*
X0094580Y0015443D01*
X0095688Y0014984D01*
X0097595Y0014984D01*
X0098703Y0015443D01*
X0099551Y0016291D01*
X0099700Y0016649D01*
X0102369Y0016649D01*
X0102369Y0016118D01*
X0103306Y0015181D01*
X0108568Y0015181D01*
X0109283Y0015896D01*
X0109999Y0015181D01*
X0115261Y0015181D01*
X0116198Y0016118D01*
X0116198Y0021774D01*
X0115261Y0022711D01*
X0115230Y0022711D01*
X0115230Y0023794D01*
X0114834Y0024750D01*
X0112458Y0027125D01*
X0112458Y0032010D01*
X0111521Y0032948D01*
X0104684Y0032948D01*
X0103746Y0032010D01*
X0103746Y0025944D01*
X0103314Y0025511D01*
X0103284Y0025511D01*
X0103213Y0025583D01*
X0102043Y0026067D01*
X0100776Y0026067D01*
X0099606Y0025583D01*
X0099072Y0025049D01*
X0099072Y0029190D01*
X0099769Y0029887D01*
X0099769Y0032307D01*
X0101239Y0032307D01*
X0102419Y0033486D01*
X0102419Y0034563D01*
X0125991Y0034563D01*
X0125991Y0033486D01*
X0127170Y0032307D01*
X0134310Y0032307D01*
X0135490Y0033486D01*
X0135490Y0034563D01*
X0145586Y0034563D01*
X0146817Y0035793D01*
X0148439Y0037415D01*
X0149287Y0037415D01*
X0150457Y0037900D01*
X0151353Y0038796D01*
X0151838Y0039966D01*
X0151838Y0040814D01*
X0151839Y0040815D01*
X0151860Y0040764D01*
X0152755Y0039869D01*
X0153926Y0039384D01*
X0155192Y0039384D01*
X0156363Y0039869D01*
X0157259Y0040764D01*
X0157743Y0041935D01*
X0157743Y0043201D01*
X0157259Y0044372D01*
X0156659Y0044971D01*
X0156659Y0049231D01*
X0172332Y0064904D01*
X0174944Y0064904D01*
X0175014Y0064974D01*
X0175862Y0064974D01*
X0177032Y0065459D01*
X0177928Y0066355D01*
X0178264Y0067167D01*
X0180034Y0065397D01*
X0181626Y0065397D01*
X0181626Y0069713D01*
X0182296Y0069713D01*
X0182296Y0065397D01*
X0182656Y0065397D01*
X0168553Y0051294D01*
X0167705Y0051294D01*
X0166535Y0050809D01*
X0165639Y0049914D01*
X0165154Y0048743D01*
X0165154Y0047476D01*
X0165639Y0046306D01*
X0166535Y0045410D01*
X0167705Y0044926D01*
X0168107Y0044926D01*
X0168107Y0043903D01*
X0168592Y0042733D01*
X0169488Y0041837D01*
X0170658Y0041352D01*
X0171925Y0041352D01*
X0173095Y0041837D01*
X0173991Y0042733D01*
X0174476Y0043903D01*
X0174476Y0044751D01*
X0192830Y0063106D01*
X0194061Y0064336D01*
X0194061Y0065571D01*
X0196612Y0068122D01*
X0196612Y0071975D01*
X0194811Y0073776D01*
X0198233Y0077198D01*
X0200034Y0075397D01*
X0203887Y0075397D01*
X0206612Y0078122D01*
X0206612Y0081975D01*
X0203887Y0084700D01*
X0201207Y0084700D01*
X0201207Y0093314D01*
X0201807Y0093914D01*
X0202291Y0095084D01*
X0202291Y0096351D01*
X0201807Y0097521D01*
X0200911Y0098417D01*
X0199740Y0098902D01*
X0198669Y0098902D01*
X0198718Y0099021D01*
X0198718Y0100288D01*
X0198233Y0101458D01*
X0197338Y0102354D01*
X0196167Y0102839D01*
X0195095Y0102839D01*
X0195145Y0102958D01*
X0195145Y0104225D01*
X0194660Y0105395D01*
X0193764Y0106291D01*
X0192594Y0106776D01*
X0191327Y0106776D01*
X0190157Y0106291D01*
X0189261Y0105395D01*
X0188776Y0104225D01*
X0188776Y0102958D01*
X0189261Y0101788D01*
X0189861Y0101188D01*
X0189861Y0084526D01*
X0187309Y0081975D01*
X0187309Y0078367D01*
X0185442Y0076500D01*
X0184212Y0075269D01*
X0184212Y0074375D01*
X0183887Y0074700D01*
X0182296Y0074700D01*
X0182296Y0070384D01*
X0181626Y0070384D01*
X0181626Y0074700D01*
X0180034Y0074700D01*
X0177309Y0071975D01*
X0177309Y0070581D01*
X0177032Y0070858D01*
X0176119Y0071237D01*
X0180279Y0075397D01*
X0183887Y0075397D01*
X0186612Y0078122D01*
X0186612Y0081975D01*
X0184061Y0084526D01*
X0184061Y0107771D01*
X0186858Y0107771D01*
X0189553Y0110466D01*
X0189553Y0114277D01*
X0186858Y0116971D01*
X0183047Y0116971D01*
X0182753Y0116677D01*
X0182753Y0117201D01*
X0183323Y0117771D01*
X0186858Y0117771D01*
X0189553Y0120466D01*
X0189553Y0124277D01*
X0186858Y0126971D01*
X0183047Y0126971D01*
X0180353Y0124277D01*
X0180353Y0120741D01*
X0178553Y0118941D01*
X0178553Y0115277D01*
X0176858Y0116971D01*
X0173047Y0116971D01*
X0170353Y0114277D01*
X0170353Y0110466D01*
X0173047Y0107771D01*
X0176858Y0107771D01*
X0178680Y0109593D01*
X0179783Y0108490D01*
X0179861Y0108412D01*
X0179352Y0108921D02*
X0178008Y0108921D01*
X0171897Y0108921D02*
X0168008Y0108921D01*
X0166858Y0107771D02*
X0169553Y0110466D01*
X0169553Y0114277D01*
X0166858Y0116971D01*
X0163047Y0116971D01*
X0160353Y0114277D01*
X0160353Y0110466D01*
X0163047Y0107771D01*
X0166858Y0107771D01*
X0169207Y0110120D02*
X0170699Y0110120D01*
X0170353Y0111318D02*
X0169553Y0111318D01*
X0169553Y0112517D02*
X0170353Y0112517D01*
X0170353Y0113715D02*
X0169553Y0113715D01*
X0168915Y0114914D02*
X0170990Y0114914D01*
X0172189Y0116112D02*
X0167717Y0116112D01*
X0166858Y0117771D02*
X0169553Y0120466D01*
X0169553Y0124277D01*
X0166858Y0126971D01*
X0163047Y0126971D01*
X0160353Y0124277D01*
X0160353Y0120466D01*
X0163047Y0117771D01*
X0166858Y0117771D01*
X0167596Y0118510D02*
X0172309Y0118510D01*
X0173047Y0117771D02*
X0174553Y0117771D01*
X0174553Y0121971D01*
X0175353Y0121971D01*
X0175353Y0122771D01*
X0179553Y0122771D01*
X0179553Y0124277D01*
X0176858Y0126971D01*
X0175353Y0126971D01*
X0175353Y0122771D01*
X0174553Y0122771D01*
X0174553Y0121971D01*
X0170353Y0121971D01*
X0170353Y0120466D01*
X0173047Y0117771D01*
X0174553Y0118510D02*
X0175353Y0118510D01*
X0175353Y0117771D02*
X0176858Y0117771D01*
X0179553Y0120466D01*
X0179553Y0121971D01*
X0175353Y0121971D01*
X0175353Y0117771D01*
X0175353Y0119708D02*
X0174553Y0119708D01*
X0174553Y0120907D02*
X0175353Y0120907D01*
X0175353Y0122105D02*
X0180353Y0122105D01*
X0180353Y0120907D02*
X0179553Y0120907D01*
X0179320Y0119708D02*
X0178795Y0119708D01*
X0178553Y0118510D02*
X0177596Y0118510D01*
X0178553Y0117311D02*
X0142580Y0117311D01*
X0142189Y0116112D02*
X0141381Y0116112D01*
X0140990Y0114914D02*
X0140953Y0114914D01*
X0138404Y0118510D02*
X0137596Y0118510D01*
X0137206Y0117311D02*
X0132753Y0117311D01*
X0128953Y0117311D02*
X0022793Y0117311D01*
X0022793Y0116112D02*
X0032189Y0116112D01*
X0030990Y0114914D02*
X0022353Y0114914D01*
X0022793Y0115976D02*
X0021725Y0113398D01*
X0019752Y0111426D01*
X0017175Y0110358D01*
X0014384Y0110358D01*
X0011807Y0111426D01*
X0009834Y0113398D01*
X0008766Y0115976D01*
X0008766Y0118766D01*
X0009834Y0121344D01*
X0011807Y0123317D01*
X0014384Y0124385D01*
X0017175Y0124385D01*
X0019752Y0123317D01*
X0021725Y0121344D01*
X0022793Y0118766D01*
X0022793Y0115976D01*
X0021856Y0113715D02*
X0030353Y0113715D01*
X0030353Y0112517D02*
X0020844Y0112517D01*
X0019494Y0111318D02*
X0030353Y0111318D01*
X0030699Y0110120D02*
X0003600Y0110120D01*
X0003600Y0111318D02*
X0012065Y0111318D01*
X0010715Y0112517D02*
X0003600Y0112517D01*
X0003600Y0113715D02*
X0009703Y0113715D01*
X0009206Y0114914D02*
X0003600Y0114914D01*
X0003600Y0116112D02*
X0008766Y0116112D01*
X0008766Y0117311D02*
X0003600Y0117311D01*
X0003600Y0118510D02*
X0008766Y0118510D01*
X0009156Y0119708D02*
X0003629Y0119708D01*
X0003723Y0120907D02*
X0009653Y0120907D01*
X0010595Y0122105D02*
X0004105Y0122105D01*
X0004495Y0123304D02*
X0011793Y0123304D01*
X0007057Y0126899D02*
X0032975Y0126899D01*
X0033047Y0126971D02*
X0030353Y0124277D01*
X0030353Y0120466D01*
X0033047Y0117771D01*
X0036858Y0117771D01*
X0039553Y0120466D01*
X0039553Y0124277D01*
X0036858Y0126971D01*
X0033047Y0126971D01*
X0031777Y0125701D02*
X0005966Y0125701D01*
X0005096Y0124502D02*
X0030578Y0124502D01*
X0030353Y0123304D02*
X0019766Y0123304D01*
X0020964Y0122105D02*
X0030353Y0122105D01*
X0030353Y0120907D02*
X0021906Y0120907D01*
X0022403Y0119708D02*
X0031111Y0119708D01*
X0032309Y0118510D02*
X0022793Y0118510D01*
X0037596Y0118510D02*
X0042309Y0118510D01*
X0043047Y0117771D02*
X0046858Y0117771D01*
X0049553Y0120466D01*
X0049553Y0124277D01*
X0046858Y0126971D01*
X0043047Y0126971D01*
X0040353Y0124277D01*
X0040353Y0120466D01*
X0043047Y0117771D01*
X0042189Y0116112D02*
X0037717Y0116112D01*
X0038915Y0114914D02*
X0040990Y0114914D01*
X0040353Y0113715D02*
X0039553Y0113715D01*
X0039553Y0112517D02*
X0040353Y0112517D01*
X0040353Y0111318D02*
X0039553Y0111318D01*
X0039533Y0110120D02*
X0040699Y0110120D01*
X0039533Y0108921D02*
X0041897Y0108921D01*
X0042853Y0107723D02*
X0039533Y0107723D01*
X0039533Y0106524D02*
X0042853Y0106524D01*
X0042853Y0105326D02*
X0039533Y0105326D01*
X0039533Y0104127D02*
X0042005Y0104127D01*
X0041542Y0102929D02*
X0039533Y0102929D01*
X0039533Y0101730D02*
X0041542Y0101730D01*
X0041542Y0100532D02*
X0039533Y0100532D01*
X0039533Y0099333D02*
X0041542Y0099333D01*
X0041808Y0098135D02*
X0039954Y0098135D01*
X0041153Y0096936D02*
X0041542Y0096936D01*
X0036412Y0095738D02*
X0032023Y0095738D01*
X0032222Y0095937D02*
X0032222Y0098270D01*
X0026022Y0098270D01*
X0026022Y0092070D01*
X0028356Y0092070D01*
X0032222Y0095937D01*
X0032222Y0096936D02*
X0035333Y0096936D01*
X0035333Y0098135D02*
X0032222Y0098135D01*
X0032222Y0099070D02*
X0032222Y0101404D01*
X0028356Y0105270D01*
X0026022Y0105270D01*
X0026022Y0099071D01*
X0025222Y0099071D01*
X0025222Y0105270D01*
X0022888Y0105270D01*
X0019022Y0101404D01*
X0019022Y0099070D01*
X0025222Y0099070D01*
X0025222Y0098270D01*
X0026022Y0098270D01*
X0026022Y0099070D01*
X0032222Y0099070D01*
X0032222Y0099333D02*
X0035333Y0099333D01*
X0035333Y0100532D02*
X0032222Y0100532D01*
X0031896Y0101730D02*
X0035333Y0101730D01*
X0035333Y0102929D02*
X0030697Y0102929D01*
X0029499Y0104127D02*
X0035333Y0104127D01*
X0035333Y0105326D02*
X0003600Y0105326D01*
X0003600Y0106524D02*
X0035333Y0106524D01*
X0035333Y0107723D02*
X0003600Y0107723D01*
X0003600Y0108921D02*
X0031897Y0108921D01*
X0026022Y0104127D02*
X0025222Y0104127D01*
X0025222Y0102929D02*
X0026022Y0102929D01*
X0026022Y0101730D02*
X0025222Y0101730D01*
X0025222Y0100532D02*
X0026022Y0100532D01*
X0026022Y0099333D02*
X0025222Y0099333D01*
X0025222Y0098270D02*
X0019022Y0098270D01*
X0019022Y0095937D01*
X0022888Y0092070D01*
X0025222Y0092070D01*
X0025222Y0098270D01*
X0025222Y0098135D02*
X0026022Y0098135D01*
X0026022Y0096936D02*
X0025222Y0096936D01*
X0025222Y0095738D02*
X0026022Y0095738D01*
X0026022Y0094539D02*
X0025222Y0094539D01*
X0025222Y0093341D02*
X0026022Y0093341D01*
X0026022Y0092142D02*
X0025222Y0092142D01*
X0022816Y0092142D02*
X0017458Y0092142D01*
X0017458Y0090944D02*
X0042306Y0090944D01*
X0041542Y0092142D02*
X0028428Y0092142D01*
X0029626Y0093341D02*
X0038809Y0093341D01*
X0037610Y0094539D02*
X0030825Y0094539D01*
X0021618Y0093341D02*
X0017458Y0093341D01*
X0017458Y0094539D02*
X0020419Y0094539D01*
X0019221Y0095738D02*
X0017458Y0095738D01*
X0017458Y0096936D02*
X0019022Y0096936D01*
X0019022Y0098135D02*
X0017458Y0098135D01*
X0017458Y0099333D02*
X0019022Y0099333D01*
X0019022Y0100532D02*
X0017458Y0100532D01*
X0017132Y0101730D02*
X0019348Y0101730D01*
X0020547Y0102929D02*
X0015934Y0102929D01*
X0016453Y0102409D02*
X0016453Y0102409D01*
X0014735Y0104127D02*
X0021745Y0104127D01*
X0014597Y0104266D02*
X0014597Y0104266D01*
X0006981Y0104127D02*
X0003600Y0104127D01*
X0003600Y0102929D02*
X0005783Y0102929D01*
X0005263Y0102409D02*
X0005263Y0102409D01*
X0004584Y0101730D02*
X0003600Y0101730D01*
X0003600Y0100532D02*
X0004258Y0100532D01*
X0004258Y0099333D02*
X0003600Y0099333D01*
X0003600Y0098135D02*
X0004258Y0098135D01*
X0004258Y0096936D02*
X0003600Y0096936D01*
X0003600Y0095738D02*
X0004258Y0095738D01*
X0004258Y0094539D02*
X0003600Y0094539D01*
X0003600Y0093341D02*
X0004258Y0093341D01*
X0004258Y0092142D02*
X0003600Y0092142D01*
X0003600Y0090944D02*
X0004258Y0090944D01*
X0004258Y0089745D02*
X0003600Y0089745D01*
X0003600Y0088547D02*
X0004258Y0088547D01*
X0004258Y0087348D02*
X0003600Y0087348D01*
X0003600Y0086150D02*
X0004258Y0086150D01*
X0004250Y0084951D02*
X0003600Y0084951D01*
X0003600Y0083753D02*
X0004250Y0083753D01*
X0004451Y0082554D02*
X0003600Y0082554D01*
X0003600Y0081356D02*
X0004947Y0081356D01*
X0005711Y0080157D02*
X0003600Y0080157D01*
X0003600Y0078959D02*
X0006909Y0078959D01*
X0006763Y0077760D02*
X0003600Y0077760D01*
X0003600Y0076562D02*
X0006029Y0076562D01*
X0005550Y0075363D02*
X0003600Y0075363D01*
X0003600Y0074165D02*
X0005550Y0074165D01*
X0005687Y0072966D02*
X0003600Y0072966D01*
X0003600Y0071768D02*
X0006184Y0071768D01*
X0007137Y0070569D02*
X0003600Y0070569D01*
X0003600Y0069371D02*
X0009026Y0069371D01*
X0007175Y0068172D02*
X0003600Y0068172D01*
X0003600Y0066974D02*
X0006238Y0066974D01*
X0005740Y0065775D02*
X0003600Y0065775D01*
X0003600Y0064577D02*
X0010450Y0064577D01*
X0005638Y0063378D02*
X0003600Y0063378D01*
X0003600Y0062179D02*
X0006008Y0062179D01*
X0006748Y0060981D02*
X0003600Y0060981D01*
X0003600Y0059782D02*
X0008143Y0059782D01*
X0007587Y0058584D02*
X0003600Y0058584D01*
X0003600Y0057385D02*
X0006389Y0057385D01*
X0005874Y0056187D02*
X0003600Y0056187D01*
X0003600Y0054988D02*
X0005550Y0054988D01*
X0005550Y0053790D02*
X0003600Y0053790D01*
X0003600Y0052591D02*
X0005842Y0052591D01*
X0006339Y0051393D02*
X0003600Y0051393D01*
X0003600Y0050194D02*
X0007512Y0050194D01*
X0003600Y0048996D02*
X0013236Y0048996D01*
X0014434Y0047797D02*
X0003600Y0047797D01*
X0003600Y0046599D02*
X0015633Y0046599D01*
X0016831Y0045400D02*
X0003600Y0045400D01*
X0003600Y0044202D02*
X0028882Y0044202D01*
X0028385Y0043003D02*
X0003600Y0043003D01*
X0003600Y0041805D02*
X0033096Y0041805D01*
X0033896Y0041805D02*
X0078777Y0041805D01*
X0078540Y0040606D02*
X0071089Y0040606D01*
X0072631Y0039408D02*
X0078771Y0039408D01*
X0083837Y0038209D02*
X0085808Y0038209D01*
X0085430Y0037011D02*
X0083813Y0037011D01*
X0083813Y0035812D02*
X0085520Y0035812D01*
X0086160Y0034614D02*
X0083813Y0034614D01*
X0083813Y0033415D02*
X0086334Y0033415D01*
X0085135Y0032217D02*
X0083813Y0032217D01*
X0083937Y0031018D02*
X0082987Y0031018D01*
X0082738Y0029820D02*
X0081788Y0029820D01*
X0081540Y0028621D02*
X0080590Y0028621D01*
X0080341Y0027423D02*
X0079391Y0027423D01*
X0079143Y0026224D02*
X0078193Y0026224D01*
X0077944Y0025026D02*
X0076994Y0025026D01*
X0076963Y0023827D02*
X0069854Y0023827D01*
X0069939Y0022629D02*
X0076963Y0022629D01*
X0081487Y0022629D02*
X0094542Y0022629D01*
X0093955Y0021430D02*
X0092329Y0021430D01*
X0092337Y0021422D02*
X0091917Y0021841D01*
X0091423Y0022171D01*
X0090875Y0022399D01*
X0090292Y0022515D01*
X0089926Y0022515D01*
X0089926Y0019034D01*
X0089357Y0019034D01*
X0089357Y0022515D01*
X0088991Y0022515D01*
X0088409Y0022399D01*
X0087860Y0022171D01*
X0087366Y0021841D01*
X0086946Y0021422D01*
X0086616Y0020928D01*
X0086389Y0020379D01*
X0086273Y0019797D01*
X0086273Y0019033D01*
X0089357Y0019033D01*
X0083813Y0019033D01*
X0083813Y0017835D02*
X0086273Y0017835D01*
X0086273Y0017702D02*
X0086389Y0017119D01*
X0086616Y0016571D01*
X0086946Y0016077D01*
X0087366Y0015657D01*
X0087860Y0015327D01*
X0088409Y0015100D01*
X0088991Y0014984D01*
X0089357Y0014984D01*
X0089357Y0018465D01*
X0086273Y0018465D01*
X0086273Y0017702D01*
X0086589Y0016636D02*
X0083813Y0016636D01*
X0083655Y0015438D02*
X0087694Y0015438D01*
X0089357Y0015438D02*
X0089926Y0015438D01*
X0089926Y0014984D02*
X0090292Y0014984D01*
X0090875Y0015100D01*
X0091423Y0015327D01*
X0091917Y0015657D01*
X0092337Y0016077D01*
X0092667Y0016571D01*
X0092894Y0017119D01*
X0093010Y0017702D01*
X0093010Y0018465D01*
X0089926Y0018465D01*
X0089926Y0019033D01*
X0093273Y0019033D01*
X0093010Y0019033D02*
X0093010Y0019797D01*
X0092894Y0020379D01*
X0092667Y0020928D01*
X0092337Y0021422D01*
X0092924Y0020232D02*
X0093328Y0020232D01*
X0093010Y0019033D02*
X0089926Y0019033D01*
X0089926Y0018465D02*
X0089926Y0014984D01*
X0091589Y0015438D02*
X0094593Y0015438D01*
X0093589Y0016636D02*
X0092694Y0016636D01*
X0093010Y0017835D02*
X0093273Y0017835D01*
X0089926Y0017835D02*
X0089357Y0017835D01*
X0089357Y0018465D02*
X0089926Y0018465D01*
X0089357Y0018465D02*
X0089357Y0019033D01*
X0089357Y0020232D02*
X0089926Y0020232D01*
X0089926Y0021430D02*
X0089357Y0021430D01*
X0086955Y0021430D02*
X0083717Y0021430D01*
X0083813Y0020232D02*
X0086360Y0020232D01*
X0089357Y0016636D02*
X0089926Y0016636D01*
X0081622Y0018501D02*
X0081622Y0018501D01*
X0081622Y0022463D01*
X0081622Y0018501D01*
X0081622Y0019033D02*
X0081622Y0019033D01*
X0081622Y0020232D02*
X0081622Y0020232D01*
X0081622Y0021430D02*
X0081622Y0021430D01*
X0082686Y0023827D02*
X0090361Y0023827D01*
X0090361Y0025026D02*
X0083884Y0025026D01*
X0085083Y0026224D02*
X0090361Y0026224D01*
X0090361Y0027423D02*
X0086281Y0027423D01*
X0087480Y0028621D02*
X0090361Y0028621D01*
X0090361Y0029820D02*
X0088678Y0029820D01*
X0089877Y0031018D02*
X0090361Y0031018D01*
X0090714Y0033415D02*
X0092991Y0033415D01*
X0092920Y0034614D02*
X0091069Y0034614D01*
X0091709Y0035812D02*
X0092920Y0035812D01*
X0092920Y0037011D02*
X0091798Y0037011D01*
X0091420Y0038209D02*
X0092920Y0038209D01*
X0092920Y0039408D02*
X0090308Y0039408D01*
X0086921Y0039408D02*
X0084677Y0039408D01*
X0084909Y0040606D02*
X0093687Y0040606D01*
X0094099Y0041165D02*
X0101239Y0041165D01*
X0102419Y0042344D01*
X0102419Y0048697D01*
X0101239Y0049877D01*
X0094099Y0049877D01*
X0092920Y0048697D01*
X0092920Y0042344D01*
X0094099Y0041165D01*
X0093459Y0041805D02*
X0084672Y0041805D01*
X0083824Y0043003D02*
X0092920Y0043003D01*
X0092920Y0044202D02*
X0038110Y0044202D01*
X0038608Y0043003D02*
X0079625Y0043003D01*
X0068737Y0040606D02*
X0038707Y0040606D01*
X0038336Y0039408D02*
X0067196Y0039408D01*
X0066729Y0038209D02*
X0037595Y0038209D01*
X0036195Y0037011D02*
X0066730Y0037011D01*
X0067245Y0035812D02*
X0036763Y0035812D01*
X0037961Y0034614D02*
X0040244Y0034614D01*
X0040273Y0034721D02*
X0040164Y0034314D01*
X0040164Y0032322D01*
X0043545Y0032322D01*
X0043545Y0035704D01*
X0041553Y0035704D01*
X0041146Y0035594D01*
X0040781Y0035384D01*
X0040483Y0035086D01*
X0040273Y0034721D01*
X0040164Y0033415D02*
X0038474Y0033415D01*
X0038796Y0032217D02*
X0043545Y0032217D01*
X0044707Y0032217D02*
X0048431Y0032217D01*
X0048431Y0033415D02*
X0048088Y0033415D01*
X0048008Y0034614D02*
X0048431Y0034614D01*
X0044707Y0034614D02*
X0043545Y0034614D01*
X0043545Y0033415D02*
X0044707Y0033415D01*
X0048088Y0031018D02*
X0048431Y0031018D01*
X0048431Y0029820D02*
X0048088Y0029820D01*
X0040164Y0029820D02*
X0038502Y0029820D01*
X0038796Y0031018D02*
X0040164Y0031018D01*
X0035564Y0026704D02*
X0035973Y0026294D01*
X0035275Y0026584D01*
X0035564Y0026704D01*
X0037855Y0024720D02*
X0041064Y0024720D01*
X0040781Y0024557D01*
X0040483Y0024259D01*
X0040273Y0023894D01*
X0040164Y0023487D01*
X0040164Y0021496D01*
X0043545Y0021496D01*
X0043545Y0020333D01*
X0044707Y0020333D01*
X0044707Y0016952D01*
X0046699Y0016952D01*
X0047106Y0017061D01*
X0047471Y0017272D01*
X0047768Y0017570D01*
X0047979Y0017935D01*
X0048088Y0018342D01*
X0048088Y0020333D01*
X0044707Y0020333D01*
X0044707Y0021496D01*
X0048088Y0021496D01*
X0048088Y0023487D01*
X0047979Y0023894D01*
X0047768Y0024259D01*
X0047471Y0024557D01*
X0047188Y0024720D01*
X0049212Y0024720D01*
X0048431Y0023939D01*
X0048431Y0017890D01*
X0049369Y0016952D01*
X0055419Y0016952D01*
X0056331Y0017864D01*
X0057046Y0017149D01*
X0062308Y0017149D01*
X0063024Y0017864D01*
X0063739Y0017149D01*
X0067166Y0017149D01*
X0067376Y0016939D01*
X0041111Y0016939D01*
X0038422Y0019627D01*
X0038796Y0020530D01*
X0038796Y0022638D01*
X0037989Y0024586D01*
X0037855Y0024720D01*
X0038304Y0023827D02*
X0040255Y0023827D01*
X0040164Y0022629D02*
X0038796Y0022629D01*
X0038796Y0021430D02*
X0043545Y0021430D01*
X0043545Y0020333D02*
X0040164Y0020333D01*
X0040164Y0018342D01*
X0040273Y0017935D01*
X0040483Y0017570D01*
X0040781Y0017272D01*
X0041146Y0017061D01*
X0041553Y0016952D01*
X0043545Y0016952D01*
X0043545Y0020333D01*
X0043545Y0020232D02*
X0044707Y0020232D01*
X0044707Y0021430D02*
X0048431Y0021430D01*
X0048431Y0020232D02*
X0048088Y0020232D01*
X0048088Y0019033D02*
X0048431Y0019033D01*
X0048487Y0017835D02*
X0047921Y0017835D01*
X0044707Y0017835D02*
X0043545Y0017835D01*
X0043545Y0019033D02*
X0044707Y0019033D01*
X0040331Y0017835D02*
X0040215Y0017835D01*
X0040164Y0019033D02*
X0039017Y0019033D01*
X0038673Y0020232D02*
X0040164Y0020232D01*
X0035474Y0016636D02*
X0035401Y0016636D01*
X0036673Y0015438D02*
X0010148Y0015438D01*
X0007961Y0016636D02*
X0031591Y0016636D01*
X0029750Y0017835D02*
X0006443Y0017835D01*
X0005572Y0019033D02*
X0028816Y0019033D01*
X0028319Y0020232D02*
X0018200Y0020232D01*
X0017175Y0019807D02*
X0019752Y0020874D01*
X0021725Y0022847D01*
X0022793Y0025425D01*
X0022793Y0028215D01*
X0021725Y0030793D01*
X0019752Y0032766D01*
X0017175Y0033833D01*
X0014384Y0033833D01*
X0011807Y0032766D01*
X0009834Y0030793D01*
X0008766Y0028215D01*
X0008766Y0025425D01*
X0009834Y0022847D01*
X0011807Y0020874D01*
X0014384Y0019807D01*
X0017175Y0019807D01*
X0020308Y0021430D02*
X0028196Y0021430D01*
X0028196Y0022629D02*
X0021507Y0022629D01*
X0022131Y0023827D02*
X0028689Y0023827D01*
X0029443Y0025026D02*
X0022627Y0025026D01*
X0022793Y0026224D02*
X0030849Y0026224D01*
X0030162Y0027423D02*
X0022793Y0027423D01*
X0022625Y0028621D02*
X0028987Y0028621D01*
X0028490Y0029820D02*
X0022128Y0029820D01*
X0021500Y0031018D02*
X0028196Y0031018D01*
X0028196Y0032217D02*
X0020301Y0032217D01*
X0018184Y0033415D02*
X0028518Y0033415D01*
X0029031Y0034614D02*
X0003600Y0034614D01*
X0003600Y0035812D02*
X0030229Y0035812D01*
X0030797Y0037011D02*
X0003600Y0037011D01*
X0003600Y0038209D02*
X0029397Y0038209D01*
X0028656Y0039408D02*
X0003600Y0039408D01*
X0003600Y0040606D02*
X0028285Y0040606D01*
X0013375Y0033415D02*
X0003600Y0033415D01*
X0003600Y0032217D02*
X0011258Y0032217D01*
X0010059Y0031018D02*
X0003600Y0031018D01*
X0003600Y0029820D02*
X0009431Y0029820D01*
X0008934Y0028621D02*
X0003600Y0028621D01*
X0003600Y0027423D02*
X0008766Y0027423D01*
X0008766Y0026224D02*
X0003600Y0026224D01*
X0003600Y0025026D02*
X0008932Y0025026D01*
X0009428Y0023827D02*
X0003681Y0023827D01*
X0003929Y0022629D02*
X0010053Y0022629D01*
X0011251Y0021430D02*
X0004318Y0021430D01*
X0004708Y0020232D02*
X0013359Y0020232D01*
X0048088Y0022629D02*
X0048431Y0022629D01*
X0048431Y0023827D02*
X0047997Y0023827D01*
X0056301Y0017835D02*
X0056361Y0017835D01*
X0062994Y0017835D02*
X0063053Y0017835D01*
X0069939Y0021430D02*
X0071754Y0021430D01*
X0098690Y0015438D02*
X0103049Y0015438D01*
X0102369Y0016636D02*
X0099694Y0016636D01*
X0108825Y0015438D02*
X0109742Y0015438D01*
X0115518Y0015438D02*
X0130927Y0015438D01*
X0130008Y0016636D02*
X0116198Y0016636D01*
X0116198Y0017835D02*
X0125131Y0017835D01*
X0126901Y0017835D02*
X0129721Y0017835D01*
X0134884Y0015438D02*
X0137971Y0015438D01*
X0137595Y0016636D02*
X0135803Y0016636D01*
X0136090Y0017835D02*
X0137688Y0017835D01*
X0138332Y0019033D02*
X0136947Y0019033D01*
X0138145Y0020232D02*
X0138600Y0020232D01*
X0144430Y0019078D02*
X0144463Y0019111D01*
X0144948Y0020281D01*
X0144948Y0021129D01*
X0145282Y0021463D01*
X0145282Y0021200D01*
X0150730Y0021200D01*
X0150730Y0021022D01*
X0145282Y0021022D01*
X0145282Y0019523D01*
X0145347Y0019280D01*
X0145282Y0019215D01*
X0145282Y0019078D01*
X0144430Y0019078D01*
X0144927Y0020232D02*
X0145282Y0020232D01*
X0145249Y0021430D02*
X0145282Y0021430D01*
X0135867Y0027423D02*
X0112458Y0027423D01*
X0112458Y0028621D02*
X0137065Y0028621D01*
X0138264Y0029820D02*
X0112458Y0029820D01*
X0112458Y0031018D02*
X0139462Y0031018D01*
X0140661Y0032217D02*
X0112252Y0032217D01*
X0103953Y0032217D02*
X0099769Y0032217D01*
X0099769Y0031018D02*
X0103746Y0031018D01*
X0103746Y0029820D02*
X0099702Y0029820D01*
X0099072Y0028621D02*
X0103746Y0028621D01*
X0103746Y0027423D02*
X0099072Y0027423D01*
X0099072Y0026224D02*
X0103746Y0026224D01*
X0113359Y0026224D02*
X0134668Y0026224D01*
X0133470Y0025026D02*
X0114558Y0025026D01*
X0115216Y0023827D02*
X0124727Y0023827D01*
X0123279Y0022629D02*
X0115344Y0022629D01*
X0116198Y0021430D02*
X0122831Y0021430D01*
X0122852Y0020232D02*
X0116198Y0020232D01*
X0116198Y0019033D02*
X0123394Y0019033D01*
X0127305Y0023827D02*
X0132271Y0023827D01*
X0135419Y0033415D02*
X0171387Y0033415D01*
X0172585Y0034614D02*
X0145638Y0034614D01*
X0146836Y0035812D02*
X0173784Y0035812D01*
X0174982Y0037011D02*
X0148035Y0037011D01*
X0150766Y0038209D02*
X0176181Y0038209D01*
X0177379Y0039408D02*
X0155250Y0039408D01*
X0153868Y0039408D02*
X0151606Y0039408D01*
X0151838Y0040606D02*
X0152018Y0040606D01*
X0157100Y0040606D02*
X0178578Y0040606D01*
X0179776Y0041805D02*
X0173017Y0041805D01*
X0174103Y0043003D02*
X0180975Y0043003D01*
X0182173Y0044202D02*
X0174476Y0044202D01*
X0175125Y0045400D02*
X0183372Y0045400D01*
X0184570Y0046599D02*
X0176323Y0046599D01*
X0177522Y0047797D02*
X0185769Y0047797D01*
X0186967Y0048996D02*
X0178720Y0048996D01*
X0179919Y0050194D02*
X0188166Y0050194D01*
X0189364Y0051393D02*
X0181117Y0051393D01*
X0182316Y0052591D02*
X0190563Y0052591D01*
X0191762Y0053790D02*
X0183514Y0053790D01*
X0184713Y0054988D02*
X0192960Y0054988D01*
X0188309Y0058584D02*
X0207683Y0058584D01*
X0207683Y0057385D02*
X0187110Y0057385D01*
X0185912Y0056187D02*
X0204631Y0056187D01*
X0207125Y0056187D02*
X0207683Y0056187D01*
X0208290Y0059782D02*
X0189507Y0059782D01*
X0190706Y0060981D02*
X0241107Y0060981D01*
X0241124Y0060998D02*
X0239633Y0059507D01*
X0238826Y0057559D01*
X0238826Y0055451D01*
X0239633Y0053503D01*
X0241124Y0052012D01*
X0242354Y0051502D01*
X0242091Y0051417D01*
X0241348Y0051038D01*
X0240673Y0050548D01*
X0240083Y0049958D01*
X0239593Y0049283D01*
X0239214Y0048540D01*
X0238956Y0047746D01*
X0238826Y0046922D01*
X0238826Y0046905D01*
X0243726Y0046905D01*
X0243726Y0046105D01*
X0244526Y0046105D01*
X0244526Y0041205D01*
X0244543Y0041205D01*
X0245367Y0041336D01*
X0246160Y0041593D01*
X0246904Y0041972D01*
X0247579Y0042462D01*
X0248169Y0043052D01*
X0248659Y0043727D01*
X0249038Y0044471D01*
X0249295Y0045264D01*
X0249426Y0046088D01*
X0249426Y0046105D01*
X0244526Y0046105D01*
X0244526Y0046905D01*
X0249426Y0046905D01*
X0249426Y0046922D01*
X0249295Y0047746D01*
X0249038Y0048540D01*
X0248659Y0049283D01*
X0248169Y0049958D01*
X0247579Y0050548D01*
X0246904Y0051038D01*
X0246160Y0051417D01*
X0245898Y0051502D01*
X0247128Y0052012D01*
X0248619Y0053503D01*
X0249426Y0055451D01*
X0249426Y0057559D01*
X0248619Y0059507D01*
X0247128Y0060998D01*
X0245904Y0061505D01*
X0247128Y0062012D01*
X0248619Y0063503D01*
X0249426Y0065451D01*
X0249426Y0067559D01*
X0248619Y0069507D01*
X0247128Y0070998D01*
X0245180Y0071805D01*
X0243072Y0071805D01*
X0241124Y0070998D01*
X0239633Y0069507D01*
X0238826Y0067559D01*
X0238826Y0065451D01*
X0239633Y0063503D01*
X0241124Y0062012D01*
X0242348Y0061505D01*
X0241124Y0060998D01*
X0240956Y0062179D02*
X0191904Y0062179D01*
X0193103Y0063378D02*
X0222038Y0063378D01*
X0222203Y0063212D02*
X0228253Y0063212D01*
X0229191Y0064149D01*
X0229191Y0070199D01*
X0228253Y0071137D01*
X0222203Y0071137D01*
X0221291Y0070225D01*
X0220576Y0070940D01*
X0216961Y0070940D01*
X0217298Y0071276D01*
X0217783Y0072446D01*
X0217783Y0073713D01*
X0217298Y0074884D01*
X0216402Y0075779D01*
X0215232Y0076264D01*
X0213965Y0076264D01*
X0212795Y0075779D01*
X0212195Y0075180D01*
X0211760Y0075180D01*
X0210382Y0073802D01*
X0209152Y0072572D01*
X0209152Y0070940D01*
X0208621Y0070940D01*
X0207683Y0070002D01*
X0207683Y0064346D01*
X0208621Y0063409D01*
X0213883Y0063409D01*
X0214598Y0064124D01*
X0215314Y0063409D01*
X0220576Y0063409D01*
X0221291Y0064124D01*
X0222203Y0063212D01*
X0221676Y0059782D02*
X0220907Y0059782D01*
X0214983Y0059782D02*
X0214214Y0059782D01*
X0207683Y0064577D02*
X0194061Y0064577D01*
X0194265Y0065775D02*
X0199656Y0065775D01*
X0200034Y0065397D02*
X0203887Y0065397D01*
X0206612Y0068122D01*
X0206612Y0071975D01*
X0203887Y0074700D01*
X0200034Y0074700D01*
X0197309Y0071975D01*
X0197309Y0068122D01*
X0200034Y0065397D01*
X0198458Y0066974D02*
X0195464Y0066974D01*
X0196612Y0068172D02*
X0197309Y0068172D01*
X0197309Y0069371D02*
X0196612Y0069371D01*
X0196612Y0070569D02*
X0197309Y0070569D01*
X0197309Y0071768D02*
X0196612Y0071768D01*
X0195621Y0072966D02*
X0198301Y0072966D01*
X0199499Y0074165D02*
X0195200Y0074165D01*
X0196399Y0075363D02*
X0212378Y0075363D01*
X0210745Y0074165D02*
X0204422Y0074165D01*
X0205621Y0072966D02*
X0209546Y0072966D01*
X0209152Y0071768D02*
X0206612Y0071768D01*
X0206612Y0070569D02*
X0208250Y0070569D01*
X0207683Y0069371D02*
X0206612Y0069371D01*
X0206612Y0068172D02*
X0207683Y0068172D01*
X0207683Y0066974D02*
X0205464Y0066974D01*
X0204265Y0065775D02*
X0207683Y0065775D01*
X0217501Y0071768D02*
X0242981Y0071768D01*
X0242885Y0072832D02*
X0243709Y0072701D01*
X0243726Y0072701D01*
X0243726Y0077601D01*
X0244526Y0077601D01*
X0244526Y0072701D01*
X0244543Y0072701D01*
X0245367Y0072832D01*
X0246160Y0073089D01*
X0246904Y0073468D01*
X0247579Y0073959D01*
X0248169Y0074548D01*
X0248659Y0075223D01*
X0249038Y0075967D01*
X0249295Y0076760D01*
X0249426Y0077584D01*
X0249426Y0077601D01*
X0244526Y0077601D01*
X0244526Y0078401D01*
X0249426Y0078401D01*
X0249426Y0078418D01*
X0249295Y0079242D01*
X0249038Y0080036D01*
X0248659Y0080779D01*
X0248169Y0081454D01*
X0247579Y0082044D01*
X0246904Y0082534D01*
X0246160Y0082913D01*
X0245898Y0082998D01*
X0247128Y0083508D01*
X0248619Y0084999D01*
X0249426Y0086947D01*
X0249426Y0089055D01*
X0248619Y0091003D01*
X0247128Y0092494D01*
X0245904Y0093001D01*
X0247128Y0093508D01*
X0248619Y0094999D01*
X0249426Y0096947D01*
X0249426Y0099055D01*
X0248619Y0101003D01*
X0247128Y0102494D01*
X0245180Y0103301D01*
X0243072Y0103301D01*
X0241124Y0102494D01*
X0239633Y0101003D01*
X0238826Y0099055D01*
X0238826Y0096947D01*
X0239633Y0094999D01*
X0241124Y0093508D01*
X0242348Y0093001D01*
X0241124Y0092494D01*
X0239633Y0091003D01*
X0238826Y0089055D01*
X0238826Y0086947D01*
X0239633Y0084999D01*
X0241124Y0083508D01*
X0242354Y0082998D01*
X0242091Y0082913D01*
X0241348Y0082534D01*
X0240673Y0082044D01*
X0240083Y0081454D01*
X0239593Y0080779D01*
X0239214Y0080036D01*
X0238956Y0079242D01*
X0238826Y0078418D01*
X0238826Y0078401D01*
X0243726Y0078401D01*
X0243726Y0077601D01*
X0238826Y0077601D01*
X0238826Y0077584D01*
X0238956Y0076760D01*
X0239214Y0075967D01*
X0239593Y0075223D01*
X0240083Y0074548D01*
X0240673Y0073959D01*
X0241348Y0073468D01*
X0242091Y0073089D01*
X0242885Y0072832D01*
X0242471Y0072966D02*
X0217783Y0072966D01*
X0217596Y0074165D02*
X0240467Y0074165D01*
X0239522Y0075363D02*
X0216818Y0075363D01*
X0215232Y0079738D02*
X0216402Y0080223D01*
X0217298Y0081119D01*
X0217783Y0082289D01*
X0217783Y0083556D01*
X0217566Y0084078D01*
X0220576Y0084078D01*
X0221291Y0084794D01*
X0222203Y0083881D01*
X0228253Y0083881D01*
X0229191Y0084819D01*
X0229191Y0090869D01*
X0228253Y0091806D01*
X0222203Y0091806D01*
X0221291Y0090894D01*
X0220576Y0091609D01*
X0215314Y0091609D01*
X0214598Y0090894D01*
X0213883Y0091609D01*
X0208621Y0091609D01*
X0207683Y0090672D01*
X0207683Y0085016D01*
X0208621Y0084078D01*
X0209152Y0084078D01*
X0209152Y0083431D01*
X0210530Y0082053D01*
X0211760Y0080822D01*
X0212195Y0080822D01*
X0212795Y0080223D01*
X0213965Y0079738D01*
X0215232Y0079738D01*
X0216243Y0080157D02*
X0239276Y0080157D01*
X0238912Y0078959D02*
X0206612Y0078959D01*
X0206612Y0080157D02*
X0212953Y0080157D01*
X0211227Y0081356D02*
X0206612Y0081356D01*
X0206033Y0082554D02*
X0210028Y0082554D01*
X0209152Y0083753D02*
X0204834Y0083753D01*
X0207748Y0084951D02*
X0201207Y0084951D01*
X0201207Y0086150D02*
X0207683Y0086150D01*
X0207683Y0087348D02*
X0201207Y0087348D01*
X0201207Y0088547D02*
X0207683Y0088547D01*
X0207683Y0089745D02*
X0201207Y0089745D01*
X0201207Y0090944D02*
X0207955Y0090944D01*
X0214548Y0090944D02*
X0214648Y0090944D01*
X0215314Y0094905D02*
X0220576Y0094905D01*
X0221291Y0095620D01*
X0222203Y0094708D01*
X0228253Y0094708D01*
X0229191Y0095645D01*
X0229191Y0101695D01*
X0228253Y0102633D01*
X0222203Y0102633D01*
X0221291Y0101721D01*
X0220576Y0102436D01*
X0216961Y0102436D01*
X0217298Y0102772D01*
X0217783Y0103943D01*
X0217783Y0105209D01*
X0217298Y0106380D01*
X0216402Y0107275D01*
X0215232Y0107760D01*
X0213965Y0107760D01*
X0212795Y0107275D01*
X0212195Y0106676D01*
X0211760Y0106676D01*
X0210382Y0105298D01*
X0209152Y0104068D01*
X0209152Y0102436D01*
X0208621Y0102436D01*
X0207683Y0101499D01*
X0207683Y0095842D01*
X0208621Y0094905D01*
X0213883Y0094905D01*
X0214598Y0095620D01*
X0215314Y0094905D01*
X0221241Y0090944D02*
X0221341Y0090944D01*
X0229115Y0090944D02*
X0229712Y0090944D01*
X0229643Y0090823D02*
X0229534Y0090417D01*
X0229534Y0088425D01*
X0232915Y0088425D01*
X0232915Y0091806D01*
X0230923Y0091806D01*
X0230516Y0091697D01*
X0230151Y0091486D01*
X0229854Y0091188D01*
X0229643Y0090823D01*
X0229534Y0089745D02*
X0229191Y0089745D01*
X0229191Y0088547D02*
X0229534Y0088547D01*
X0229191Y0087348D02*
X0232915Y0087348D01*
X0232915Y0087263D02*
X0229534Y0087263D01*
X0229534Y0085271D01*
X0229643Y0084864D01*
X0229854Y0084499D01*
X0230151Y0084201D01*
X0230516Y0083991D01*
X0230923Y0083881D01*
X0232915Y0083881D01*
X0232915Y0087262D01*
X0234077Y0087262D01*
X0234077Y0083881D01*
X0236069Y0083881D01*
X0236476Y0083991D01*
X0236841Y0084201D01*
X0237139Y0084499D01*
X0237349Y0084864D01*
X0237458Y0085271D01*
X0237458Y0087263D01*
X0234077Y0087263D01*
X0234077Y0088425D01*
X0232915Y0088425D01*
X0232915Y0087263D01*
X0232915Y0086150D02*
X0234077Y0086150D01*
X0234077Y0087348D02*
X0238826Y0087348D01*
X0238826Y0088547D02*
X0237458Y0088547D01*
X0237458Y0088425D02*
X0237458Y0090417D01*
X0237349Y0090823D01*
X0237139Y0091188D01*
X0236841Y0091486D01*
X0236476Y0091697D01*
X0236069Y0091806D01*
X0234077Y0091806D01*
X0234077Y0088425D01*
X0237458Y0088425D01*
X0237458Y0089745D02*
X0239112Y0089745D01*
X0239608Y0090944D02*
X0237280Y0090944D01*
X0234077Y0090944D02*
X0232915Y0090944D01*
X0232915Y0089745D02*
X0234077Y0089745D01*
X0234077Y0088547D02*
X0232915Y0088547D01*
X0229534Y0086150D02*
X0229191Y0086150D01*
X0229191Y0084951D02*
X0229619Y0084951D01*
X0232915Y0084951D02*
X0234077Y0084951D01*
X0237373Y0084951D02*
X0239681Y0084951D01*
X0239156Y0086150D02*
X0237458Y0086150D01*
X0240879Y0083753D02*
X0217701Y0083753D01*
X0217783Y0082554D02*
X0241388Y0082554D01*
X0240012Y0081356D02*
X0217396Y0081356D01*
X0206250Y0077760D02*
X0243726Y0077760D01*
X0244526Y0077760D02*
X0256306Y0077760D01*
X0256306Y0076562D02*
X0249231Y0076562D01*
X0248730Y0075363D02*
X0256306Y0075363D01*
X0256306Y0074165D02*
X0247785Y0074165D01*
X0245781Y0072966D02*
X0256306Y0072966D01*
X0256306Y0071768D02*
X0245271Y0071768D01*
X0244526Y0072966D02*
X0243726Y0072966D01*
X0243726Y0074165D02*
X0244526Y0074165D01*
X0244526Y0075363D02*
X0243726Y0075363D01*
X0243726Y0076562D02*
X0244526Y0076562D01*
X0249340Y0078959D02*
X0256306Y0078959D01*
X0256306Y0080157D02*
X0248976Y0080157D01*
X0248240Y0081356D02*
X0256306Y0081356D01*
X0256306Y0082554D02*
X0246864Y0082554D01*
X0247373Y0083753D02*
X0256306Y0083753D01*
X0256306Y0084951D02*
X0248571Y0084951D01*
X0249096Y0086150D02*
X0256306Y0086150D01*
X0256306Y0087348D02*
X0249426Y0087348D01*
X0249426Y0088547D02*
X0256306Y0088547D01*
X0256306Y0089745D02*
X0249140Y0089745D01*
X0248644Y0090944D02*
X0256306Y0090944D01*
X0256306Y0092142D02*
X0247480Y0092142D01*
X0246724Y0093341D02*
X0256306Y0093341D01*
X0256306Y0094539D02*
X0248159Y0094539D01*
X0248925Y0095738D02*
X0256306Y0095738D01*
X0256306Y0096936D02*
X0249422Y0096936D01*
X0249426Y0098135D02*
X0256306Y0098135D01*
X0256306Y0099333D02*
X0249311Y0099333D01*
X0248814Y0100532D02*
X0256306Y0100532D01*
X0256306Y0101730D02*
X0247892Y0101730D01*
X0246079Y0102929D02*
X0256306Y0102929D01*
X0256306Y0104127D02*
X0217783Y0104127D01*
X0217734Y0105326D02*
X0256306Y0105326D01*
X0256306Y0106524D02*
X0217153Y0106524D01*
X0216858Y0107771D02*
X0219553Y0110466D01*
X0219553Y0114277D01*
X0216858Y0116971D01*
X0213047Y0116971D01*
X0210353Y0114277D01*
X0210353Y0110466D01*
X0213047Y0107771D01*
X0216858Y0107771D01*
X0215322Y0107723D02*
X0256306Y0107723D01*
X0256306Y0108921D02*
X0228008Y0108921D01*
X0226858Y0107771D02*
X0229553Y0110466D01*
X0229553Y0111971D01*
X0225353Y0111971D01*
X0225353Y0112771D01*
X0229553Y0112771D01*
X0229553Y0114277D01*
X0226858Y0116971D01*
X0225353Y0116971D01*
X0225353Y0112771D01*
X0224553Y0112771D01*
X0224553Y0111971D01*
X0225353Y0111971D01*
X0225353Y0107771D01*
X0226858Y0107771D01*
X0225353Y0108921D02*
X0224553Y0108921D01*
X0224553Y0107771D02*
X0224553Y0111971D01*
X0220353Y0111971D01*
X0220353Y0110466D01*
X0223047Y0107771D01*
X0224553Y0107771D01*
X0224553Y0110120D02*
X0225353Y0110120D01*
X0225353Y0111318D02*
X0224553Y0111318D01*
X0224553Y0112517D02*
X0219553Y0112517D01*
X0220353Y0112771D02*
X0224553Y0112771D01*
X0224553Y0116971D01*
X0223047Y0116971D01*
X0220353Y0114277D01*
X0220353Y0112771D01*
X0220353Y0113715D02*
X0219553Y0113715D01*
X0218915Y0114914D02*
X0220990Y0114914D01*
X0222189Y0116112D02*
X0217717Y0116112D01*
X0216858Y0117771D02*
X0219553Y0120466D01*
X0219553Y0124277D01*
X0216858Y0126971D01*
X0213047Y0126971D01*
X0210353Y0124277D01*
X0210353Y0120466D01*
X0213047Y0117771D01*
X0216858Y0117771D01*
X0217596Y0118510D02*
X0222309Y0118510D01*
X0223047Y0117771D02*
X0226858Y0117771D01*
X0229553Y0120466D01*
X0229553Y0124277D01*
X0226858Y0126971D01*
X0223047Y0126971D01*
X0220353Y0124277D01*
X0220353Y0120466D01*
X0223047Y0117771D01*
X0224553Y0116112D02*
X0225353Y0116112D01*
X0225353Y0114914D02*
X0224553Y0114914D01*
X0224553Y0113715D02*
X0225353Y0113715D01*
X0225353Y0112517D02*
X0239062Y0112517D01*
X0238180Y0113398D02*
X0240153Y0111426D01*
X0242731Y0110358D01*
X0245521Y0110358D01*
X0248099Y0111426D01*
X0250072Y0113398D01*
X0251139Y0115976D01*
X0251139Y0118766D01*
X0250072Y0121344D01*
X0248099Y0123317D01*
X0245521Y0124385D01*
X0242731Y0124385D01*
X0240153Y0123317D01*
X0238180Y0121344D01*
X0237113Y0118766D01*
X0237113Y0115976D01*
X0238180Y0113398D01*
X0238049Y0113715D02*
X0229553Y0113715D01*
X0228915Y0114914D02*
X0237553Y0114914D01*
X0237113Y0116112D02*
X0227717Y0116112D01*
X0227596Y0118510D02*
X0237113Y0118510D01*
X0237113Y0117311D02*
X0182862Y0117311D01*
X0178553Y0116112D02*
X0177717Y0116112D01*
X0171111Y0119708D02*
X0168795Y0119708D01*
X0169553Y0120907D02*
X0170353Y0120907D01*
X0169553Y0122105D02*
X0174553Y0122105D01*
X0174553Y0122771D02*
X0170353Y0122771D01*
X0170353Y0124277D01*
X0173047Y0126971D01*
X0174553Y0126971D01*
X0174553Y0122771D01*
X0174553Y0123304D02*
X0175353Y0123304D01*
X0175353Y0124502D02*
X0174553Y0124502D01*
X0174553Y0125701D02*
X0175353Y0125701D01*
X0175353Y0126899D02*
X0174553Y0126899D01*
X0172975Y0126899D02*
X0166930Y0126899D01*
X0168129Y0125701D02*
X0171777Y0125701D01*
X0170578Y0124502D02*
X0169327Y0124502D01*
X0169553Y0123304D02*
X0170353Y0123304D01*
X0176930Y0126899D02*
X0182975Y0126899D01*
X0181777Y0125701D02*
X0178129Y0125701D01*
X0179327Y0124502D02*
X0180578Y0124502D01*
X0180353Y0123304D02*
X0179553Y0123304D01*
X0186930Y0126899D02*
X0192975Y0126899D01*
X0193047Y0126971D02*
X0190353Y0124277D01*
X0190353Y0122771D01*
X0194553Y0122771D01*
X0194553Y0121971D01*
X0195353Y0121971D01*
X0195353Y0122771D01*
X0199553Y0122771D01*
X0199553Y0124277D01*
X0196858Y0126971D01*
X0195353Y0126971D01*
X0195353Y0122771D01*
X0194553Y0122771D01*
X0194553Y0126971D01*
X0193047Y0126971D01*
X0194553Y0126899D02*
X0195353Y0126899D01*
X0195353Y0125701D02*
X0194553Y0125701D01*
X0194553Y0124502D02*
X0195353Y0124502D01*
X0195353Y0123304D02*
X0194553Y0123304D01*
X0194553Y0122105D02*
X0189553Y0122105D01*
X0190353Y0121971D02*
X0190353Y0120466D01*
X0193047Y0117771D01*
X0194553Y0117771D01*
X0194553Y0121971D01*
X0190353Y0121971D01*
X0190353Y0120907D02*
X0189553Y0120907D01*
X0188795Y0119708D02*
X0191111Y0119708D01*
X0192309Y0118510D02*
X0187596Y0118510D01*
X0187717Y0116112D02*
X0192189Y0116112D01*
X0193047Y0116971D02*
X0190353Y0114277D01*
X0190353Y0110466D01*
X0193047Y0107771D01*
X0196858Y0107771D01*
X0199553Y0110466D01*
X0199553Y0114277D01*
X0196858Y0116971D01*
X0193047Y0116971D01*
X0194553Y0118510D02*
X0195353Y0118510D01*
X0195353Y0117771D02*
X0196858Y0117771D01*
X0199553Y0120466D01*
X0199553Y0121971D01*
X0195353Y0121971D01*
X0195353Y0117771D01*
X0195353Y0119708D02*
X0194553Y0119708D01*
X0194553Y0120907D02*
X0195353Y0120907D01*
X0195353Y0122105D02*
X0200353Y0122105D01*
X0200353Y0120907D02*
X0199553Y0120907D01*
X0200353Y0120466D02*
X0203047Y0117771D01*
X0206858Y0117771D01*
X0209553Y0120466D01*
X0209553Y0124277D01*
X0206858Y0126971D01*
X0203047Y0126971D01*
X0200353Y0124277D01*
X0200353Y0120466D01*
X0201111Y0119708D02*
X0198795Y0119708D01*
X0197596Y0118510D02*
X0202309Y0118510D01*
X0203047Y0116971D02*
X0200353Y0114277D01*
X0200353Y0110466D01*
X0203047Y0107771D01*
X0206858Y0107771D01*
X0209553Y0110466D01*
X0209553Y0114277D01*
X0206858Y0116971D01*
X0203047Y0116971D01*
X0202189Y0116112D02*
X0197717Y0116112D01*
X0198915Y0114914D02*
X0200990Y0114914D01*
X0200353Y0113715D02*
X0199553Y0113715D01*
X0199553Y0112517D02*
X0200353Y0112517D01*
X0200353Y0111318D02*
X0199553Y0111318D01*
X0199207Y0110120D02*
X0200699Y0110120D01*
X0201897Y0108921D02*
X0198008Y0108921D01*
X0194689Y0105326D02*
X0210410Y0105326D01*
X0211609Y0106524D02*
X0193201Y0106524D01*
X0190720Y0106524D02*
X0184061Y0106524D01*
X0184061Y0105326D02*
X0189232Y0105326D01*
X0188776Y0104127D02*
X0184061Y0104127D01*
X0184061Y0102929D02*
X0188789Y0102929D01*
X0189319Y0101730D02*
X0184061Y0101730D01*
X0184061Y0100532D02*
X0189861Y0100532D01*
X0189861Y0099333D02*
X0184061Y0099333D01*
X0184061Y0098135D02*
X0189861Y0098135D01*
X0189861Y0096936D02*
X0184061Y0096936D01*
X0184061Y0095738D02*
X0189861Y0095738D01*
X0189861Y0094539D02*
X0184061Y0094539D01*
X0184061Y0093341D02*
X0189861Y0093341D01*
X0189861Y0092142D02*
X0184061Y0092142D01*
X0184061Y0090944D02*
X0189861Y0090944D01*
X0189861Y0089745D02*
X0184061Y0089745D01*
X0184061Y0088547D02*
X0189861Y0088547D01*
X0189861Y0087348D02*
X0184061Y0087348D01*
X0184061Y0086150D02*
X0189861Y0086150D01*
X0189861Y0084951D02*
X0184061Y0084951D01*
X0184834Y0083753D02*
X0189087Y0083753D01*
X0187889Y0082554D02*
X0186033Y0082554D01*
X0186612Y0081356D02*
X0187309Y0081356D01*
X0187309Y0080157D02*
X0186612Y0080157D01*
X0186612Y0078959D02*
X0187309Y0078959D01*
X0186703Y0077760D02*
X0186250Y0077760D01*
X0185504Y0076562D02*
X0185052Y0076562D01*
X0184305Y0075363D02*
X0180245Y0075363D01*
X0179499Y0074165D02*
X0179047Y0074165D01*
X0178301Y0072966D02*
X0177848Y0072966D01*
X0177309Y0071768D02*
X0176650Y0071768D01*
X0181626Y0071768D02*
X0182296Y0071768D01*
X0182296Y0072966D02*
X0181626Y0072966D01*
X0181626Y0074165D02*
X0182296Y0074165D01*
X0182296Y0070569D02*
X0181626Y0070569D01*
X0181626Y0069371D02*
X0182296Y0069371D01*
X0182296Y0068172D02*
X0181626Y0068172D01*
X0181626Y0066974D02*
X0182296Y0066974D01*
X0182296Y0065775D02*
X0181626Y0065775D01*
X0181835Y0064577D02*
X0172004Y0064577D01*
X0170806Y0063378D02*
X0180637Y0063378D01*
X0179438Y0062179D02*
X0169607Y0062179D01*
X0168409Y0060981D02*
X0178240Y0060981D01*
X0177041Y0059782D02*
X0167210Y0059782D01*
X0166012Y0058584D02*
X0175843Y0058584D01*
X0174644Y0057385D02*
X0164813Y0057385D01*
X0163615Y0056187D02*
X0173446Y0056187D01*
X0172247Y0054988D02*
X0162416Y0054988D01*
X0161218Y0053790D02*
X0171049Y0053790D01*
X0169850Y0052591D02*
X0160019Y0052591D01*
X0158821Y0051393D02*
X0168652Y0051393D01*
X0165920Y0050194D02*
X0157622Y0050194D01*
X0156659Y0048996D02*
X0165259Y0048996D01*
X0165154Y0047797D02*
X0156659Y0047797D01*
X0156659Y0046599D02*
X0165518Y0046599D01*
X0166559Y0045400D02*
X0156659Y0045400D01*
X0157329Y0044202D02*
X0168107Y0044202D01*
X0168480Y0043003D02*
X0157743Y0043003D01*
X0157689Y0041805D02*
X0169566Y0041805D01*
X0181071Y0034614D02*
X0204381Y0034614D01*
X0204487Y0034719D02*
X0203575Y0033807D01*
X0202860Y0034522D01*
X0197597Y0034522D01*
X0196882Y0033807D01*
X0196167Y0034522D01*
X0190904Y0034522D01*
X0189967Y0033585D01*
X0189967Y0027929D01*
X0190904Y0026992D01*
X0191435Y0026992D01*
X0191435Y0026344D01*
X0194044Y0023736D01*
X0194479Y0023736D01*
X0195078Y0023136D01*
X0196248Y0022652D01*
X0197515Y0022652D01*
X0198686Y0023136D01*
X0199581Y0024032D01*
X0200066Y0025202D01*
X0200066Y0026469D01*
X0199850Y0026992D01*
X0202860Y0026992D01*
X0203575Y0027707D01*
X0204487Y0026795D01*
X0210537Y0026795D01*
X0211474Y0027732D01*
X0211474Y0033782D01*
X0210537Y0034719D01*
X0204487Y0034719D01*
X0203899Y0038209D02*
X0203250Y0038209D01*
X0197206Y0038209D02*
X0196557Y0038209D01*
X0190513Y0038209D02*
X0184666Y0038209D01*
X0183468Y0037011D02*
X0222818Y0037011D01*
X0223407Y0036421D02*
X0224631Y0035915D01*
X0223407Y0035408D01*
X0221916Y0033917D01*
X0221109Y0031969D01*
X0221109Y0029860D01*
X0221916Y0027912D01*
X0223407Y0026421D01*
X0224638Y0025912D01*
X0224375Y0025826D01*
X0223632Y0025448D01*
X0222957Y0024957D01*
X0222367Y0024367D01*
X0221876Y0023692D01*
X0221498Y0022949D01*
X0221240Y0022156D01*
X0221109Y0021332D01*
X0221109Y0021315D01*
X0226009Y0021315D01*
X0226009Y0020515D01*
X0221109Y0020515D01*
X0221109Y0020497D01*
X0221240Y0019673D01*
X0221498Y0018880D01*
X0221876Y0018137D01*
X0222367Y0017462D01*
X0222957Y0016872D01*
X0223632Y0016382D01*
X0224375Y0016003D01*
X0225168Y0015745D01*
X0225992Y0015615D01*
X0226009Y0015615D01*
X0226009Y0020514D01*
X0226809Y0020514D01*
X0226809Y0015615D01*
X0226827Y0015615D01*
X0227651Y0015745D01*
X0228444Y0016003D01*
X0229187Y0016382D01*
X0229862Y0016872D01*
X0230452Y0017462D01*
X0230942Y0018137D01*
X0231321Y0018880D01*
X0231579Y0019673D01*
X0231709Y0020497D01*
X0231709Y0020515D01*
X0226810Y0020515D01*
X0226810Y0021315D01*
X0231709Y0021315D01*
X0231709Y0021332D01*
X0231579Y0022156D01*
X0231321Y0022949D01*
X0230942Y0023692D01*
X0230452Y0024367D01*
X0229862Y0024957D01*
X0229187Y0025448D01*
X0228444Y0025826D01*
X0228181Y0025912D01*
X0229412Y0026421D01*
X0230903Y0027912D01*
X0231709Y0029860D01*
X0231709Y0031969D01*
X0230903Y0033917D01*
X0229412Y0035408D01*
X0228188Y0035915D01*
X0229412Y0036421D01*
X0230903Y0037912D01*
X0231709Y0039860D01*
X0231709Y0041969D01*
X0230903Y0043917D01*
X0229412Y0045408D01*
X0227464Y0046215D01*
X0225355Y0046215D01*
X0223407Y0045408D01*
X0221916Y0043917D01*
X0221109Y0041969D01*
X0221109Y0039860D01*
X0221916Y0037912D01*
X0223407Y0036421D01*
X0224384Y0035812D02*
X0182269Y0035812D01*
X0179872Y0033415D02*
X0189967Y0033415D01*
X0189967Y0032217D02*
X0178674Y0032217D01*
X0177475Y0031018D02*
X0189967Y0031018D01*
X0189967Y0029820D02*
X0176277Y0029820D01*
X0175078Y0028621D02*
X0189967Y0028621D01*
X0190473Y0027423D02*
X0173880Y0027423D01*
X0165214Y0025026D02*
X0192754Y0025026D01*
X0191555Y0026224D02*
X0164860Y0026224D01*
X0165214Y0023827D02*
X0193952Y0023827D01*
X0199376Y0023827D02*
X0221974Y0023827D01*
X0221394Y0022629D02*
X0164869Y0022629D01*
X0163726Y0021430D02*
X0221125Y0021430D01*
X0221152Y0020232D02*
X0164000Y0020232D01*
X0164939Y0019033D02*
X0221448Y0019033D01*
X0222096Y0017835D02*
X0165214Y0017835D01*
X0165214Y0016636D02*
X0223281Y0016636D01*
X0226009Y0016636D02*
X0226809Y0016636D01*
X0226809Y0017835D02*
X0226009Y0017835D01*
X0226009Y0019033D02*
X0226809Y0019033D01*
X0226809Y0020232D02*
X0226009Y0020232D01*
X0229538Y0016636D02*
X0251945Y0016636D01*
X0253462Y0017835D02*
X0230723Y0017835D01*
X0231371Y0019033D02*
X0254333Y0019033D01*
X0255198Y0020232D02*
X0246547Y0020232D01*
X0245521Y0019807D02*
X0248099Y0020874D01*
X0250072Y0022847D01*
X0251139Y0025425D01*
X0251139Y0028215D01*
X0250072Y0030793D01*
X0248099Y0032766D01*
X0245521Y0033833D01*
X0242731Y0033833D01*
X0240153Y0032766D01*
X0238180Y0030793D01*
X0237113Y0028215D01*
X0237113Y0025425D01*
X0238180Y0022847D01*
X0240153Y0020874D01*
X0242731Y0019807D01*
X0245521Y0019807D01*
X0248654Y0021430D02*
X0255587Y0021430D01*
X0255977Y0022629D02*
X0249853Y0022629D01*
X0250477Y0023827D02*
X0256225Y0023827D01*
X0256306Y0025026D02*
X0250974Y0025026D01*
X0251139Y0026224D02*
X0256306Y0026224D01*
X0256306Y0027423D02*
X0251139Y0027423D01*
X0250971Y0028621D02*
X0256306Y0028621D01*
X0256306Y0029820D02*
X0250475Y0029820D01*
X0249846Y0031018D02*
X0256306Y0031018D01*
X0256306Y0032217D02*
X0248648Y0032217D01*
X0246531Y0033415D02*
X0256306Y0033415D01*
X0256306Y0034614D02*
X0230206Y0034614D01*
X0231110Y0033415D02*
X0241721Y0033415D01*
X0239604Y0032217D02*
X0231607Y0032217D01*
X0231709Y0031018D02*
X0238406Y0031018D01*
X0237777Y0029820D02*
X0231693Y0029820D01*
X0231196Y0028621D02*
X0237281Y0028621D01*
X0237113Y0027423D02*
X0230413Y0027423D01*
X0228935Y0026224D02*
X0237113Y0026224D01*
X0237278Y0025026D02*
X0229768Y0025026D01*
X0230844Y0023827D02*
X0237774Y0023827D01*
X0238399Y0022629D02*
X0231425Y0022629D01*
X0231694Y0021430D02*
X0239597Y0021430D01*
X0241705Y0020232D02*
X0231667Y0020232D01*
X0223883Y0026224D02*
X0200066Y0026224D01*
X0199993Y0025026D02*
X0223051Y0025026D01*
X0222406Y0027423D02*
X0219428Y0027423D01*
X0219422Y0027412D02*
X0219633Y0027777D01*
X0219742Y0028184D01*
X0219742Y0030176D01*
X0216361Y0030176D01*
X0216361Y0031338D01*
X0219742Y0031338D01*
X0219742Y0033330D01*
X0219633Y0033737D01*
X0219422Y0034102D01*
X0219124Y0034400D01*
X0218759Y0034610D01*
X0218352Y0034719D01*
X0216361Y0034719D01*
X0216361Y0031338D01*
X0215198Y0031338D01*
X0215198Y0030176D01*
X0211817Y0030176D01*
X0211817Y0028184D01*
X0211926Y0027777D01*
X0212137Y0027412D01*
X0212435Y0027115D01*
X0212800Y0026904D01*
X0213207Y0026795D01*
X0215198Y0026795D01*
X0215198Y0030176D01*
X0216361Y0030176D01*
X0216361Y0026795D01*
X0218352Y0026795D01*
X0218759Y0026904D01*
X0219124Y0027115D01*
X0219422Y0027412D01*
X0219742Y0028621D02*
X0221623Y0028621D01*
X0221126Y0029820D02*
X0219742Y0029820D01*
X0221109Y0031018D02*
X0216361Y0031018D01*
X0215198Y0031018D02*
X0211474Y0031018D01*
X0211817Y0031338D02*
X0215198Y0031338D01*
X0215198Y0034719D01*
X0213207Y0034719D01*
X0212800Y0034610D01*
X0212435Y0034400D01*
X0212137Y0034102D01*
X0211926Y0033737D01*
X0211817Y0033330D01*
X0211817Y0031338D01*
X0211817Y0032217D02*
X0211474Y0032217D01*
X0211474Y0033415D02*
X0211840Y0033415D01*
X0212813Y0034614D02*
X0210642Y0034614D01*
X0215198Y0034614D02*
X0216361Y0034614D01*
X0216361Y0033415D02*
X0215198Y0033415D01*
X0215198Y0032217D02*
X0216361Y0032217D01*
X0219742Y0032217D02*
X0221212Y0032217D01*
X0221709Y0033415D02*
X0219719Y0033415D01*
X0218746Y0034614D02*
X0222613Y0034614D01*
X0221793Y0038209D02*
X0219392Y0038209D01*
X0219422Y0038239D02*
X0219633Y0038604D01*
X0219742Y0039011D01*
X0219742Y0041003D01*
X0216361Y0041003D01*
X0216361Y0042165D01*
X0219742Y0042165D01*
X0219742Y0044157D01*
X0219633Y0044564D01*
X0219422Y0044928D01*
X0219124Y0045226D01*
X0218759Y0045437D01*
X0218352Y0045546D01*
X0216361Y0045546D01*
X0216361Y0042165D01*
X0215198Y0042165D01*
X0215198Y0041003D01*
X0211817Y0041003D01*
X0211817Y0039011D01*
X0211926Y0038604D01*
X0212137Y0038239D01*
X0212435Y0037941D01*
X0212800Y0037731D01*
X0213207Y0037622D01*
X0215198Y0037622D01*
X0215198Y0041003D01*
X0216361Y0041003D01*
X0216361Y0037622D01*
X0218352Y0037622D01*
X0218759Y0037731D01*
X0219124Y0037941D01*
X0219422Y0038239D01*
X0219742Y0039408D02*
X0221297Y0039408D01*
X0221109Y0040606D02*
X0219742Y0040606D01*
X0221109Y0041805D02*
X0216361Y0041805D01*
X0215198Y0041805D02*
X0211474Y0041805D01*
X0211817Y0042165D02*
X0215198Y0042165D01*
X0215198Y0045546D01*
X0213207Y0045546D01*
X0212800Y0045437D01*
X0212435Y0045226D01*
X0212137Y0044928D01*
X0211926Y0044564D01*
X0211817Y0044157D01*
X0211817Y0042165D01*
X0211817Y0043003D02*
X0211474Y0043003D01*
X0211474Y0044202D02*
X0211829Y0044202D01*
X0212736Y0045400D02*
X0210682Y0045400D01*
X0215198Y0045400D02*
X0216361Y0045400D01*
X0216361Y0044202D02*
X0215198Y0044202D01*
X0215198Y0043003D02*
X0216361Y0043003D01*
X0219742Y0043003D02*
X0221538Y0043003D01*
X0222201Y0044202D02*
X0219730Y0044202D01*
X0218823Y0045400D02*
X0223400Y0045400D01*
X0229419Y0045400D02*
X0238935Y0045400D01*
X0238956Y0045264D02*
X0239214Y0044471D01*
X0239593Y0043727D01*
X0240083Y0043052D01*
X0240673Y0042462D01*
X0241348Y0041972D01*
X0242091Y0041593D01*
X0242885Y0041336D01*
X0243709Y0041205D01*
X0243726Y0041205D01*
X0243726Y0046105D01*
X0238826Y0046105D01*
X0238826Y0046088D01*
X0238956Y0045264D01*
X0239351Y0044202D02*
X0230617Y0044202D01*
X0231281Y0043003D02*
X0240132Y0043003D01*
X0241677Y0041805D02*
X0231709Y0041805D01*
X0231709Y0040606D02*
X0256306Y0040606D01*
X0256306Y0039408D02*
X0231522Y0039408D01*
X0231026Y0038209D02*
X0256306Y0038209D01*
X0256306Y0037011D02*
X0230001Y0037011D01*
X0228435Y0035812D02*
X0256306Y0035812D01*
X0256306Y0041805D02*
X0246575Y0041805D01*
X0248120Y0043003D02*
X0256306Y0043003D01*
X0256306Y0044202D02*
X0248901Y0044202D01*
X0249317Y0045400D02*
X0256306Y0045400D01*
X0256306Y0046599D02*
X0244526Y0046599D01*
X0243726Y0046599D02*
X0205190Y0046599D01*
X0204341Y0045400D02*
X0200855Y0045400D01*
X0201050Y0046599D02*
X0202353Y0046599D01*
X0206530Y0047797D02*
X0238973Y0047797D01*
X0239447Y0048996D02*
X0216671Y0048996D01*
X0217535Y0050194D02*
X0240320Y0050194D01*
X0242045Y0051393D02*
X0217783Y0051393D01*
X0220585Y0052591D02*
X0221997Y0052591D01*
X0228459Y0052591D02*
X0230348Y0052591D01*
X0230516Y0052494D02*
X0230923Y0052385D01*
X0232915Y0052385D01*
X0232915Y0055766D01*
X0234077Y0055766D01*
X0234077Y0052385D01*
X0236069Y0052385D01*
X0236476Y0052494D01*
X0236841Y0052705D01*
X0237139Y0053003D01*
X0237349Y0053368D01*
X0237458Y0053775D01*
X0237458Y0055766D01*
X0234077Y0055766D01*
X0234077Y0056929D01*
X0232915Y0056929D01*
X0232915Y0060310D01*
X0230923Y0060310D01*
X0230516Y0060201D01*
X0230151Y0059990D01*
X0229854Y0059692D01*
X0229643Y0059327D01*
X0229534Y0058920D01*
X0229534Y0056929D01*
X0232915Y0056929D01*
X0232915Y0055766D01*
X0229534Y0055766D01*
X0229534Y0053775D01*
X0229643Y0053368D01*
X0229854Y0053003D01*
X0230151Y0052705D01*
X0230516Y0052494D01*
X0229534Y0053790D02*
X0229191Y0053790D01*
X0229191Y0054988D02*
X0229534Y0054988D01*
X0229191Y0056187D02*
X0232915Y0056187D01*
X0234077Y0056187D02*
X0238826Y0056187D01*
X0238826Y0057385D02*
X0237458Y0057385D01*
X0237458Y0056929D02*
X0237458Y0058920D01*
X0237349Y0059327D01*
X0237139Y0059692D01*
X0236841Y0059990D01*
X0236476Y0060201D01*
X0236069Y0060310D01*
X0234077Y0060310D01*
X0234077Y0056929D01*
X0237458Y0056929D01*
X0237458Y0058584D02*
X0239250Y0058584D01*
X0239908Y0059782D02*
X0237048Y0059782D01*
X0234077Y0059782D02*
X0232915Y0059782D01*
X0232915Y0058584D02*
X0234077Y0058584D01*
X0234077Y0057385D02*
X0232915Y0057385D01*
X0229534Y0057385D02*
X0229191Y0057385D01*
X0229191Y0058584D02*
X0229534Y0058584D01*
X0229944Y0059782D02*
X0228781Y0059782D01*
X0228419Y0063378D02*
X0230418Y0063378D01*
X0230516Y0063321D02*
X0230923Y0063212D01*
X0232915Y0063212D01*
X0232915Y0066593D01*
X0234077Y0066593D01*
X0234077Y0063212D01*
X0236069Y0063212D01*
X0236476Y0063321D01*
X0236841Y0063532D01*
X0237139Y0063830D01*
X0237349Y0064195D01*
X0237458Y0064602D01*
X0237458Y0066593D01*
X0234077Y0066593D01*
X0234077Y0067755D01*
X0237458Y0067755D01*
X0237458Y0069747D01*
X0237349Y0070154D01*
X0237139Y0070519D01*
X0236841Y0070817D01*
X0236476Y0071028D01*
X0236069Y0071137D01*
X0234077Y0071137D01*
X0234077Y0067756D01*
X0232915Y0067756D01*
X0232915Y0071137D01*
X0230923Y0071137D01*
X0230516Y0071028D01*
X0230151Y0070817D01*
X0229854Y0070519D01*
X0229643Y0070154D01*
X0229534Y0069747D01*
X0229534Y0067755D01*
X0232915Y0067755D01*
X0232915Y0066593D01*
X0229534Y0066593D01*
X0229534Y0064602D01*
X0229643Y0064195D01*
X0229854Y0063830D01*
X0230151Y0063532D01*
X0230516Y0063321D01*
X0229541Y0064577D02*
X0229191Y0064577D01*
X0229191Y0065775D02*
X0229534Y0065775D01*
X0229191Y0066974D02*
X0232915Y0066974D01*
X0234077Y0066974D02*
X0238826Y0066974D01*
X0238826Y0065775D02*
X0237458Y0065775D01*
X0237452Y0064577D02*
X0239188Y0064577D01*
X0239758Y0063378D02*
X0236574Y0063378D01*
X0234077Y0063378D02*
X0232915Y0063378D01*
X0232915Y0064577D02*
X0234077Y0064577D01*
X0234077Y0065775D02*
X0232915Y0065775D01*
X0232915Y0068172D02*
X0234077Y0068172D01*
X0234077Y0069371D02*
X0232915Y0069371D01*
X0232915Y0070569D02*
X0234077Y0070569D01*
X0237089Y0070569D02*
X0240695Y0070569D01*
X0239576Y0069371D02*
X0237458Y0069371D01*
X0237458Y0068172D02*
X0239080Y0068172D01*
X0229904Y0070569D02*
X0228821Y0070569D01*
X0229191Y0069371D02*
X0229534Y0069371D01*
X0229534Y0068172D02*
X0229191Y0068172D01*
X0221636Y0070569D02*
X0220947Y0070569D01*
X0205052Y0076562D02*
X0239021Y0076562D01*
X0247557Y0070569D02*
X0256306Y0070569D01*
X0256306Y0069371D02*
X0248676Y0069371D01*
X0249172Y0068172D02*
X0256306Y0068172D01*
X0256306Y0066974D02*
X0249426Y0066974D01*
X0249426Y0065775D02*
X0256306Y0065775D01*
X0256306Y0064577D02*
X0249064Y0064577D01*
X0248494Y0063378D02*
X0256306Y0063378D01*
X0256306Y0062179D02*
X0247296Y0062179D01*
X0247145Y0060981D02*
X0256306Y0060981D01*
X0256306Y0059782D02*
X0248344Y0059782D01*
X0249002Y0058584D02*
X0256306Y0058584D01*
X0256306Y0057385D02*
X0249426Y0057385D01*
X0249426Y0056187D02*
X0256306Y0056187D01*
X0256306Y0054988D02*
X0249234Y0054988D01*
X0248738Y0053790D02*
X0256306Y0053790D01*
X0256306Y0052591D02*
X0247708Y0052591D01*
X0246207Y0051393D02*
X0256306Y0051393D01*
X0256306Y0050194D02*
X0247932Y0050194D01*
X0248805Y0048996D02*
X0256306Y0048996D01*
X0256306Y0047797D02*
X0249279Y0047797D01*
X0244526Y0045400D02*
X0243726Y0045400D01*
X0243726Y0044202D02*
X0244526Y0044202D01*
X0244526Y0043003D02*
X0243726Y0043003D01*
X0243726Y0041805D02*
X0244526Y0041805D01*
X0240544Y0052591D02*
X0236644Y0052591D01*
X0237458Y0053790D02*
X0239514Y0053790D01*
X0239018Y0054988D02*
X0237458Y0054988D01*
X0234077Y0054988D02*
X0232915Y0054988D01*
X0232915Y0053790D02*
X0234077Y0053790D01*
X0234077Y0052591D02*
X0232915Y0052591D01*
X0212526Y0048996D02*
X0206956Y0048996D01*
X0206913Y0050194D02*
X0210892Y0050194D01*
X0209694Y0051393D02*
X0208517Y0051393D01*
X0189967Y0043003D02*
X0189460Y0043003D01*
X0189967Y0041805D02*
X0188262Y0041805D01*
X0187063Y0040606D02*
X0189967Y0040606D01*
X0189967Y0039408D02*
X0185865Y0039408D01*
X0203291Y0027423D02*
X0203859Y0027423D01*
X0211165Y0027423D02*
X0212131Y0027423D01*
X0211817Y0028621D02*
X0211474Y0028621D01*
X0211474Y0029820D02*
X0211817Y0029820D01*
X0215198Y0029820D02*
X0216361Y0029820D01*
X0216361Y0028621D02*
X0215198Y0028621D01*
X0215198Y0027423D02*
X0216361Y0027423D01*
X0216361Y0038209D02*
X0215198Y0038209D01*
X0215198Y0039408D02*
X0216361Y0039408D01*
X0216361Y0040606D02*
X0215198Y0040606D01*
X0211817Y0040606D02*
X0211474Y0040606D01*
X0211474Y0039408D02*
X0211817Y0039408D01*
X0212167Y0038209D02*
X0211124Y0038209D01*
X0249758Y0015438D02*
X0164790Y0015438D01*
X0158898Y0020232D02*
X0156356Y0020232D01*
X0156356Y0021430D02*
X0159171Y0021430D01*
X0158028Y0022629D02*
X0156356Y0022629D01*
X0144492Y0039408D02*
X0135490Y0039408D01*
X0134723Y0040606D02*
X0145469Y0040606D01*
X0145706Y0041805D02*
X0101879Y0041805D01*
X0101652Y0040606D02*
X0126758Y0040606D01*
X0125991Y0039408D02*
X0102419Y0039408D01*
X0102419Y0043003D02*
X0112219Y0043003D01*
X0112401Y0042821D02*
X0113571Y0042337D01*
X0114838Y0042337D01*
X0116008Y0042821D01*
X0116108Y0042921D01*
X0122144Y0042921D01*
X0122244Y0042821D01*
X0123414Y0042337D01*
X0124681Y0042337D01*
X0125851Y0042821D01*
X0126747Y0043717D01*
X0127231Y0044887D01*
X0127231Y0046154D01*
X0126747Y0047325D01*
X0125851Y0048220D01*
X0124681Y0048705D01*
X0123414Y0048705D01*
X0122244Y0048220D01*
X0122144Y0048121D01*
X0116108Y0048121D01*
X0116008Y0048220D01*
X0114838Y0048705D01*
X0113571Y0048705D01*
X0112401Y0048220D01*
X0111505Y0047325D01*
X0111020Y0046154D01*
X0111020Y0044887D01*
X0111505Y0043717D01*
X0112401Y0042821D01*
X0111304Y0044202D02*
X0102419Y0044202D01*
X0102419Y0045400D02*
X0111020Y0045400D01*
X0111205Y0046599D02*
X0102419Y0046599D01*
X0102419Y0047797D02*
X0111978Y0047797D01*
X0110564Y0053790D02*
X0098269Y0053790D01*
X0098269Y0052591D02*
X0097069Y0052591D01*
X0097069Y0051393D02*
X0098269Y0051393D01*
X0098269Y0050194D02*
X0097069Y0050194D01*
X0094097Y0050194D02*
X0061175Y0050194D01*
X0061175Y0048996D02*
X0093218Y0048996D01*
X0092920Y0047797D02*
X0060948Y0047797D01*
X0058984Y0047797D02*
X0058984Y0047797D01*
X0058984Y0048996D02*
X0058984Y0048996D01*
X0058984Y0050194D02*
X0058984Y0050194D01*
X0061175Y0051393D02*
X0093021Y0051393D01*
X0092920Y0052591D02*
X0061175Y0052591D01*
X0061112Y0053790D02*
X0097069Y0053790D01*
X0092920Y0054988D02*
X0060989Y0054988D01*
X0062187Y0056187D02*
X0092920Y0056187D01*
X0102419Y0056187D02*
X0108167Y0056187D01*
X0109366Y0054988D02*
X0102419Y0054988D01*
X0102419Y0052591D02*
X0117670Y0052591D01*
X0121983Y0052591D02*
X0125991Y0052591D01*
X0125991Y0051772D02*
X0125991Y0053779D01*
X0130140Y0053779D01*
X0130140Y0054979D01*
X0125991Y0054979D01*
X0125991Y0056987D01*
X0126128Y0057499D01*
X0126393Y0057958D01*
X0126768Y0058333D01*
X0127227Y0058598D01*
X0127739Y0058735D01*
X0130140Y0058735D01*
X0130140Y0054979D01*
X0131340Y0054979D01*
X0131340Y0058735D01*
X0133741Y0058735D01*
X0134254Y0058598D01*
X0134713Y0058333D01*
X0135087Y0057958D01*
X0135353Y0057499D01*
X0135490Y0056987D01*
X0135490Y0054979D01*
X0131340Y0054979D01*
X0131340Y0053779D01*
X0131340Y0050023D01*
X0133741Y0050023D01*
X0134254Y0050160D01*
X0134713Y0050425D01*
X0135087Y0050800D01*
X0135353Y0051259D01*
X0135490Y0051772D01*
X0135490Y0053779D01*
X0131340Y0053779D01*
X0130140Y0053779D01*
X0130140Y0050023D01*
X0127739Y0050023D01*
X0127227Y0050160D01*
X0126768Y0050425D01*
X0126393Y0050800D01*
X0126128Y0051259D01*
X0125991Y0051772D01*
X0126092Y0051393D02*
X0102317Y0051393D01*
X0101241Y0050194D02*
X0127168Y0050194D01*
X0126274Y0047797D02*
X0149575Y0047797D01*
X0149575Y0046599D02*
X0127047Y0046599D01*
X0127231Y0045400D02*
X0149575Y0045400D01*
X0149286Y0044202D02*
X0126947Y0044202D01*
X0126033Y0043003D02*
X0146554Y0043003D01*
X0149575Y0048996D02*
X0102120Y0048996D01*
X0092920Y0046599D02*
X0057245Y0046599D01*
X0056046Y0045400D02*
X0092920Y0045400D01*
X0102348Y0033415D02*
X0126061Y0033415D01*
X0130140Y0050194D02*
X0131340Y0050194D01*
X0131340Y0051393D02*
X0130140Y0051393D01*
X0130140Y0052591D02*
X0131340Y0052591D01*
X0131340Y0053790D02*
X0152732Y0053790D01*
X0151534Y0052591D02*
X0135490Y0052591D01*
X0135388Y0051393D02*
X0150335Y0051393D01*
X0149575Y0050194D02*
X0134312Y0050194D01*
X0130140Y0053790D02*
X0122798Y0053790D01*
X0123011Y0054988D02*
X0125991Y0054988D01*
X0125991Y0056187D02*
X0122756Y0056187D01*
X0121883Y0057385D02*
X0126097Y0057385D01*
X0127203Y0058584D02*
X0120944Y0058584D01*
X0121957Y0059782D02*
X0158725Y0059782D01*
X0157526Y0058584D02*
X0134277Y0058584D01*
X0135383Y0057385D02*
X0156328Y0057385D01*
X0155129Y0056187D02*
X0135490Y0056187D01*
X0135490Y0054988D02*
X0153931Y0054988D01*
X0159923Y0060981D02*
X0122310Y0060981D01*
X0122195Y0062179D02*
X0161122Y0062179D01*
X0162320Y0063378D02*
X0121520Y0063378D01*
X0124110Y0064577D02*
X0118788Y0064577D01*
X0123149Y0065775D02*
X0061175Y0065775D01*
X0061175Y0066974D02*
X0122831Y0066974D01*
X0122982Y0068172D02*
X0061175Y0068172D01*
X0061175Y0069371D02*
X0123709Y0069371D01*
X0126723Y0070569D02*
X0061175Y0070569D01*
X0055189Y0072966D02*
X0129120Y0072966D01*
X0129731Y0074165D02*
X0055381Y0074165D01*
X0055105Y0075363D02*
X0129731Y0075363D01*
X0129731Y0076562D02*
X0054203Y0076562D01*
X0050191Y0076562D02*
X0033718Y0076562D01*
X0033718Y0077760D02*
X0129731Y0077760D01*
X0128690Y0078959D02*
X0032833Y0078959D01*
X0031856Y0080157D02*
X0128331Y0080157D01*
X0128331Y0081356D02*
X0032537Y0081356D01*
X0032537Y0082554D02*
X0128331Y0082554D01*
X0128331Y0083753D02*
X0032537Y0083753D01*
X0032537Y0084951D02*
X0128331Y0084951D01*
X0128424Y0086150D02*
X0032537Y0086150D01*
X0031924Y0087348D02*
X0128424Y0087348D01*
X0128424Y0088547D02*
X0017458Y0088547D01*
X0017458Y0089745D02*
X0128424Y0089745D01*
X0128424Y0090944D02*
X0058150Y0090944D01*
X0058915Y0092142D02*
X0128424Y0092142D01*
X0128424Y0093341D02*
X0098892Y0093341D01*
X0100091Y0094539D02*
X0128424Y0094539D01*
X0128424Y0095738D02*
X0101289Y0095738D01*
X0102488Y0096936D02*
X0128424Y0096936D01*
X0128424Y0098135D02*
X0103686Y0098135D01*
X0104885Y0099333D02*
X0128424Y0099333D01*
X0127745Y0100532D02*
X0106083Y0100532D01*
X0107282Y0101730D02*
X0126546Y0101730D01*
X0125347Y0102929D02*
X0108480Y0102929D01*
X0109679Y0104127D02*
X0124149Y0104127D01*
X0122950Y0105326D02*
X0110877Y0105326D01*
X0112076Y0106524D02*
X0121752Y0106524D01*
X0120553Y0107723D02*
X0113274Y0107723D01*
X0109732Y0110120D02*
X0109207Y0110120D01*
X0109553Y0110466D02*
X0106858Y0107771D01*
X0103047Y0107771D01*
X0100353Y0110466D01*
X0100353Y0114277D01*
X0103047Y0116971D01*
X0106858Y0116971D01*
X0109553Y0114277D01*
X0109553Y0110466D01*
X0109553Y0111318D02*
X0110353Y0111318D01*
X0110353Y0112517D02*
X0109553Y0112517D01*
X0109553Y0113715D02*
X0110353Y0113715D01*
X0110990Y0114914D02*
X0108915Y0114914D01*
X0107717Y0116112D02*
X0112189Y0116112D01*
X0113047Y0117771D02*
X0116858Y0117771D01*
X0119553Y0120466D01*
X0119553Y0124277D01*
X0116858Y0126971D01*
X0113047Y0126971D01*
X0110353Y0124277D01*
X0110353Y0120466D01*
X0113047Y0117771D01*
X0112309Y0118510D02*
X0107596Y0118510D01*
X0106858Y0117771D02*
X0109553Y0120466D01*
X0109553Y0124277D01*
X0106858Y0126971D01*
X0103047Y0126971D01*
X0100353Y0124277D01*
X0100353Y0120466D01*
X0103047Y0117771D01*
X0106858Y0117771D01*
X0108795Y0119708D02*
X0111111Y0119708D01*
X0110353Y0120907D02*
X0109553Y0120907D01*
X0109553Y0122105D02*
X0110353Y0122105D01*
X0110353Y0123304D02*
X0109553Y0123304D01*
X0109327Y0124502D02*
X0110578Y0124502D01*
X0111777Y0125701D02*
X0108129Y0125701D01*
X0106930Y0126899D02*
X0112975Y0126899D01*
X0116930Y0126899D02*
X0122975Y0126899D01*
X0123047Y0126971D02*
X0120353Y0124277D01*
X0120353Y0122771D01*
X0124553Y0122771D01*
X0124553Y0121971D01*
X0125353Y0121971D01*
X0125353Y0122771D01*
X0129553Y0122771D01*
X0129553Y0124277D01*
X0126858Y0126971D01*
X0125353Y0126971D01*
X0125353Y0122771D01*
X0124553Y0122771D01*
X0124553Y0126971D01*
X0123047Y0126971D01*
X0124553Y0126899D02*
X0125353Y0126899D01*
X0125353Y0125701D02*
X0124553Y0125701D01*
X0124553Y0124502D02*
X0125353Y0124502D01*
X0125353Y0123304D02*
X0124553Y0123304D01*
X0124553Y0122105D02*
X0119553Y0122105D01*
X0120353Y0121971D02*
X0120353Y0120466D01*
X0123047Y0117771D01*
X0124553Y0117771D01*
X0124553Y0121971D01*
X0120353Y0121971D01*
X0120353Y0120907D02*
X0119553Y0120907D01*
X0118795Y0119708D02*
X0121111Y0119708D01*
X0122309Y0118510D02*
X0117596Y0118510D01*
X0117717Y0116112D02*
X0122189Y0116112D01*
X0120990Y0114914D02*
X0118915Y0114914D01*
X0119935Y0113715D02*
X0120353Y0113715D01*
X0124553Y0118510D02*
X0125353Y0118510D01*
X0125353Y0117771D02*
X0126858Y0117771D01*
X0129553Y0120466D01*
X0129553Y0121971D01*
X0125353Y0121971D01*
X0125353Y0117771D01*
X0125353Y0119708D02*
X0124553Y0119708D01*
X0124553Y0120907D02*
X0125353Y0120907D01*
X0125353Y0122105D02*
X0130353Y0122105D01*
X0130353Y0120907D02*
X0129553Y0120907D01*
X0129603Y0119708D02*
X0128795Y0119708D01*
X0128953Y0118510D02*
X0127596Y0118510D01*
X0127717Y0116112D02*
X0128953Y0116112D01*
X0128915Y0114914D02*
X0128953Y0114914D01*
X0138795Y0119708D02*
X0139603Y0119708D01*
X0139553Y0120907D02*
X0140353Y0120907D01*
X0140353Y0122105D02*
X0139553Y0122105D01*
X0139553Y0123304D02*
X0140353Y0123304D01*
X0140578Y0124502D02*
X0139327Y0124502D01*
X0138129Y0125701D02*
X0141777Y0125701D01*
X0142975Y0126899D02*
X0136930Y0126899D01*
X0132975Y0126899D02*
X0126930Y0126899D01*
X0128129Y0125701D02*
X0131777Y0125701D01*
X0130578Y0124502D02*
X0129327Y0124502D01*
X0129553Y0123304D02*
X0130353Y0123304D01*
X0121777Y0125701D02*
X0118129Y0125701D01*
X0119327Y0124502D02*
X0120578Y0124502D01*
X0120353Y0123304D02*
X0119553Y0123304D01*
X0102975Y0126899D02*
X0096930Y0126899D01*
X0096858Y0126971D02*
X0095353Y0126971D01*
X0095353Y0122771D01*
X0099553Y0122771D01*
X0099553Y0124277D01*
X0096858Y0126971D01*
X0095353Y0126899D02*
X0094553Y0126899D01*
X0094553Y0126971D02*
X0093047Y0126971D01*
X0090353Y0124277D01*
X0090353Y0122771D01*
X0094553Y0122771D01*
X0094553Y0121971D01*
X0095353Y0121971D01*
X0095353Y0122771D01*
X0094553Y0122771D01*
X0094553Y0126971D01*
X0094553Y0125701D02*
X0095353Y0125701D01*
X0095353Y0124502D02*
X0094553Y0124502D01*
X0094553Y0123304D02*
X0095353Y0123304D01*
X0095353Y0122105D02*
X0100353Y0122105D01*
X0099553Y0121971D02*
X0095353Y0121971D01*
X0095353Y0117771D01*
X0096858Y0117771D01*
X0099553Y0120466D01*
X0099553Y0121971D01*
X0099553Y0120907D02*
X0100353Y0120907D01*
X0101111Y0119708D02*
X0098795Y0119708D01*
X0097596Y0118510D02*
X0102309Y0118510D01*
X0102189Y0116112D02*
X0097717Y0116112D01*
X0096858Y0116971D02*
X0093047Y0116971D01*
X0090353Y0114277D01*
X0090353Y0110466D01*
X0093047Y0107771D01*
X0096858Y0107771D01*
X0099553Y0110466D01*
X0099553Y0114277D01*
X0096858Y0116971D01*
X0095353Y0118510D02*
X0094553Y0118510D01*
X0094553Y0117771D02*
X0094553Y0121971D01*
X0090353Y0121971D01*
X0090353Y0120466D01*
X0093047Y0117771D01*
X0094553Y0117771D01*
X0094553Y0119708D02*
X0095353Y0119708D01*
X0095353Y0120907D02*
X0094553Y0120907D01*
X0094553Y0122105D02*
X0089553Y0122105D01*
X0089553Y0120907D02*
X0090353Y0120907D01*
X0089553Y0120466D02*
X0086858Y0117771D01*
X0083047Y0117771D01*
X0080353Y0120466D01*
X0080353Y0124277D01*
X0083047Y0126971D01*
X0086858Y0126971D01*
X0089553Y0124277D01*
X0089553Y0120466D01*
X0088795Y0119708D02*
X0091111Y0119708D01*
X0092309Y0118510D02*
X0087596Y0118510D01*
X0086858Y0116971D02*
X0083047Y0116971D01*
X0080353Y0114277D01*
X0080353Y0110466D01*
X0083047Y0107771D01*
X0086858Y0107771D01*
X0089553Y0110466D01*
X0089553Y0114277D01*
X0086858Y0116971D01*
X0087717Y0116112D02*
X0092189Y0116112D01*
X0090990Y0114914D02*
X0088915Y0114914D01*
X0089553Y0113715D02*
X0090353Y0113715D01*
X0090353Y0112517D02*
X0089553Y0112517D01*
X0089553Y0111318D02*
X0090353Y0111318D01*
X0090699Y0110120D02*
X0089207Y0110120D01*
X0088008Y0108921D02*
X0091897Y0108921D01*
X0098008Y0108921D02*
X0101897Y0108921D01*
X0100699Y0110120D02*
X0099207Y0110120D01*
X0099553Y0111318D02*
X0100353Y0111318D01*
X0100353Y0112517D02*
X0099553Y0112517D01*
X0099553Y0113715D02*
X0100353Y0113715D01*
X0100990Y0114914D02*
X0098915Y0114914D01*
X0108008Y0108921D02*
X0108533Y0108921D01*
X0107335Y0107723D02*
X0057053Y0107723D01*
X0057053Y0106524D02*
X0106136Y0106524D01*
X0104938Y0105326D02*
X0057053Y0105326D01*
X0058451Y0104127D02*
X0103739Y0104127D01*
X0102541Y0102929D02*
X0058915Y0102929D01*
X0058915Y0101730D02*
X0101342Y0101730D01*
X0100144Y0100532D02*
X0058915Y0100532D01*
X0058915Y0099333D02*
X0098945Y0099333D01*
X0097747Y0098135D02*
X0058648Y0098135D01*
X0058915Y0096936D02*
X0096548Y0096936D01*
X0081897Y0108921D02*
X0078008Y0108921D01*
X0076858Y0107771D02*
X0079553Y0110466D01*
X0079553Y0111971D01*
X0075353Y0111971D01*
X0075353Y0112771D01*
X0079553Y0112771D01*
X0079553Y0114277D01*
X0076858Y0116971D01*
X0075353Y0116971D01*
X0075353Y0112771D01*
X0074553Y0112771D01*
X0074553Y0111971D01*
X0075353Y0111971D01*
X0075353Y0107771D01*
X0076858Y0107771D01*
X0075353Y0108921D02*
X0074553Y0108921D01*
X0074553Y0107771D02*
X0074553Y0111971D01*
X0070353Y0111971D01*
X0070353Y0110466D01*
X0073047Y0107771D01*
X0074553Y0107771D01*
X0074553Y0110120D02*
X0075353Y0110120D01*
X0075353Y0111318D02*
X0074553Y0111318D01*
X0074553Y0112517D02*
X0069553Y0112517D01*
X0070353Y0112771D02*
X0070353Y0114277D01*
X0073047Y0116971D01*
X0074553Y0116971D01*
X0074553Y0112771D01*
X0070353Y0112771D01*
X0070353Y0113715D02*
X0069553Y0113715D01*
X0069553Y0114277D02*
X0066858Y0116971D01*
X0063047Y0116971D01*
X0060353Y0114277D01*
X0060353Y0110466D01*
X0063047Y0107771D01*
X0066858Y0107771D01*
X0069553Y0110466D01*
X0069553Y0114277D01*
X0068915Y0114914D02*
X0070990Y0114914D01*
X0072189Y0116112D02*
X0067717Y0116112D01*
X0066858Y0117771D02*
X0069553Y0120466D01*
X0069553Y0124277D01*
X0066858Y0126971D01*
X0063047Y0126971D01*
X0060353Y0124277D01*
X0060353Y0120466D01*
X0063047Y0117771D01*
X0066858Y0117771D01*
X0067596Y0118510D02*
X0072309Y0118510D01*
X0073047Y0117771D02*
X0076858Y0117771D01*
X0079553Y0120466D01*
X0079553Y0124277D01*
X0076858Y0126971D01*
X0073047Y0126971D01*
X0070353Y0124277D01*
X0070353Y0120466D01*
X0073047Y0117771D01*
X0074553Y0116112D02*
X0075353Y0116112D01*
X0075353Y0114914D02*
X0074553Y0114914D01*
X0074553Y0113715D02*
X0075353Y0113715D01*
X0075353Y0112517D02*
X0080353Y0112517D01*
X0080353Y0113715D02*
X0079553Y0113715D01*
X0078915Y0114914D02*
X0080990Y0114914D01*
X0082189Y0116112D02*
X0077717Y0116112D01*
X0077596Y0118510D02*
X0082309Y0118510D01*
X0081111Y0119708D02*
X0078795Y0119708D01*
X0079553Y0120907D02*
X0080353Y0120907D01*
X0080353Y0122105D02*
X0079553Y0122105D01*
X0079553Y0123304D02*
X0080353Y0123304D01*
X0080578Y0124502D02*
X0079327Y0124502D01*
X0078129Y0125701D02*
X0081777Y0125701D01*
X0082975Y0126899D02*
X0076930Y0126899D01*
X0072975Y0126899D02*
X0066930Y0126899D01*
X0068129Y0125701D02*
X0071777Y0125701D01*
X0070578Y0124502D02*
X0069327Y0124502D01*
X0069553Y0123304D02*
X0070353Y0123304D01*
X0070353Y0122105D02*
X0069553Y0122105D01*
X0069553Y0120907D02*
X0070353Y0120907D01*
X0071111Y0119708D02*
X0068795Y0119708D01*
X0062309Y0118510D02*
X0057596Y0118510D01*
X0056858Y0117771D02*
X0059553Y0120466D01*
X0059553Y0121971D01*
X0055353Y0121971D01*
X0055353Y0122771D01*
X0059553Y0122771D01*
X0059553Y0124277D01*
X0056858Y0126971D01*
X0055353Y0126971D01*
X0055353Y0122771D01*
X0054553Y0122771D01*
X0054553Y0121971D01*
X0055353Y0121971D01*
X0055353Y0117771D01*
X0056858Y0117771D01*
X0055353Y0118510D02*
X0054553Y0118510D01*
X0054553Y0117771D02*
X0054553Y0121971D01*
X0050353Y0121971D01*
X0050353Y0120466D01*
X0053047Y0117771D01*
X0054553Y0117771D01*
X0054553Y0119708D02*
X0055353Y0119708D01*
X0055353Y0120907D02*
X0054553Y0120907D01*
X0054553Y0122105D02*
X0049553Y0122105D01*
X0050353Y0122771D02*
X0054553Y0122771D01*
X0054553Y0126971D01*
X0053047Y0126971D01*
X0050353Y0124277D01*
X0050353Y0122771D01*
X0050353Y0123304D02*
X0049553Y0123304D01*
X0049327Y0124502D02*
X0050578Y0124502D01*
X0051777Y0125701D02*
X0048129Y0125701D01*
X0046930Y0126899D02*
X0052975Y0126899D01*
X0054553Y0126899D02*
X0055353Y0126899D01*
X0055353Y0125701D02*
X0054553Y0125701D01*
X0054553Y0124502D02*
X0055353Y0124502D01*
X0055353Y0123304D02*
X0054553Y0123304D01*
X0055353Y0122105D02*
X0060353Y0122105D01*
X0060353Y0120907D02*
X0059553Y0120907D01*
X0058795Y0119708D02*
X0061111Y0119708D01*
X0062189Y0116112D02*
X0057717Y0116112D01*
X0058915Y0114914D02*
X0060990Y0114914D01*
X0060353Y0113715D02*
X0059553Y0113715D01*
X0059553Y0112517D02*
X0060353Y0112517D01*
X0060353Y0111318D02*
X0059553Y0111318D01*
X0059207Y0110120D02*
X0060699Y0110120D01*
X0061897Y0108921D02*
X0058008Y0108921D01*
X0052853Y0107723D02*
X0047053Y0107723D01*
X0047053Y0106524D02*
X0052853Y0106524D01*
X0052853Y0105326D02*
X0047053Y0105326D01*
X0048609Y0104127D02*
X0051848Y0104127D01*
X0051384Y0102929D02*
X0049072Y0102929D01*
X0049072Y0101730D02*
X0051384Y0101730D01*
X0051384Y0100532D02*
X0049072Y0100532D01*
X0049072Y0099333D02*
X0051384Y0099333D01*
X0051651Y0098135D02*
X0048806Y0098135D01*
X0049072Y0096936D02*
X0051384Y0096936D01*
X0051384Y0092142D02*
X0049072Y0092142D01*
X0048308Y0090944D02*
X0052149Y0090944D01*
X0026013Y0087348D02*
X0025231Y0087348D01*
X0019321Y0087348D02*
X0017458Y0087348D01*
X0015989Y0080157D02*
X0019628Y0080157D01*
X0018915Y0079011D02*
X0018508Y0078902D01*
X0018144Y0078691D01*
X0017846Y0078393D01*
X0017635Y0078028D01*
X0017526Y0077621D01*
X0017526Y0075630D01*
X0020907Y0075630D01*
X0020907Y0079011D01*
X0018915Y0079011D01*
X0018721Y0078959D02*
X0014791Y0078959D01*
X0014937Y0077760D02*
X0017563Y0077760D01*
X0017526Y0076562D02*
X0015671Y0076562D01*
X0016150Y0075363D02*
X0020907Y0075363D01*
X0020907Y0075630D02*
X0020907Y0074467D01*
X0022069Y0074467D01*
X0022069Y0071086D01*
X0024061Y0071086D01*
X0024468Y0071195D01*
X0024833Y0071406D01*
X0025131Y0071704D01*
X0025341Y0072069D01*
X0025450Y0072476D01*
X0025450Y0074467D01*
X0022069Y0074467D01*
X0022069Y0075630D01*
X0020907Y0075630D01*
X0020907Y0076562D02*
X0022069Y0076562D01*
X0022069Y0075630D02*
X0022069Y0079011D01*
X0024061Y0079011D01*
X0024468Y0078902D01*
X0024833Y0078691D01*
X0025131Y0078393D01*
X0025341Y0078028D01*
X0025450Y0077621D01*
X0025450Y0075630D01*
X0022069Y0075630D01*
X0022069Y0075363D02*
X0025794Y0075363D01*
X0025794Y0074165D02*
X0025450Y0074165D01*
X0025450Y0072966D02*
X0025794Y0072966D01*
X0026050Y0071768D02*
X0025168Y0071768D01*
X0022069Y0071768D02*
X0020907Y0071768D01*
X0020907Y0071086D02*
X0020907Y0074467D01*
X0017526Y0074467D01*
X0017526Y0072476D01*
X0017635Y0072069D01*
X0017846Y0071704D01*
X0018144Y0071406D01*
X0018508Y0071195D01*
X0018915Y0071086D01*
X0020907Y0071086D01*
X0020907Y0072966D02*
X0022069Y0072966D01*
X0022069Y0074165D02*
X0020907Y0074165D01*
X0017526Y0074165D02*
X0016150Y0074165D01*
X0016013Y0072966D02*
X0017526Y0072966D01*
X0017809Y0071768D02*
X0015516Y0071768D01*
X0014673Y0070569D02*
X0049117Y0070569D01*
X0049117Y0069371D02*
X0015872Y0069371D01*
X0017070Y0068172D02*
X0018871Y0068172D01*
X0020907Y0068172D02*
X0022069Y0068172D01*
X0022069Y0068184D02*
X0022069Y0064803D01*
X0025450Y0064803D01*
X0025450Y0066794D01*
X0025341Y0067201D01*
X0025131Y0067566D01*
X0024833Y0067864D01*
X0024468Y0068075D01*
X0024061Y0068184D01*
X0022069Y0068184D01*
X0022069Y0066974D02*
X0020907Y0066974D01*
X0020907Y0065775D02*
X0022069Y0065775D01*
X0022069Y0064577D02*
X0025794Y0064577D01*
X0025794Y0065775D02*
X0025450Y0065775D01*
X0025402Y0066974D02*
X0025794Y0066974D01*
X0026719Y0068172D02*
X0024105Y0068172D01*
X0032793Y0068172D02*
X0049117Y0068172D01*
X0049117Y0066974D02*
X0048285Y0066974D01*
X0049207Y0071768D02*
X0033462Y0071768D01*
X0033718Y0072966D02*
X0049199Y0072966D01*
X0049013Y0074165D02*
X0033718Y0074165D01*
X0033718Y0075363D02*
X0049288Y0075363D01*
X0054403Y0071768D02*
X0127922Y0071768D01*
X0133804Y0065775D02*
X0133976Y0065775D01*
X0134937Y0064577D02*
X0132842Y0064577D01*
X0129032Y0064577D02*
X0127921Y0064577D01*
X0130140Y0058584D02*
X0131340Y0058584D01*
X0131340Y0057385D02*
X0130140Y0057385D01*
X0130140Y0056187D02*
X0131340Y0056187D01*
X0131340Y0054988D02*
X0130140Y0054988D01*
X0138748Y0064577D02*
X0139858Y0064577D01*
X0143669Y0064577D02*
X0163519Y0064577D01*
X0164717Y0065775D02*
X0144631Y0065775D01*
X0144948Y0066974D02*
X0165916Y0066974D01*
X0167114Y0068172D02*
X0144797Y0068172D01*
X0144071Y0069371D02*
X0168313Y0069371D01*
X0169511Y0070569D02*
X0141056Y0070569D01*
X0172511Y0087348D02*
X0179861Y0087348D01*
X0179861Y0086150D02*
X0173709Y0086150D01*
X0174908Y0084951D02*
X0179861Y0084951D01*
X0179087Y0083753D02*
X0175730Y0083753D01*
X0175860Y0082554D02*
X0177889Y0082554D01*
X0177309Y0081356D02*
X0175860Y0081356D01*
X0176221Y0080157D02*
X0177309Y0080157D01*
X0177309Y0078959D02*
X0176444Y0078959D01*
X0176199Y0077760D02*
X0176702Y0077760D01*
X0175504Y0076562D02*
X0175339Y0076562D01*
X0178184Y0066974D02*
X0178458Y0066974D01*
X0177348Y0065775D02*
X0179656Y0065775D01*
X0197597Y0076562D02*
X0198870Y0076562D01*
X0179861Y0088547D02*
X0171312Y0088547D01*
X0170421Y0089745D02*
X0179861Y0089745D01*
X0198718Y0099333D02*
X0207683Y0099333D01*
X0207683Y0098135D02*
X0201193Y0098135D01*
X0202049Y0096936D02*
X0207683Y0096936D01*
X0207788Y0095738D02*
X0202291Y0095738D01*
X0202066Y0094539D02*
X0240093Y0094539D01*
X0239327Y0095738D02*
X0237362Y0095738D01*
X0237349Y0095691D02*
X0237458Y0096098D01*
X0237458Y0098089D01*
X0234077Y0098089D01*
X0234077Y0094708D01*
X0236069Y0094708D01*
X0236476Y0094817D01*
X0236841Y0095028D01*
X0237139Y0095326D01*
X0237349Y0095691D01*
X0237458Y0096936D02*
X0238830Y0096936D01*
X0238826Y0098135D02*
X0234077Y0098135D01*
X0234077Y0098089D02*
X0234077Y0099252D01*
X0232915Y0099252D01*
X0232915Y0102633D01*
X0230923Y0102633D01*
X0230516Y0102524D01*
X0230151Y0102313D01*
X0229854Y0102015D01*
X0229643Y0101650D01*
X0229534Y0101243D01*
X0229534Y0099252D01*
X0232915Y0099252D01*
X0232915Y0098089D01*
X0234077Y0098089D01*
X0234077Y0096936D02*
X0232915Y0096936D01*
X0232915Y0098089D02*
X0232915Y0094708D01*
X0230923Y0094708D01*
X0230516Y0094817D01*
X0230151Y0095028D01*
X0229854Y0095326D01*
X0229643Y0095691D01*
X0229534Y0096098D01*
X0229534Y0098089D01*
X0232915Y0098089D01*
X0232915Y0098135D02*
X0229191Y0098135D01*
X0229191Y0099333D02*
X0229534Y0099333D01*
X0229534Y0100532D02*
X0229191Y0100532D01*
X0229156Y0101730D02*
X0229689Y0101730D01*
X0232915Y0101730D02*
X0234077Y0101730D01*
X0234077Y0102633D02*
X0234077Y0099252D01*
X0237458Y0099252D01*
X0237458Y0101243D01*
X0237349Y0101650D01*
X0237139Y0102015D01*
X0236841Y0102313D01*
X0236476Y0102524D01*
X0236069Y0102633D01*
X0234077Y0102633D01*
X0237303Y0101730D02*
X0240360Y0101730D01*
X0239438Y0100532D02*
X0237458Y0100532D01*
X0237458Y0099333D02*
X0238941Y0099333D01*
X0234077Y0099333D02*
X0232915Y0099333D01*
X0232915Y0100532D02*
X0234077Y0100532D01*
X0229534Y0096936D02*
X0229191Y0096936D01*
X0229191Y0095738D02*
X0229630Y0095738D01*
X0232915Y0095738D02*
X0234077Y0095738D01*
X0241528Y0093341D02*
X0201233Y0093341D01*
X0201207Y0092142D02*
X0240772Y0092142D01*
X0221301Y0101730D02*
X0221282Y0101730D01*
X0217363Y0102929D02*
X0242173Y0102929D01*
X0229207Y0110120D02*
X0256306Y0110120D01*
X0256306Y0111318D02*
X0247840Y0111318D01*
X0249190Y0112517D02*
X0256306Y0112517D01*
X0256306Y0113715D02*
X0250203Y0113715D01*
X0250699Y0114914D02*
X0256306Y0114914D01*
X0256306Y0116112D02*
X0251139Y0116112D01*
X0251139Y0117311D02*
X0256306Y0117311D01*
X0256306Y0118510D02*
X0251139Y0118510D01*
X0250749Y0119708D02*
X0256277Y0119708D01*
X0256182Y0120907D02*
X0250253Y0120907D01*
X0249311Y0122105D02*
X0255800Y0122105D01*
X0255411Y0123304D02*
X0248112Y0123304D01*
X0252848Y0126899D02*
X0226930Y0126899D01*
X0228129Y0125701D02*
X0253939Y0125701D01*
X0254810Y0124502D02*
X0229327Y0124502D01*
X0229553Y0123304D02*
X0240140Y0123304D01*
X0238941Y0122105D02*
X0229553Y0122105D01*
X0229553Y0120907D02*
X0237999Y0120907D01*
X0237503Y0119708D02*
X0228795Y0119708D01*
X0221111Y0119708D02*
X0218795Y0119708D01*
X0219553Y0120907D02*
X0220353Y0120907D01*
X0220353Y0122105D02*
X0219553Y0122105D01*
X0219553Y0123304D02*
X0220353Y0123304D01*
X0220578Y0124502D02*
X0219327Y0124502D01*
X0218129Y0125701D02*
X0221777Y0125701D01*
X0222975Y0126899D02*
X0216930Y0126899D01*
X0212975Y0126899D02*
X0206930Y0126899D01*
X0208129Y0125701D02*
X0211777Y0125701D01*
X0210578Y0124502D02*
X0209327Y0124502D01*
X0209553Y0123304D02*
X0210353Y0123304D01*
X0210353Y0122105D02*
X0209553Y0122105D01*
X0209553Y0120907D02*
X0210353Y0120907D01*
X0211111Y0119708D02*
X0208795Y0119708D01*
X0207596Y0118510D02*
X0212309Y0118510D01*
X0212189Y0116112D02*
X0207717Y0116112D01*
X0208915Y0114914D02*
X0210990Y0114914D01*
X0210353Y0113715D02*
X0209553Y0113715D01*
X0209553Y0112517D02*
X0210353Y0112517D01*
X0210353Y0111318D02*
X0209553Y0111318D01*
X0209207Y0110120D02*
X0210699Y0110120D01*
X0211897Y0108921D02*
X0208008Y0108921D01*
X0213875Y0107723D02*
X0184061Y0107723D01*
X0188008Y0108921D02*
X0191897Y0108921D01*
X0190699Y0110120D02*
X0189207Y0110120D01*
X0189553Y0111318D02*
X0190353Y0111318D01*
X0190353Y0112517D02*
X0189553Y0112517D01*
X0189553Y0113715D02*
X0190353Y0113715D01*
X0190990Y0114914D02*
X0188915Y0114914D01*
X0189553Y0123304D02*
X0190353Y0123304D01*
X0190578Y0124502D02*
X0189327Y0124502D01*
X0188129Y0125701D02*
X0191777Y0125701D01*
X0196930Y0126899D02*
X0202975Y0126899D01*
X0201777Y0125701D02*
X0198129Y0125701D01*
X0199327Y0124502D02*
X0200578Y0124502D01*
X0200353Y0123304D02*
X0199553Y0123304D01*
X0219553Y0111318D02*
X0220353Y0111318D01*
X0220699Y0110120D02*
X0219207Y0110120D01*
X0218008Y0108921D02*
X0221897Y0108921D01*
X0229553Y0111318D02*
X0240412Y0111318D01*
X0251198Y0128098D02*
X0008707Y0128098D01*
X0011817Y0129296D02*
X0248089Y0129296D01*
X0209212Y0104127D02*
X0195145Y0104127D01*
X0195133Y0102929D02*
X0209152Y0102929D01*
X0207915Y0101730D02*
X0197961Y0101730D01*
X0198617Y0100532D02*
X0207683Y0100532D01*
X0161897Y0108921D02*
X0158008Y0108921D01*
X0156858Y0107771D02*
X0159553Y0110466D01*
X0159553Y0111971D01*
X0155353Y0111971D01*
X0155353Y0112771D01*
X0159553Y0112771D01*
X0159553Y0114277D01*
X0156858Y0116971D01*
X0155353Y0116971D01*
X0155353Y0112771D01*
X0154553Y0112771D01*
X0154553Y0111971D01*
X0155353Y0111971D01*
X0155353Y0107771D01*
X0156858Y0107771D01*
X0155353Y0108921D02*
X0154553Y0108921D01*
X0154553Y0107771D02*
X0154553Y0111971D01*
X0150353Y0111971D01*
X0150353Y0110466D01*
X0153047Y0107771D01*
X0154553Y0107771D01*
X0154553Y0110120D02*
X0155353Y0110120D01*
X0155353Y0111318D02*
X0154553Y0111318D01*
X0154553Y0112517D02*
X0149553Y0112517D01*
X0150353Y0112771D02*
X0154553Y0112771D01*
X0154553Y0116971D01*
X0153047Y0116971D01*
X0150353Y0114277D01*
X0150353Y0112771D01*
X0150353Y0113715D02*
X0149553Y0113715D01*
X0148915Y0114914D02*
X0150990Y0114914D01*
X0152189Y0116112D02*
X0147717Y0116112D01*
X0147596Y0118510D02*
X0152309Y0118510D01*
X0153047Y0117771D02*
X0156858Y0117771D01*
X0159553Y0120466D01*
X0159553Y0124277D01*
X0156858Y0126971D01*
X0153047Y0126971D01*
X0150353Y0124277D01*
X0150353Y0120466D01*
X0153047Y0117771D01*
X0154553Y0116112D02*
X0155353Y0116112D01*
X0155353Y0114914D02*
X0154553Y0114914D01*
X0154553Y0113715D02*
X0155353Y0113715D01*
X0155353Y0112517D02*
X0160353Y0112517D01*
X0160353Y0113715D02*
X0159553Y0113715D01*
X0158915Y0114914D02*
X0160990Y0114914D01*
X0162189Y0116112D02*
X0157717Y0116112D01*
X0157596Y0118510D02*
X0162309Y0118510D01*
X0161111Y0119708D02*
X0158795Y0119708D01*
X0159553Y0120907D02*
X0160353Y0120907D01*
X0160353Y0122105D02*
X0159553Y0122105D01*
X0159553Y0123304D02*
X0160353Y0123304D01*
X0160578Y0124502D02*
X0159327Y0124502D01*
X0158129Y0125701D02*
X0161777Y0125701D01*
X0162975Y0126899D02*
X0156930Y0126899D01*
X0152975Y0126899D02*
X0146930Y0126899D01*
X0148129Y0125701D02*
X0151777Y0125701D01*
X0150578Y0124502D02*
X0149327Y0124502D01*
X0149553Y0123304D02*
X0150353Y0123304D01*
X0150353Y0122105D02*
X0149553Y0122105D01*
X0149553Y0120907D02*
X0150353Y0120907D01*
X0151111Y0119708D02*
X0148795Y0119708D01*
X0149553Y0111318D02*
X0150353Y0111318D01*
X0150699Y0110120D02*
X0149207Y0110120D01*
X0148008Y0108921D02*
X0151897Y0108921D01*
X0159207Y0110120D02*
X0160699Y0110120D01*
X0160353Y0111318D02*
X0159553Y0111318D01*
X0119355Y0108921D02*
X0118008Y0108921D01*
X0100353Y0123304D02*
X0099553Y0123304D01*
X0099327Y0124502D02*
X0100578Y0124502D01*
X0101777Y0125701D02*
X0098129Y0125701D01*
X0092975Y0126899D02*
X0086930Y0126899D01*
X0088129Y0125701D02*
X0091777Y0125701D01*
X0090578Y0124502D02*
X0089327Y0124502D01*
X0089553Y0123304D02*
X0090353Y0123304D01*
X0080353Y0111318D02*
X0079553Y0111318D01*
X0079207Y0110120D02*
X0080699Y0110120D01*
X0071897Y0108921D02*
X0068008Y0108921D01*
X0069207Y0110120D02*
X0070699Y0110120D01*
X0070353Y0111318D02*
X0069553Y0111318D01*
X0052189Y0116112D02*
X0047717Y0116112D01*
X0048915Y0114914D02*
X0050990Y0114914D01*
X0050353Y0113715D02*
X0049553Y0113715D01*
X0049553Y0112517D02*
X0050353Y0112517D01*
X0050353Y0111318D02*
X0049553Y0111318D01*
X0049207Y0110120D02*
X0050699Y0110120D01*
X0051897Y0108921D02*
X0048008Y0108921D01*
X0047596Y0118510D02*
X0052309Y0118510D01*
X0051111Y0119708D02*
X0048795Y0119708D01*
X0049553Y0120907D02*
X0050353Y0120907D01*
X0059553Y0123304D02*
X0060353Y0123304D01*
X0060578Y0124502D02*
X0059327Y0124502D01*
X0058129Y0125701D02*
X0061777Y0125701D01*
X0062975Y0126899D02*
X0056930Y0126899D01*
X0042975Y0126899D02*
X0036930Y0126899D01*
X0038129Y0125701D02*
X0041777Y0125701D01*
X0040578Y0124502D02*
X0039327Y0124502D01*
X0039553Y0123304D02*
X0040353Y0123304D01*
X0040353Y0122105D02*
X0039553Y0122105D01*
X0039553Y0120907D02*
X0040353Y0120907D01*
X0041111Y0119708D02*
X0038795Y0119708D01*
X0026321Y0080157D02*
X0024923Y0080157D01*
X0024255Y0078959D02*
X0026679Y0078959D01*
X0025794Y0077760D02*
X0025413Y0077760D01*
X0025450Y0076562D02*
X0025794Y0076562D01*
X0022069Y0077760D02*
X0020907Y0077760D01*
X0020907Y0078959D02*
X0022069Y0078959D01*
X0033718Y0066974D02*
X0034455Y0066974D01*
X0025794Y0063378D02*
X0025450Y0063378D01*
X0025450Y0062179D02*
X0025794Y0062179D01*
X0017463Y0058584D02*
X0014113Y0058584D01*
X0013852Y0058845D02*
X0012622Y0059354D01*
X0012884Y0059440D01*
X0013628Y0059819D01*
X0014303Y0060309D01*
X0014893Y0060899D01*
X0015000Y0061047D01*
X0018738Y0057309D01*
X0018508Y0057248D01*
X0018144Y0057037D01*
X0017846Y0056739D01*
X0017635Y0056375D01*
X0017526Y0055968D01*
X0017526Y0053976D01*
X0020907Y0053976D01*
X0020907Y0052814D01*
X0017526Y0052814D01*
X0017526Y0050822D01*
X0017591Y0050581D01*
X0015776Y0052395D01*
X0016150Y0053297D01*
X0016150Y0055406D01*
X0015343Y0057354D01*
X0013852Y0058845D01*
X0013557Y0059782D02*
X0016265Y0059782D01*
X0015066Y0060981D02*
X0014952Y0060981D01*
X0015311Y0057385D02*
X0018662Y0057385D01*
X0017585Y0056187D02*
X0015826Y0056187D01*
X0016150Y0054988D02*
X0017526Y0054988D01*
X0016150Y0053790D02*
X0020907Y0053790D01*
X0020907Y0052814D02*
X0022069Y0052814D01*
X0022069Y0049433D01*
X0024061Y0049433D01*
X0024468Y0049542D01*
X0024833Y0049752D01*
X0025131Y0050050D01*
X0025341Y0050415D01*
X0025450Y0050822D01*
X0025450Y0052814D01*
X0022069Y0052814D01*
X0022069Y0053976D01*
X0025450Y0053976D01*
X0025450Y0055968D01*
X0025341Y0056375D01*
X0025131Y0056739D01*
X0024833Y0057037D01*
X0024550Y0057200D01*
X0026574Y0057200D01*
X0025794Y0056420D01*
X0025794Y0050370D01*
X0026731Y0049433D01*
X0032781Y0049433D01*
X0033718Y0050370D01*
X0033718Y0051295D01*
X0034455Y0051295D01*
X0034455Y0050567D01*
X0035392Y0049630D01*
X0040655Y0049630D01*
X0041370Y0050345D01*
X0042085Y0049630D01*
X0045512Y0049630D01*
X0046260Y0048881D01*
X0049117Y0048881D01*
X0049117Y0048684D01*
X0019488Y0048684D01*
X0018674Y0049497D01*
X0018915Y0049433D01*
X0020907Y0049433D01*
X0020907Y0052814D01*
X0020907Y0052591D02*
X0022069Y0052591D01*
X0022069Y0051393D02*
X0020907Y0051393D01*
X0020907Y0050194D02*
X0022069Y0050194D01*
X0019176Y0048996D02*
X0046146Y0048996D01*
X0041520Y0050194D02*
X0041220Y0050194D01*
X0034827Y0050194D02*
X0033543Y0050194D01*
X0025969Y0050194D02*
X0025214Y0050194D01*
X0025450Y0051393D02*
X0025794Y0051393D01*
X0025794Y0052591D02*
X0025450Y0052591D01*
X0025794Y0053790D02*
X0022069Y0053790D01*
X0025450Y0054988D02*
X0025794Y0054988D01*
X0025794Y0056187D02*
X0025392Y0056187D01*
X0017526Y0052591D02*
X0015858Y0052591D01*
X0016778Y0051393D02*
X0017526Y0051393D01*
D28*
X0052197Y0074064D03*
X0108299Y0053395D03*
X0119827Y0054938D03*
X0119126Y0061269D03*
X0126016Y0067174D03*
X0130937Y0067174D03*
X0136843Y0067174D03*
X0141764Y0067174D03*
X0153575Y0064222D03*
X0175228Y0068159D03*
X0173260Y0078985D03*
X0167354Y0088828D03*
X0151606Y0085875D03*
X0140780Y0098670D03*
X0116173Y0084891D03*
X0168339Y0048110D03*
X0171291Y0044537D03*
X0154559Y0042568D03*
X0148654Y0040600D03*
X0137827Y0040600D03*
X0124047Y0045521D03*
X0114205Y0045521D03*
X0088614Y0036663D03*
X0081724Y0040600D03*
X0069913Y0037647D03*
X0101409Y0022883D03*
X0126016Y0020915D03*
X0132906Y0017962D03*
X0140780Y0016978D03*
X0141764Y0020915D03*
X0196882Y0025836D03*
X0197866Y0046505D03*
X0203772Y0049458D03*
X0205878Y0053257D03*
X0214598Y0051426D03*
X0219520Y0048474D03*
X0214598Y0073080D03*
X0214598Y0082922D03*
X0235268Y0074064D03*
X0199107Y0095718D03*
X0195534Y0099655D03*
X0191961Y0103592D03*
X0214598Y0104576D03*
X0234283Y0105560D03*
D29*
X0010858Y0098670D02*
X0010858Y0084360D01*
X0010850Y0084352D01*
D30*
X0011295Y0083907D01*
X0022276Y0083907D01*
X0114205Y0045521D02*
X0124047Y0045521D01*
X0108102Y0027804D02*
X0108693Y0027214D01*
X0104391Y0022911D01*
X0103223Y0022911D01*
X0103195Y0022883D01*
X0101409Y0022883D01*
X0108693Y0027214D02*
X0112630Y0023277D01*
X0112630Y0018946D01*
X0173260Y0078985D02*
X0173260Y0082922D01*
X0167354Y0088828D01*
D31*
X0055150Y0101033D02*
X0054953Y0101230D01*
X0045307Y0101033D02*
X0044953Y0101387D01*
M02*
