G75*
%MOIN*%
%OFA0B0*%
%FSLAX25Y25*%
%IPPOS*%
%LPD*%
%AMOC8*
5,1,8,0,0,1.08239X$1,22.5*
%
%ADD10C,0.00000*%
%ADD11OC8,0.06000*%
%ADD12R,0.05906X0.01181*%
%ADD13R,0.01181X0.05906*%
%ADD14C,0.02830*%
%ADD15OC8,0.10000*%
%ADD16OC8,0.06102*%
%ADD17R,0.01181X0.04724*%
%ADD18C,0.07400*%
%ADD19C,0.02000*%
%ADD20C,0.01000*%
%ADD21C,0.03169*%
%ADD22C,0.01200*%
D10*
X0013811Y0013041D02*
X0246094Y0013041D01*
X0246379Y0013044D01*
X0246665Y0013055D01*
X0246950Y0013072D01*
X0247234Y0013096D01*
X0247518Y0013127D01*
X0247801Y0013165D01*
X0248082Y0013210D01*
X0248363Y0013261D01*
X0248643Y0013319D01*
X0248921Y0013384D01*
X0249197Y0013456D01*
X0249471Y0013534D01*
X0249744Y0013619D01*
X0250014Y0013711D01*
X0250282Y0013809D01*
X0250548Y0013913D01*
X0250811Y0014024D01*
X0251071Y0014141D01*
X0251329Y0014264D01*
X0251583Y0014394D01*
X0251834Y0014530D01*
X0252082Y0014671D01*
X0252326Y0014819D01*
X0252567Y0014972D01*
X0252803Y0015132D01*
X0253036Y0015297D01*
X0253265Y0015467D01*
X0253490Y0015643D01*
X0253710Y0015825D01*
X0253926Y0016011D01*
X0254137Y0016203D01*
X0254344Y0016400D01*
X0254546Y0016602D01*
X0254743Y0016809D01*
X0254935Y0017020D01*
X0255121Y0017236D01*
X0255303Y0017456D01*
X0255479Y0017681D01*
X0255649Y0017910D01*
X0255814Y0018143D01*
X0255974Y0018379D01*
X0256127Y0018620D01*
X0256275Y0018864D01*
X0256416Y0019112D01*
X0256552Y0019363D01*
X0256682Y0019617D01*
X0256805Y0019875D01*
X0256922Y0020135D01*
X0257033Y0020398D01*
X0257137Y0020664D01*
X0257235Y0020932D01*
X0257327Y0021202D01*
X0257412Y0021475D01*
X0257490Y0021749D01*
X0257562Y0022025D01*
X0257627Y0022303D01*
X0257685Y0022583D01*
X0257736Y0022864D01*
X0257781Y0023145D01*
X0257819Y0023428D01*
X0257850Y0023712D01*
X0257874Y0023996D01*
X0257891Y0024281D01*
X0257902Y0024567D01*
X0257905Y0024852D01*
X0257906Y0024852D02*
X0257906Y0119340D01*
X0257905Y0119340D02*
X0257902Y0119625D01*
X0257891Y0119911D01*
X0257874Y0120196D01*
X0257850Y0120480D01*
X0257819Y0120764D01*
X0257781Y0121047D01*
X0257736Y0121328D01*
X0257685Y0121609D01*
X0257627Y0121889D01*
X0257562Y0122167D01*
X0257490Y0122443D01*
X0257412Y0122717D01*
X0257327Y0122990D01*
X0257235Y0123260D01*
X0257137Y0123528D01*
X0257033Y0123794D01*
X0256922Y0124057D01*
X0256805Y0124317D01*
X0256682Y0124575D01*
X0256552Y0124829D01*
X0256416Y0125080D01*
X0256275Y0125328D01*
X0256127Y0125572D01*
X0255974Y0125813D01*
X0255814Y0126049D01*
X0255649Y0126282D01*
X0255479Y0126511D01*
X0255303Y0126736D01*
X0255121Y0126956D01*
X0254935Y0127172D01*
X0254743Y0127383D01*
X0254546Y0127590D01*
X0254344Y0127792D01*
X0254137Y0127989D01*
X0253926Y0128181D01*
X0253710Y0128367D01*
X0253490Y0128549D01*
X0253265Y0128725D01*
X0253036Y0128895D01*
X0252803Y0129060D01*
X0252567Y0129220D01*
X0252326Y0129373D01*
X0252082Y0129521D01*
X0251834Y0129662D01*
X0251583Y0129798D01*
X0251329Y0129928D01*
X0251071Y0130051D01*
X0250811Y0130168D01*
X0250548Y0130279D01*
X0250282Y0130383D01*
X0250014Y0130481D01*
X0249744Y0130573D01*
X0249471Y0130658D01*
X0249197Y0130736D01*
X0248921Y0130808D01*
X0248643Y0130873D01*
X0248363Y0130931D01*
X0248082Y0130982D01*
X0247801Y0131027D01*
X0247518Y0131065D01*
X0247234Y0131096D01*
X0246950Y0131120D01*
X0246665Y0131137D01*
X0246379Y0131148D01*
X0246094Y0131151D01*
X0013811Y0131151D01*
X0013526Y0131148D01*
X0013240Y0131137D01*
X0012955Y0131120D01*
X0012671Y0131096D01*
X0012387Y0131065D01*
X0012104Y0131027D01*
X0011823Y0130982D01*
X0011542Y0130931D01*
X0011262Y0130873D01*
X0010984Y0130808D01*
X0010708Y0130736D01*
X0010434Y0130658D01*
X0010161Y0130573D01*
X0009891Y0130481D01*
X0009623Y0130383D01*
X0009357Y0130279D01*
X0009094Y0130168D01*
X0008834Y0130051D01*
X0008576Y0129928D01*
X0008322Y0129798D01*
X0008071Y0129662D01*
X0007823Y0129521D01*
X0007579Y0129373D01*
X0007338Y0129220D01*
X0007102Y0129060D01*
X0006869Y0128895D01*
X0006640Y0128725D01*
X0006415Y0128549D01*
X0006195Y0128367D01*
X0005979Y0128181D01*
X0005768Y0127989D01*
X0005561Y0127792D01*
X0005359Y0127590D01*
X0005162Y0127383D01*
X0004970Y0127172D01*
X0004784Y0126956D01*
X0004602Y0126736D01*
X0004426Y0126511D01*
X0004256Y0126282D01*
X0004091Y0126049D01*
X0003931Y0125813D01*
X0003778Y0125572D01*
X0003630Y0125328D01*
X0003489Y0125080D01*
X0003353Y0124829D01*
X0003223Y0124575D01*
X0003100Y0124317D01*
X0002983Y0124057D01*
X0002872Y0123794D01*
X0002768Y0123528D01*
X0002670Y0123260D01*
X0002578Y0122990D01*
X0002493Y0122717D01*
X0002415Y0122443D01*
X0002343Y0122167D01*
X0002278Y0121889D01*
X0002220Y0121609D01*
X0002169Y0121328D01*
X0002124Y0121047D01*
X0002086Y0120764D01*
X0002055Y0120480D01*
X0002031Y0120196D01*
X0002014Y0119911D01*
X0002003Y0119625D01*
X0002000Y0119340D01*
X0002000Y0024852D01*
X0002003Y0024567D01*
X0002014Y0024281D01*
X0002031Y0023996D01*
X0002055Y0023712D01*
X0002086Y0023428D01*
X0002124Y0023145D01*
X0002169Y0022864D01*
X0002220Y0022583D01*
X0002278Y0022303D01*
X0002343Y0022025D01*
X0002415Y0021749D01*
X0002493Y0021475D01*
X0002578Y0021202D01*
X0002670Y0020932D01*
X0002768Y0020664D01*
X0002872Y0020398D01*
X0002983Y0020135D01*
X0003100Y0019875D01*
X0003223Y0019617D01*
X0003353Y0019363D01*
X0003489Y0019112D01*
X0003630Y0018864D01*
X0003778Y0018620D01*
X0003931Y0018379D01*
X0004091Y0018143D01*
X0004256Y0017910D01*
X0004426Y0017681D01*
X0004602Y0017456D01*
X0004784Y0017236D01*
X0004970Y0017020D01*
X0005162Y0016809D01*
X0005359Y0016602D01*
X0005561Y0016400D01*
X0005768Y0016203D01*
X0005979Y0016011D01*
X0006195Y0015825D01*
X0006415Y0015643D01*
X0006640Y0015467D01*
X0006869Y0015297D01*
X0007102Y0015132D01*
X0007338Y0014972D01*
X0007579Y0014819D01*
X0007823Y0014671D01*
X0008071Y0014530D01*
X0008322Y0014394D01*
X0008576Y0014264D01*
X0008834Y0014141D01*
X0009094Y0014024D01*
X0009357Y0013913D01*
X0009623Y0013809D01*
X0009891Y0013711D01*
X0010161Y0013619D01*
X0010434Y0013534D01*
X0010708Y0013456D01*
X0010984Y0013384D01*
X0011262Y0013319D01*
X0011542Y0013261D01*
X0011823Y0013210D01*
X0012104Y0013165D01*
X0012387Y0013127D01*
X0012671Y0013096D01*
X0012955Y0013072D01*
X0013240Y0013055D01*
X0013526Y0013044D01*
X0013811Y0013041D01*
X0010367Y0026820D02*
X0010369Y0026967D01*
X0010375Y0027113D01*
X0010385Y0027259D01*
X0010399Y0027405D01*
X0010417Y0027551D01*
X0010438Y0027696D01*
X0010464Y0027840D01*
X0010494Y0027984D01*
X0010527Y0028126D01*
X0010564Y0028268D01*
X0010605Y0028409D01*
X0010650Y0028548D01*
X0010699Y0028687D01*
X0010751Y0028824D01*
X0010808Y0028959D01*
X0010867Y0029093D01*
X0010931Y0029225D01*
X0010998Y0029355D01*
X0011068Y0029484D01*
X0011142Y0029611D01*
X0011219Y0029735D01*
X0011300Y0029858D01*
X0011384Y0029978D01*
X0011471Y0030096D01*
X0011561Y0030211D01*
X0011654Y0030324D01*
X0011751Y0030435D01*
X0011850Y0030543D01*
X0011952Y0030648D01*
X0012057Y0030750D01*
X0012165Y0030849D01*
X0012276Y0030946D01*
X0012389Y0031039D01*
X0012504Y0031129D01*
X0012622Y0031216D01*
X0012742Y0031300D01*
X0012865Y0031381D01*
X0012989Y0031458D01*
X0013116Y0031532D01*
X0013245Y0031602D01*
X0013375Y0031669D01*
X0013507Y0031733D01*
X0013641Y0031792D01*
X0013776Y0031849D01*
X0013913Y0031901D01*
X0014052Y0031950D01*
X0014191Y0031995D01*
X0014332Y0032036D01*
X0014474Y0032073D01*
X0014616Y0032106D01*
X0014760Y0032136D01*
X0014904Y0032162D01*
X0015049Y0032183D01*
X0015195Y0032201D01*
X0015341Y0032215D01*
X0015487Y0032225D01*
X0015633Y0032231D01*
X0015780Y0032233D01*
X0015927Y0032231D01*
X0016073Y0032225D01*
X0016219Y0032215D01*
X0016365Y0032201D01*
X0016511Y0032183D01*
X0016656Y0032162D01*
X0016800Y0032136D01*
X0016944Y0032106D01*
X0017086Y0032073D01*
X0017228Y0032036D01*
X0017369Y0031995D01*
X0017508Y0031950D01*
X0017647Y0031901D01*
X0017784Y0031849D01*
X0017919Y0031792D01*
X0018053Y0031733D01*
X0018185Y0031669D01*
X0018315Y0031602D01*
X0018444Y0031532D01*
X0018571Y0031458D01*
X0018695Y0031381D01*
X0018818Y0031300D01*
X0018938Y0031216D01*
X0019056Y0031129D01*
X0019171Y0031039D01*
X0019284Y0030946D01*
X0019395Y0030849D01*
X0019503Y0030750D01*
X0019608Y0030648D01*
X0019710Y0030543D01*
X0019809Y0030435D01*
X0019906Y0030324D01*
X0019999Y0030211D01*
X0020089Y0030096D01*
X0020176Y0029978D01*
X0020260Y0029858D01*
X0020341Y0029735D01*
X0020418Y0029611D01*
X0020492Y0029484D01*
X0020562Y0029355D01*
X0020629Y0029225D01*
X0020693Y0029093D01*
X0020752Y0028959D01*
X0020809Y0028824D01*
X0020861Y0028687D01*
X0020910Y0028548D01*
X0020955Y0028409D01*
X0020996Y0028268D01*
X0021033Y0028126D01*
X0021066Y0027984D01*
X0021096Y0027840D01*
X0021122Y0027696D01*
X0021143Y0027551D01*
X0021161Y0027405D01*
X0021175Y0027259D01*
X0021185Y0027113D01*
X0021191Y0026967D01*
X0021193Y0026820D01*
X0021191Y0026673D01*
X0021185Y0026527D01*
X0021175Y0026381D01*
X0021161Y0026235D01*
X0021143Y0026089D01*
X0021122Y0025944D01*
X0021096Y0025800D01*
X0021066Y0025656D01*
X0021033Y0025514D01*
X0020996Y0025372D01*
X0020955Y0025231D01*
X0020910Y0025092D01*
X0020861Y0024953D01*
X0020809Y0024816D01*
X0020752Y0024681D01*
X0020693Y0024547D01*
X0020629Y0024415D01*
X0020562Y0024285D01*
X0020492Y0024156D01*
X0020418Y0024029D01*
X0020341Y0023905D01*
X0020260Y0023782D01*
X0020176Y0023662D01*
X0020089Y0023544D01*
X0019999Y0023429D01*
X0019906Y0023316D01*
X0019809Y0023205D01*
X0019710Y0023097D01*
X0019608Y0022992D01*
X0019503Y0022890D01*
X0019395Y0022791D01*
X0019284Y0022694D01*
X0019171Y0022601D01*
X0019056Y0022511D01*
X0018938Y0022424D01*
X0018818Y0022340D01*
X0018695Y0022259D01*
X0018571Y0022182D01*
X0018444Y0022108D01*
X0018315Y0022038D01*
X0018185Y0021971D01*
X0018053Y0021907D01*
X0017919Y0021848D01*
X0017784Y0021791D01*
X0017647Y0021739D01*
X0017508Y0021690D01*
X0017369Y0021645D01*
X0017228Y0021604D01*
X0017086Y0021567D01*
X0016944Y0021534D01*
X0016800Y0021504D01*
X0016656Y0021478D01*
X0016511Y0021457D01*
X0016365Y0021439D01*
X0016219Y0021425D01*
X0016073Y0021415D01*
X0015927Y0021409D01*
X0015780Y0021407D01*
X0015633Y0021409D01*
X0015487Y0021415D01*
X0015341Y0021425D01*
X0015195Y0021439D01*
X0015049Y0021457D01*
X0014904Y0021478D01*
X0014760Y0021504D01*
X0014616Y0021534D01*
X0014474Y0021567D01*
X0014332Y0021604D01*
X0014191Y0021645D01*
X0014052Y0021690D01*
X0013913Y0021739D01*
X0013776Y0021791D01*
X0013641Y0021848D01*
X0013507Y0021907D01*
X0013375Y0021971D01*
X0013245Y0022038D01*
X0013116Y0022108D01*
X0012989Y0022182D01*
X0012865Y0022259D01*
X0012742Y0022340D01*
X0012622Y0022424D01*
X0012504Y0022511D01*
X0012389Y0022601D01*
X0012276Y0022694D01*
X0012165Y0022791D01*
X0012057Y0022890D01*
X0011952Y0022992D01*
X0011850Y0023097D01*
X0011751Y0023205D01*
X0011654Y0023316D01*
X0011561Y0023429D01*
X0011471Y0023544D01*
X0011384Y0023662D01*
X0011300Y0023782D01*
X0011219Y0023905D01*
X0011142Y0024029D01*
X0011068Y0024156D01*
X0010998Y0024285D01*
X0010931Y0024415D01*
X0010867Y0024547D01*
X0010808Y0024681D01*
X0010751Y0024816D01*
X0010699Y0024953D01*
X0010650Y0025092D01*
X0010605Y0025231D01*
X0010564Y0025372D01*
X0010527Y0025514D01*
X0010494Y0025656D01*
X0010464Y0025800D01*
X0010438Y0025944D01*
X0010417Y0026089D01*
X0010399Y0026235D01*
X0010385Y0026381D01*
X0010375Y0026527D01*
X0010369Y0026673D01*
X0010367Y0026820D01*
X0010367Y0117371D02*
X0010369Y0117518D01*
X0010375Y0117664D01*
X0010385Y0117810D01*
X0010399Y0117956D01*
X0010417Y0118102D01*
X0010438Y0118247D01*
X0010464Y0118391D01*
X0010494Y0118535D01*
X0010527Y0118677D01*
X0010564Y0118819D01*
X0010605Y0118960D01*
X0010650Y0119099D01*
X0010699Y0119238D01*
X0010751Y0119375D01*
X0010808Y0119510D01*
X0010867Y0119644D01*
X0010931Y0119776D01*
X0010998Y0119906D01*
X0011068Y0120035D01*
X0011142Y0120162D01*
X0011219Y0120286D01*
X0011300Y0120409D01*
X0011384Y0120529D01*
X0011471Y0120647D01*
X0011561Y0120762D01*
X0011654Y0120875D01*
X0011751Y0120986D01*
X0011850Y0121094D01*
X0011952Y0121199D01*
X0012057Y0121301D01*
X0012165Y0121400D01*
X0012276Y0121497D01*
X0012389Y0121590D01*
X0012504Y0121680D01*
X0012622Y0121767D01*
X0012742Y0121851D01*
X0012865Y0121932D01*
X0012989Y0122009D01*
X0013116Y0122083D01*
X0013245Y0122153D01*
X0013375Y0122220D01*
X0013507Y0122284D01*
X0013641Y0122343D01*
X0013776Y0122400D01*
X0013913Y0122452D01*
X0014052Y0122501D01*
X0014191Y0122546D01*
X0014332Y0122587D01*
X0014474Y0122624D01*
X0014616Y0122657D01*
X0014760Y0122687D01*
X0014904Y0122713D01*
X0015049Y0122734D01*
X0015195Y0122752D01*
X0015341Y0122766D01*
X0015487Y0122776D01*
X0015633Y0122782D01*
X0015780Y0122784D01*
X0015927Y0122782D01*
X0016073Y0122776D01*
X0016219Y0122766D01*
X0016365Y0122752D01*
X0016511Y0122734D01*
X0016656Y0122713D01*
X0016800Y0122687D01*
X0016944Y0122657D01*
X0017086Y0122624D01*
X0017228Y0122587D01*
X0017369Y0122546D01*
X0017508Y0122501D01*
X0017647Y0122452D01*
X0017784Y0122400D01*
X0017919Y0122343D01*
X0018053Y0122284D01*
X0018185Y0122220D01*
X0018315Y0122153D01*
X0018444Y0122083D01*
X0018571Y0122009D01*
X0018695Y0121932D01*
X0018818Y0121851D01*
X0018938Y0121767D01*
X0019056Y0121680D01*
X0019171Y0121590D01*
X0019284Y0121497D01*
X0019395Y0121400D01*
X0019503Y0121301D01*
X0019608Y0121199D01*
X0019710Y0121094D01*
X0019809Y0120986D01*
X0019906Y0120875D01*
X0019999Y0120762D01*
X0020089Y0120647D01*
X0020176Y0120529D01*
X0020260Y0120409D01*
X0020341Y0120286D01*
X0020418Y0120162D01*
X0020492Y0120035D01*
X0020562Y0119906D01*
X0020629Y0119776D01*
X0020693Y0119644D01*
X0020752Y0119510D01*
X0020809Y0119375D01*
X0020861Y0119238D01*
X0020910Y0119099D01*
X0020955Y0118960D01*
X0020996Y0118819D01*
X0021033Y0118677D01*
X0021066Y0118535D01*
X0021096Y0118391D01*
X0021122Y0118247D01*
X0021143Y0118102D01*
X0021161Y0117956D01*
X0021175Y0117810D01*
X0021185Y0117664D01*
X0021191Y0117518D01*
X0021193Y0117371D01*
X0021191Y0117224D01*
X0021185Y0117078D01*
X0021175Y0116932D01*
X0021161Y0116786D01*
X0021143Y0116640D01*
X0021122Y0116495D01*
X0021096Y0116351D01*
X0021066Y0116207D01*
X0021033Y0116065D01*
X0020996Y0115923D01*
X0020955Y0115782D01*
X0020910Y0115643D01*
X0020861Y0115504D01*
X0020809Y0115367D01*
X0020752Y0115232D01*
X0020693Y0115098D01*
X0020629Y0114966D01*
X0020562Y0114836D01*
X0020492Y0114707D01*
X0020418Y0114580D01*
X0020341Y0114456D01*
X0020260Y0114333D01*
X0020176Y0114213D01*
X0020089Y0114095D01*
X0019999Y0113980D01*
X0019906Y0113867D01*
X0019809Y0113756D01*
X0019710Y0113648D01*
X0019608Y0113543D01*
X0019503Y0113441D01*
X0019395Y0113342D01*
X0019284Y0113245D01*
X0019171Y0113152D01*
X0019056Y0113062D01*
X0018938Y0112975D01*
X0018818Y0112891D01*
X0018695Y0112810D01*
X0018571Y0112733D01*
X0018444Y0112659D01*
X0018315Y0112589D01*
X0018185Y0112522D01*
X0018053Y0112458D01*
X0017919Y0112399D01*
X0017784Y0112342D01*
X0017647Y0112290D01*
X0017508Y0112241D01*
X0017369Y0112196D01*
X0017228Y0112155D01*
X0017086Y0112118D01*
X0016944Y0112085D01*
X0016800Y0112055D01*
X0016656Y0112029D01*
X0016511Y0112008D01*
X0016365Y0111990D01*
X0016219Y0111976D01*
X0016073Y0111966D01*
X0015927Y0111960D01*
X0015780Y0111958D01*
X0015633Y0111960D01*
X0015487Y0111966D01*
X0015341Y0111976D01*
X0015195Y0111990D01*
X0015049Y0112008D01*
X0014904Y0112029D01*
X0014760Y0112055D01*
X0014616Y0112085D01*
X0014474Y0112118D01*
X0014332Y0112155D01*
X0014191Y0112196D01*
X0014052Y0112241D01*
X0013913Y0112290D01*
X0013776Y0112342D01*
X0013641Y0112399D01*
X0013507Y0112458D01*
X0013375Y0112522D01*
X0013245Y0112589D01*
X0013116Y0112659D01*
X0012989Y0112733D01*
X0012865Y0112810D01*
X0012742Y0112891D01*
X0012622Y0112975D01*
X0012504Y0113062D01*
X0012389Y0113152D01*
X0012276Y0113245D01*
X0012165Y0113342D01*
X0012057Y0113441D01*
X0011952Y0113543D01*
X0011850Y0113648D01*
X0011751Y0113756D01*
X0011654Y0113867D01*
X0011561Y0113980D01*
X0011471Y0114095D01*
X0011384Y0114213D01*
X0011300Y0114333D01*
X0011219Y0114456D01*
X0011142Y0114580D01*
X0011068Y0114707D01*
X0010998Y0114836D01*
X0010931Y0114966D01*
X0010867Y0115098D01*
X0010808Y0115232D01*
X0010751Y0115367D01*
X0010699Y0115504D01*
X0010650Y0115643D01*
X0010605Y0115782D01*
X0010564Y0115923D01*
X0010527Y0116065D01*
X0010494Y0116207D01*
X0010464Y0116351D01*
X0010438Y0116495D01*
X0010417Y0116640D01*
X0010399Y0116786D01*
X0010385Y0116932D01*
X0010375Y0117078D01*
X0010369Y0117224D01*
X0010367Y0117371D01*
X0238713Y0117371D02*
X0238715Y0117518D01*
X0238721Y0117664D01*
X0238731Y0117810D01*
X0238745Y0117956D01*
X0238763Y0118102D01*
X0238784Y0118247D01*
X0238810Y0118391D01*
X0238840Y0118535D01*
X0238873Y0118677D01*
X0238910Y0118819D01*
X0238951Y0118960D01*
X0238996Y0119099D01*
X0239045Y0119238D01*
X0239097Y0119375D01*
X0239154Y0119510D01*
X0239213Y0119644D01*
X0239277Y0119776D01*
X0239344Y0119906D01*
X0239414Y0120035D01*
X0239488Y0120162D01*
X0239565Y0120286D01*
X0239646Y0120409D01*
X0239730Y0120529D01*
X0239817Y0120647D01*
X0239907Y0120762D01*
X0240000Y0120875D01*
X0240097Y0120986D01*
X0240196Y0121094D01*
X0240298Y0121199D01*
X0240403Y0121301D01*
X0240511Y0121400D01*
X0240622Y0121497D01*
X0240735Y0121590D01*
X0240850Y0121680D01*
X0240968Y0121767D01*
X0241088Y0121851D01*
X0241211Y0121932D01*
X0241335Y0122009D01*
X0241462Y0122083D01*
X0241591Y0122153D01*
X0241721Y0122220D01*
X0241853Y0122284D01*
X0241987Y0122343D01*
X0242122Y0122400D01*
X0242259Y0122452D01*
X0242398Y0122501D01*
X0242537Y0122546D01*
X0242678Y0122587D01*
X0242820Y0122624D01*
X0242962Y0122657D01*
X0243106Y0122687D01*
X0243250Y0122713D01*
X0243395Y0122734D01*
X0243541Y0122752D01*
X0243687Y0122766D01*
X0243833Y0122776D01*
X0243979Y0122782D01*
X0244126Y0122784D01*
X0244273Y0122782D01*
X0244419Y0122776D01*
X0244565Y0122766D01*
X0244711Y0122752D01*
X0244857Y0122734D01*
X0245002Y0122713D01*
X0245146Y0122687D01*
X0245290Y0122657D01*
X0245432Y0122624D01*
X0245574Y0122587D01*
X0245715Y0122546D01*
X0245854Y0122501D01*
X0245993Y0122452D01*
X0246130Y0122400D01*
X0246265Y0122343D01*
X0246399Y0122284D01*
X0246531Y0122220D01*
X0246661Y0122153D01*
X0246790Y0122083D01*
X0246917Y0122009D01*
X0247041Y0121932D01*
X0247164Y0121851D01*
X0247284Y0121767D01*
X0247402Y0121680D01*
X0247517Y0121590D01*
X0247630Y0121497D01*
X0247741Y0121400D01*
X0247849Y0121301D01*
X0247954Y0121199D01*
X0248056Y0121094D01*
X0248155Y0120986D01*
X0248252Y0120875D01*
X0248345Y0120762D01*
X0248435Y0120647D01*
X0248522Y0120529D01*
X0248606Y0120409D01*
X0248687Y0120286D01*
X0248764Y0120162D01*
X0248838Y0120035D01*
X0248908Y0119906D01*
X0248975Y0119776D01*
X0249039Y0119644D01*
X0249098Y0119510D01*
X0249155Y0119375D01*
X0249207Y0119238D01*
X0249256Y0119099D01*
X0249301Y0118960D01*
X0249342Y0118819D01*
X0249379Y0118677D01*
X0249412Y0118535D01*
X0249442Y0118391D01*
X0249468Y0118247D01*
X0249489Y0118102D01*
X0249507Y0117956D01*
X0249521Y0117810D01*
X0249531Y0117664D01*
X0249537Y0117518D01*
X0249539Y0117371D01*
X0249537Y0117224D01*
X0249531Y0117078D01*
X0249521Y0116932D01*
X0249507Y0116786D01*
X0249489Y0116640D01*
X0249468Y0116495D01*
X0249442Y0116351D01*
X0249412Y0116207D01*
X0249379Y0116065D01*
X0249342Y0115923D01*
X0249301Y0115782D01*
X0249256Y0115643D01*
X0249207Y0115504D01*
X0249155Y0115367D01*
X0249098Y0115232D01*
X0249039Y0115098D01*
X0248975Y0114966D01*
X0248908Y0114836D01*
X0248838Y0114707D01*
X0248764Y0114580D01*
X0248687Y0114456D01*
X0248606Y0114333D01*
X0248522Y0114213D01*
X0248435Y0114095D01*
X0248345Y0113980D01*
X0248252Y0113867D01*
X0248155Y0113756D01*
X0248056Y0113648D01*
X0247954Y0113543D01*
X0247849Y0113441D01*
X0247741Y0113342D01*
X0247630Y0113245D01*
X0247517Y0113152D01*
X0247402Y0113062D01*
X0247284Y0112975D01*
X0247164Y0112891D01*
X0247041Y0112810D01*
X0246917Y0112733D01*
X0246790Y0112659D01*
X0246661Y0112589D01*
X0246531Y0112522D01*
X0246399Y0112458D01*
X0246265Y0112399D01*
X0246130Y0112342D01*
X0245993Y0112290D01*
X0245854Y0112241D01*
X0245715Y0112196D01*
X0245574Y0112155D01*
X0245432Y0112118D01*
X0245290Y0112085D01*
X0245146Y0112055D01*
X0245002Y0112029D01*
X0244857Y0112008D01*
X0244711Y0111990D01*
X0244565Y0111976D01*
X0244419Y0111966D01*
X0244273Y0111960D01*
X0244126Y0111958D01*
X0243979Y0111960D01*
X0243833Y0111966D01*
X0243687Y0111976D01*
X0243541Y0111990D01*
X0243395Y0112008D01*
X0243250Y0112029D01*
X0243106Y0112055D01*
X0242962Y0112085D01*
X0242820Y0112118D01*
X0242678Y0112155D01*
X0242537Y0112196D01*
X0242398Y0112241D01*
X0242259Y0112290D01*
X0242122Y0112342D01*
X0241987Y0112399D01*
X0241853Y0112458D01*
X0241721Y0112522D01*
X0241591Y0112589D01*
X0241462Y0112659D01*
X0241335Y0112733D01*
X0241211Y0112810D01*
X0241088Y0112891D01*
X0240968Y0112975D01*
X0240850Y0113062D01*
X0240735Y0113152D01*
X0240622Y0113245D01*
X0240511Y0113342D01*
X0240403Y0113441D01*
X0240298Y0113543D01*
X0240196Y0113648D01*
X0240097Y0113756D01*
X0240000Y0113867D01*
X0239907Y0113980D01*
X0239817Y0114095D01*
X0239730Y0114213D01*
X0239646Y0114333D01*
X0239565Y0114456D01*
X0239488Y0114580D01*
X0239414Y0114707D01*
X0239344Y0114836D01*
X0239277Y0114966D01*
X0239213Y0115098D01*
X0239154Y0115232D01*
X0239097Y0115367D01*
X0239045Y0115504D01*
X0238996Y0115643D01*
X0238951Y0115782D01*
X0238910Y0115923D01*
X0238873Y0116065D01*
X0238840Y0116207D01*
X0238810Y0116351D01*
X0238784Y0116495D01*
X0238763Y0116640D01*
X0238745Y0116786D01*
X0238731Y0116932D01*
X0238721Y0117078D01*
X0238715Y0117224D01*
X0238713Y0117371D01*
X0238713Y0026820D02*
X0238715Y0026967D01*
X0238721Y0027113D01*
X0238731Y0027259D01*
X0238745Y0027405D01*
X0238763Y0027551D01*
X0238784Y0027696D01*
X0238810Y0027840D01*
X0238840Y0027984D01*
X0238873Y0028126D01*
X0238910Y0028268D01*
X0238951Y0028409D01*
X0238996Y0028548D01*
X0239045Y0028687D01*
X0239097Y0028824D01*
X0239154Y0028959D01*
X0239213Y0029093D01*
X0239277Y0029225D01*
X0239344Y0029355D01*
X0239414Y0029484D01*
X0239488Y0029611D01*
X0239565Y0029735D01*
X0239646Y0029858D01*
X0239730Y0029978D01*
X0239817Y0030096D01*
X0239907Y0030211D01*
X0240000Y0030324D01*
X0240097Y0030435D01*
X0240196Y0030543D01*
X0240298Y0030648D01*
X0240403Y0030750D01*
X0240511Y0030849D01*
X0240622Y0030946D01*
X0240735Y0031039D01*
X0240850Y0031129D01*
X0240968Y0031216D01*
X0241088Y0031300D01*
X0241211Y0031381D01*
X0241335Y0031458D01*
X0241462Y0031532D01*
X0241591Y0031602D01*
X0241721Y0031669D01*
X0241853Y0031733D01*
X0241987Y0031792D01*
X0242122Y0031849D01*
X0242259Y0031901D01*
X0242398Y0031950D01*
X0242537Y0031995D01*
X0242678Y0032036D01*
X0242820Y0032073D01*
X0242962Y0032106D01*
X0243106Y0032136D01*
X0243250Y0032162D01*
X0243395Y0032183D01*
X0243541Y0032201D01*
X0243687Y0032215D01*
X0243833Y0032225D01*
X0243979Y0032231D01*
X0244126Y0032233D01*
X0244273Y0032231D01*
X0244419Y0032225D01*
X0244565Y0032215D01*
X0244711Y0032201D01*
X0244857Y0032183D01*
X0245002Y0032162D01*
X0245146Y0032136D01*
X0245290Y0032106D01*
X0245432Y0032073D01*
X0245574Y0032036D01*
X0245715Y0031995D01*
X0245854Y0031950D01*
X0245993Y0031901D01*
X0246130Y0031849D01*
X0246265Y0031792D01*
X0246399Y0031733D01*
X0246531Y0031669D01*
X0246661Y0031602D01*
X0246790Y0031532D01*
X0246917Y0031458D01*
X0247041Y0031381D01*
X0247164Y0031300D01*
X0247284Y0031216D01*
X0247402Y0031129D01*
X0247517Y0031039D01*
X0247630Y0030946D01*
X0247741Y0030849D01*
X0247849Y0030750D01*
X0247954Y0030648D01*
X0248056Y0030543D01*
X0248155Y0030435D01*
X0248252Y0030324D01*
X0248345Y0030211D01*
X0248435Y0030096D01*
X0248522Y0029978D01*
X0248606Y0029858D01*
X0248687Y0029735D01*
X0248764Y0029611D01*
X0248838Y0029484D01*
X0248908Y0029355D01*
X0248975Y0029225D01*
X0249039Y0029093D01*
X0249098Y0028959D01*
X0249155Y0028824D01*
X0249207Y0028687D01*
X0249256Y0028548D01*
X0249301Y0028409D01*
X0249342Y0028268D01*
X0249379Y0028126D01*
X0249412Y0027984D01*
X0249442Y0027840D01*
X0249468Y0027696D01*
X0249489Y0027551D01*
X0249507Y0027405D01*
X0249521Y0027259D01*
X0249531Y0027113D01*
X0249537Y0026967D01*
X0249539Y0026820D01*
X0249537Y0026673D01*
X0249531Y0026527D01*
X0249521Y0026381D01*
X0249507Y0026235D01*
X0249489Y0026089D01*
X0249468Y0025944D01*
X0249442Y0025800D01*
X0249412Y0025656D01*
X0249379Y0025514D01*
X0249342Y0025372D01*
X0249301Y0025231D01*
X0249256Y0025092D01*
X0249207Y0024953D01*
X0249155Y0024816D01*
X0249098Y0024681D01*
X0249039Y0024547D01*
X0248975Y0024415D01*
X0248908Y0024285D01*
X0248838Y0024156D01*
X0248764Y0024029D01*
X0248687Y0023905D01*
X0248606Y0023782D01*
X0248522Y0023662D01*
X0248435Y0023544D01*
X0248345Y0023429D01*
X0248252Y0023316D01*
X0248155Y0023205D01*
X0248056Y0023097D01*
X0247954Y0022992D01*
X0247849Y0022890D01*
X0247741Y0022791D01*
X0247630Y0022694D01*
X0247517Y0022601D01*
X0247402Y0022511D01*
X0247284Y0022424D01*
X0247164Y0022340D01*
X0247041Y0022259D01*
X0246917Y0022182D01*
X0246790Y0022108D01*
X0246661Y0022038D01*
X0246531Y0021971D01*
X0246399Y0021907D01*
X0246265Y0021848D01*
X0246130Y0021791D01*
X0245993Y0021739D01*
X0245854Y0021690D01*
X0245715Y0021645D01*
X0245574Y0021604D01*
X0245432Y0021567D01*
X0245290Y0021534D01*
X0245146Y0021504D01*
X0245002Y0021478D01*
X0244857Y0021457D01*
X0244711Y0021439D01*
X0244565Y0021425D01*
X0244419Y0021415D01*
X0244273Y0021409D01*
X0244126Y0021407D01*
X0243979Y0021409D01*
X0243833Y0021415D01*
X0243687Y0021425D01*
X0243541Y0021439D01*
X0243395Y0021457D01*
X0243250Y0021478D01*
X0243106Y0021504D01*
X0242962Y0021534D01*
X0242820Y0021567D01*
X0242678Y0021604D01*
X0242537Y0021645D01*
X0242398Y0021690D01*
X0242259Y0021739D01*
X0242122Y0021791D01*
X0241987Y0021848D01*
X0241853Y0021907D01*
X0241721Y0021971D01*
X0241591Y0022038D01*
X0241462Y0022108D01*
X0241335Y0022182D01*
X0241211Y0022259D01*
X0241088Y0022340D01*
X0240968Y0022424D01*
X0240850Y0022511D01*
X0240735Y0022601D01*
X0240622Y0022694D01*
X0240511Y0022791D01*
X0240403Y0022890D01*
X0240298Y0022992D01*
X0240196Y0023097D01*
X0240097Y0023205D01*
X0240000Y0023316D01*
X0239907Y0023429D01*
X0239817Y0023544D01*
X0239730Y0023662D01*
X0239646Y0023782D01*
X0239565Y0023905D01*
X0239488Y0024029D01*
X0239414Y0024156D01*
X0239344Y0024285D01*
X0239277Y0024415D01*
X0239213Y0024547D01*
X0239154Y0024681D01*
X0239097Y0024816D01*
X0239045Y0024953D01*
X0238996Y0025092D01*
X0238951Y0025231D01*
X0238910Y0025372D01*
X0238873Y0025514D01*
X0238840Y0025656D01*
X0238810Y0025800D01*
X0238784Y0025944D01*
X0238763Y0026089D01*
X0238745Y0026235D01*
X0238731Y0026381D01*
X0238721Y0026527D01*
X0238715Y0026673D01*
X0238713Y0026820D01*
D11*
X0224953Y0112371D03*
X0214953Y0112371D03*
X0204953Y0112371D03*
X0194953Y0112371D03*
X0184953Y0112371D03*
X0174953Y0112371D03*
X0164953Y0112371D03*
X0154953Y0112371D03*
X0144953Y0112371D03*
X0134953Y0112371D03*
X0124953Y0112371D03*
X0114953Y0112371D03*
X0104953Y0112371D03*
X0094953Y0112371D03*
X0084953Y0112371D03*
X0074953Y0112371D03*
X0064953Y0112371D03*
X0054953Y0112371D03*
X0044953Y0112371D03*
X0034953Y0112371D03*
X0034953Y0122371D03*
X0044953Y0122371D03*
X0054953Y0122371D03*
X0064953Y0122371D03*
X0074953Y0122371D03*
X0084953Y0122371D03*
X0094953Y0122371D03*
X0104953Y0122371D03*
X0114953Y0122371D03*
X0124953Y0122371D03*
X0134953Y0122371D03*
X0144953Y0122371D03*
X0154953Y0122371D03*
X0164953Y0122371D03*
X0174953Y0122371D03*
X0184953Y0122371D03*
X0194953Y0122371D03*
X0204953Y0122371D03*
X0214953Y0122371D03*
X0224953Y0122371D03*
D12*
X0161449Y0083907D03*
X0161449Y0081938D03*
X0161449Y0079970D03*
X0161449Y0078001D03*
X0161449Y0076033D03*
X0161449Y0074064D03*
X0161449Y0072096D03*
X0161449Y0070127D03*
X0161449Y0068159D03*
X0161449Y0066190D03*
X0161449Y0064222D03*
X0161449Y0062253D03*
X0161449Y0060285D03*
X0161449Y0058316D03*
X0161449Y0056348D03*
X0161449Y0054379D03*
X0161449Y0052411D03*
X0161449Y0050442D03*
X0161449Y0048474D03*
X0161449Y0046505D03*
X0161449Y0044537D03*
X0161449Y0042568D03*
X0161449Y0040600D03*
X0161449Y0038631D03*
X0161449Y0036663D03*
X0098457Y0036663D03*
X0098457Y0038631D03*
X0098457Y0040600D03*
X0098457Y0042568D03*
X0098457Y0044537D03*
X0098457Y0046505D03*
X0098457Y0048474D03*
X0098457Y0050442D03*
X0098457Y0052411D03*
X0098457Y0054379D03*
X0098457Y0056348D03*
X0098457Y0058316D03*
X0098457Y0060285D03*
X0098457Y0062253D03*
X0098457Y0064222D03*
X0098457Y0066190D03*
X0098457Y0068159D03*
X0098457Y0070127D03*
X0098457Y0072096D03*
X0098457Y0074064D03*
X0098457Y0076033D03*
X0098457Y0078001D03*
X0098457Y0079970D03*
X0098457Y0081938D03*
X0098457Y0083907D03*
D13*
X0106331Y0091781D03*
X0108299Y0091781D03*
X0110268Y0091781D03*
X0112236Y0091781D03*
X0114205Y0091781D03*
X0116173Y0091781D03*
X0118142Y0091781D03*
X0120110Y0091781D03*
X0122079Y0091781D03*
X0124047Y0091781D03*
X0126016Y0091781D03*
X0127984Y0091781D03*
X0129953Y0091781D03*
X0131921Y0091781D03*
X0133890Y0091781D03*
X0135858Y0091781D03*
X0137827Y0091781D03*
X0139795Y0091781D03*
X0141764Y0091781D03*
X0143732Y0091781D03*
X0145701Y0091781D03*
X0147669Y0091781D03*
X0149638Y0091781D03*
X0151606Y0091781D03*
X0153575Y0091781D03*
X0153575Y0028789D03*
X0151606Y0028789D03*
X0149638Y0028789D03*
X0147669Y0028789D03*
X0145701Y0028789D03*
X0143732Y0028789D03*
X0141764Y0028789D03*
X0139795Y0028789D03*
X0137827Y0028789D03*
X0135858Y0028789D03*
X0133890Y0028789D03*
X0131921Y0028789D03*
X0129953Y0028789D03*
X0127984Y0028789D03*
X0126016Y0028789D03*
X0124047Y0028789D03*
X0122079Y0028789D03*
X0120110Y0028789D03*
X0118142Y0028789D03*
X0116173Y0028789D03*
X0114205Y0028789D03*
X0112236Y0028789D03*
X0110268Y0028789D03*
X0108299Y0028789D03*
X0106331Y0028789D03*
D14*
X0044517Y0053629D02*
X0044517Y0055129D01*
X0045223Y0055129D01*
X0045223Y0053629D01*
X0044517Y0053629D01*
X0037517Y0053629D02*
X0037517Y0055129D01*
X0038223Y0055129D01*
X0038223Y0053629D01*
X0037517Y0053629D01*
X0030459Y0053629D02*
X0030459Y0055129D01*
X0030459Y0053629D02*
X0029753Y0053629D01*
X0029753Y0055129D01*
X0030459Y0055129D01*
X0023459Y0055129D02*
X0023459Y0053629D01*
X0022753Y0053629D01*
X0022753Y0055129D01*
X0023459Y0055129D01*
X0022753Y0063472D02*
X0022753Y0064972D01*
X0023459Y0064972D01*
X0023459Y0063472D01*
X0022753Y0063472D01*
X0029753Y0063472D02*
X0029753Y0064972D01*
X0030459Y0064972D01*
X0030459Y0063472D01*
X0029753Y0063472D01*
X0037517Y0063472D02*
X0037517Y0064972D01*
X0038223Y0064972D01*
X0038223Y0063472D01*
X0037517Y0063472D01*
X0044517Y0063472D02*
X0044517Y0064972D01*
X0045223Y0064972D01*
X0045223Y0063472D01*
X0044517Y0063472D01*
X0044517Y0073314D02*
X0044517Y0074814D01*
X0045223Y0074814D01*
X0045223Y0073314D01*
X0044517Y0073314D01*
X0037517Y0073314D02*
X0037517Y0074814D01*
X0038223Y0074814D01*
X0038223Y0073314D01*
X0037517Y0073314D01*
X0030459Y0073314D02*
X0030459Y0074814D01*
X0030459Y0073314D02*
X0029753Y0073314D01*
X0029753Y0074814D01*
X0030459Y0074814D01*
X0023459Y0074814D02*
X0023459Y0073314D01*
X0022753Y0073314D01*
X0022753Y0074814D01*
X0023459Y0074814D01*
X0023459Y0083157D02*
X0023459Y0084657D01*
X0023459Y0083157D02*
X0022753Y0083157D01*
X0022753Y0084657D01*
X0023459Y0084657D01*
X0030459Y0084657D02*
X0030459Y0083157D01*
X0029753Y0083157D01*
X0029753Y0084657D01*
X0030459Y0084657D01*
X0037517Y0084657D02*
X0037517Y0083157D01*
X0037517Y0084657D02*
X0038223Y0084657D01*
X0038223Y0083157D01*
X0037517Y0083157D01*
X0044517Y0083157D02*
X0044517Y0084657D01*
X0045223Y0084657D01*
X0045223Y0083157D01*
X0044517Y0083157D01*
D15*
X0025622Y0098670D03*
X0010858Y0098670D03*
D16*
X0181961Y0080048D03*
X0191961Y0080048D03*
X0201961Y0080048D03*
X0201961Y0070048D03*
X0191961Y0070048D03*
X0181961Y0070048D03*
D17*
X0226504Y0069588D03*
X0229063Y0069588D03*
X0231622Y0069588D03*
X0234181Y0069588D03*
X0234181Y0084450D03*
X0231622Y0084450D03*
X0229063Y0084450D03*
X0226504Y0084450D03*
X0226504Y0101084D03*
X0229063Y0101084D03*
X0231622Y0101084D03*
X0234181Y0101084D03*
X0234181Y0052954D03*
X0231622Y0052954D03*
X0229063Y0052954D03*
X0226504Y0052954D03*
X0216465Y0043997D03*
X0213906Y0043997D03*
X0211346Y0043997D03*
X0208787Y0043997D03*
X0208787Y0027363D03*
X0211346Y0027363D03*
X0213906Y0027363D03*
X0216465Y0027363D03*
D18*
X0226409Y0030915D03*
X0226409Y0040915D03*
X0244126Y0046505D03*
X0244126Y0056505D03*
X0244126Y0066505D03*
X0244126Y0078001D03*
X0244126Y0088001D03*
X0244126Y0098001D03*
X0226409Y0020915D03*
X0033496Y0021584D03*
X0033496Y0031584D03*
X0033496Y0041584D03*
X0010850Y0054352D03*
X0010850Y0064352D03*
X0010850Y0074352D03*
X0010850Y0084352D03*
D19*
X0010850Y0090052D01*
X0010401Y0090052D01*
X0009515Y0089911D01*
X0008662Y0089634D01*
X0007863Y0089227D01*
X0007137Y0088699D01*
X0006502Y0088065D01*
X0005975Y0087339D01*
X0005568Y0086540D01*
X0005290Y0085686D01*
X0005150Y0084800D01*
X0005150Y0084352D01*
X0010850Y0084352D01*
X0010850Y0084352D01*
X0010850Y0090052D01*
X0011299Y0090052D01*
X0012185Y0089911D01*
X0013038Y0089634D01*
X0013837Y0089227D01*
X0014563Y0088699D01*
X0015198Y0088065D01*
X0015725Y0087339D01*
X0016132Y0086540D01*
X0016410Y0085686D01*
X0016550Y0084800D01*
X0016550Y0084352D01*
X0010850Y0084352D01*
X0010850Y0084351D01*
X0016550Y0084351D01*
X0016550Y0083903D01*
X0016410Y0083017D01*
X0016132Y0082163D01*
X0015725Y0081364D01*
X0015198Y0080638D01*
X0014563Y0080004D01*
X0013837Y0079476D01*
X0013629Y0079370D01*
X0014079Y0079184D01*
X0015682Y0077580D01*
X0016550Y0075485D01*
X0016550Y0073218D01*
X0015682Y0071123D01*
X0014079Y0069519D01*
X0013674Y0069352D01*
X0014079Y0069184D01*
X0015682Y0067580D01*
X0016550Y0065485D01*
X0016550Y0063218D01*
X0015682Y0061123D01*
X0014079Y0059519D01*
X0013674Y0059352D01*
X0014079Y0059184D01*
X0015682Y0057580D01*
X0016550Y0055485D01*
X0016550Y0053218D01*
X0015682Y0051123D01*
X0014079Y0049519D01*
X0011984Y0048652D01*
X0009716Y0048652D01*
X0007621Y0049519D01*
X0006018Y0051123D01*
X0005150Y0053218D01*
X0005150Y0055485D01*
X0006018Y0057580D01*
X0007621Y0059184D01*
X0008026Y0059352D01*
X0007621Y0059519D01*
X0006018Y0061123D01*
X0005150Y0063218D01*
X0005150Y0065485D01*
X0006018Y0067580D01*
X0007621Y0069184D01*
X0008026Y0069352D01*
X0007621Y0069519D01*
X0006018Y0071123D01*
X0005150Y0073218D01*
X0005150Y0075485D01*
X0006018Y0077580D01*
X0007621Y0079184D01*
X0008071Y0079370D01*
X0007863Y0079476D01*
X0007137Y0080004D01*
X0006502Y0080638D01*
X0005975Y0081364D01*
X0005568Y0082163D01*
X0005290Y0083017D01*
X0005150Y0083903D01*
X0005150Y0084351D01*
X0010850Y0084351D01*
X0010850Y0084352D01*
X0010850Y0084987D02*
X0010850Y0084987D01*
X0010850Y0086985D02*
X0010850Y0086985D01*
X0010850Y0088984D02*
X0010850Y0088984D01*
X0014171Y0088984D02*
X0020106Y0088984D01*
X0020106Y0090982D02*
X0004000Y0090982D01*
X0004000Y0088984D02*
X0007529Y0088984D01*
X0005795Y0086985D02*
X0004000Y0086985D01*
X0004000Y0084987D02*
X0005180Y0084987D01*
X0005300Y0082988D02*
X0004000Y0082988D01*
X0004000Y0080990D02*
X0006247Y0080990D01*
X0007429Y0078991D02*
X0004000Y0078991D01*
X0004000Y0076993D02*
X0005774Y0076993D01*
X0005150Y0074994D02*
X0004000Y0074994D01*
X0004000Y0072996D02*
X0005242Y0072996D01*
X0006143Y0070997D02*
X0004000Y0070997D01*
X0004000Y0068999D02*
X0007436Y0068999D01*
X0005778Y0067000D02*
X0004000Y0067000D01*
X0004000Y0065002D02*
X0005150Y0065002D01*
X0005239Y0063003D02*
X0004000Y0063003D01*
X0004000Y0061005D02*
X0006136Y0061005D01*
X0007444Y0059006D02*
X0004000Y0059006D01*
X0004000Y0057008D02*
X0005781Y0057008D01*
X0005150Y0055009D02*
X0004000Y0055009D01*
X0004000Y0053011D02*
X0005236Y0053011D01*
X0006128Y0051012D02*
X0004000Y0051012D01*
X0004000Y0049014D02*
X0008842Y0049014D01*
X0012858Y0049014D02*
X0034870Y0049014D01*
X0034630Y0047284D02*
X0032362Y0047284D01*
X0030267Y0046416D01*
X0028664Y0044813D01*
X0027796Y0042718D01*
X0027796Y0040450D01*
X0028664Y0038355D01*
X0030267Y0036752D01*
X0030672Y0036584D01*
X0030267Y0036416D01*
X0028664Y0034813D01*
X0027796Y0032718D01*
X0027796Y0030450D01*
X0028664Y0028355D01*
X0030267Y0026752D01*
X0030672Y0026584D01*
X0030267Y0026416D01*
X0028664Y0024813D01*
X0027796Y0022718D01*
X0027796Y0020450D01*
X0028664Y0018355D01*
X0030267Y0016752D01*
X0032362Y0015884D01*
X0034630Y0015884D01*
X0036725Y0016752D01*
X0038328Y0018355D01*
X0039196Y0020450D01*
X0039196Y0022718D01*
X0038328Y0024813D01*
X0036725Y0026416D01*
X0036320Y0026584D01*
X0036725Y0026752D01*
X0038328Y0028355D01*
X0039196Y0030450D01*
X0039196Y0032718D01*
X0038328Y0034813D01*
X0036725Y0036416D01*
X0036320Y0036584D01*
X0036725Y0036752D01*
X0038328Y0038355D01*
X0039196Y0040450D01*
X0039196Y0042718D01*
X0039101Y0042946D01*
X0039569Y0043415D01*
X0040413Y0044258D01*
X0040870Y0045361D01*
X0040870Y0051446D01*
X0041119Y0051694D01*
X0041370Y0052301D01*
X0041490Y0052011D01*
X0041864Y0051452D01*
X0042340Y0050976D01*
X0042899Y0050602D01*
X0043520Y0050345D01*
X0044180Y0050214D01*
X0044870Y0050214D01*
X0044870Y0054379D01*
X0044870Y0054379D01*
X0044870Y0050214D01*
X0045560Y0050214D01*
X0046220Y0050345D01*
X0046841Y0050602D01*
X0047401Y0050976D01*
X0047876Y0051452D01*
X0048250Y0052011D01*
X0048507Y0052632D01*
X0048639Y0053292D01*
X0048639Y0054379D01*
X0044870Y0054379D01*
X0044870Y0054379D01*
X0044870Y0058544D01*
X0044180Y0058544D01*
X0043520Y0058413D01*
X0042899Y0058156D01*
X0042340Y0057782D01*
X0041864Y0057306D01*
X0041490Y0056747D01*
X0041370Y0056457D01*
X0041119Y0057064D01*
X0040870Y0057313D01*
X0040870Y0061288D01*
X0041119Y0061537D01*
X0041370Y0062144D01*
X0041490Y0061854D01*
X0041864Y0061294D01*
X0042340Y0060819D01*
X0042899Y0060445D01*
X0043520Y0060187D01*
X0044180Y0060056D01*
X0044870Y0060056D01*
X0044870Y0064221D01*
X0044870Y0064221D01*
X0044870Y0060056D01*
X0045560Y0060056D01*
X0046220Y0060187D01*
X0046841Y0060445D01*
X0047401Y0060819D01*
X0047876Y0061294D01*
X0048250Y0061854D01*
X0048507Y0062475D01*
X0048639Y0063135D01*
X0048639Y0064222D01*
X0048639Y0065309D01*
X0048507Y0065968D01*
X0048250Y0066590D01*
X0047876Y0067149D01*
X0047401Y0067625D01*
X0046841Y0067998D01*
X0046220Y0068256D01*
X0045560Y0068387D01*
X0044870Y0068387D01*
X0044180Y0068387D01*
X0043520Y0068256D01*
X0042899Y0067998D01*
X0042340Y0067625D01*
X0041864Y0067149D01*
X0041490Y0066590D01*
X0041370Y0066300D01*
X0041119Y0066907D01*
X0040870Y0067155D01*
X0040870Y0071131D01*
X0041119Y0071379D01*
X0041370Y0071986D01*
X0041490Y0071696D01*
X0041864Y0071137D01*
X0042340Y0070661D01*
X0042899Y0070287D01*
X0043520Y0070030D01*
X0044180Y0069899D01*
X0044870Y0069899D01*
X0044870Y0074064D01*
X0044870Y0074064D01*
X0044870Y0069899D01*
X0045560Y0069899D01*
X0046220Y0070030D01*
X0046841Y0070287D01*
X0047401Y0070661D01*
X0047876Y0071137D01*
X0048250Y0071696D01*
X0048507Y0072318D01*
X0048639Y0072977D01*
X0048639Y0074064D01*
X0044870Y0074064D01*
X0044870Y0074064D01*
X0044870Y0078229D01*
X0044180Y0078229D01*
X0043520Y0078098D01*
X0042899Y0077841D01*
X0042340Y0077467D01*
X0041864Y0076991D01*
X0041490Y0076432D01*
X0041370Y0076142D01*
X0041119Y0076749D01*
X0040870Y0076998D01*
X0040870Y0080973D01*
X0041119Y0081222D01*
X0041370Y0081829D01*
X0041490Y0081539D01*
X0041864Y0080979D01*
X0042340Y0080504D01*
X0042899Y0080130D01*
X0043520Y0079873D01*
X0044180Y0079741D01*
X0044870Y0079741D01*
X0044870Y0083907D01*
X0044870Y0088072D01*
X0044180Y0088072D01*
X0043520Y0087941D01*
X0042899Y0087683D01*
X0042340Y0087310D01*
X0041864Y0086834D01*
X0041490Y0086275D01*
X0041370Y0085985D01*
X0041119Y0086592D01*
X0040158Y0087552D01*
X0038903Y0088072D01*
X0036837Y0088072D01*
X0035582Y0087552D01*
X0034621Y0086592D01*
X0034102Y0085336D01*
X0034102Y0082477D01*
X0034621Y0081222D01*
X0034870Y0080973D01*
X0034870Y0076998D01*
X0034621Y0076749D01*
X0034102Y0075494D01*
X0034102Y0072634D01*
X0034621Y0071379D01*
X0034870Y0071131D01*
X0034870Y0067155D01*
X0034621Y0066907D01*
X0034102Y0065651D01*
X0034102Y0062792D01*
X0034621Y0061537D01*
X0034870Y0061288D01*
X0034870Y0057313D01*
X0034621Y0057064D01*
X0034102Y0055809D01*
X0034102Y0052949D01*
X0034621Y0051694D01*
X0034870Y0051446D01*
X0034870Y0047200D01*
X0034859Y0047189D01*
X0034630Y0047284D01*
X0031714Y0047015D02*
X0004000Y0047015D01*
X0004000Y0045017D02*
X0028868Y0045017D01*
X0027921Y0043018D02*
X0004000Y0043018D01*
X0004000Y0041020D02*
X0027796Y0041020D01*
X0028388Y0039021D02*
X0004000Y0039021D01*
X0004000Y0037023D02*
X0029996Y0037023D01*
X0028875Y0035024D02*
X0004000Y0035024D01*
X0004000Y0033026D02*
X0011501Y0033026D01*
X0011580Y0033105D02*
X0009495Y0031019D01*
X0008366Y0028295D01*
X0008366Y0025345D01*
X0009495Y0022621D01*
X0011580Y0020535D01*
X0014305Y0019407D01*
X0017254Y0019407D01*
X0019979Y0020535D01*
X0022064Y0022621D01*
X0023193Y0025345D01*
X0023193Y0028295D01*
X0022064Y0031019D01*
X0019979Y0033105D01*
X0017254Y0034233D01*
X0014305Y0034233D01*
X0011580Y0033105D01*
X0009502Y0031027D02*
X0004000Y0031027D01*
X0004000Y0029029D02*
X0008670Y0029029D01*
X0008366Y0027030D02*
X0004000Y0027030D01*
X0004000Y0025032D02*
X0008496Y0025032D01*
X0009324Y0023033D02*
X0004213Y0023033D01*
X0004121Y0023317D02*
X0004000Y0024852D01*
X0004000Y0095629D01*
X0007959Y0091670D01*
X0010858Y0091670D01*
X0010858Y0098670D01*
X0010858Y0098670D01*
X0010858Y0091670D01*
X0013758Y0091670D01*
X0017858Y0095771D01*
X0017858Y0098670D01*
X0010858Y0098670D01*
X0010858Y0098670D01*
X0010858Y0098671D02*
X0010858Y0105670D01*
X0007959Y0105670D01*
X0004000Y0101712D01*
X0004000Y0119340D01*
X0004121Y0120875D01*
X0005069Y0123794D01*
X0006874Y0126277D01*
X0009357Y0128081D01*
X0012276Y0129030D01*
X0013811Y0129151D01*
X0246094Y0129151D01*
X0247629Y0129030D01*
X0250549Y0128081D01*
X0253032Y0126277D01*
X0254836Y0123794D01*
X0255785Y0120875D01*
X0255906Y0119340D01*
X0255906Y0024852D01*
X0255785Y0023317D01*
X0254836Y0020397D01*
X0253032Y0017914D01*
X0250549Y0016110D01*
X0247629Y0015161D01*
X0246094Y0015041D01*
X0143857Y0015041D01*
X0144364Y0016265D01*
X0144364Y0017690D01*
X0144143Y0018224D01*
X0144802Y0018884D01*
X0145348Y0020202D01*
X0145348Y0021627D01*
X0144802Y0022945D01*
X0143911Y0023836D01*
X0154994Y0023836D01*
X0156165Y0025007D01*
X0156165Y0032570D01*
X0154994Y0033741D01*
X0148123Y0033741D01*
X0148123Y0034565D01*
X0149085Y0035527D01*
X0149085Y0035527D01*
X0149789Y0036231D01*
X0150169Y0037150D01*
X0150169Y0037348D01*
X0150684Y0037561D01*
X0151692Y0038569D01*
X0152218Y0039840D01*
X0152529Y0039530D01*
X0153846Y0038984D01*
X0155272Y0038984D01*
X0156496Y0039491D01*
X0156496Y0035244D01*
X0157668Y0034072D01*
X0165230Y0034072D01*
X0166402Y0035244D01*
X0166402Y0042037D01*
X0168722Y0042037D01*
X0169261Y0041498D01*
X0170578Y0040952D01*
X0172004Y0040952D01*
X0173322Y0041498D01*
X0174330Y0042506D01*
X0174876Y0043824D01*
X0174876Y0045250D01*
X0174330Y0046567D01*
X0173322Y0047575D01*
X0172004Y0048121D01*
X0171923Y0048121D01*
X0171923Y0048823D01*
X0171377Y0050140D01*
X0170369Y0051148D01*
X0169052Y0051694D01*
X0167626Y0051694D01*
X0166402Y0051187D01*
X0166402Y0057785D01*
X0175860Y0057785D01*
X0197229Y0036416D01*
X0198148Y0036035D01*
X0211360Y0036035D01*
X0215669Y0031726D01*
X0209927Y0031726D01*
X0209867Y0031665D01*
X0209641Y0031726D01*
X0208787Y0031726D01*
X0207934Y0031726D01*
X0207425Y0031589D01*
X0206969Y0031326D01*
X0206596Y0030954D01*
X0206333Y0030498D01*
X0206197Y0029989D01*
X0206197Y0028263D01*
X0206021Y0028336D01*
X0199451Y0028336D01*
X0198912Y0028874D01*
X0197595Y0029420D01*
X0196169Y0029420D01*
X0194852Y0028874D01*
X0193843Y0027866D01*
X0193298Y0026549D01*
X0193298Y0025123D01*
X0193843Y0023805D01*
X0194852Y0022797D01*
X0196169Y0022252D01*
X0197595Y0022252D01*
X0198912Y0022797D01*
X0199451Y0023336D01*
X0204488Y0023336D01*
X0206242Y0021582D01*
X0207161Y0021201D01*
X0210414Y0021201D01*
X0211333Y0021582D01*
X0212094Y0022343D01*
X0212752Y0023001D01*
X0217884Y0023001D01*
X0219055Y0024173D01*
X0219055Y0026418D01*
X0221051Y0028415D01*
X0221275Y0028415D01*
X0221577Y0027686D01*
X0223181Y0026082D01*
X0223586Y0025915D01*
X0223181Y0025747D01*
X0221577Y0024143D01*
X0220709Y0022048D01*
X0220709Y0019781D01*
X0221577Y0017686D01*
X0223181Y0016082D01*
X0225276Y0015215D01*
X0227543Y0015215D01*
X0229638Y0016082D01*
X0231242Y0017686D01*
X0232109Y0019781D01*
X0232109Y0022048D01*
X0231242Y0024143D01*
X0229638Y0025747D01*
X0229233Y0025915D01*
X0229638Y0026082D01*
X0231242Y0027686D01*
X0232109Y0029781D01*
X0232109Y0032048D01*
X0231242Y0034143D01*
X0229638Y0035747D01*
X0229233Y0035915D01*
X0229638Y0036082D01*
X0231242Y0037686D01*
X0232109Y0039781D01*
X0232109Y0042048D01*
X0231242Y0044143D01*
X0229638Y0045747D01*
X0227543Y0046615D01*
X0225276Y0046615D01*
X0223181Y0045747D01*
X0221577Y0044143D01*
X0221275Y0043415D01*
X0219055Y0043415D01*
X0219055Y0044473D01*
X0219471Y0044889D01*
X0220233Y0044889D01*
X0221550Y0045435D01*
X0222558Y0046443D01*
X0223104Y0047761D01*
X0223104Y0049187D01*
X0222558Y0050504D01*
X0221550Y0051512D01*
X0220233Y0052058D01*
X0218807Y0052058D01*
X0218736Y0052029D01*
X0220824Y0054116D01*
X0223913Y0054116D01*
X0223913Y0052954D01*
X0226472Y0052954D01*
X0226472Y0052954D01*
X0223913Y0052954D01*
X0223913Y0050328D01*
X0224050Y0049820D01*
X0224313Y0049364D01*
X0224685Y0048991D01*
X0225141Y0048728D01*
X0225650Y0048592D01*
X0226504Y0048592D01*
X0227358Y0048592D01*
X0227584Y0048652D01*
X0227644Y0048592D01*
X0235600Y0048592D01*
X0236772Y0049763D01*
X0236772Y0050454D01*
X0240014Y0050454D01*
X0239294Y0049734D01*
X0238426Y0047639D01*
X0238426Y0045371D01*
X0239294Y0043276D01*
X0240897Y0041673D01*
X0242992Y0040805D01*
X0245260Y0040805D01*
X0247355Y0041673D01*
X0248958Y0043276D01*
X0249826Y0045371D01*
X0249826Y0047639D01*
X0248958Y0049734D01*
X0247355Y0051337D01*
X0246950Y0051505D01*
X0247355Y0051673D01*
X0248958Y0053276D01*
X0249826Y0055371D01*
X0249826Y0057639D01*
X0248958Y0059734D01*
X0247355Y0061337D01*
X0246950Y0061505D01*
X0247355Y0061673D01*
X0248958Y0063276D01*
X0249826Y0065371D01*
X0249826Y0067639D01*
X0248958Y0069734D01*
X0247355Y0071337D01*
X0245260Y0072205D01*
X0242992Y0072205D01*
X0240897Y0071337D01*
X0239294Y0069734D01*
X0238992Y0069005D01*
X0236772Y0069005D01*
X0236772Y0070808D01*
X0237298Y0071026D01*
X0238306Y0072034D01*
X0238852Y0073351D01*
X0238852Y0074777D01*
X0238306Y0076094D01*
X0237298Y0077103D01*
X0235981Y0077648D01*
X0234555Y0077648D01*
X0233237Y0077103D01*
X0232229Y0076094D01*
X0231683Y0074777D01*
X0231683Y0073950D01*
X0225677Y0073950D01*
X0225131Y0074496D01*
X0224428Y0075199D01*
X0223509Y0075580D01*
X0217167Y0075580D01*
X0216629Y0076118D01*
X0215311Y0076664D01*
X0213885Y0076664D01*
X0212568Y0076118D01*
X0211560Y0075110D01*
X0211014Y0073793D01*
X0211014Y0072367D01*
X0211560Y0071050D01*
X0212568Y0070041D01*
X0213885Y0069496D01*
X0215311Y0069496D01*
X0216629Y0070041D01*
X0217167Y0070580D01*
X0221976Y0070580D01*
X0223913Y0068643D01*
X0223913Y0068426D01*
X0218049Y0068426D01*
X0217130Y0068045D01*
X0216427Y0067342D01*
X0205927Y0056841D01*
X0205165Y0056841D01*
X0203848Y0056296D01*
X0202839Y0055287D01*
X0202294Y0053970D01*
X0202294Y0052725D01*
X0201741Y0052496D01*
X0200733Y0051488D01*
X0200187Y0050171D01*
X0200187Y0049253D01*
X0199896Y0049544D01*
X0198579Y0050089D01*
X0197153Y0050089D01*
X0195836Y0049544D01*
X0194828Y0048535D01*
X0194798Y0048463D01*
X0178889Y0064373D01*
X0177970Y0064753D01*
X0176373Y0064753D01*
X0177259Y0065120D01*
X0178267Y0066128D01*
X0178405Y0066461D01*
X0179868Y0064997D01*
X0184053Y0064997D01*
X0186961Y0067905D01*
X0189868Y0064997D01*
X0194053Y0064997D01*
X0196961Y0067905D01*
X0199868Y0064997D01*
X0201961Y0064997D01*
X0204053Y0064997D01*
X0207012Y0067956D01*
X0207012Y0070048D01*
X0201961Y0070048D01*
X0201961Y0070048D01*
X0201961Y0064997D01*
X0201961Y0070048D01*
X0201961Y0070048D01*
X0207012Y0070048D01*
X0207012Y0072141D01*
X0204104Y0075048D01*
X0207012Y0077956D01*
X0207012Y0082141D01*
X0204053Y0085100D01*
X0199868Y0085100D01*
X0196961Y0082192D01*
X0194053Y0085100D01*
X0189868Y0085100D01*
X0186961Y0082192D01*
X0184053Y0085100D01*
X0179868Y0085100D01*
X0176909Y0082141D01*
X0176909Y0077956D01*
X0177724Y0077142D01*
X0173109Y0072528D01*
X0172728Y0071609D01*
X0172728Y0070728D01*
X0172190Y0070189D01*
X0171644Y0068872D01*
X0171644Y0067446D01*
X0172190Y0066128D01*
X0173198Y0065120D01*
X0174084Y0064753D01*
X0166402Y0064753D01*
X0166402Y0065641D01*
X0166402Y0066190D01*
X0165852Y0066190D01*
X0165852Y0066190D01*
X0165852Y0066190D01*
X0166402Y0066190D01*
X0166402Y0077470D01*
X0168429Y0077470D01*
X0169348Y0077850D01*
X0179505Y0088008D01*
X0224294Y0088008D01*
X0224050Y0087584D01*
X0223913Y0087075D01*
X0223913Y0085350D01*
X0223738Y0085422D01*
X0217167Y0085422D01*
X0216629Y0085961D01*
X0215311Y0086507D01*
X0213885Y0086507D01*
X0212568Y0085961D01*
X0211560Y0084953D01*
X0211014Y0083635D01*
X0211014Y0082209D01*
X0211560Y0080892D01*
X0212568Y0079884D01*
X0213885Y0079338D01*
X0215311Y0079338D01*
X0216629Y0079884D01*
X0217167Y0080422D01*
X0222205Y0080422D01*
X0223959Y0078668D01*
X0224878Y0078288D01*
X0228130Y0078288D01*
X0229049Y0078668D01*
X0229811Y0079430D01*
X0230469Y0080088D01*
X0235600Y0080088D01*
X0236772Y0081259D01*
X0236772Y0083505D01*
X0238768Y0085501D01*
X0238992Y0085501D01*
X0239294Y0084772D01*
X0240897Y0083169D01*
X0241302Y0083001D01*
X0240897Y0082833D01*
X0239294Y0081230D01*
X0238426Y0079135D01*
X0238426Y0076867D01*
X0239294Y0074772D01*
X0240897Y0073169D01*
X0242992Y0072301D01*
X0245260Y0072301D01*
X0247355Y0073169D01*
X0248958Y0074772D01*
X0249826Y0076867D01*
X0249826Y0079135D01*
X0248958Y0081230D01*
X0247355Y0082833D01*
X0246950Y0083001D01*
X0247355Y0083169D01*
X0248958Y0084772D01*
X0249826Y0086867D01*
X0249826Y0089135D01*
X0248958Y0091230D01*
X0247355Y0092833D01*
X0246950Y0093001D01*
X0247355Y0093169D01*
X0248958Y0094772D01*
X0249826Y0096867D01*
X0249826Y0099135D01*
X0248958Y0101230D01*
X0247355Y0102833D01*
X0245260Y0103701D01*
X0242992Y0103701D01*
X0240897Y0102833D01*
X0239294Y0101230D01*
X0238992Y0100501D01*
X0236772Y0100501D01*
X0236772Y0100660D01*
X0236783Y0100689D01*
X0236783Y0102991D01*
X0237322Y0103530D01*
X0237868Y0104847D01*
X0237868Y0106273D01*
X0237322Y0107591D01*
X0236314Y0108599D01*
X0234996Y0109144D01*
X0233570Y0109144D01*
X0232253Y0108599D01*
X0231245Y0107591D01*
X0230699Y0106273D01*
X0230699Y0105446D01*
X0225677Y0105446D01*
X0225131Y0105992D01*
X0224428Y0106695D01*
X0223509Y0107076D01*
X0217167Y0107076D01*
X0216872Y0107371D01*
X0217024Y0107371D01*
X0219953Y0110300D01*
X0222882Y0107371D01*
X0227024Y0107371D01*
X0229953Y0110300D01*
X0229953Y0114442D01*
X0227024Y0117371D01*
X0222882Y0117371D01*
X0219953Y0114442D01*
X0219953Y0110300D01*
X0219953Y0114442D01*
X0217024Y0117371D01*
X0219953Y0120300D01*
X0222882Y0117371D01*
X0227024Y0117371D01*
X0229953Y0120300D01*
X0229953Y0124442D01*
X0227024Y0127371D01*
X0222882Y0127371D01*
X0219953Y0124442D01*
X0219953Y0120300D01*
X0219953Y0124442D01*
X0217024Y0127371D01*
X0212882Y0127371D01*
X0209953Y0124442D01*
X0209953Y0120300D01*
X0212882Y0117371D01*
X0209953Y0114442D01*
X0209953Y0110300D01*
X0212618Y0107635D01*
X0212568Y0107615D01*
X0211560Y0106606D01*
X0211014Y0105289D01*
X0211014Y0103863D01*
X0211560Y0102546D01*
X0212568Y0101537D01*
X0213885Y0100992D01*
X0215311Y0100992D01*
X0216629Y0101537D01*
X0217167Y0102076D01*
X0221976Y0102076D01*
X0223913Y0100139D01*
X0223913Y0097893D01*
X0225085Y0096722D01*
X0230217Y0096722D01*
X0230624Y0096314D01*
X0229118Y0094808D01*
X0202610Y0094808D01*
X0202691Y0095005D01*
X0202691Y0096431D01*
X0202146Y0097748D01*
X0201137Y0098756D01*
X0199820Y0099302D01*
X0199118Y0099302D01*
X0199118Y0100368D01*
X0198572Y0101685D01*
X0197564Y0102693D01*
X0196247Y0103239D01*
X0195545Y0103239D01*
X0195545Y0104305D01*
X0194999Y0105622D01*
X0193991Y0106630D01*
X0192674Y0107176D01*
X0191912Y0107176D01*
X0190424Y0108664D01*
X0189505Y0109044D01*
X0188697Y0109044D01*
X0189953Y0110300D01*
X0192882Y0107371D01*
X0197024Y0107371D01*
X0199953Y0110300D01*
X0202882Y0107371D01*
X0207024Y0107371D01*
X0209953Y0110300D01*
X0209953Y0114442D01*
X0207024Y0117371D01*
X0202882Y0117371D01*
X0199953Y0114442D01*
X0199953Y0110300D01*
X0199953Y0114442D01*
X0197024Y0117371D01*
X0192882Y0117371D01*
X0189953Y0114442D01*
X0189953Y0110300D01*
X0189953Y0114442D01*
X0187024Y0117371D01*
X0189953Y0120300D01*
X0192882Y0117371D01*
X0197024Y0117371D01*
X0199953Y0120300D01*
X0202882Y0117371D01*
X0207024Y0117371D01*
X0209953Y0120300D01*
X0209953Y0124442D01*
X0207024Y0127371D01*
X0202882Y0127371D01*
X0199953Y0124442D01*
X0199953Y0120300D01*
X0199953Y0124442D01*
X0197024Y0127371D01*
X0192882Y0127371D01*
X0189953Y0124442D01*
X0189953Y0120300D01*
X0189953Y0124442D01*
X0187024Y0127371D01*
X0182882Y0127371D01*
X0179953Y0124442D01*
X0179953Y0120300D01*
X0182882Y0117371D01*
X0179953Y0114442D01*
X0179953Y0110300D01*
X0181208Y0109044D01*
X0178697Y0109044D01*
X0179953Y0110300D01*
X0179953Y0114442D01*
X0177024Y0117371D01*
X0179953Y0120300D01*
X0179953Y0124442D01*
X0177024Y0127371D01*
X0172882Y0127371D01*
X0169953Y0124442D01*
X0169953Y0120300D01*
X0172882Y0117371D01*
X0169953Y0114442D01*
X0169953Y0110300D01*
X0171208Y0109044D01*
X0168697Y0109044D01*
X0169953Y0110300D01*
X0169953Y0114442D01*
X0167024Y0117371D01*
X0169953Y0120300D01*
X0169953Y0124442D01*
X0167024Y0127371D01*
X0162882Y0127371D01*
X0159953Y0124442D01*
X0159953Y0120300D01*
X0162882Y0117371D01*
X0159953Y0114442D01*
X0159953Y0110300D01*
X0161208Y0109044D01*
X0158697Y0109044D01*
X0159953Y0110300D01*
X0159953Y0114442D01*
X0157024Y0117371D01*
X0159953Y0120300D01*
X0159953Y0124442D01*
X0157024Y0127371D01*
X0152882Y0127371D01*
X0149953Y0124442D01*
X0149953Y0120300D01*
X0152882Y0117371D01*
X0149953Y0114442D01*
X0149953Y0110300D01*
X0151208Y0109044D01*
X0148697Y0109044D01*
X0149953Y0110300D01*
X0149953Y0114442D01*
X0147024Y0117371D01*
X0149953Y0120300D01*
X0149953Y0124442D01*
X0147024Y0127371D01*
X0142882Y0127371D01*
X0139953Y0124442D01*
X0139953Y0120300D01*
X0142882Y0117371D01*
X0139953Y0114442D01*
X0139953Y0110300D01*
X0141208Y0109044D01*
X0138697Y0109044D01*
X0139953Y0110300D01*
X0139953Y0114442D01*
X0137024Y0117371D01*
X0139953Y0120300D01*
X0139953Y0124442D01*
X0137024Y0127371D01*
X0132882Y0127371D01*
X0129953Y0124442D01*
X0129953Y0120300D01*
X0132882Y0117371D01*
X0129953Y0114442D01*
X0129953Y0110300D01*
X0131208Y0109044D01*
X0128697Y0109044D01*
X0129953Y0110300D01*
X0129953Y0114442D01*
X0127024Y0117371D01*
X0129953Y0120300D01*
X0129953Y0124442D01*
X0127024Y0127371D01*
X0122882Y0127371D01*
X0119953Y0124442D01*
X0119953Y0120300D01*
X0122882Y0117371D01*
X0121226Y0115715D01*
X0120669Y0116272D01*
X0118297Y0118644D01*
X0119953Y0120300D01*
X0119953Y0124442D01*
X0117024Y0127371D01*
X0112882Y0127371D01*
X0109953Y0124442D01*
X0109953Y0120907D01*
X0109953Y0124442D01*
X0107024Y0127371D01*
X0102882Y0127371D01*
X0099953Y0124442D01*
X0099953Y0120300D01*
X0102882Y0117371D01*
X0099953Y0114442D01*
X0099953Y0110300D01*
X0102882Y0107371D01*
X0107024Y0107371D01*
X0108680Y0109027D01*
X0109237Y0108471D01*
X0112600Y0105107D01*
X0098508Y0105107D01*
X0096244Y0107371D01*
X0097024Y0107371D01*
X0099953Y0110300D01*
X0099953Y0114442D01*
X0097024Y0117371D01*
X0099953Y0120300D01*
X0099953Y0124442D01*
X0097024Y0127371D01*
X0092882Y0127371D01*
X0089953Y0124442D01*
X0089953Y0120300D01*
X0092882Y0117371D01*
X0092516Y0117005D01*
X0091999Y0117522D01*
X0089587Y0119934D01*
X0089953Y0120300D01*
X0089953Y0124442D01*
X0087024Y0127371D01*
X0082882Y0127371D01*
X0079953Y0124442D01*
X0079953Y0120300D01*
X0082882Y0117371D01*
X0079953Y0114442D01*
X0079953Y0110300D01*
X0082193Y0108060D01*
X0077713Y0108060D01*
X0079953Y0110300D01*
X0079953Y0114442D01*
X0077024Y0117371D01*
X0079953Y0120300D01*
X0079953Y0124442D01*
X0077024Y0127371D01*
X0072882Y0127371D01*
X0069953Y0124442D01*
X0069953Y0120300D01*
X0072882Y0117371D01*
X0069953Y0114442D01*
X0069953Y0110300D01*
X0072193Y0108060D01*
X0067713Y0108060D01*
X0069953Y0110300D01*
X0069953Y0114442D01*
X0067024Y0117371D01*
X0069953Y0120300D01*
X0069953Y0124442D01*
X0067024Y0127371D01*
X0062882Y0127371D01*
X0059953Y0124442D01*
X0059953Y0120300D01*
X0062882Y0117371D01*
X0059953Y0114442D01*
X0059953Y0110907D01*
X0059953Y0114442D01*
X0057024Y0117371D01*
X0059953Y0120300D01*
X0059953Y0124442D01*
X0057024Y0127371D01*
X0052882Y0127371D01*
X0049953Y0124442D01*
X0049953Y0120300D01*
X0052882Y0117371D01*
X0049953Y0114442D01*
X0049953Y0110907D01*
X0049953Y0114442D01*
X0047024Y0117371D01*
X0049953Y0120300D01*
X0049953Y0122371D01*
X0044953Y0122371D01*
X0044953Y0122371D01*
X0044953Y0117371D01*
X0047024Y0117371D01*
X0042882Y0117371D01*
X0039953Y0114442D01*
X0039953Y0110300D01*
X0042882Y0107371D01*
X0046417Y0107371D01*
X0051613Y0102176D01*
X0052316Y0101472D01*
X0053235Y0101092D01*
X0088563Y0101092D01*
X0099894Y0089761D01*
X0099894Y0086497D01*
X0094676Y0086497D01*
X0093504Y0085326D01*
X0093504Y0064515D01*
X0092972Y0064295D01*
X0092269Y0063591D01*
X0079605Y0050927D01*
X0079224Y0050009D01*
X0079224Y0043168D01*
X0078686Y0042630D01*
X0078140Y0041313D01*
X0078140Y0039887D01*
X0078686Y0038569D01*
X0079694Y0037561D01*
X0081011Y0037015D01*
X0082437Y0037015D01*
X0083755Y0037561D01*
X0084763Y0038569D01*
X0085309Y0039887D01*
X0085309Y0041313D01*
X0084763Y0042630D01*
X0084224Y0043168D01*
X0084224Y0048476D01*
X0086114Y0050365D01*
X0086114Y0039231D01*
X0085576Y0038693D01*
X0085030Y0037376D01*
X0085030Y0035950D01*
X0085576Y0034632D01*
X0086584Y0033624D01*
X0087901Y0033078D01*
X0089327Y0033078D01*
X0090644Y0033624D01*
X0091653Y0034632D01*
X0092198Y0035950D01*
X0092198Y0037376D01*
X0091653Y0038693D01*
X0091114Y0039231D01*
X0091114Y0052820D01*
X0093504Y0055210D01*
X0093504Y0035244D01*
X0094676Y0034072D01*
X0102238Y0034072D01*
X0103409Y0035244D01*
X0103409Y0054749D01*
X0104715Y0053444D01*
X0104715Y0052682D01*
X0105261Y0051365D01*
X0106269Y0050356D01*
X0107586Y0049811D01*
X0109012Y0049811D01*
X0110330Y0050356D01*
X0111338Y0051365D01*
X0111729Y0052309D01*
X0115642Y0048396D01*
X0115642Y0033741D01*
X0104912Y0033741D01*
X0103740Y0032570D01*
X0103740Y0025007D01*
X0104912Y0023836D01*
X0111943Y0023836D01*
X0112163Y0023304D01*
X0118922Y0016546D01*
X0119625Y0015842D01*
X0120544Y0015462D01*
X0130337Y0015462D01*
X0130758Y0015041D01*
X0013811Y0015041D01*
X0012276Y0015161D01*
X0009357Y0016110D01*
X0006874Y0017914D01*
X0005069Y0020397D01*
X0004121Y0023317D01*
X0004862Y0021035D02*
X0011081Y0021035D01*
X0006058Y0019036D02*
X0028382Y0019036D01*
X0029981Y0017038D02*
X0008080Y0017038D01*
X0020478Y0021035D02*
X0027796Y0021035D01*
X0027927Y0023033D02*
X0022235Y0023033D01*
X0023063Y0025032D02*
X0028883Y0025032D01*
X0029989Y0027030D02*
X0023193Y0027030D01*
X0022889Y0029029D02*
X0028385Y0029029D01*
X0027796Y0031027D02*
X0022057Y0031027D01*
X0020058Y0033026D02*
X0027924Y0033026D01*
X0036996Y0037023D02*
X0080994Y0037023D01*
X0082455Y0037023D02*
X0085030Y0037023D01*
X0085413Y0035024D02*
X0038117Y0035024D01*
X0039068Y0033026D02*
X0104196Y0033026D01*
X0103740Y0031027D02*
X0039196Y0031027D01*
X0038607Y0029029D02*
X0103740Y0029029D01*
X0103740Y0027030D02*
X0037003Y0027030D01*
X0038109Y0025032D02*
X0103740Y0025032D01*
X0112434Y0023033D02*
X0039065Y0023033D01*
X0039196Y0021035D02*
X0114433Y0021035D01*
X0116431Y0019036D02*
X0038610Y0019036D01*
X0037011Y0017038D02*
X0118430Y0017038D01*
X0144364Y0017038D02*
X0222225Y0017038D01*
X0221018Y0019036D02*
X0144865Y0019036D01*
X0145348Y0021035D02*
X0220709Y0021035D01*
X0221117Y0023033D02*
X0217915Y0023033D01*
X0219055Y0025032D02*
X0222465Y0025032D01*
X0222233Y0027030D02*
X0219667Y0027030D01*
X0214369Y0033026D02*
X0155709Y0033026D01*
X0156165Y0031027D02*
X0206670Y0031027D01*
X0206197Y0029029D02*
X0198540Y0029029D01*
X0195480Y0029220D02*
X0205392Y0029220D01*
X0207249Y0027363D01*
X0208787Y0030585D02*
X0208787Y0031726D01*
X0208787Y0030586D01*
X0208787Y0030585D01*
X0208787Y0031027D02*
X0208787Y0031027D01*
X0212371Y0035024D02*
X0166182Y0035024D01*
X0166402Y0037023D02*
X0196622Y0037023D01*
X0194623Y0039021D02*
X0166402Y0039021D01*
X0166402Y0041020D02*
X0170416Y0041020D01*
X0172167Y0041020D02*
X0192625Y0041020D01*
X0190626Y0043018D02*
X0174542Y0043018D01*
X0174876Y0045017D02*
X0188628Y0045017D01*
X0186629Y0047015D02*
X0173882Y0047015D01*
X0171844Y0049014D02*
X0184631Y0049014D01*
X0182632Y0051012D02*
X0170505Y0051012D01*
X0166402Y0053011D02*
X0180634Y0053011D01*
X0178635Y0055009D02*
X0166402Y0055009D01*
X0166402Y0057008D02*
X0176637Y0057008D01*
X0182256Y0061005D02*
X0210090Y0061005D01*
X0212089Y0063003D02*
X0180258Y0063003D01*
X0179864Y0065002D02*
X0176973Y0065002D01*
X0173483Y0065002D02*
X0166402Y0065002D01*
X0166402Y0065641D02*
X0166402Y0065641D01*
X0166402Y0067000D02*
X0171829Y0067000D01*
X0171697Y0068999D02*
X0166402Y0068999D01*
X0166402Y0070997D02*
X0172728Y0070997D01*
X0173577Y0072996D02*
X0166402Y0072996D01*
X0166402Y0074994D02*
X0175576Y0074994D01*
X0177574Y0076993D02*
X0166402Y0076993D01*
X0170489Y0078991D02*
X0176909Y0078991D01*
X0176909Y0080990D02*
X0172487Y0080990D01*
X0174486Y0082988D02*
X0177757Y0082988D01*
X0176484Y0084987D02*
X0179756Y0084987D01*
X0184166Y0084987D02*
X0189756Y0084987D01*
X0187757Y0082988D02*
X0186164Y0082988D01*
X0194166Y0084987D02*
X0199756Y0084987D01*
X0197757Y0082988D02*
X0196164Y0082988D01*
X0204166Y0084987D02*
X0211594Y0084987D01*
X0211014Y0082988D02*
X0206164Y0082988D01*
X0207012Y0080990D02*
X0211519Y0080990D01*
X0207012Y0078991D02*
X0223636Y0078991D01*
X0229372Y0078991D02*
X0238426Y0078991D01*
X0239194Y0080990D02*
X0236502Y0080990D01*
X0236772Y0082988D02*
X0241272Y0082988D01*
X0239205Y0084987D02*
X0238254Y0084987D01*
X0246980Y0082988D02*
X0255906Y0082988D01*
X0255906Y0084987D02*
X0249047Y0084987D01*
X0249826Y0086985D02*
X0255906Y0086985D01*
X0255906Y0088984D02*
X0249826Y0088984D01*
X0249061Y0090982D02*
X0255906Y0090982D01*
X0255906Y0092981D02*
X0246998Y0092981D01*
X0249044Y0094979D02*
X0255906Y0094979D01*
X0255906Y0096978D02*
X0249826Y0096978D01*
X0249826Y0098977D02*
X0255906Y0098977D01*
X0255906Y0100975D02*
X0249064Y0100975D01*
X0247016Y0102974D02*
X0255906Y0102974D01*
X0255906Y0104972D02*
X0237868Y0104972D01*
X0237579Y0106971D02*
X0255906Y0106971D01*
X0255906Y0108969D02*
X0235420Y0108969D01*
X0233147Y0108969D02*
X0228622Y0108969D01*
X0230988Y0106971D02*
X0223764Y0106971D01*
X0221284Y0108969D02*
X0218622Y0108969D01*
X0219953Y0110968D02*
X0219953Y0110968D01*
X0219953Y0112966D02*
X0219953Y0112966D01*
X0219430Y0114965D02*
X0220475Y0114965D01*
X0222474Y0116963D02*
X0217432Y0116963D01*
X0217024Y0117371D02*
X0212882Y0117371D01*
X0217024Y0117371D01*
X0218614Y0118962D02*
X0221291Y0118962D01*
X0219953Y0120960D02*
X0219953Y0120960D01*
X0219953Y0122959D02*
X0219953Y0122959D01*
X0219438Y0124957D02*
X0220468Y0124957D01*
X0222466Y0126956D02*
X0217439Y0126956D01*
X0212466Y0126956D02*
X0207439Y0126956D01*
X0209438Y0124957D02*
X0210468Y0124957D01*
X0209953Y0122959D02*
X0209953Y0122959D01*
X0209953Y0120960D02*
X0209953Y0120960D01*
X0211291Y0118962D02*
X0208614Y0118962D01*
X0207432Y0116963D02*
X0212474Y0116963D01*
X0210475Y0114965D02*
X0209430Y0114965D01*
X0209953Y0112966D02*
X0209953Y0112966D01*
X0209953Y0110968D02*
X0209953Y0110968D01*
X0208622Y0108969D02*
X0211284Y0108969D01*
X0211924Y0106971D02*
X0193169Y0106971D01*
X0191284Y0108969D02*
X0189687Y0108969D01*
X0189953Y0110968D02*
X0189953Y0110968D01*
X0189953Y0112966D02*
X0189953Y0112966D01*
X0189430Y0114965D02*
X0190475Y0114965D01*
X0192474Y0116963D02*
X0187432Y0116963D01*
X0187024Y0117371D02*
X0182882Y0117371D01*
X0187024Y0117371D01*
X0188614Y0118962D02*
X0191291Y0118962D01*
X0189953Y0120960D02*
X0189953Y0120960D01*
X0189953Y0122959D02*
X0189953Y0122959D01*
X0189438Y0124957D02*
X0190468Y0124957D01*
X0192466Y0126956D02*
X0187439Y0126956D01*
X0182466Y0126956D02*
X0177439Y0126956D01*
X0179438Y0124957D02*
X0180468Y0124957D01*
X0179953Y0122959D02*
X0179953Y0122959D01*
X0179953Y0120960D02*
X0179953Y0120960D01*
X0181291Y0118962D02*
X0178614Y0118962D01*
X0177024Y0117371D02*
X0172882Y0117371D01*
X0177024Y0117371D01*
X0177432Y0116963D02*
X0182474Y0116963D01*
X0180475Y0114965D02*
X0179430Y0114965D01*
X0179953Y0112966D02*
X0179953Y0112966D01*
X0179953Y0110968D02*
X0179953Y0110968D01*
X0172474Y0116963D02*
X0167432Y0116963D01*
X0167024Y0117371D02*
X0162882Y0117371D01*
X0167024Y0117371D01*
X0168614Y0118962D02*
X0171291Y0118962D01*
X0169953Y0120960D02*
X0169953Y0120960D01*
X0169953Y0122959D02*
X0169953Y0122959D01*
X0169438Y0124957D02*
X0170468Y0124957D01*
X0172466Y0126956D02*
X0167439Y0126956D01*
X0162466Y0126956D02*
X0157439Y0126956D01*
X0159438Y0124957D02*
X0160468Y0124957D01*
X0159953Y0122959D02*
X0159953Y0122959D01*
X0159953Y0120960D02*
X0159953Y0120960D01*
X0161291Y0118962D02*
X0158614Y0118962D01*
X0157024Y0117371D02*
X0152882Y0117371D01*
X0157024Y0117371D01*
X0157432Y0116963D02*
X0162474Y0116963D01*
X0160475Y0114965D02*
X0159430Y0114965D01*
X0159953Y0112966D02*
X0159953Y0112966D01*
X0159953Y0110968D02*
X0159953Y0110968D01*
X0152474Y0116963D02*
X0147432Y0116963D01*
X0147024Y0117371D02*
X0142882Y0117371D01*
X0147024Y0117371D01*
X0148614Y0118962D02*
X0151291Y0118962D01*
X0149953Y0120960D02*
X0149953Y0120960D01*
X0149953Y0122959D02*
X0149953Y0122959D01*
X0149438Y0124957D02*
X0150468Y0124957D01*
X0152466Y0126956D02*
X0147439Y0126956D01*
X0142466Y0126956D02*
X0137439Y0126956D01*
X0139438Y0124957D02*
X0140468Y0124957D01*
X0139953Y0122959D02*
X0139953Y0122959D01*
X0139953Y0120960D02*
X0139953Y0120960D01*
X0141291Y0118962D02*
X0138614Y0118962D01*
X0137024Y0117371D02*
X0132882Y0117371D01*
X0137024Y0117371D01*
X0137432Y0116963D02*
X0142474Y0116963D01*
X0140475Y0114965D02*
X0139430Y0114965D01*
X0139953Y0112966D02*
X0139953Y0112966D01*
X0139953Y0110968D02*
X0139953Y0110968D01*
X0129953Y0110968D02*
X0129953Y0110968D01*
X0129953Y0112966D02*
X0129953Y0112966D01*
X0129430Y0114965D02*
X0130475Y0114965D01*
X0132474Y0116963D02*
X0127432Y0116963D01*
X0127024Y0117371D02*
X0122882Y0117371D01*
X0127024Y0117371D01*
X0128614Y0118962D02*
X0131291Y0118962D01*
X0129953Y0120960D02*
X0129953Y0120960D01*
X0129953Y0122959D02*
X0129953Y0122959D01*
X0129438Y0124957D02*
X0130468Y0124957D01*
X0132466Y0126956D02*
X0127439Y0126956D01*
X0122466Y0126956D02*
X0117439Y0126956D01*
X0119438Y0124957D02*
X0120468Y0124957D01*
X0119953Y0122959D02*
X0119953Y0122959D01*
X0119953Y0120960D02*
X0119953Y0120960D01*
X0121291Y0118962D02*
X0118614Y0118962D01*
X0119978Y0116963D02*
X0122474Y0116963D01*
X0109953Y0120907D02*
X0109953Y0120907D01*
X0109953Y0120960D02*
X0109953Y0120960D01*
X0109953Y0122959D02*
X0109953Y0122959D01*
X0109438Y0124957D02*
X0110468Y0124957D01*
X0112466Y0126956D02*
X0107439Y0126956D01*
X0102466Y0126956D02*
X0097439Y0126956D01*
X0099438Y0124957D02*
X0100468Y0124957D01*
X0099953Y0122959D02*
X0099953Y0122959D01*
X0099953Y0120960D02*
X0099953Y0120960D01*
X0101291Y0118962D02*
X0098614Y0118962D01*
X0097024Y0117371D02*
X0092882Y0117371D01*
X0097024Y0117371D01*
X0097432Y0116963D02*
X0102474Y0116963D01*
X0102882Y0117371D02*
X0106417Y0117371D01*
X0106417Y0117371D01*
X0102882Y0117371D01*
X0100475Y0114965D02*
X0099430Y0114965D01*
X0099953Y0112966D02*
X0099953Y0112966D01*
X0099953Y0110968D02*
X0099953Y0110968D01*
X0098622Y0108969D02*
X0101284Y0108969D01*
X0096645Y0106971D02*
X0110737Y0106971D01*
X0109237Y0108471D02*
X0109237Y0108471D01*
X0108738Y0108969D02*
X0108622Y0108969D01*
X0099571Y0100107D02*
X0183734Y0100107D01*
X0189033Y0094808D01*
X0177227Y0094808D01*
X0176308Y0094427D01*
X0175605Y0093724D01*
X0174550Y0092670D01*
X0174550Y0092670D01*
X0166402Y0084521D01*
X0166402Y0085326D01*
X0165230Y0086497D01*
X0157668Y0086497D01*
X0156496Y0085326D01*
X0156496Y0066722D01*
X0156144Y0066722D01*
X0155605Y0067260D01*
X0154288Y0067806D01*
X0152862Y0067806D01*
X0151544Y0067260D01*
X0150536Y0066252D01*
X0149991Y0064935D01*
X0149991Y0063509D01*
X0150536Y0062191D01*
X0151544Y0061183D01*
X0152862Y0060637D01*
X0154288Y0060637D01*
X0155605Y0061183D01*
X0156144Y0061722D01*
X0156496Y0061722D01*
X0156496Y0054911D01*
X0133665Y0054911D01*
X0124762Y0063814D01*
X0125303Y0063590D01*
X0126729Y0063590D01*
X0128046Y0064136D01*
X0128476Y0064566D01*
X0128907Y0064136D01*
X0130224Y0063590D01*
X0131650Y0063590D01*
X0132967Y0064136D01*
X0133890Y0065058D01*
X0134812Y0064136D01*
X0136130Y0063590D01*
X0137555Y0063590D01*
X0138873Y0064136D01*
X0139303Y0064566D01*
X0139733Y0064136D01*
X0141051Y0063590D01*
X0142477Y0063590D01*
X0143794Y0064136D01*
X0144802Y0065144D01*
X0145348Y0066461D01*
X0145348Y0067223D01*
X0149789Y0071664D01*
X0150169Y0072583D01*
X0150169Y0082591D01*
X0150893Y0082291D01*
X0152319Y0082291D01*
X0153637Y0082837D01*
X0154645Y0083845D01*
X0155191Y0085162D01*
X0155191Y0086588D01*
X0155016Y0087010D01*
X0155393Y0087228D01*
X0155766Y0087600D01*
X0156029Y0088056D01*
X0156165Y0088565D01*
X0156165Y0091781D01*
X0156165Y0094997D01*
X0156029Y0095505D01*
X0155766Y0095961D01*
X0155393Y0096334D01*
X0154937Y0096597D01*
X0154429Y0096733D01*
X0153575Y0096733D01*
X0153575Y0096184D01*
X0153575Y0096184D01*
X0153575Y0096733D01*
X0114205Y0096733D01*
X0114205Y0096184D01*
X0114205Y0096184D01*
X0114205Y0096184D01*
X0114205Y0096733D01*
X0104912Y0096733D01*
X0103928Y0095750D01*
X0099571Y0100107D01*
X0100702Y0098977D02*
X0184865Y0098977D01*
X0186863Y0096978D02*
X0102700Y0096978D01*
X0096674Y0092981D02*
X0029832Y0092981D01*
X0028522Y0091670D02*
X0032622Y0095771D01*
X0032622Y0101570D01*
X0028522Y0105670D01*
X0022723Y0105670D01*
X0018622Y0101570D01*
X0018622Y0095771D01*
X0020106Y0094287D01*
X0020106Y0086840D01*
X0019858Y0086592D01*
X0019338Y0085336D01*
X0019338Y0082477D01*
X0019858Y0081222D01*
X0020106Y0080973D01*
X0020106Y0076998D01*
X0019858Y0076749D01*
X0019338Y0075494D01*
X0019338Y0072634D01*
X0019858Y0071379D01*
X0020106Y0071131D01*
X0020106Y0067155D01*
X0019858Y0066907D01*
X0019338Y0065651D01*
X0019338Y0062792D01*
X0019858Y0061537D01*
X0020106Y0061288D01*
X0020106Y0057313D01*
X0019858Y0057064D01*
X0019338Y0055809D01*
X0019338Y0052949D01*
X0019858Y0051694D01*
X0020818Y0050734D01*
X0022073Y0050214D01*
X0024139Y0050214D01*
X0025394Y0050734D01*
X0026355Y0051694D01*
X0026606Y0052301D01*
X0026726Y0052011D01*
X0027100Y0051452D01*
X0027576Y0050976D01*
X0028135Y0050602D01*
X0028757Y0050345D01*
X0029416Y0050214D01*
X0030106Y0050214D01*
X0030106Y0054379D01*
X0030106Y0054379D01*
X0030106Y0058544D01*
X0029416Y0058544D01*
X0028757Y0058413D01*
X0028135Y0058156D01*
X0027576Y0057782D01*
X0027100Y0057306D01*
X0026726Y0056747D01*
X0026606Y0056457D01*
X0026355Y0057064D01*
X0026106Y0057313D01*
X0026106Y0061288D01*
X0026355Y0061537D01*
X0026606Y0062144D01*
X0026726Y0061854D01*
X0027100Y0061294D01*
X0027576Y0060819D01*
X0028135Y0060445D01*
X0028757Y0060187D01*
X0029416Y0060056D01*
X0030106Y0060056D01*
X0030106Y0064221D01*
X0030106Y0064221D01*
X0030106Y0060056D01*
X0030796Y0060056D01*
X0031456Y0060187D01*
X0032078Y0060445D01*
X0032637Y0060819D01*
X0033112Y0061294D01*
X0033486Y0061854D01*
X0033744Y0062475D01*
X0033875Y0063135D01*
X0033875Y0064222D01*
X0033875Y0065309D01*
X0033744Y0065968D01*
X0033486Y0066590D01*
X0033112Y0067149D01*
X0032637Y0067625D01*
X0032078Y0067998D01*
X0031456Y0068256D01*
X0030796Y0068387D01*
X0030106Y0068387D01*
X0029416Y0068387D01*
X0028757Y0068256D01*
X0028135Y0067998D01*
X0027576Y0067625D01*
X0027100Y0067149D01*
X0026726Y0066590D01*
X0026606Y0066300D01*
X0026355Y0066907D01*
X0026106Y0067155D01*
X0026106Y0071131D01*
X0026355Y0071379D01*
X0026606Y0071986D01*
X0026726Y0071696D01*
X0027100Y0071137D01*
X0027576Y0070661D01*
X0028135Y0070287D01*
X0028757Y0070030D01*
X0029416Y0069899D01*
X0030106Y0069899D01*
X0030106Y0074064D01*
X0030106Y0074064D01*
X0030106Y0078229D01*
X0029416Y0078229D01*
X0028757Y0078098D01*
X0028135Y0077841D01*
X0027576Y0077467D01*
X0027100Y0076991D01*
X0026726Y0076432D01*
X0026606Y0076142D01*
X0026355Y0076749D01*
X0026106Y0076998D01*
X0026106Y0080973D01*
X0026355Y0081222D01*
X0026606Y0081829D01*
X0026726Y0081539D01*
X0027100Y0080979D01*
X0027576Y0080504D01*
X0028135Y0080130D01*
X0028757Y0079873D01*
X0029416Y0079741D01*
X0030106Y0079741D01*
X0030106Y0083907D01*
X0030106Y0088072D01*
X0029416Y0088072D01*
X0028757Y0087941D01*
X0028135Y0087683D01*
X0027576Y0087310D01*
X0027100Y0086834D01*
X0026726Y0086275D01*
X0026606Y0085985D01*
X0026355Y0086592D01*
X0026106Y0086840D01*
X0026106Y0091670D01*
X0028522Y0091670D01*
X0026106Y0090982D02*
X0098672Y0090982D01*
X0099894Y0088984D02*
X0026106Y0088984D01*
X0026106Y0086985D02*
X0027252Y0086985D01*
X0030106Y0086985D02*
X0030106Y0086985D01*
X0030106Y0088072D02*
X0030106Y0083907D01*
X0030106Y0083907D01*
X0033875Y0083907D01*
X0033875Y0084994D01*
X0033744Y0085653D01*
X0033486Y0086275D01*
X0033112Y0086834D01*
X0032637Y0087310D01*
X0032078Y0087683D01*
X0031456Y0087941D01*
X0030796Y0088072D01*
X0030106Y0088072D01*
X0032961Y0086985D02*
X0035015Y0086985D01*
X0034102Y0084987D02*
X0033875Y0084987D01*
X0033875Y0083907D02*
X0030106Y0083907D01*
X0030106Y0083907D01*
X0030106Y0083907D01*
X0030106Y0079741D01*
X0030796Y0079741D01*
X0031456Y0079873D01*
X0032078Y0080130D01*
X0032637Y0080504D01*
X0033112Y0080979D01*
X0033486Y0081539D01*
X0033744Y0082160D01*
X0033875Y0082820D01*
X0033875Y0083907D01*
X0033875Y0082988D02*
X0034102Y0082988D01*
X0037870Y0083907D02*
X0037870Y0074064D01*
X0037870Y0064222D01*
X0037870Y0054379D01*
X0037870Y0045958D01*
X0033496Y0041584D01*
X0038604Y0039021D02*
X0078499Y0039021D01*
X0078140Y0041020D02*
X0039196Y0041020D01*
X0039173Y0043018D02*
X0079074Y0043018D01*
X0079224Y0045017D02*
X0040727Y0045017D01*
X0040870Y0047015D02*
X0079224Y0047015D01*
X0079224Y0049014D02*
X0040870Y0049014D01*
X0040870Y0051012D02*
X0042303Y0051012D01*
X0044870Y0051012D02*
X0044870Y0051012D01*
X0047437Y0051012D02*
X0079690Y0051012D01*
X0081688Y0053011D02*
X0048583Y0053011D01*
X0048639Y0054379D02*
X0044870Y0054379D01*
X0044870Y0054379D01*
X0044870Y0058544D01*
X0045560Y0058544D01*
X0046220Y0058413D01*
X0046841Y0058156D01*
X0047401Y0057782D01*
X0047876Y0057306D01*
X0048250Y0056747D01*
X0048507Y0056126D01*
X0048639Y0055466D01*
X0048639Y0054379D01*
X0048639Y0055009D02*
X0083687Y0055009D01*
X0085685Y0057008D02*
X0048076Y0057008D01*
X0044870Y0057008D02*
X0044870Y0057008D01*
X0041664Y0057008D02*
X0041142Y0057008D01*
X0040870Y0059006D02*
X0087684Y0059006D01*
X0089682Y0061005D02*
X0047587Y0061005D01*
X0048612Y0063003D02*
X0091681Y0063003D01*
X0093504Y0065002D02*
X0048639Y0065002D01*
X0048639Y0064222D02*
X0044870Y0064222D01*
X0044870Y0068387D01*
X0044870Y0064222D01*
X0044870Y0064222D01*
X0044870Y0064222D01*
X0048639Y0064222D01*
X0044870Y0065002D02*
X0044870Y0065002D01*
X0044870Y0067000D02*
X0044870Y0067000D01*
X0041765Y0067000D02*
X0041025Y0067000D01*
X0040870Y0068999D02*
X0093504Y0068999D01*
X0093504Y0067000D02*
X0047976Y0067000D01*
X0047737Y0070997D02*
X0093504Y0070997D01*
X0093504Y0072996D02*
X0048639Y0072996D01*
X0048639Y0074064D02*
X0044870Y0074064D01*
X0044870Y0074064D01*
X0044870Y0078229D01*
X0045560Y0078229D01*
X0046220Y0078098D01*
X0046841Y0077841D01*
X0047401Y0077467D01*
X0047876Y0076991D01*
X0048250Y0076432D01*
X0048507Y0075811D01*
X0048639Y0075151D01*
X0048639Y0074064D01*
X0048639Y0074994D02*
X0093504Y0074994D01*
X0093504Y0076993D02*
X0047875Y0076993D01*
X0044870Y0076993D02*
X0044870Y0076993D01*
X0044870Y0074994D02*
X0044870Y0074994D01*
X0041865Y0076993D02*
X0040875Y0076993D01*
X0040870Y0078991D02*
X0093504Y0078991D01*
X0093504Y0080990D02*
X0047883Y0080990D01*
X0047876Y0080979D02*
X0048250Y0081539D01*
X0048507Y0082160D01*
X0048639Y0082820D01*
X0048639Y0083907D01*
X0048639Y0084994D01*
X0048507Y0085653D01*
X0048250Y0086275D01*
X0047876Y0086834D01*
X0047401Y0087310D01*
X0046841Y0087683D01*
X0046220Y0087941D01*
X0045560Y0088072D01*
X0044870Y0088072D01*
X0044870Y0083907D01*
X0044870Y0083907D01*
X0048639Y0083907D01*
X0044870Y0083907D01*
X0044870Y0083907D01*
X0044870Y0083907D01*
X0044870Y0079741D01*
X0045560Y0079741D01*
X0046220Y0079873D01*
X0046841Y0080130D01*
X0047401Y0080504D01*
X0047876Y0080979D01*
X0044870Y0080990D02*
X0044870Y0080990D01*
X0041857Y0080990D02*
X0040887Y0080990D01*
X0044870Y0082988D02*
X0044870Y0082988D01*
X0044870Y0084987D02*
X0044870Y0084987D01*
X0048639Y0084987D02*
X0093504Y0084987D01*
X0093504Y0082988D02*
X0048639Y0082988D01*
X0047725Y0086985D02*
X0099894Y0086985D01*
X0094675Y0094979D02*
X0031831Y0094979D01*
X0032622Y0096978D02*
X0092677Y0096978D01*
X0090678Y0098977D02*
X0032622Y0098977D01*
X0032622Y0100975D02*
X0088680Y0100975D01*
X0081284Y0108969D02*
X0078622Y0108969D01*
X0079953Y0110968D02*
X0079953Y0110968D01*
X0079953Y0112966D02*
X0079953Y0112966D01*
X0079430Y0114965D02*
X0080475Y0114965D01*
X0082474Y0116963D02*
X0077432Y0116963D01*
X0077024Y0117371D02*
X0072882Y0117371D01*
X0077024Y0117371D01*
X0078614Y0118962D02*
X0081291Y0118962D01*
X0082882Y0117371D02*
X0085079Y0117371D01*
X0085079Y0117371D01*
X0082882Y0117371D01*
X0079953Y0120960D02*
X0079953Y0120960D01*
X0079953Y0122959D02*
X0079953Y0122959D01*
X0079438Y0124957D02*
X0080468Y0124957D01*
X0082466Y0126956D02*
X0077439Y0126956D01*
X0072466Y0126956D02*
X0067439Y0126956D01*
X0069438Y0124957D02*
X0070468Y0124957D01*
X0069953Y0122959D02*
X0069953Y0122959D01*
X0069953Y0120960D02*
X0069953Y0120960D01*
X0071291Y0118962D02*
X0068614Y0118962D01*
X0067024Y0117371D02*
X0062882Y0117371D01*
X0067024Y0117371D01*
X0067432Y0116963D02*
X0072474Y0116963D01*
X0070475Y0114965D02*
X0069430Y0114965D01*
X0069953Y0112966D02*
X0069953Y0112966D01*
X0069953Y0110968D02*
X0069953Y0110968D01*
X0068622Y0108969D02*
X0071284Y0108969D01*
X0059953Y0110907D02*
X0059953Y0110907D01*
X0059953Y0110968D02*
X0059953Y0110968D01*
X0059953Y0112966D02*
X0059953Y0112966D01*
X0059430Y0114965D02*
X0060475Y0114965D01*
X0062474Y0116963D02*
X0057432Y0116963D01*
X0057024Y0117371D02*
X0052882Y0117371D01*
X0057024Y0117371D01*
X0058614Y0118962D02*
X0061291Y0118962D01*
X0059953Y0120960D02*
X0059953Y0120960D01*
X0059953Y0122959D02*
X0059953Y0122959D01*
X0059438Y0124957D02*
X0060468Y0124957D01*
X0062466Y0126956D02*
X0057439Y0126956D01*
X0052466Y0126956D02*
X0047439Y0126956D01*
X0047024Y0127371D02*
X0044953Y0127371D01*
X0044953Y0122371D01*
X0044953Y0122371D01*
X0049953Y0122371D01*
X0049953Y0124442D01*
X0047024Y0127371D01*
X0044953Y0127371D02*
X0042882Y0127371D01*
X0039953Y0124442D01*
X0039953Y0122371D01*
X0039953Y0120300D01*
X0042882Y0117371D01*
X0044953Y0117371D01*
X0044953Y0122371D01*
X0039953Y0122371D01*
X0034953Y0122371D01*
X0034953Y0122371D01*
X0034953Y0117371D01*
X0037024Y0117371D01*
X0032882Y0117371D01*
X0029953Y0114442D01*
X0029953Y0110300D01*
X0032882Y0107371D01*
X0037024Y0107371D01*
X0039953Y0110300D01*
X0039953Y0114442D01*
X0037024Y0117371D01*
X0039953Y0120300D01*
X0039953Y0122371D01*
X0044953Y0122371D01*
X0044953Y0122371D01*
X0044953Y0122371D01*
X0044953Y0127371D01*
X0044953Y0126956D02*
X0044953Y0126956D01*
X0044953Y0124957D02*
X0044953Y0124957D01*
X0044953Y0122959D02*
X0044953Y0122959D01*
X0044953Y0120960D02*
X0044953Y0120960D01*
X0044953Y0118962D02*
X0044953Y0118962D01*
X0048614Y0118962D02*
X0051291Y0118962D01*
X0049953Y0120960D02*
X0049953Y0120960D01*
X0049953Y0122959D02*
X0049953Y0122959D01*
X0049438Y0124957D02*
X0050468Y0124957D01*
X0042466Y0126956D02*
X0037439Y0126956D01*
X0037024Y0127371D02*
X0034953Y0127371D01*
X0034953Y0122371D01*
X0034953Y0122371D01*
X0039953Y0122371D01*
X0039953Y0124442D01*
X0037024Y0127371D01*
X0034953Y0127371D02*
X0032882Y0127371D01*
X0029953Y0124442D01*
X0029953Y0122371D01*
X0029953Y0120300D01*
X0032882Y0117371D01*
X0034953Y0117371D01*
X0034953Y0122371D01*
X0029953Y0122371D01*
X0034953Y0122371D01*
X0034953Y0122371D01*
X0034953Y0122371D01*
X0034953Y0127371D01*
X0034953Y0126956D02*
X0034953Y0126956D01*
X0034953Y0124957D02*
X0034953Y0124957D01*
X0034953Y0122959D02*
X0034953Y0122959D01*
X0034953Y0120960D02*
X0034953Y0120960D01*
X0034953Y0118962D02*
X0034953Y0118962D01*
X0038614Y0118962D02*
X0041291Y0118962D01*
X0039953Y0120960D02*
X0039953Y0120960D01*
X0039953Y0122959D02*
X0039953Y0122959D01*
X0039438Y0124957D02*
X0040468Y0124957D01*
X0032466Y0126956D02*
X0007807Y0126956D01*
X0005915Y0124957D02*
X0030468Y0124957D01*
X0029953Y0122959D02*
X0020676Y0122959D01*
X0019979Y0123656D02*
X0017254Y0124785D01*
X0014305Y0124785D01*
X0011580Y0123656D01*
X0009495Y0121571D01*
X0008366Y0118846D01*
X0008366Y0115897D01*
X0009495Y0113172D01*
X0011580Y0111086D01*
X0014305Y0109958D01*
X0017254Y0109958D01*
X0019979Y0111086D01*
X0022064Y0113172D01*
X0023193Y0115897D01*
X0023193Y0118846D01*
X0022064Y0121571D01*
X0019979Y0123656D01*
X0022317Y0120960D02*
X0029953Y0120960D01*
X0031291Y0118962D02*
X0023145Y0118962D01*
X0023193Y0116963D02*
X0032474Y0116963D01*
X0030475Y0114965D02*
X0022807Y0114965D01*
X0021858Y0112966D02*
X0029953Y0112966D01*
X0029953Y0110968D02*
X0019692Y0110968D01*
X0011867Y0110968D02*
X0004000Y0110968D01*
X0004000Y0112966D02*
X0009701Y0112966D01*
X0008752Y0114965D02*
X0004000Y0114965D01*
X0004000Y0116963D02*
X0008366Y0116963D01*
X0008414Y0118962D02*
X0004000Y0118962D01*
X0004149Y0120960D02*
X0009242Y0120960D01*
X0010883Y0122959D02*
X0004798Y0122959D01*
X0012043Y0128954D02*
X0247862Y0128954D01*
X0252098Y0126956D02*
X0227439Y0126956D01*
X0229438Y0124957D02*
X0253991Y0124957D01*
X0255108Y0122959D02*
X0249023Y0122959D01*
X0248325Y0123656D02*
X0245601Y0124785D01*
X0242651Y0124785D01*
X0239927Y0123656D01*
X0237841Y0121571D01*
X0236713Y0118846D01*
X0236713Y0115897D01*
X0237841Y0113172D01*
X0239927Y0111086D01*
X0242651Y0109958D01*
X0245601Y0109958D01*
X0248325Y0111086D01*
X0250411Y0113172D01*
X0251539Y0115897D01*
X0251539Y0118846D01*
X0250411Y0121571D01*
X0248325Y0123656D01*
X0250664Y0120960D02*
X0255757Y0120960D01*
X0255906Y0118962D02*
X0251491Y0118962D01*
X0251539Y0116963D02*
X0255906Y0116963D01*
X0255906Y0114965D02*
X0251153Y0114965D01*
X0250205Y0112966D02*
X0255906Y0112966D01*
X0255906Y0110968D02*
X0248038Y0110968D01*
X0240214Y0110968D02*
X0229953Y0110968D01*
X0229953Y0112966D02*
X0238047Y0112966D01*
X0237099Y0114965D02*
X0229430Y0114965D01*
X0227432Y0116963D02*
X0236713Y0116963D01*
X0236761Y0118962D02*
X0228614Y0118962D01*
X0229953Y0120960D02*
X0237588Y0120960D01*
X0239229Y0122959D02*
X0229953Y0122959D01*
X0202466Y0126956D02*
X0197439Y0126956D01*
X0199438Y0124957D02*
X0200468Y0124957D01*
X0199953Y0122959D02*
X0199953Y0122959D01*
X0199953Y0120960D02*
X0199953Y0120960D01*
X0201291Y0118962D02*
X0198614Y0118962D01*
X0197432Y0116963D02*
X0202474Y0116963D01*
X0200475Y0114965D02*
X0199430Y0114965D01*
X0199953Y0112966D02*
X0199953Y0112966D01*
X0199953Y0110968D02*
X0199953Y0110968D01*
X0198622Y0108969D02*
X0201284Y0108969D01*
X0195268Y0104972D02*
X0211014Y0104972D01*
X0211383Y0102974D02*
X0196888Y0102974D01*
X0198867Y0100975D02*
X0223077Y0100975D01*
X0223913Y0098977D02*
X0200606Y0098977D01*
X0202465Y0096978D02*
X0224829Y0096978D01*
X0229290Y0094979D02*
X0202681Y0094979D01*
X0188862Y0094979D02*
X0156165Y0094979D01*
X0156165Y0092981D02*
X0174862Y0092981D01*
X0175605Y0093724D02*
X0175605Y0093724D01*
X0172863Y0090982D02*
X0156165Y0090982D01*
X0156165Y0091781D02*
X0154197Y0091781D01*
X0156165Y0091781D01*
X0154197Y0091781D02*
X0154197Y0091781D01*
X0156165Y0088984D02*
X0170865Y0088984D01*
X0168866Y0086985D02*
X0155026Y0086985D01*
X0155118Y0084987D02*
X0156496Y0084987D01*
X0156496Y0082988D02*
X0153788Y0082988D01*
X0156496Y0080990D02*
X0150169Y0080990D01*
X0150169Y0078991D02*
X0156496Y0078991D01*
X0156496Y0076993D02*
X0150169Y0076993D01*
X0150169Y0074994D02*
X0156496Y0074994D01*
X0156496Y0072996D02*
X0150169Y0072996D01*
X0149122Y0070997D02*
X0156496Y0070997D01*
X0156496Y0068999D02*
X0147124Y0068999D01*
X0145348Y0067000D02*
X0151285Y0067000D01*
X0150018Y0065002D02*
X0144660Y0065002D01*
X0150200Y0063003D02*
X0125573Y0063003D01*
X0127571Y0061005D02*
X0151975Y0061005D01*
X0155175Y0061005D02*
X0156496Y0061005D01*
X0156496Y0059006D02*
X0129570Y0059006D01*
X0131568Y0057008D02*
X0156496Y0057008D01*
X0156496Y0055009D02*
X0133567Y0055009D01*
X0125847Y0051012D02*
X0122401Y0051012D01*
X0122230Y0051425D02*
X0122610Y0050506D01*
X0122610Y0033741D01*
X0137484Y0033741D01*
X0137295Y0034197D01*
X0137295Y0037015D01*
X0137114Y0037015D01*
X0135796Y0037561D01*
X0134788Y0038569D01*
X0134243Y0039887D01*
X0134243Y0041313D01*
X0134788Y0042630D01*
X0135796Y0043638D01*
X0137114Y0044184D01*
X0138540Y0044184D01*
X0139857Y0043638D01*
X0140865Y0042630D01*
X0141411Y0041313D01*
X0141411Y0040551D01*
X0141915Y0040047D01*
X0142295Y0039128D01*
X0142295Y0035730D01*
X0143123Y0034902D01*
X0143123Y0036098D01*
X0143503Y0037016D01*
X0144207Y0037720D01*
X0144207Y0037720D01*
X0145169Y0038682D01*
X0145169Y0039645D01*
X0145069Y0039887D01*
X0145069Y0041313D01*
X0145615Y0042630D01*
X0146623Y0043638D01*
X0147941Y0044184D01*
X0149366Y0044184D01*
X0150684Y0043638D01*
X0150994Y0043328D01*
X0151520Y0044598D01*
X0152529Y0045607D01*
X0153846Y0046152D01*
X0155272Y0046152D01*
X0156496Y0045645D01*
X0156496Y0047924D01*
X0156496Y0047942D01*
X0129455Y0047942D01*
X0128537Y0048323D01*
X0123183Y0053676D01*
X0122865Y0052908D01*
X0121857Y0051900D01*
X0121785Y0051870D01*
X0122230Y0051425D01*
X0122908Y0053011D02*
X0123849Y0053011D01*
X0122610Y0049014D02*
X0127846Y0049014D01*
X0122610Y0047015D02*
X0156496Y0047015D01*
X0151939Y0045017D02*
X0122610Y0045017D01*
X0122610Y0043018D02*
X0135177Y0043018D01*
X0134243Y0041020D02*
X0122610Y0041020D01*
X0122610Y0039021D02*
X0134601Y0039021D01*
X0137096Y0037023D02*
X0122610Y0037023D01*
X0122610Y0035024D02*
X0137295Y0035024D01*
X0142295Y0037023D02*
X0143510Y0037023D01*
X0143123Y0035024D02*
X0143001Y0035024D01*
X0148582Y0035024D02*
X0156716Y0035024D01*
X0156496Y0037023D02*
X0150117Y0037023D01*
X0151879Y0039021D02*
X0153756Y0039021D01*
X0155362Y0039021D02*
X0156496Y0039021D01*
X0146003Y0043018D02*
X0140477Y0043018D01*
X0141411Y0041020D02*
X0145069Y0041020D01*
X0145169Y0039021D02*
X0142295Y0039021D01*
X0156165Y0029029D02*
X0195224Y0029029D01*
X0195480Y0029220D02*
X0193498Y0027238D01*
X0193498Y0024434D01*
X0202517Y0015415D01*
X0228688Y0015415D01*
X0231909Y0018636D01*
X0231909Y0025430D01*
X0232315Y0025836D01*
X0231909Y0026241D01*
X0231909Y0043193D01*
X0228688Y0046415D01*
X0228469Y0046415D01*
X0226409Y0048474D01*
X0226504Y0048568D01*
X0226504Y0052954D01*
X0223913Y0053011D02*
X0219718Y0053011D01*
X0222050Y0051012D02*
X0223913Y0051012D01*
X0224663Y0049014D02*
X0223104Y0049014D01*
X0222795Y0047015D02*
X0238426Y0047015D01*
X0238995Y0049014D02*
X0236022Y0049014D01*
X0238573Y0045017D02*
X0230368Y0045017D01*
X0231708Y0043018D02*
X0239552Y0043018D01*
X0242474Y0041020D02*
X0232109Y0041020D01*
X0231795Y0039021D02*
X0255906Y0039021D01*
X0255906Y0041020D02*
X0245778Y0041020D01*
X0248700Y0043018D02*
X0255906Y0043018D01*
X0255906Y0045017D02*
X0249679Y0045017D01*
X0249826Y0047015D02*
X0255906Y0047015D01*
X0255906Y0049014D02*
X0249257Y0049014D01*
X0247680Y0051012D02*
X0255906Y0051012D01*
X0255906Y0053011D02*
X0248693Y0053011D01*
X0249676Y0055009D02*
X0255906Y0055009D01*
X0255906Y0057008D02*
X0249826Y0057008D01*
X0249260Y0059006D02*
X0255906Y0059006D01*
X0255906Y0061005D02*
X0247687Y0061005D01*
X0248685Y0063003D02*
X0255906Y0063003D01*
X0255906Y0065002D02*
X0249673Y0065002D01*
X0249826Y0067000D02*
X0255906Y0067000D01*
X0255906Y0068999D02*
X0249263Y0068999D01*
X0247695Y0070997D02*
X0255906Y0070997D01*
X0255906Y0072996D02*
X0246937Y0072996D01*
X0249050Y0074994D02*
X0255906Y0074994D01*
X0255906Y0076993D02*
X0249826Y0076993D01*
X0249826Y0078991D02*
X0255906Y0078991D01*
X0255906Y0080990D02*
X0249058Y0080990D01*
X0238426Y0076993D02*
X0237408Y0076993D01*
X0238762Y0074994D02*
X0239202Y0074994D01*
X0238705Y0072996D02*
X0241315Y0072996D01*
X0240557Y0070997D02*
X0237230Y0070997D01*
X0231773Y0074994D02*
X0224633Y0074994D01*
X0233128Y0076993D02*
X0206049Y0076993D01*
X0204158Y0074994D02*
X0211512Y0074994D01*
X0211014Y0072996D02*
X0206157Y0072996D01*
X0207012Y0070997D02*
X0211612Y0070997D01*
X0207012Y0068999D02*
X0223557Y0068999D01*
X0216086Y0067000D02*
X0206056Y0067000D01*
X0204057Y0065002D02*
X0214087Y0065002D01*
X0208092Y0059006D02*
X0184255Y0059006D01*
X0186253Y0057008D02*
X0206093Y0057008D01*
X0202724Y0055009D02*
X0188252Y0055009D01*
X0190250Y0053011D02*
X0202294Y0053011D01*
X0200536Y0051012D02*
X0192249Y0051012D01*
X0194247Y0049014D02*
X0195306Y0049014D01*
X0220540Y0045017D02*
X0222451Y0045017D01*
X0226504Y0048592D02*
X0226504Y0049732D01*
X0226504Y0049732D01*
X0226504Y0048592D01*
X0226504Y0049014D02*
X0226504Y0049014D01*
X0230579Y0037023D02*
X0255906Y0037023D01*
X0255906Y0035024D02*
X0230361Y0035024D01*
X0231705Y0033026D02*
X0239847Y0033026D01*
X0239927Y0033105D02*
X0237841Y0031019D01*
X0236713Y0028295D01*
X0236713Y0025345D01*
X0237841Y0022621D01*
X0239927Y0020535D01*
X0242651Y0019407D01*
X0245601Y0019407D01*
X0248325Y0020535D01*
X0250411Y0022621D01*
X0251539Y0025345D01*
X0251539Y0028295D01*
X0250411Y0031019D01*
X0248325Y0033105D01*
X0245601Y0034233D01*
X0242651Y0034233D01*
X0239927Y0033105D01*
X0237849Y0031027D02*
X0232109Y0031027D01*
X0231798Y0029029D02*
X0237017Y0029029D01*
X0236713Y0027030D02*
X0230586Y0027030D01*
X0230353Y0025032D02*
X0236843Y0025032D01*
X0237670Y0023033D02*
X0231702Y0023033D01*
X0232109Y0021035D02*
X0239427Y0021035D01*
X0231801Y0019036D02*
X0253847Y0019036D01*
X0251825Y0017038D02*
X0230593Y0017038D01*
X0248825Y0021035D02*
X0255043Y0021035D01*
X0255693Y0023033D02*
X0250582Y0023033D01*
X0251409Y0025032D02*
X0255906Y0025032D01*
X0255906Y0027030D02*
X0251539Y0027030D01*
X0251235Y0029029D02*
X0255906Y0029029D01*
X0255906Y0031027D02*
X0250403Y0031027D01*
X0248404Y0033026D02*
X0255906Y0033026D01*
X0204791Y0023033D02*
X0199148Y0023033D01*
X0194616Y0023033D02*
X0144714Y0023033D01*
X0156165Y0025032D02*
X0193335Y0025032D01*
X0193497Y0027030D02*
X0156165Y0027030D01*
X0115642Y0035024D02*
X0103190Y0035024D01*
X0103409Y0037023D02*
X0115642Y0037023D01*
X0115642Y0039021D02*
X0103409Y0039021D01*
X0103409Y0041020D02*
X0115642Y0041020D01*
X0115642Y0043018D02*
X0103409Y0043018D01*
X0103409Y0045017D02*
X0115642Y0045017D01*
X0115642Y0047015D02*
X0103409Y0047015D01*
X0103409Y0049014D02*
X0115024Y0049014D01*
X0113026Y0051012D02*
X0110985Y0051012D01*
X0105613Y0051012D02*
X0103409Y0051012D01*
X0103409Y0053011D02*
X0104715Y0053011D01*
X0093504Y0053011D02*
X0091305Y0053011D01*
X0093304Y0055009D02*
X0093504Y0055009D01*
X0093504Y0051012D02*
X0091114Y0051012D01*
X0091114Y0049014D02*
X0093504Y0049014D01*
X0093504Y0047015D02*
X0091114Y0047015D01*
X0091114Y0045017D02*
X0093504Y0045017D01*
X0093504Y0043018D02*
X0091114Y0043018D01*
X0091114Y0041020D02*
X0093504Y0041020D01*
X0093504Y0039021D02*
X0091324Y0039021D01*
X0092198Y0037023D02*
X0093504Y0037023D01*
X0093723Y0035024D02*
X0091815Y0035024D01*
X0085904Y0039021D02*
X0084950Y0039021D01*
X0085309Y0041020D02*
X0086114Y0041020D01*
X0086114Y0043018D02*
X0084375Y0043018D01*
X0084224Y0045017D02*
X0086114Y0045017D01*
X0086114Y0047015D02*
X0084224Y0047015D01*
X0084762Y0049014D02*
X0086114Y0049014D01*
X0044870Y0053011D02*
X0044870Y0053011D01*
X0044870Y0055009D02*
X0044870Y0055009D01*
X0034598Y0057008D02*
X0033312Y0057008D01*
X0033486Y0056747D02*
X0033112Y0057306D01*
X0032637Y0057782D01*
X0032078Y0058156D01*
X0031456Y0058413D01*
X0030796Y0058544D01*
X0030106Y0058544D01*
X0030106Y0054379D01*
X0030106Y0054379D01*
X0030106Y0050214D01*
X0030796Y0050214D01*
X0031456Y0050345D01*
X0032078Y0050602D01*
X0032637Y0050976D01*
X0033112Y0051452D01*
X0033486Y0052011D01*
X0033744Y0052632D01*
X0033875Y0053292D01*
X0033875Y0054379D01*
X0030106Y0054379D01*
X0030106Y0054379D01*
X0033875Y0054379D01*
X0033875Y0055466D01*
X0033744Y0056126D01*
X0033486Y0056747D01*
X0034870Y0059006D02*
X0026106Y0059006D01*
X0026378Y0057008D02*
X0026901Y0057008D01*
X0030106Y0057008D02*
X0030106Y0057008D01*
X0030106Y0055009D02*
X0030106Y0055009D01*
X0030106Y0053011D02*
X0030106Y0053011D01*
X0030106Y0051012D02*
X0030106Y0051012D01*
X0027540Y0051012D02*
X0025673Y0051012D01*
X0020540Y0051012D02*
X0015572Y0051012D01*
X0016464Y0053011D02*
X0019338Y0053011D01*
X0019338Y0055009D02*
X0016550Y0055009D01*
X0015919Y0057008D02*
X0019834Y0057008D01*
X0020106Y0059006D02*
X0014256Y0059006D01*
X0015564Y0061005D02*
X0020106Y0061005D01*
X0019338Y0063003D02*
X0016461Y0063003D01*
X0016550Y0065002D02*
X0019338Y0065002D01*
X0019951Y0067000D02*
X0015922Y0067000D01*
X0014264Y0068999D02*
X0020106Y0068999D01*
X0020106Y0070997D02*
X0015557Y0070997D01*
X0016458Y0072996D02*
X0019338Y0072996D01*
X0023106Y0074064D02*
X0023106Y0083907D01*
X0023106Y0096155D01*
X0025622Y0098670D01*
X0018622Y0098977D02*
X0017858Y0098977D01*
X0017858Y0098670D02*
X0017858Y0101570D01*
X0013758Y0105670D01*
X0010858Y0105670D01*
X0010858Y0098671D01*
X0010858Y0098671D01*
X0010858Y0098670D02*
X0017858Y0098670D01*
X0017858Y0096978D02*
X0018622Y0096978D01*
X0019414Y0094979D02*
X0017067Y0094979D01*
X0015068Y0092981D02*
X0020106Y0092981D01*
X0010858Y0092981D02*
X0010858Y0092981D01*
X0010858Y0094979D02*
X0010858Y0094979D01*
X0010858Y0096978D02*
X0010858Y0096978D01*
X0010858Y0098977D02*
X0010858Y0098977D01*
X0010858Y0100975D02*
X0010858Y0100975D01*
X0010858Y0102974D02*
X0010858Y0102974D01*
X0010858Y0104972D02*
X0010858Y0104972D01*
X0014456Y0104972D02*
X0022024Y0104972D01*
X0020026Y0102974D02*
X0016455Y0102974D01*
X0017858Y0100975D02*
X0018622Y0100975D01*
X0029220Y0104972D02*
X0048816Y0104972D01*
X0046818Y0106971D02*
X0004000Y0106971D01*
X0004000Y0108969D02*
X0031284Y0108969D01*
X0038622Y0108969D02*
X0041284Y0108969D01*
X0039953Y0110968D02*
X0039953Y0110968D01*
X0039953Y0112966D02*
X0039953Y0112966D01*
X0039430Y0114965D02*
X0040475Y0114965D01*
X0042474Y0116963D02*
X0037432Y0116963D01*
X0047432Y0116963D02*
X0052474Y0116963D01*
X0050475Y0114965D02*
X0049430Y0114965D01*
X0049953Y0112966D02*
X0049953Y0112966D01*
X0049953Y0110968D02*
X0049953Y0110968D01*
X0049953Y0110907D02*
X0049953Y0110907D01*
X0050815Y0102974D02*
X0031218Y0102974D01*
X0007260Y0104972D02*
X0004000Y0104972D01*
X0004000Y0102974D02*
X0005262Y0102974D01*
X0004650Y0094979D02*
X0004000Y0094979D01*
X0004000Y0092981D02*
X0006648Y0092981D01*
X0015905Y0086985D02*
X0020106Y0086985D01*
X0019338Y0084987D02*
X0016520Y0084987D01*
X0016400Y0082988D02*
X0019338Y0082988D01*
X0020090Y0080990D02*
X0015453Y0080990D01*
X0014271Y0078991D02*
X0020106Y0078991D01*
X0020102Y0076993D02*
X0015926Y0076993D01*
X0016550Y0074994D02*
X0019338Y0074994D01*
X0023106Y0074064D02*
X0023106Y0064222D01*
X0023106Y0054379D01*
X0032673Y0051012D02*
X0034870Y0051012D01*
X0034102Y0053011D02*
X0033819Y0053011D01*
X0033875Y0055009D02*
X0034102Y0055009D01*
X0034870Y0061005D02*
X0032823Y0061005D01*
X0033849Y0063003D02*
X0034102Y0063003D01*
X0033875Y0064222D02*
X0030106Y0064222D01*
X0030106Y0068387D01*
X0030106Y0064222D01*
X0030106Y0064222D01*
X0033875Y0064222D01*
X0033875Y0065002D02*
X0034102Y0065002D01*
X0034715Y0067000D02*
X0033212Y0067000D01*
X0034870Y0068999D02*
X0026106Y0068999D01*
X0026261Y0067000D02*
X0027001Y0067000D01*
X0030106Y0067000D02*
X0030106Y0067000D01*
X0030106Y0065002D02*
X0030106Y0065002D01*
X0030106Y0064222D02*
X0030106Y0064222D01*
X0030106Y0063003D02*
X0030106Y0063003D01*
X0030106Y0061005D02*
X0030106Y0061005D01*
X0027390Y0061005D02*
X0026106Y0061005D01*
X0040870Y0061005D02*
X0042153Y0061005D01*
X0044870Y0061005D02*
X0044870Y0061005D01*
X0044870Y0063003D02*
X0044870Y0063003D01*
X0032637Y0070661D02*
X0032078Y0070287D01*
X0031456Y0070030D01*
X0030796Y0069899D01*
X0030106Y0069899D01*
X0030106Y0074064D01*
X0030106Y0074064D01*
X0030106Y0074064D01*
X0033875Y0074064D01*
X0033875Y0072977D01*
X0033744Y0072318D01*
X0033486Y0071696D01*
X0033112Y0071137D01*
X0032637Y0070661D01*
X0032973Y0070997D02*
X0034870Y0070997D01*
X0034102Y0072996D02*
X0033875Y0072996D01*
X0033875Y0074064D02*
X0033875Y0075151D01*
X0033744Y0075811D01*
X0033486Y0076432D01*
X0033112Y0076991D01*
X0032637Y0077467D01*
X0032078Y0077841D01*
X0031456Y0078098D01*
X0030796Y0078229D01*
X0030106Y0078229D01*
X0030106Y0074064D01*
X0033875Y0074064D01*
X0033875Y0074994D02*
X0034102Y0074994D01*
X0034865Y0076993D02*
X0033111Y0076993D01*
X0030106Y0076993D02*
X0030106Y0076993D01*
X0030106Y0074994D02*
X0030106Y0074994D01*
X0027102Y0076993D02*
X0026111Y0076993D01*
X0026106Y0078991D02*
X0034870Y0078991D01*
X0034853Y0080990D02*
X0033120Y0080990D01*
X0030106Y0080990D02*
X0030106Y0080990D01*
X0027093Y0080990D02*
X0026123Y0080990D01*
X0030106Y0082988D02*
X0030106Y0082988D01*
X0030106Y0084987D02*
X0030106Y0084987D01*
X0040725Y0086985D02*
X0042015Y0086985D01*
X0044870Y0086985D02*
X0044870Y0086985D01*
X0044870Y0072996D02*
X0044870Y0072996D01*
X0044870Y0070997D02*
X0044870Y0070997D01*
X0042003Y0070997D02*
X0040870Y0070997D01*
X0030106Y0070997D02*
X0030106Y0070997D01*
X0030106Y0072996D02*
X0030106Y0072996D01*
X0027240Y0070997D02*
X0026106Y0070997D01*
X0090559Y0118962D02*
X0091291Y0118962D01*
X0089953Y0120960D02*
X0089953Y0120960D01*
X0089953Y0122959D02*
X0089953Y0122959D01*
X0089438Y0124957D02*
X0090468Y0124957D01*
X0092466Y0126956D02*
X0087439Y0126956D01*
X0149430Y0114965D02*
X0150475Y0114965D01*
X0149953Y0112966D02*
X0149953Y0112966D01*
X0149953Y0110968D02*
X0149953Y0110968D01*
X0169430Y0114965D02*
X0170475Y0114965D01*
X0169953Y0112966D02*
X0169953Y0112966D01*
X0169953Y0110968D02*
X0169953Y0110968D01*
X0178483Y0086985D02*
X0223913Y0086985D01*
X0236783Y0100975D02*
X0239188Y0100975D01*
X0241236Y0102974D02*
X0236783Y0102974D01*
X0201961Y0068999D02*
X0201961Y0068999D01*
X0201961Y0067000D02*
X0201961Y0067000D01*
X0201961Y0065002D02*
X0201961Y0065002D01*
X0199864Y0065002D02*
X0194057Y0065002D01*
X0196056Y0067000D02*
X0197865Y0067000D01*
X0189864Y0065002D02*
X0184057Y0065002D01*
X0186056Y0067000D02*
X0187865Y0067000D01*
X0156496Y0067000D02*
X0155865Y0067000D01*
X0133946Y0065002D02*
X0133833Y0065002D01*
X0166402Y0084987D02*
X0166868Y0084987D01*
D20*
X0167354Y0081938D02*
X0161449Y0081938D01*
X0161449Y0079970D02*
X0167931Y0079970D01*
X0178470Y0090508D01*
X0241619Y0090508D01*
X0244126Y0088001D01*
X0237732Y0088001D01*
X0234181Y0084450D01*
X0231622Y0084450D02*
X0229362Y0084450D01*
X0228394Y0083482D01*
X0228394Y0081549D01*
X0227633Y0080788D01*
X0225375Y0080788D01*
X0223240Y0082922D01*
X0214598Y0082922D01*
X0201961Y0080048D02*
X0196961Y0075048D01*
X0179165Y0075048D01*
X0175228Y0071111D01*
X0175228Y0068159D01*
X0177472Y0062253D02*
X0199391Y0040335D01*
X0215336Y0040335D01*
X0214574Y0041097D01*
X0214574Y0043329D01*
X0213906Y0043997D01*
X0216465Y0043997D02*
X0216465Y0045418D01*
X0219520Y0048474D01*
X0214598Y0051426D02*
X0219788Y0056616D01*
X0228109Y0056616D01*
X0229362Y0055363D01*
X0229362Y0052954D01*
X0229063Y0052954D01*
X0229362Y0052954D02*
X0231622Y0052954D01*
X0234181Y0052954D02*
X0240575Y0052954D01*
X0244126Y0056505D01*
X0239362Y0061269D01*
X0218535Y0061269D01*
X0206724Y0049458D01*
X0203772Y0049458D01*
X0206280Y0046505D02*
X0197866Y0046505D01*
X0206280Y0046505D02*
X0208787Y0043997D01*
X0211346Y0043997D01*
X0215336Y0040335D02*
X0217594Y0040335D01*
X0218173Y0040915D01*
X0226409Y0040915D01*
X0220016Y0030915D02*
X0212395Y0038535D01*
X0198645Y0038535D01*
X0176895Y0060285D01*
X0161449Y0060285D01*
X0161449Y0062253D02*
X0177472Y0062253D01*
X0161449Y0064222D02*
X0153575Y0064222D01*
X0147669Y0073080D02*
X0141764Y0067174D01*
X0136843Y0067174D02*
X0145701Y0075048D01*
X0145701Y0091781D01*
X0147669Y0091781D02*
X0147669Y0073080D01*
X0143732Y0079970D02*
X0143732Y0091781D01*
X0141764Y0091781D02*
X0141764Y0082922D01*
X0126016Y0067174D01*
X0130937Y0067174D02*
X0143732Y0079970D01*
X0151606Y0085875D02*
X0151606Y0091781D01*
X0153575Y0091781D02*
X0153575Y0095718D01*
X0167354Y0081938D02*
X0176670Y0091253D01*
X0176670Y0091253D01*
X0177724Y0092308D01*
X0230154Y0092308D01*
X0235268Y0097422D01*
X0235310Y0097422D01*
X0235890Y0098001D01*
X0244126Y0098001D01*
X0235268Y0097422D02*
X0233052Y0097422D01*
X0232291Y0098183D01*
X0232291Y0100415D01*
X0231622Y0101084D01*
X0229063Y0101084D02*
X0226504Y0101084D01*
X0223012Y0104576D01*
X0214598Y0104576D01*
X0199107Y0095718D02*
X0198743Y0096081D01*
X0191295Y0096081D01*
X0184769Y0102607D01*
X0097472Y0102607D01*
X0090583Y0109497D01*
X0090583Y0115403D01*
X0084953Y0121033D01*
X0084953Y0122371D01*
X0104953Y0122371D02*
X0110653Y0116671D01*
X0110653Y0110590D01*
X0116498Y0104744D01*
X0186162Y0104744D01*
X0190888Y0100018D01*
X0194186Y0100018D01*
X0195534Y0099655D01*
X0191961Y0103592D02*
X0189008Y0106544D01*
X0122079Y0106544D01*
X0119253Y0109370D01*
X0119253Y0114152D01*
X0114953Y0118452D01*
X0114953Y0122371D01*
X0090583Y0105560D02*
X0104362Y0091781D01*
X0104362Y0086859D01*
X0113753Y0077469D01*
X0113753Y0056367D01*
X0120110Y0050009D01*
X0120110Y0028789D01*
X0118142Y0028789D02*
X0118142Y0049432D01*
X0111953Y0055621D01*
X0111953Y0075792D01*
X0102394Y0085351D01*
X0102394Y0090796D01*
X0089598Y0103592D01*
X0053732Y0103592D01*
X0044953Y0112371D01*
X0054953Y0112371D02*
X0061764Y0105560D01*
X0090583Y0105560D01*
X0114205Y0097686D02*
X0114205Y0091781D01*
X0116173Y0091781D02*
X0116173Y0084891D01*
X0117069Y0064842D02*
X0115553Y0063326D01*
X0115553Y0059212D01*
X0119827Y0054938D01*
X0119126Y0061269D02*
X0129953Y0050442D01*
X0161449Y0050442D01*
X0161449Y0052411D02*
X0132630Y0052411D01*
X0120198Y0064842D01*
X0117069Y0064842D01*
X0108299Y0053395D02*
X0103378Y0058316D01*
X0098457Y0058316D01*
X0098379Y0060207D02*
X0094965Y0060207D01*
X0088614Y0053855D01*
X0088614Y0036663D01*
X0081724Y0040600D02*
X0081724Y0049511D01*
X0094388Y0062175D01*
X0098379Y0062175D01*
X0098457Y0062253D01*
X0098457Y0060285D02*
X0098379Y0060207D01*
X0098457Y0056348D02*
X0102801Y0056348D01*
X0102801Y0054814D01*
X0107105Y0050511D01*
X0109215Y0050511D01*
X0114205Y0045521D01*
X0124047Y0045521D02*
X0141764Y0045521D01*
X0143732Y0043552D01*
X0143732Y0028789D01*
X0143732Y0024852D01*
X0139795Y0022883D02*
X0141764Y0020915D01*
X0139795Y0022883D02*
X0139795Y0028789D01*
X0137827Y0028789D02*
X0137827Y0019930D01*
X0140780Y0016978D01*
X0132906Y0017962D02*
X0121041Y0017962D01*
X0114283Y0024720D01*
X0114283Y0028711D01*
X0114205Y0028789D01*
X0116173Y0028789D02*
X0116251Y0028711D01*
X0116251Y0025297D01*
X0120634Y0020915D01*
X0126016Y0020915D01*
X0141764Y0028789D02*
X0141764Y0032726D01*
X0139795Y0034694D01*
X0139795Y0038631D01*
X0137827Y0040600D01*
X0145623Y0035600D02*
X0147669Y0037647D01*
X0147669Y0039615D01*
X0148654Y0040600D01*
X0154559Y0042568D02*
X0161449Y0042568D01*
X0161449Y0044537D02*
X0171291Y0044537D01*
X0168339Y0048110D02*
X0166734Y0046505D01*
X0161449Y0046505D01*
X0145623Y0035600D02*
X0145623Y0028867D01*
X0145701Y0028789D01*
X0196882Y0025836D02*
X0205524Y0025836D01*
X0207658Y0023701D01*
X0209916Y0023701D01*
X0210678Y0024463D01*
X0210678Y0026695D01*
X0211346Y0027363D01*
X0213906Y0027363D01*
X0216465Y0027363D02*
X0220016Y0030915D01*
X0226409Y0030915D01*
X0208787Y0027363D02*
X0207249Y0027363D01*
X0205878Y0053257D02*
X0218547Y0065926D01*
X0233052Y0065926D01*
X0235310Y0065926D01*
X0235890Y0066505D01*
X0244126Y0066505D01*
X0234181Y0069588D02*
X0234181Y0072978D01*
X0235268Y0074064D01*
X0231622Y0069588D02*
X0232291Y0068919D01*
X0232291Y0066687D01*
X0233052Y0065926D01*
X0229063Y0069588D02*
X0226504Y0069588D01*
X0223012Y0073080D01*
X0214598Y0073080D01*
X0229063Y0084450D02*
X0229362Y0084450D01*
X0234181Y0101084D02*
X0234283Y0101186D01*
X0234283Y0105560D01*
D21*
X0234283Y0105560D03*
X0214598Y0104576D03*
X0199107Y0095718D03*
X0195534Y0099655D03*
X0191961Y0103592D03*
X0167354Y0088828D03*
X0151606Y0085875D03*
X0173260Y0078985D03*
X0175228Y0068159D03*
X0153575Y0064222D03*
X0141764Y0067174D03*
X0136843Y0067174D03*
X0130937Y0067174D03*
X0126016Y0067174D03*
X0119126Y0061269D03*
X0119827Y0054938D03*
X0108299Y0053395D03*
X0114205Y0045521D03*
X0124047Y0045521D03*
X0137827Y0040600D03*
X0148654Y0040600D03*
X0154559Y0042568D03*
X0168339Y0048110D03*
X0171291Y0044537D03*
X0197866Y0046505D03*
X0203772Y0049458D03*
X0205878Y0053257D03*
X0214598Y0051426D03*
X0219520Y0048474D03*
X0214598Y0073080D03*
X0214598Y0082922D03*
X0235268Y0074064D03*
X0196882Y0025836D03*
X0141764Y0020915D03*
X0140780Y0016978D03*
X0132906Y0017962D03*
X0126016Y0020915D03*
X0101409Y0022883D03*
X0088614Y0036663D03*
X0081724Y0040600D03*
X0069913Y0037647D03*
X0052197Y0074064D03*
X0116173Y0084891D03*
X0140780Y0098670D03*
D22*
X0153575Y0098670D02*
X0153575Y0091781D01*
X0169323Y0075048D02*
X0173260Y0078985D01*
X0169323Y0075048D02*
X0169323Y0069143D01*
X0166370Y0066190D01*
X0161449Y0066190D01*
X0156528Y0066190D01*
X0166370Y0066190D02*
X0167354Y0066190D01*
X0223457Y0085875D02*
X0224882Y0084450D01*
X0226504Y0084450D01*
X0098457Y0056348D02*
X0094520Y0056348D01*
X0093535Y0055363D01*
M02*
