G75*
%MOIN*%
%OFA0B0*%
%FSLAX25Y25*%
%IPPOS*%
%LPD*%
%AMOC8*
5,1,8,0,0,1.08239X$1,22.5*
%
%ADD10C,0.00000*%
D10*
X0013811Y0013041D02*
X0246094Y0013041D01*
X0246379Y0013044D01*
X0246665Y0013055D01*
X0246950Y0013072D01*
X0247234Y0013096D01*
X0247518Y0013127D01*
X0247801Y0013165D01*
X0248082Y0013210D01*
X0248363Y0013261D01*
X0248643Y0013319D01*
X0248921Y0013384D01*
X0249197Y0013456D01*
X0249471Y0013534D01*
X0249744Y0013619D01*
X0250014Y0013711D01*
X0250282Y0013809D01*
X0250548Y0013913D01*
X0250811Y0014024D01*
X0251071Y0014141D01*
X0251329Y0014264D01*
X0251583Y0014394D01*
X0251834Y0014530D01*
X0252082Y0014671D01*
X0252326Y0014819D01*
X0252567Y0014972D01*
X0252803Y0015132D01*
X0253036Y0015297D01*
X0253265Y0015467D01*
X0253490Y0015643D01*
X0253710Y0015825D01*
X0253926Y0016011D01*
X0254137Y0016203D01*
X0254344Y0016400D01*
X0254546Y0016602D01*
X0254743Y0016809D01*
X0254935Y0017020D01*
X0255121Y0017236D01*
X0255303Y0017456D01*
X0255479Y0017681D01*
X0255649Y0017910D01*
X0255814Y0018143D01*
X0255974Y0018379D01*
X0256127Y0018620D01*
X0256275Y0018864D01*
X0256416Y0019112D01*
X0256552Y0019363D01*
X0256682Y0019617D01*
X0256805Y0019875D01*
X0256922Y0020135D01*
X0257033Y0020398D01*
X0257137Y0020664D01*
X0257235Y0020932D01*
X0257327Y0021202D01*
X0257412Y0021475D01*
X0257490Y0021749D01*
X0257562Y0022025D01*
X0257627Y0022303D01*
X0257685Y0022583D01*
X0257736Y0022864D01*
X0257781Y0023145D01*
X0257819Y0023428D01*
X0257850Y0023712D01*
X0257874Y0023996D01*
X0257891Y0024281D01*
X0257902Y0024567D01*
X0257905Y0024852D01*
X0257906Y0024852D02*
X0257906Y0119340D01*
X0257905Y0119340D02*
X0257902Y0119625D01*
X0257891Y0119911D01*
X0257874Y0120196D01*
X0257850Y0120480D01*
X0257819Y0120764D01*
X0257781Y0121047D01*
X0257736Y0121328D01*
X0257685Y0121609D01*
X0257627Y0121889D01*
X0257562Y0122167D01*
X0257490Y0122443D01*
X0257412Y0122717D01*
X0257327Y0122990D01*
X0257235Y0123260D01*
X0257137Y0123528D01*
X0257033Y0123794D01*
X0256922Y0124057D01*
X0256805Y0124317D01*
X0256682Y0124575D01*
X0256552Y0124829D01*
X0256416Y0125080D01*
X0256275Y0125328D01*
X0256127Y0125572D01*
X0255974Y0125813D01*
X0255814Y0126049D01*
X0255649Y0126282D01*
X0255479Y0126511D01*
X0255303Y0126736D01*
X0255121Y0126956D01*
X0254935Y0127172D01*
X0254743Y0127383D01*
X0254546Y0127590D01*
X0254344Y0127792D01*
X0254137Y0127989D01*
X0253926Y0128181D01*
X0253710Y0128367D01*
X0253490Y0128549D01*
X0253265Y0128725D01*
X0253036Y0128895D01*
X0252803Y0129060D01*
X0252567Y0129220D01*
X0252326Y0129373D01*
X0252082Y0129521D01*
X0251834Y0129662D01*
X0251583Y0129798D01*
X0251329Y0129928D01*
X0251071Y0130051D01*
X0250811Y0130168D01*
X0250548Y0130279D01*
X0250282Y0130383D01*
X0250014Y0130481D01*
X0249744Y0130573D01*
X0249471Y0130658D01*
X0249197Y0130736D01*
X0248921Y0130808D01*
X0248643Y0130873D01*
X0248363Y0130931D01*
X0248082Y0130982D01*
X0247801Y0131027D01*
X0247518Y0131065D01*
X0247234Y0131096D01*
X0246950Y0131120D01*
X0246665Y0131137D01*
X0246379Y0131148D01*
X0246094Y0131151D01*
X0013811Y0131151D01*
X0013526Y0131148D01*
X0013240Y0131137D01*
X0012955Y0131120D01*
X0012671Y0131096D01*
X0012387Y0131065D01*
X0012104Y0131027D01*
X0011823Y0130982D01*
X0011542Y0130931D01*
X0011262Y0130873D01*
X0010984Y0130808D01*
X0010708Y0130736D01*
X0010434Y0130658D01*
X0010161Y0130573D01*
X0009891Y0130481D01*
X0009623Y0130383D01*
X0009357Y0130279D01*
X0009094Y0130168D01*
X0008834Y0130051D01*
X0008576Y0129928D01*
X0008322Y0129798D01*
X0008071Y0129662D01*
X0007823Y0129521D01*
X0007579Y0129373D01*
X0007338Y0129220D01*
X0007102Y0129060D01*
X0006869Y0128895D01*
X0006640Y0128725D01*
X0006415Y0128549D01*
X0006195Y0128367D01*
X0005979Y0128181D01*
X0005768Y0127989D01*
X0005561Y0127792D01*
X0005359Y0127590D01*
X0005162Y0127383D01*
X0004970Y0127172D01*
X0004784Y0126956D01*
X0004602Y0126736D01*
X0004426Y0126511D01*
X0004256Y0126282D01*
X0004091Y0126049D01*
X0003931Y0125813D01*
X0003778Y0125572D01*
X0003630Y0125328D01*
X0003489Y0125080D01*
X0003353Y0124829D01*
X0003223Y0124575D01*
X0003100Y0124317D01*
X0002983Y0124057D01*
X0002872Y0123794D01*
X0002768Y0123528D01*
X0002670Y0123260D01*
X0002578Y0122990D01*
X0002493Y0122717D01*
X0002415Y0122443D01*
X0002343Y0122167D01*
X0002278Y0121889D01*
X0002220Y0121609D01*
X0002169Y0121328D01*
X0002124Y0121047D01*
X0002086Y0120764D01*
X0002055Y0120480D01*
X0002031Y0120196D01*
X0002014Y0119911D01*
X0002003Y0119625D01*
X0002000Y0119340D01*
X0002000Y0024852D01*
X0002003Y0024567D01*
X0002014Y0024281D01*
X0002031Y0023996D01*
X0002055Y0023712D01*
X0002086Y0023428D01*
X0002124Y0023145D01*
X0002169Y0022864D01*
X0002220Y0022583D01*
X0002278Y0022303D01*
X0002343Y0022025D01*
X0002415Y0021749D01*
X0002493Y0021475D01*
X0002578Y0021202D01*
X0002670Y0020932D01*
X0002768Y0020664D01*
X0002872Y0020398D01*
X0002983Y0020135D01*
X0003100Y0019875D01*
X0003223Y0019617D01*
X0003353Y0019363D01*
X0003489Y0019112D01*
X0003630Y0018864D01*
X0003778Y0018620D01*
X0003931Y0018379D01*
X0004091Y0018143D01*
X0004256Y0017910D01*
X0004426Y0017681D01*
X0004602Y0017456D01*
X0004784Y0017236D01*
X0004970Y0017020D01*
X0005162Y0016809D01*
X0005359Y0016602D01*
X0005561Y0016400D01*
X0005768Y0016203D01*
X0005979Y0016011D01*
X0006195Y0015825D01*
X0006415Y0015643D01*
X0006640Y0015467D01*
X0006869Y0015297D01*
X0007102Y0015132D01*
X0007338Y0014972D01*
X0007579Y0014819D01*
X0007823Y0014671D01*
X0008071Y0014530D01*
X0008322Y0014394D01*
X0008576Y0014264D01*
X0008834Y0014141D01*
X0009094Y0014024D01*
X0009357Y0013913D01*
X0009623Y0013809D01*
X0009891Y0013711D01*
X0010161Y0013619D01*
X0010434Y0013534D01*
X0010708Y0013456D01*
X0010984Y0013384D01*
X0011262Y0013319D01*
X0011542Y0013261D01*
X0011823Y0013210D01*
X0012104Y0013165D01*
X0012387Y0013127D01*
X0012671Y0013096D01*
X0012955Y0013072D01*
X0013240Y0013055D01*
X0013526Y0013044D01*
X0013811Y0013041D01*
X0010367Y0026820D02*
X0010369Y0026967D01*
X0010375Y0027113D01*
X0010385Y0027259D01*
X0010399Y0027405D01*
X0010417Y0027551D01*
X0010438Y0027696D01*
X0010464Y0027840D01*
X0010494Y0027984D01*
X0010527Y0028126D01*
X0010564Y0028268D01*
X0010605Y0028409D01*
X0010650Y0028548D01*
X0010699Y0028687D01*
X0010751Y0028824D01*
X0010808Y0028959D01*
X0010867Y0029093D01*
X0010931Y0029225D01*
X0010998Y0029355D01*
X0011068Y0029484D01*
X0011142Y0029611D01*
X0011219Y0029735D01*
X0011300Y0029858D01*
X0011384Y0029978D01*
X0011471Y0030096D01*
X0011561Y0030211D01*
X0011654Y0030324D01*
X0011751Y0030435D01*
X0011850Y0030543D01*
X0011952Y0030648D01*
X0012057Y0030750D01*
X0012165Y0030849D01*
X0012276Y0030946D01*
X0012389Y0031039D01*
X0012504Y0031129D01*
X0012622Y0031216D01*
X0012742Y0031300D01*
X0012865Y0031381D01*
X0012989Y0031458D01*
X0013116Y0031532D01*
X0013245Y0031602D01*
X0013375Y0031669D01*
X0013507Y0031733D01*
X0013641Y0031792D01*
X0013776Y0031849D01*
X0013913Y0031901D01*
X0014052Y0031950D01*
X0014191Y0031995D01*
X0014332Y0032036D01*
X0014474Y0032073D01*
X0014616Y0032106D01*
X0014760Y0032136D01*
X0014904Y0032162D01*
X0015049Y0032183D01*
X0015195Y0032201D01*
X0015341Y0032215D01*
X0015487Y0032225D01*
X0015633Y0032231D01*
X0015780Y0032233D01*
X0015927Y0032231D01*
X0016073Y0032225D01*
X0016219Y0032215D01*
X0016365Y0032201D01*
X0016511Y0032183D01*
X0016656Y0032162D01*
X0016800Y0032136D01*
X0016944Y0032106D01*
X0017086Y0032073D01*
X0017228Y0032036D01*
X0017369Y0031995D01*
X0017508Y0031950D01*
X0017647Y0031901D01*
X0017784Y0031849D01*
X0017919Y0031792D01*
X0018053Y0031733D01*
X0018185Y0031669D01*
X0018315Y0031602D01*
X0018444Y0031532D01*
X0018571Y0031458D01*
X0018695Y0031381D01*
X0018818Y0031300D01*
X0018938Y0031216D01*
X0019056Y0031129D01*
X0019171Y0031039D01*
X0019284Y0030946D01*
X0019395Y0030849D01*
X0019503Y0030750D01*
X0019608Y0030648D01*
X0019710Y0030543D01*
X0019809Y0030435D01*
X0019906Y0030324D01*
X0019999Y0030211D01*
X0020089Y0030096D01*
X0020176Y0029978D01*
X0020260Y0029858D01*
X0020341Y0029735D01*
X0020418Y0029611D01*
X0020492Y0029484D01*
X0020562Y0029355D01*
X0020629Y0029225D01*
X0020693Y0029093D01*
X0020752Y0028959D01*
X0020809Y0028824D01*
X0020861Y0028687D01*
X0020910Y0028548D01*
X0020955Y0028409D01*
X0020996Y0028268D01*
X0021033Y0028126D01*
X0021066Y0027984D01*
X0021096Y0027840D01*
X0021122Y0027696D01*
X0021143Y0027551D01*
X0021161Y0027405D01*
X0021175Y0027259D01*
X0021185Y0027113D01*
X0021191Y0026967D01*
X0021193Y0026820D01*
X0021191Y0026673D01*
X0021185Y0026527D01*
X0021175Y0026381D01*
X0021161Y0026235D01*
X0021143Y0026089D01*
X0021122Y0025944D01*
X0021096Y0025800D01*
X0021066Y0025656D01*
X0021033Y0025514D01*
X0020996Y0025372D01*
X0020955Y0025231D01*
X0020910Y0025092D01*
X0020861Y0024953D01*
X0020809Y0024816D01*
X0020752Y0024681D01*
X0020693Y0024547D01*
X0020629Y0024415D01*
X0020562Y0024285D01*
X0020492Y0024156D01*
X0020418Y0024029D01*
X0020341Y0023905D01*
X0020260Y0023782D01*
X0020176Y0023662D01*
X0020089Y0023544D01*
X0019999Y0023429D01*
X0019906Y0023316D01*
X0019809Y0023205D01*
X0019710Y0023097D01*
X0019608Y0022992D01*
X0019503Y0022890D01*
X0019395Y0022791D01*
X0019284Y0022694D01*
X0019171Y0022601D01*
X0019056Y0022511D01*
X0018938Y0022424D01*
X0018818Y0022340D01*
X0018695Y0022259D01*
X0018571Y0022182D01*
X0018444Y0022108D01*
X0018315Y0022038D01*
X0018185Y0021971D01*
X0018053Y0021907D01*
X0017919Y0021848D01*
X0017784Y0021791D01*
X0017647Y0021739D01*
X0017508Y0021690D01*
X0017369Y0021645D01*
X0017228Y0021604D01*
X0017086Y0021567D01*
X0016944Y0021534D01*
X0016800Y0021504D01*
X0016656Y0021478D01*
X0016511Y0021457D01*
X0016365Y0021439D01*
X0016219Y0021425D01*
X0016073Y0021415D01*
X0015927Y0021409D01*
X0015780Y0021407D01*
X0015633Y0021409D01*
X0015487Y0021415D01*
X0015341Y0021425D01*
X0015195Y0021439D01*
X0015049Y0021457D01*
X0014904Y0021478D01*
X0014760Y0021504D01*
X0014616Y0021534D01*
X0014474Y0021567D01*
X0014332Y0021604D01*
X0014191Y0021645D01*
X0014052Y0021690D01*
X0013913Y0021739D01*
X0013776Y0021791D01*
X0013641Y0021848D01*
X0013507Y0021907D01*
X0013375Y0021971D01*
X0013245Y0022038D01*
X0013116Y0022108D01*
X0012989Y0022182D01*
X0012865Y0022259D01*
X0012742Y0022340D01*
X0012622Y0022424D01*
X0012504Y0022511D01*
X0012389Y0022601D01*
X0012276Y0022694D01*
X0012165Y0022791D01*
X0012057Y0022890D01*
X0011952Y0022992D01*
X0011850Y0023097D01*
X0011751Y0023205D01*
X0011654Y0023316D01*
X0011561Y0023429D01*
X0011471Y0023544D01*
X0011384Y0023662D01*
X0011300Y0023782D01*
X0011219Y0023905D01*
X0011142Y0024029D01*
X0011068Y0024156D01*
X0010998Y0024285D01*
X0010931Y0024415D01*
X0010867Y0024547D01*
X0010808Y0024681D01*
X0010751Y0024816D01*
X0010699Y0024953D01*
X0010650Y0025092D01*
X0010605Y0025231D01*
X0010564Y0025372D01*
X0010527Y0025514D01*
X0010494Y0025656D01*
X0010464Y0025800D01*
X0010438Y0025944D01*
X0010417Y0026089D01*
X0010399Y0026235D01*
X0010385Y0026381D01*
X0010375Y0026527D01*
X0010369Y0026673D01*
X0010367Y0026820D01*
X0010367Y0117371D02*
X0010369Y0117518D01*
X0010375Y0117664D01*
X0010385Y0117810D01*
X0010399Y0117956D01*
X0010417Y0118102D01*
X0010438Y0118247D01*
X0010464Y0118391D01*
X0010494Y0118535D01*
X0010527Y0118677D01*
X0010564Y0118819D01*
X0010605Y0118960D01*
X0010650Y0119099D01*
X0010699Y0119238D01*
X0010751Y0119375D01*
X0010808Y0119510D01*
X0010867Y0119644D01*
X0010931Y0119776D01*
X0010998Y0119906D01*
X0011068Y0120035D01*
X0011142Y0120162D01*
X0011219Y0120286D01*
X0011300Y0120409D01*
X0011384Y0120529D01*
X0011471Y0120647D01*
X0011561Y0120762D01*
X0011654Y0120875D01*
X0011751Y0120986D01*
X0011850Y0121094D01*
X0011952Y0121199D01*
X0012057Y0121301D01*
X0012165Y0121400D01*
X0012276Y0121497D01*
X0012389Y0121590D01*
X0012504Y0121680D01*
X0012622Y0121767D01*
X0012742Y0121851D01*
X0012865Y0121932D01*
X0012989Y0122009D01*
X0013116Y0122083D01*
X0013245Y0122153D01*
X0013375Y0122220D01*
X0013507Y0122284D01*
X0013641Y0122343D01*
X0013776Y0122400D01*
X0013913Y0122452D01*
X0014052Y0122501D01*
X0014191Y0122546D01*
X0014332Y0122587D01*
X0014474Y0122624D01*
X0014616Y0122657D01*
X0014760Y0122687D01*
X0014904Y0122713D01*
X0015049Y0122734D01*
X0015195Y0122752D01*
X0015341Y0122766D01*
X0015487Y0122776D01*
X0015633Y0122782D01*
X0015780Y0122784D01*
X0015927Y0122782D01*
X0016073Y0122776D01*
X0016219Y0122766D01*
X0016365Y0122752D01*
X0016511Y0122734D01*
X0016656Y0122713D01*
X0016800Y0122687D01*
X0016944Y0122657D01*
X0017086Y0122624D01*
X0017228Y0122587D01*
X0017369Y0122546D01*
X0017508Y0122501D01*
X0017647Y0122452D01*
X0017784Y0122400D01*
X0017919Y0122343D01*
X0018053Y0122284D01*
X0018185Y0122220D01*
X0018315Y0122153D01*
X0018444Y0122083D01*
X0018571Y0122009D01*
X0018695Y0121932D01*
X0018818Y0121851D01*
X0018938Y0121767D01*
X0019056Y0121680D01*
X0019171Y0121590D01*
X0019284Y0121497D01*
X0019395Y0121400D01*
X0019503Y0121301D01*
X0019608Y0121199D01*
X0019710Y0121094D01*
X0019809Y0120986D01*
X0019906Y0120875D01*
X0019999Y0120762D01*
X0020089Y0120647D01*
X0020176Y0120529D01*
X0020260Y0120409D01*
X0020341Y0120286D01*
X0020418Y0120162D01*
X0020492Y0120035D01*
X0020562Y0119906D01*
X0020629Y0119776D01*
X0020693Y0119644D01*
X0020752Y0119510D01*
X0020809Y0119375D01*
X0020861Y0119238D01*
X0020910Y0119099D01*
X0020955Y0118960D01*
X0020996Y0118819D01*
X0021033Y0118677D01*
X0021066Y0118535D01*
X0021096Y0118391D01*
X0021122Y0118247D01*
X0021143Y0118102D01*
X0021161Y0117956D01*
X0021175Y0117810D01*
X0021185Y0117664D01*
X0021191Y0117518D01*
X0021193Y0117371D01*
X0021191Y0117224D01*
X0021185Y0117078D01*
X0021175Y0116932D01*
X0021161Y0116786D01*
X0021143Y0116640D01*
X0021122Y0116495D01*
X0021096Y0116351D01*
X0021066Y0116207D01*
X0021033Y0116065D01*
X0020996Y0115923D01*
X0020955Y0115782D01*
X0020910Y0115643D01*
X0020861Y0115504D01*
X0020809Y0115367D01*
X0020752Y0115232D01*
X0020693Y0115098D01*
X0020629Y0114966D01*
X0020562Y0114836D01*
X0020492Y0114707D01*
X0020418Y0114580D01*
X0020341Y0114456D01*
X0020260Y0114333D01*
X0020176Y0114213D01*
X0020089Y0114095D01*
X0019999Y0113980D01*
X0019906Y0113867D01*
X0019809Y0113756D01*
X0019710Y0113648D01*
X0019608Y0113543D01*
X0019503Y0113441D01*
X0019395Y0113342D01*
X0019284Y0113245D01*
X0019171Y0113152D01*
X0019056Y0113062D01*
X0018938Y0112975D01*
X0018818Y0112891D01*
X0018695Y0112810D01*
X0018571Y0112733D01*
X0018444Y0112659D01*
X0018315Y0112589D01*
X0018185Y0112522D01*
X0018053Y0112458D01*
X0017919Y0112399D01*
X0017784Y0112342D01*
X0017647Y0112290D01*
X0017508Y0112241D01*
X0017369Y0112196D01*
X0017228Y0112155D01*
X0017086Y0112118D01*
X0016944Y0112085D01*
X0016800Y0112055D01*
X0016656Y0112029D01*
X0016511Y0112008D01*
X0016365Y0111990D01*
X0016219Y0111976D01*
X0016073Y0111966D01*
X0015927Y0111960D01*
X0015780Y0111958D01*
X0015633Y0111960D01*
X0015487Y0111966D01*
X0015341Y0111976D01*
X0015195Y0111990D01*
X0015049Y0112008D01*
X0014904Y0112029D01*
X0014760Y0112055D01*
X0014616Y0112085D01*
X0014474Y0112118D01*
X0014332Y0112155D01*
X0014191Y0112196D01*
X0014052Y0112241D01*
X0013913Y0112290D01*
X0013776Y0112342D01*
X0013641Y0112399D01*
X0013507Y0112458D01*
X0013375Y0112522D01*
X0013245Y0112589D01*
X0013116Y0112659D01*
X0012989Y0112733D01*
X0012865Y0112810D01*
X0012742Y0112891D01*
X0012622Y0112975D01*
X0012504Y0113062D01*
X0012389Y0113152D01*
X0012276Y0113245D01*
X0012165Y0113342D01*
X0012057Y0113441D01*
X0011952Y0113543D01*
X0011850Y0113648D01*
X0011751Y0113756D01*
X0011654Y0113867D01*
X0011561Y0113980D01*
X0011471Y0114095D01*
X0011384Y0114213D01*
X0011300Y0114333D01*
X0011219Y0114456D01*
X0011142Y0114580D01*
X0011068Y0114707D01*
X0010998Y0114836D01*
X0010931Y0114966D01*
X0010867Y0115098D01*
X0010808Y0115232D01*
X0010751Y0115367D01*
X0010699Y0115504D01*
X0010650Y0115643D01*
X0010605Y0115782D01*
X0010564Y0115923D01*
X0010527Y0116065D01*
X0010494Y0116207D01*
X0010464Y0116351D01*
X0010438Y0116495D01*
X0010417Y0116640D01*
X0010399Y0116786D01*
X0010385Y0116932D01*
X0010375Y0117078D01*
X0010369Y0117224D01*
X0010367Y0117371D01*
X0238713Y0117371D02*
X0238715Y0117518D01*
X0238721Y0117664D01*
X0238731Y0117810D01*
X0238745Y0117956D01*
X0238763Y0118102D01*
X0238784Y0118247D01*
X0238810Y0118391D01*
X0238840Y0118535D01*
X0238873Y0118677D01*
X0238910Y0118819D01*
X0238951Y0118960D01*
X0238996Y0119099D01*
X0239045Y0119238D01*
X0239097Y0119375D01*
X0239154Y0119510D01*
X0239213Y0119644D01*
X0239277Y0119776D01*
X0239344Y0119906D01*
X0239414Y0120035D01*
X0239488Y0120162D01*
X0239565Y0120286D01*
X0239646Y0120409D01*
X0239730Y0120529D01*
X0239817Y0120647D01*
X0239907Y0120762D01*
X0240000Y0120875D01*
X0240097Y0120986D01*
X0240196Y0121094D01*
X0240298Y0121199D01*
X0240403Y0121301D01*
X0240511Y0121400D01*
X0240622Y0121497D01*
X0240735Y0121590D01*
X0240850Y0121680D01*
X0240968Y0121767D01*
X0241088Y0121851D01*
X0241211Y0121932D01*
X0241335Y0122009D01*
X0241462Y0122083D01*
X0241591Y0122153D01*
X0241721Y0122220D01*
X0241853Y0122284D01*
X0241987Y0122343D01*
X0242122Y0122400D01*
X0242259Y0122452D01*
X0242398Y0122501D01*
X0242537Y0122546D01*
X0242678Y0122587D01*
X0242820Y0122624D01*
X0242962Y0122657D01*
X0243106Y0122687D01*
X0243250Y0122713D01*
X0243395Y0122734D01*
X0243541Y0122752D01*
X0243687Y0122766D01*
X0243833Y0122776D01*
X0243979Y0122782D01*
X0244126Y0122784D01*
X0244273Y0122782D01*
X0244419Y0122776D01*
X0244565Y0122766D01*
X0244711Y0122752D01*
X0244857Y0122734D01*
X0245002Y0122713D01*
X0245146Y0122687D01*
X0245290Y0122657D01*
X0245432Y0122624D01*
X0245574Y0122587D01*
X0245715Y0122546D01*
X0245854Y0122501D01*
X0245993Y0122452D01*
X0246130Y0122400D01*
X0246265Y0122343D01*
X0246399Y0122284D01*
X0246531Y0122220D01*
X0246661Y0122153D01*
X0246790Y0122083D01*
X0246917Y0122009D01*
X0247041Y0121932D01*
X0247164Y0121851D01*
X0247284Y0121767D01*
X0247402Y0121680D01*
X0247517Y0121590D01*
X0247630Y0121497D01*
X0247741Y0121400D01*
X0247849Y0121301D01*
X0247954Y0121199D01*
X0248056Y0121094D01*
X0248155Y0120986D01*
X0248252Y0120875D01*
X0248345Y0120762D01*
X0248435Y0120647D01*
X0248522Y0120529D01*
X0248606Y0120409D01*
X0248687Y0120286D01*
X0248764Y0120162D01*
X0248838Y0120035D01*
X0248908Y0119906D01*
X0248975Y0119776D01*
X0249039Y0119644D01*
X0249098Y0119510D01*
X0249155Y0119375D01*
X0249207Y0119238D01*
X0249256Y0119099D01*
X0249301Y0118960D01*
X0249342Y0118819D01*
X0249379Y0118677D01*
X0249412Y0118535D01*
X0249442Y0118391D01*
X0249468Y0118247D01*
X0249489Y0118102D01*
X0249507Y0117956D01*
X0249521Y0117810D01*
X0249531Y0117664D01*
X0249537Y0117518D01*
X0249539Y0117371D01*
X0249537Y0117224D01*
X0249531Y0117078D01*
X0249521Y0116932D01*
X0249507Y0116786D01*
X0249489Y0116640D01*
X0249468Y0116495D01*
X0249442Y0116351D01*
X0249412Y0116207D01*
X0249379Y0116065D01*
X0249342Y0115923D01*
X0249301Y0115782D01*
X0249256Y0115643D01*
X0249207Y0115504D01*
X0249155Y0115367D01*
X0249098Y0115232D01*
X0249039Y0115098D01*
X0248975Y0114966D01*
X0248908Y0114836D01*
X0248838Y0114707D01*
X0248764Y0114580D01*
X0248687Y0114456D01*
X0248606Y0114333D01*
X0248522Y0114213D01*
X0248435Y0114095D01*
X0248345Y0113980D01*
X0248252Y0113867D01*
X0248155Y0113756D01*
X0248056Y0113648D01*
X0247954Y0113543D01*
X0247849Y0113441D01*
X0247741Y0113342D01*
X0247630Y0113245D01*
X0247517Y0113152D01*
X0247402Y0113062D01*
X0247284Y0112975D01*
X0247164Y0112891D01*
X0247041Y0112810D01*
X0246917Y0112733D01*
X0246790Y0112659D01*
X0246661Y0112589D01*
X0246531Y0112522D01*
X0246399Y0112458D01*
X0246265Y0112399D01*
X0246130Y0112342D01*
X0245993Y0112290D01*
X0245854Y0112241D01*
X0245715Y0112196D01*
X0245574Y0112155D01*
X0245432Y0112118D01*
X0245290Y0112085D01*
X0245146Y0112055D01*
X0245002Y0112029D01*
X0244857Y0112008D01*
X0244711Y0111990D01*
X0244565Y0111976D01*
X0244419Y0111966D01*
X0244273Y0111960D01*
X0244126Y0111958D01*
X0243979Y0111960D01*
X0243833Y0111966D01*
X0243687Y0111976D01*
X0243541Y0111990D01*
X0243395Y0112008D01*
X0243250Y0112029D01*
X0243106Y0112055D01*
X0242962Y0112085D01*
X0242820Y0112118D01*
X0242678Y0112155D01*
X0242537Y0112196D01*
X0242398Y0112241D01*
X0242259Y0112290D01*
X0242122Y0112342D01*
X0241987Y0112399D01*
X0241853Y0112458D01*
X0241721Y0112522D01*
X0241591Y0112589D01*
X0241462Y0112659D01*
X0241335Y0112733D01*
X0241211Y0112810D01*
X0241088Y0112891D01*
X0240968Y0112975D01*
X0240850Y0113062D01*
X0240735Y0113152D01*
X0240622Y0113245D01*
X0240511Y0113342D01*
X0240403Y0113441D01*
X0240298Y0113543D01*
X0240196Y0113648D01*
X0240097Y0113756D01*
X0240000Y0113867D01*
X0239907Y0113980D01*
X0239817Y0114095D01*
X0239730Y0114213D01*
X0239646Y0114333D01*
X0239565Y0114456D01*
X0239488Y0114580D01*
X0239414Y0114707D01*
X0239344Y0114836D01*
X0239277Y0114966D01*
X0239213Y0115098D01*
X0239154Y0115232D01*
X0239097Y0115367D01*
X0239045Y0115504D01*
X0238996Y0115643D01*
X0238951Y0115782D01*
X0238910Y0115923D01*
X0238873Y0116065D01*
X0238840Y0116207D01*
X0238810Y0116351D01*
X0238784Y0116495D01*
X0238763Y0116640D01*
X0238745Y0116786D01*
X0238731Y0116932D01*
X0238721Y0117078D01*
X0238715Y0117224D01*
X0238713Y0117371D01*
X0238713Y0026820D02*
X0238715Y0026967D01*
X0238721Y0027113D01*
X0238731Y0027259D01*
X0238745Y0027405D01*
X0238763Y0027551D01*
X0238784Y0027696D01*
X0238810Y0027840D01*
X0238840Y0027984D01*
X0238873Y0028126D01*
X0238910Y0028268D01*
X0238951Y0028409D01*
X0238996Y0028548D01*
X0239045Y0028687D01*
X0239097Y0028824D01*
X0239154Y0028959D01*
X0239213Y0029093D01*
X0239277Y0029225D01*
X0239344Y0029355D01*
X0239414Y0029484D01*
X0239488Y0029611D01*
X0239565Y0029735D01*
X0239646Y0029858D01*
X0239730Y0029978D01*
X0239817Y0030096D01*
X0239907Y0030211D01*
X0240000Y0030324D01*
X0240097Y0030435D01*
X0240196Y0030543D01*
X0240298Y0030648D01*
X0240403Y0030750D01*
X0240511Y0030849D01*
X0240622Y0030946D01*
X0240735Y0031039D01*
X0240850Y0031129D01*
X0240968Y0031216D01*
X0241088Y0031300D01*
X0241211Y0031381D01*
X0241335Y0031458D01*
X0241462Y0031532D01*
X0241591Y0031602D01*
X0241721Y0031669D01*
X0241853Y0031733D01*
X0241987Y0031792D01*
X0242122Y0031849D01*
X0242259Y0031901D01*
X0242398Y0031950D01*
X0242537Y0031995D01*
X0242678Y0032036D01*
X0242820Y0032073D01*
X0242962Y0032106D01*
X0243106Y0032136D01*
X0243250Y0032162D01*
X0243395Y0032183D01*
X0243541Y0032201D01*
X0243687Y0032215D01*
X0243833Y0032225D01*
X0243979Y0032231D01*
X0244126Y0032233D01*
X0244273Y0032231D01*
X0244419Y0032225D01*
X0244565Y0032215D01*
X0244711Y0032201D01*
X0244857Y0032183D01*
X0245002Y0032162D01*
X0245146Y0032136D01*
X0245290Y0032106D01*
X0245432Y0032073D01*
X0245574Y0032036D01*
X0245715Y0031995D01*
X0245854Y0031950D01*
X0245993Y0031901D01*
X0246130Y0031849D01*
X0246265Y0031792D01*
X0246399Y0031733D01*
X0246531Y0031669D01*
X0246661Y0031602D01*
X0246790Y0031532D01*
X0246917Y0031458D01*
X0247041Y0031381D01*
X0247164Y0031300D01*
X0247284Y0031216D01*
X0247402Y0031129D01*
X0247517Y0031039D01*
X0247630Y0030946D01*
X0247741Y0030849D01*
X0247849Y0030750D01*
X0247954Y0030648D01*
X0248056Y0030543D01*
X0248155Y0030435D01*
X0248252Y0030324D01*
X0248345Y0030211D01*
X0248435Y0030096D01*
X0248522Y0029978D01*
X0248606Y0029858D01*
X0248687Y0029735D01*
X0248764Y0029611D01*
X0248838Y0029484D01*
X0248908Y0029355D01*
X0248975Y0029225D01*
X0249039Y0029093D01*
X0249098Y0028959D01*
X0249155Y0028824D01*
X0249207Y0028687D01*
X0249256Y0028548D01*
X0249301Y0028409D01*
X0249342Y0028268D01*
X0249379Y0028126D01*
X0249412Y0027984D01*
X0249442Y0027840D01*
X0249468Y0027696D01*
X0249489Y0027551D01*
X0249507Y0027405D01*
X0249521Y0027259D01*
X0249531Y0027113D01*
X0249537Y0026967D01*
X0249539Y0026820D01*
X0249537Y0026673D01*
X0249531Y0026527D01*
X0249521Y0026381D01*
X0249507Y0026235D01*
X0249489Y0026089D01*
X0249468Y0025944D01*
X0249442Y0025800D01*
X0249412Y0025656D01*
X0249379Y0025514D01*
X0249342Y0025372D01*
X0249301Y0025231D01*
X0249256Y0025092D01*
X0249207Y0024953D01*
X0249155Y0024816D01*
X0249098Y0024681D01*
X0249039Y0024547D01*
X0248975Y0024415D01*
X0248908Y0024285D01*
X0248838Y0024156D01*
X0248764Y0024029D01*
X0248687Y0023905D01*
X0248606Y0023782D01*
X0248522Y0023662D01*
X0248435Y0023544D01*
X0248345Y0023429D01*
X0248252Y0023316D01*
X0248155Y0023205D01*
X0248056Y0023097D01*
X0247954Y0022992D01*
X0247849Y0022890D01*
X0247741Y0022791D01*
X0247630Y0022694D01*
X0247517Y0022601D01*
X0247402Y0022511D01*
X0247284Y0022424D01*
X0247164Y0022340D01*
X0247041Y0022259D01*
X0246917Y0022182D01*
X0246790Y0022108D01*
X0246661Y0022038D01*
X0246531Y0021971D01*
X0246399Y0021907D01*
X0246265Y0021848D01*
X0246130Y0021791D01*
X0245993Y0021739D01*
X0245854Y0021690D01*
X0245715Y0021645D01*
X0245574Y0021604D01*
X0245432Y0021567D01*
X0245290Y0021534D01*
X0245146Y0021504D01*
X0245002Y0021478D01*
X0244857Y0021457D01*
X0244711Y0021439D01*
X0244565Y0021425D01*
X0244419Y0021415D01*
X0244273Y0021409D01*
X0244126Y0021407D01*
X0243979Y0021409D01*
X0243833Y0021415D01*
X0243687Y0021425D01*
X0243541Y0021439D01*
X0243395Y0021457D01*
X0243250Y0021478D01*
X0243106Y0021504D01*
X0242962Y0021534D01*
X0242820Y0021567D01*
X0242678Y0021604D01*
X0242537Y0021645D01*
X0242398Y0021690D01*
X0242259Y0021739D01*
X0242122Y0021791D01*
X0241987Y0021848D01*
X0241853Y0021907D01*
X0241721Y0021971D01*
X0241591Y0022038D01*
X0241462Y0022108D01*
X0241335Y0022182D01*
X0241211Y0022259D01*
X0241088Y0022340D01*
X0240968Y0022424D01*
X0240850Y0022511D01*
X0240735Y0022601D01*
X0240622Y0022694D01*
X0240511Y0022791D01*
X0240403Y0022890D01*
X0240298Y0022992D01*
X0240196Y0023097D01*
X0240097Y0023205D01*
X0240000Y0023316D01*
X0239907Y0023429D01*
X0239817Y0023544D01*
X0239730Y0023662D01*
X0239646Y0023782D01*
X0239565Y0023905D01*
X0239488Y0024029D01*
X0239414Y0024156D01*
X0239344Y0024285D01*
X0239277Y0024415D01*
X0239213Y0024547D01*
X0239154Y0024681D01*
X0239097Y0024816D01*
X0239045Y0024953D01*
X0238996Y0025092D01*
X0238951Y0025231D01*
X0238910Y0025372D01*
X0238873Y0025514D01*
X0238840Y0025656D01*
X0238810Y0025800D01*
X0238784Y0025944D01*
X0238763Y0026089D01*
X0238745Y0026235D01*
X0238731Y0026381D01*
X0238721Y0026527D01*
X0238715Y0026673D01*
X0238713Y0026820D01*
M02*
