G75*
%MOIN*%
%OFA0B0*%
%FSLAX25Y25*%
%IPPOS*%
%LPD*%
%AMOC8*
5,1,8,0,0,1.08239X$1,22.5*
%
%ADD10C,0.00000*%
%ADD11OC8,0.06000*%
%ADD12R,0.05906X0.01181*%
%ADD13R,0.01181X0.05906*%
%ADD14C,0.02830*%
%ADD15OC8,0.10000*%
%ADD16OC8,0.06102*%
%ADD17R,0.01181X0.04724*%
%ADD18C,0.07400*%
%ADD19C,0.02000*%
%ADD20C,0.01000*%
%ADD21C,0.03169*%
%ADD22C,0.01200*%
D10*
X0014543Y0013041D02*
X0246827Y0013041D01*
X0247112Y0013044D01*
X0247398Y0013055D01*
X0247683Y0013072D01*
X0247967Y0013096D01*
X0248251Y0013127D01*
X0248534Y0013165D01*
X0248815Y0013210D01*
X0249096Y0013261D01*
X0249376Y0013319D01*
X0249654Y0013384D01*
X0249930Y0013456D01*
X0250204Y0013534D01*
X0250477Y0013619D01*
X0250747Y0013711D01*
X0251015Y0013809D01*
X0251281Y0013913D01*
X0251544Y0014024D01*
X0251804Y0014141D01*
X0252062Y0014264D01*
X0252316Y0014394D01*
X0252567Y0014530D01*
X0252815Y0014671D01*
X0253059Y0014819D01*
X0253300Y0014972D01*
X0253536Y0015132D01*
X0253769Y0015297D01*
X0253998Y0015467D01*
X0254223Y0015643D01*
X0254443Y0015825D01*
X0254659Y0016011D01*
X0254870Y0016203D01*
X0255077Y0016400D01*
X0255279Y0016602D01*
X0255476Y0016809D01*
X0255668Y0017020D01*
X0255854Y0017236D01*
X0256036Y0017456D01*
X0256212Y0017681D01*
X0256382Y0017910D01*
X0256547Y0018143D01*
X0256707Y0018379D01*
X0256860Y0018620D01*
X0257008Y0018864D01*
X0257149Y0019112D01*
X0257285Y0019363D01*
X0257415Y0019617D01*
X0257538Y0019875D01*
X0257655Y0020135D01*
X0257766Y0020398D01*
X0257870Y0020664D01*
X0257968Y0020932D01*
X0258060Y0021202D01*
X0258145Y0021475D01*
X0258223Y0021749D01*
X0258295Y0022025D01*
X0258360Y0022303D01*
X0258418Y0022583D01*
X0258469Y0022864D01*
X0258514Y0023145D01*
X0258552Y0023428D01*
X0258583Y0023712D01*
X0258607Y0023996D01*
X0258624Y0024281D01*
X0258635Y0024567D01*
X0258638Y0024852D01*
X0258638Y0119340D01*
X0258635Y0119625D01*
X0258624Y0119911D01*
X0258607Y0120196D01*
X0258583Y0120480D01*
X0258552Y0120764D01*
X0258514Y0121047D01*
X0258469Y0121328D01*
X0258418Y0121609D01*
X0258360Y0121889D01*
X0258295Y0122167D01*
X0258223Y0122443D01*
X0258145Y0122717D01*
X0258060Y0122990D01*
X0257968Y0123260D01*
X0257870Y0123528D01*
X0257766Y0123794D01*
X0257655Y0124057D01*
X0257538Y0124317D01*
X0257415Y0124575D01*
X0257285Y0124829D01*
X0257149Y0125080D01*
X0257008Y0125328D01*
X0256860Y0125572D01*
X0256707Y0125813D01*
X0256547Y0126049D01*
X0256382Y0126282D01*
X0256212Y0126511D01*
X0256036Y0126736D01*
X0255854Y0126956D01*
X0255668Y0127172D01*
X0255476Y0127383D01*
X0255279Y0127590D01*
X0255077Y0127792D01*
X0254870Y0127989D01*
X0254659Y0128181D01*
X0254443Y0128367D01*
X0254223Y0128549D01*
X0253998Y0128725D01*
X0253769Y0128895D01*
X0253536Y0129060D01*
X0253300Y0129220D01*
X0253059Y0129373D01*
X0252815Y0129521D01*
X0252567Y0129662D01*
X0252316Y0129798D01*
X0252062Y0129928D01*
X0251804Y0130051D01*
X0251544Y0130168D01*
X0251281Y0130279D01*
X0251015Y0130383D01*
X0250747Y0130481D01*
X0250477Y0130573D01*
X0250204Y0130658D01*
X0249930Y0130736D01*
X0249654Y0130808D01*
X0249376Y0130873D01*
X0249096Y0130931D01*
X0248815Y0130982D01*
X0248534Y0131027D01*
X0248251Y0131065D01*
X0247967Y0131096D01*
X0247683Y0131120D01*
X0247398Y0131137D01*
X0247112Y0131148D01*
X0246827Y0131151D01*
X0014543Y0131151D01*
X0014258Y0131148D01*
X0013972Y0131137D01*
X0013687Y0131120D01*
X0013403Y0131096D01*
X0013119Y0131065D01*
X0012836Y0131027D01*
X0012555Y0130982D01*
X0012274Y0130931D01*
X0011994Y0130873D01*
X0011716Y0130808D01*
X0011440Y0130736D01*
X0011166Y0130658D01*
X0010893Y0130573D01*
X0010623Y0130481D01*
X0010355Y0130383D01*
X0010089Y0130279D01*
X0009826Y0130168D01*
X0009566Y0130051D01*
X0009308Y0129928D01*
X0009054Y0129798D01*
X0008803Y0129662D01*
X0008555Y0129521D01*
X0008311Y0129373D01*
X0008070Y0129220D01*
X0007834Y0129060D01*
X0007601Y0128895D01*
X0007372Y0128725D01*
X0007147Y0128549D01*
X0006927Y0128367D01*
X0006711Y0128181D01*
X0006500Y0127989D01*
X0006293Y0127792D01*
X0006091Y0127590D01*
X0005894Y0127383D01*
X0005702Y0127172D01*
X0005516Y0126956D01*
X0005334Y0126736D01*
X0005158Y0126511D01*
X0004988Y0126282D01*
X0004823Y0126049D01*
X0004663Y0125813D01*
X0004510Y0125572D01*
X0004362Y0125328D01*
X0004221Y0125080D01*
X0004085Y0124829D01*
X0003955Y0124575D01*
X0003832Y0124317D01*
X0003715Y0124057D01*
X0003604Y0123794D01*
X0003500Y0123528D01*
X0003402Y0123260D01*
X0003310Y0122990D01*
X0003225Y0122717D01*
X0003147Y0122443D01*
X0003075Y0122167D01*
X0003010Y0121889D01*
X0002952Y0121609D01*
X0002901Y0121328D01*
X0002856Y0121047D01*
X0002818Y0120764D01*
X0002787Y0120480D01*
X0002763Y0120196D01*
X0002746Y0119911D01*
X0002735Y0119625D01*
X0002732Y0119340D01*
X0002732Y0024852D01*
X0002735Y0024567D01*
X0002746Y0024281D01*
X0002763Y0023996D01*
X0002787Y0023712D01*
X0002818Y0023428D01*
X0002856Y0023145D01*
X0002901Y0022864D01*
X0002952Y0022583D01*
X0003010Y0022303D01*
X0003075Y0022025D01*
X0003147Y0021749D01*
X0003225Y0021475D01*
X0003310Y0021202D01*
X0003402Y0020932D01*
X0003500Y0020664D01*
X0003604Y0020398D01*
X0003715Y0020135D01*
X0003832Y0019875D01*
X0003955Y0019617D01*
X0004085Y0019363D01*
X0004221Y0019112D01*
X0004362Y0018864D01*
X0004510Y0018620D01*
X0004663Y0018379D01*
X0004823Y0018143D01*
X0004988Y0017910D01*
X0005158Y0017681D01*
X0005334Y0017456D01*
X0005516Y0017236D01*
X0005702Y0017020D01*
X0005894Y0016809D01*
X0006091Y0016602D01*
X0006293Y0016400D01*
X0006500Y0016203D01*
X0006711Y0016011D01*
X0006927Y0015825D01*
X0007147Y0015643D01*
X0007372Y0015467D01*
X0007601Y0015297D01*
X0007834Y0015132D01*
X0008070Y0014972D01*
X0008311Y0014819D01*
X0008555Y0014671D01*
X0008803Y0014530D01*
X0009054Y0014394D01*
X0009308Y0014264D01*
X0009566Y0014141D01*
X0009826Y0014024D01*
X0010089Y0013913D01*
X0010355Y0013809D01*
X0010623Y0013711D01*
X0010893Y0013619D01*
X0011166Y0013534D01*
X0011440Y0013456D01*
X0011716Y0013384D01*
X0011994Y0013319D01*
X0012274Y0013261D01*
X0012555Y0013210D01*
X0012836Y0013165D01*
X0013119Y0013127D01*
X0013403Y0013096D01*
X0013687Y0013072D01*
X0013972Y0013055D01*
X0014258Y0013044D01*
X0014543Y0013041D01*
X0011099Y0026820D02*
X0011101Y0026967D01*
X0011107Y0027113D01*
X0011117Y0027259D01*
X0011131Y0027405D01*
X0011149Y0027551D01*
X0011170Y0027696D01*
X0011196Y0027840D01*
X0011226Y0027984D01*
X0011259Y0028126D01*
X0011296Y0028268D01*
X0011337Y0028409D01*
X0011382Y0028548D01*
X0011431Y0028687D01*
X0011483Y0028824D01*
X0011540Y0028959D01*
X0011599Y0029093D01*
X0011663Y0029225D01*
X0011730Y0029355D01*
X0011800Y0029484D01*
X0011874Y0029611D01*
X0011951Y0029735D01*
X0012032Y0029858D01*
X0012116Y0029978D01*
X0012203Y0030096D01*
X0012293Y0030211D01*
X0012386Y0030324D01*
X0012483Y0030435D01*
X0012582Y0030543D01*
X0012684Y0030648D01*
X0012789Y0030750D01*
X0012897Y0030849D01*
X0013008Y0030946D01*
X0013121Y0031039D01*
X0013236Y0031129D01*
X0013354Y0031216D01*
X0013474Y0031300D01*
X0013597Y0031381D01*
X0013721Y0031458D01*
X0013848Y0031532D01*
X0013977Y0031602D01*
X0014107Y0031669D01*
X0014239Y0031733D01*
X0014373Y0031792D01*
X0014508Y0031849D01*
X0014645Y0031901D01*
X0014784Y0031950D01*
X0014923Y0031995D01*
X0015064Y0032036D01*
X0015206Y0032073D01*
X0015348Y0032106D01*
X0015492Y0032136D01*
X0015636Y0032162D01*
X0015781Y0032183D01*
X0015927Y0032201D01*
X0016073Y0032215D01*
X0016219Y0032225D01*
X0016365Y0032231D01*
X0016512Y0032233D01*
X0016659Y0032231D01*
X0016805Y0032225D01*
X0016951Y0032215D01*
X0017097Y0032201D01*
X0017243Y0032183D01*
X0017388Y0032162D01*
X0017532Y0032136D01*
X0017676Y0032106D01*
X0017818Y0032073D01*
X0017960Y0032036D01*
X0018101Y0031995D01*
X0018240Y0031950D01*
X0018379Y0031901D01*
X0018516Y0031849D01*
X0018651Y0031792D01*
X0018785Y0031733D01*
X0018917Y0031669D01*
X0019047Y0031602D01*
X0019176Y0031532D01*
X0019303Y0031458D01*
X0019427Y0031381D01*
X0019550Y0031300D01*
X0019670Y0031216D01*
X0019788Y0031129D01*
X0019903Y0031039D01*
X0020016Y0030946D01*
X0020127Y0030849D01*
X0020235Y0030750D01*
X0020340Y0030648D01*
X0020442Y0030543D01*
X0020541Y0030435D01*
X0020638Y0030324D01*
X0020731Y0030211D01*
X0020821Y0030096D01*
X0020908Y0029978D01*
X0020992Y0029858D01*
X0021073Y0029735D01*
X0021150Y0029611D01*
X0021224Y0029484D01*
X0021294Y0029355D01*
X0021361Y0029225D01*
X0021425Y0029093D01*
X0021484Y0028959D01*
X0021541Y0028824D01*
X0021593Y0028687D01*
X0021642Y0028548D01*
X0021687Y0028409D01*
X0021728Y0028268D01*
X0021765Y0028126D01*
X0021798Y0027984D01*
X0021828Y0027840D01*
X0021854Y0027696D01*
X0021875Y0027551D01*
X0021893Y0027405D01*
X0021907Y0027259D01*
X0021917Y0027113D01*
X0021923Y0026967D01*
X0021925Y0026820D01*
X0021923Y0026673D01*
X0021917Y0026527D01*
X0021907Y0026381D01*
X0021893Y0026235D01*
X0021875Y0026089D01*
X0021854Y0025944D01*
X0021828Y0025800D01*
X0021798Y0025656D01*
X0021765Y0025514D01*
X0021728Y0025372D01*
X0021687Y0025231D01*
X0021642Y0025092D01*
X0021593Y0024953D01*
X0021541Y0024816D01*
X0021484Y0024681D01*
X0021425Y0024547D01*
X0021361Y0024415D01*
X0021294Y0024285D01*
X0021224Y0024156D01*
X0021150Y0024029D01*
X0021073Y0023905D01*
X0020992Y0023782D01*
X0020908Y0023662D01*
X0020821Y0023544D01*
X0020731Y0023429D01*
X0020638Y0023316D01*
X0020541Y0023205D01*
X0020442Y0023097D01*
X0020340Y0022992D01*
X0020235Y0022890D01*
X0020127Y0022791D01*
X0020016Y0022694D01*
X0019903Y0022601D01*
X0019788Y0022511D01*
X0019670Y0022424D01*
X0019550Y0022340D01*
X0019427Y0022259D01*
X0019303Y0022182D01*
X0019176Y0022108D01*
X0019047Y0022038D01*
X0018917Y0021971D01*
X0018785Y0021907D01*
X0018651Y0021848D01*
X0018516Y0021791D01*
X0018379Y0021739D01*
X0018240Y0021690D01*
X0018101Y0021645D01*
X0017960Y0021604D01*
X0017818Y0021567D01*
X0017676Y0021534D01*
X0017532Y0021504D01*
X0017388Y0021478D01*
X0017243Y0021457D01*
X0017097Y0021439D01*
X0016951Y0021425D01*
X0016805Y0021415D01*
X0016659Y0021409D01*
X0016512Y0021407D01*
X0016365Y0021409D01*
X0016219Y0021415D01*
X0016073Y0021425D01*
X0015927Y0021439D01*
X0015781Y0021457D01*
X0015636Y0021478D01*
X0015492Y0021504D01*
X0015348Y0021534D01*
X0015206Y0021567D01*
X0015064Y0021604D01*
X0014923Y0021645D01*
X0014784Y0021690D01*
X0014645Y0021739D01*
X0014508Y0021791D01*
X0014373Y0021848D01*
X0014239Y0021907D01*
X0014107Y0021971D01*
X0013977Y0022038D01*
X0013848Y0022108D01*
X0013721Y0022182D01*
X0013597Y0022259D01*
X0013474Y0022340D01*
X0013354Y0022424D01*
X0013236Y0022511D01*
X0013121Y0022601D01*
X0013008Y0022694D01*
X0012897Y0022791D01*
X0012789Y0022890D01*
X0012684Y0022992D01*
X0012582Y0023097D01*
X0012483Y0023205D01*
X0012386Y0023316D01*
X0012293Y0023429D01*
X0012203Y0023544D01*
X0012116Y0023662D01*
X0012032Y0023782D01*
X0011951Y0023905D01*
X0011874Y0024029D01*
X0011800Y0024156D01*
X0011730Y0024285D01*
X0011663Y0024415D01*
X0011599Y0024547D01*
X0011540Y0024681D01*
X0011483Y0024816D01*
X0011431Y0024953D01*
X0011382Y0025092D01*
X0011337Y0025231D01*
X0011296Y0025372D01*
X0011259Y0025514D01*
X0011226Y0025656D01*
X0011196Y0025800D01*
X0011170Y0025944D01*
X0011149Y0026089D01*
X0011131Y0026235D01*
X0011117Y0026381D01*
X0011107Y0026527D01*
X0011101Y0026673D01*
X0011099Y0026820D01*
X0011099Y0117371D02*
X0011101Y0117518D01*
X0011107Y0117664D01*
X0011117Y0117810D01*
X0011131Y0117956D01*
X0011149Y0118102D01*
X0011170Y0118247D01*
X0011196Y0118391D01*
X0011226Y0118535D01*
X0011259Y0118677D01*
X0011296Y0118819D01*
X0011337Y0118960D01*
X0011382Y0119099D01*
X0011431Y0119238D01*
X0011483Y0119375D01*
X0011540Y0119510D01*
X0011599Y0119644D01*
X0011663Y0119776D01*
X0011730Y0119906D01*
X0011800Y0120035D01*
X0011874Y0120162D01*
X0011951Y0120286D01*
X0012032Y0120409D01*
X0012116Y0120529D01*
X0012203Y0120647D01*
X0012293Y0120762D01*
X0012386Y0120875D01*
X0012483Y0120986D01*
X0012582Y0121094D01*
X0012684Y0121199D01*
X0012789Y0121301D01*
X0012897Y0121400D01*
X0013008Y0121497D01*
X0013121Y0121590D01*
X0013236Y0121680D01*
X0013354Y0121767D01*
X0013474Y0121851D01*
X0013597Y0121932D01*
X0013721Y0122009D01*
X0013848Y0122083D01*
X0013977Y0122153D01*
X0014107Y0122220D01*
X0014239Y0122284D01*
X0014373Y0122343D01*
X0014508Y0122400D01*
X0014645Y0122452D01*
X0014784Y0122501D01*
X0014923Y0122546D01*
X0015064Y0122587D01*
X0015206Y0122624D01*
X0015348Y0122657D01*
X0015492Y0122687D01*
X0015636Y0122713D01*
X0015781Y0122734D01*
X0015927Y0122752D01*
X0016073Y0122766D01*
X0016219Y0122776D01*
X0016365Y0122782D01*
X0016512Y0122784D01*
X0016659Y0122782D01*
X0016805Y0122776D01*
X0016951Y0122766D01*
X0017097Y0122752D01*
X0017243Y0122734D01*
X0017388Y0122713D01*
X0017532Y0122687D01*
X0017676Y0122657D01*
X0017818Y0122624D01*
X0017960Y0122587D01*
X0018101Y0122546D01*
X0018240Y0122501D01*
X0018379Y0122452D01*
X0018516Y0122400D01*
X0018651Y0122343D01*
X0018785Y0122284D01*
X0018917Y0122220D01*
X0019047Y0122153D01*
X0019176Y0122083D01*
X0019303Y0122009D01*
X0019427Y0121932D01*
X0019550Y0121851D01*
X0019670Y0121767D01*
X0019788Y0121680D01*
X0019903Y0121590D01*
X0020016Y0121497D01*
X0020127Y0121400D01*
X0020235Y0121301D01*
X0020340Y0121199D01*
X0020442Y0121094D01*
X0020541Y0120986D01*
X0020638Y0120875D01*
X0020731Y0120762D01*
X0020821Y0120647D01*
X0020908Y0120529D01*
X0020992Y0120409D01*
X0021073Y0120286D01*
X0021150Y0120162D01*
X0021224Y0120035D01*
X0021294Y0119906D01*
X0021361Y0119776D01*
X0021425Y0119644D01*
X0021484Y0119510D01*
X0021541Y0119375D01*
X0021593Y0119238D01*
X0021642Y0119099D01*
X0021687Y0118960D01*
X0021728Y0118819D01*
X0021765Y0118677D01*
X0021798Y0118535D01*
X0021828Y0118391D01*
X0021854Y0118247D01*
X0021875Y0118102D01*
X0021893Y0117956D01*
X0021907Y0117810D01*
X0021917Y0117664D01*
X0021923Y0117518D01*
X0021925Y0117371D01*
X0021923Y0117224D01*
X0021917Y0117078D01*
X0021907Y0116932D01*
X0021893Y0116786D01*
X0021875Y0116640D01*
X0021854Y0116495D01*
X0021828Y0116351D01*
X0021798Y0116207D01*
X0021765Y0116065D01*
X0021728Y0115923D01*
X0021687Y0115782D01*
X0021642Y0115643D01*
X0021593Y0115504D01*
X0021541Y0115367D01*
X0021484Y0115232D01*
X0021425Y0115098D01*
X0021361Y0114966D01*
X0021294Y0114836D01*
X0021224Y0114707D01*
X0021150Y0114580D01*
X0021073Y0114456D01*
X0020992Y0114333D01*
X0020908Y0114213D01*
X0020821Y0114095D01*
X0020731Y0113980D01*
X0020638Y0113867D01*
X0020541Y0113756D01*
X0020442Y0113648D01*
X0020340Y0113543D01*
X0020235Y0113441D01*
X0020127Y0113342D01*
X0020016Y0113245D01*
X0019903Y0113152D01*
X0019788Y0113062D01*
X0019670Y0112975D01*
X0019550Y0112891D01*
X0019427Y0112810D01*
X0019303Y0112733D01*
X0019176Y0112659D01*
X0019047Y0112589D01*
X0018917Y0112522D01*
X0018785Y0112458D01*
X0018651Y0112399D01*
X0018516Y0112342D01*
X0018379Y0112290D01*
X0018240Y0112241D01*
X0018101Y0112196D01*
X0017960Y0112155D01*
X0017818Y0112118D01*
X0017676Y0112085D01*
X0017532Y0112055D01*
X0017388Y0112029D01*
X0017243Y0112008D01*
X0017097Y0111990D01*
X0016951Y0111976D01*
X0016805Y0111966D01*
X0016659Y0111960D01*
X0016512Y0111958D01*
X0016365Y0111960D01*
X0016219Y0111966D01*
X0016073Y0111976D01*
X0015927Y0111990D01*
X0015781Y0112008D01*
X0015636Y0112029D01*
X0015492Y0112055D01*
X0015348Y0112085D01*
X0015206Y0112118D01*
X0015064Y0112155D01*
X0014923Y0112196D01*
X0014784Y0112241D01*
X0014645Y0112290D01*
X0014508Y0112342D01*
X0014373Y0112399D01*
X0014239Y0112458D01*
X0014107Y0112522D01*
X0013977Y0112589D01*
X0013848Y0112659D01*
X0013721Y0112733D01*
X0013597Y0112810D01*
X0013474Y0112891D01*
X0013354Y0112975D01*
X0013236Y0113062D01*
X0013121Y0113152D01*
X0013008Y0113245D01*
X0012897Y0113342D01*
X0012789Y0113441D01*
X0012684Y0113543D01*
X0012582Y0113648D01*
X0012483Y0113756D01*
X0012386Y0113867D01*
X0012293Y0113980D01*
X0012203Y0114095D01*
X0012116Y0114213D01*
X0012032Y0114333D01*
X0011951Y0114456D01*
X0011874Y0114580D01*
X0011800Y0114707D01*
X0011730Y0114836D01*
X0011663Y0114966D01*
X0011599Y0115098D01*
X0011540Y0115232D01*
X0011483Y0115367D01*
X0011431Y0115504D01*
X0011382Y0115643D01*
X0011337Y0115782D01*
X0011296Y0115923D01*
X0011259Y0116065D01*
X0011226Y0116207D01*
X0011196Y0116351D01*
X0011170Y0116495D01*
X0011149Y0116640D01*
X0011131Y0116786D01*
X0011117Y0116932D01*
X0011107Y0117078D01*
X0011101Y0117224D01*
X0011099Y0117371D01*
X0239445Y0117371D02*
X0239447Y0117518D01*
X0239453Y0117664D01*
X0239463Y0117810D01*
X0239477Y0117956D01*
X0239495Y0118102D01*
X0239516Y0118247D01*
X0239542Y0118391D01*
X0239572Y0118535D01*
X0239605Y0118677D01*
X0239642Y0118819D01*
X0239683Y0118960D01*
X0239728Y0119099D01*
X0239777Y0119238D01*
X0239829Y0119375D01*
X0239886Y0119510D01*
X0239945Y0119644D01*
X0240009Y0119776D01*
X0240076Y0119906D01*
X0240146Y0120035D01*
X0240220Y0120162D01*
X0240297Y0120286D01*
X0240378Y0120409D01*
X0240462Y0120529D01*
X0240549Y0120647D01*
X0240639Y0120762D01*
X0240732Y0120875D01*
X0240829Y0120986D01*
X0240928Y0121094D01*
X0241030Y0121199D01*
X0241135Y0121301D01*
X0241243Y0121400D01*
X0241354Y0121497D01*
X0241467Y0121590D01*
X0241582Y0121680D01*
X0241700Y0121767D01*
X0241820Y0121851D01*
X0241943Y0121932D01*
X0242067Y0122009D01*
X0242194Y0122083D01*
X0242323Y0122153D01*
X0242453Y0122220D01*
X0242585Y0122284D01*
X0242719Y0122343D01*
X0242854Y0122400D01*
X0242991Y0122452D01*
X0243130Y0122501D01*
X0243269Y0122546D01*
X0243410Y0122587D01*
X0243552Y0122624D01*
X0243694Y0122657D01*
X0243838Y0122687D01*
X0243982Y0122713D01*
X0244127Y0122734D01*
X0244273Y0122752D01*
X0244419Y0122766D01*
X0244565Y0122776D01*
X0244711Y0122782D01*
X0244858Y0122784D01*
X0245005Y0122782D01*
X0245151Y0122776D01*
X0245297Y0122766D01*
X0245443Y0122752D01*
X0245589Y0122734D01*
X0245734Y0122713D01*
X0245878Y0122687D01*
X0246022Y0122657D01*
X0246164Y0122624D01*
X0246306Y0122587D01*
X0246447Y0122546D01*
X0246586Y0122501D01*
X0246725Y0122452D01*
X0246862Y0122400D01*
X0246997Y0122343D01*
X0247131Y0122284D01*
X0247263Y0122220D01*
X0247393Y0122153D01*
X0247522Y0122083D01*
X0247649Y0122009D01*
X0247773Y0121932D01*
X0247896Y0121851D01*
X0248016Y0121767D01*
X0248134Y0121680D01*
X0248249Y0121590D01*
X0248362Y0121497D01*
X0248473Y0121400D01*
X0248581Y0121301D01*
X0248686Y0121199D01*
X0248788Y0121094D01*
X0248887Y0120986D01*
X0248984Y0120875D01*
X0249077Y0120762D01*
X0249167Y0120647D01*
X0249254Y0120529D01*
X0249338Y0120409D01*
X0249419Y0120286D01*
X0249496Y0120162D01*
X0249570Y0120035D01*
X0249640Y0119906D01*
X0249707Y0119776D01*
X0249771Y0119644D01*
X0249830Y0119510D01*
X0249887Y0119375D01*
X0249939Y0119238D01*
X0249988Y0119099D01*
X0250033Y0118960D01*
X0250074Y0118819D01*
X0250111Y0118677D01*
X0250144Y0118535D01*
X0250174Y0118391D01*
X0250200Y0118247D01*
X0250221Y0118102D01*
X0250239Y0117956D01*
X0250253Y0117810D01*
X0250263Y0117664D01*
X0250269Y0117518D01*
X0250271Y0117371D01*
X0250269Y0117224D01*
X0250263Y0117078D01*
X0250253Y0116932D01*
X0250239Y0116786D01*
X0250221Y0116640D01*
X0250200Y0116495D01*
X0250174Y0116351D01*
X0250144Y0116207D01*
X0250111Y0116065D01*
X0250074Y0115923D01*
X0250033Y0115782D01*
X0249988Y0115643D01*
X0249939Y0115504D01*
X0249887Y0115367D01*
X0249830Y0115232D01*
X0249771Y0115098D01*
X0249707Y0114966D01*
X0249640Y0114836D01*
X0249570Y0114707D01*
X0249496Y0114580D01*
X0249419Y0114456D01*
X0249338Y0114333D01*
X0249254Y0114213D01*
X0249167Y0114095D01*
X0249077Y0113980D01*
X0248984Y0113867D01*
X0248887Y0113756D01*
X0248788Y0113648D01*
X0248686Y0113543D01*
X0248581Y0113441D01*
X0248473Y0113342D01*
X0248362Y0113245D01*
X0248249Y0113152D01*
X0248134Y0113062D01*
X0248016Y0112975D01*
X0247896Y0112891D01*
X0247773Y0112810D01*
X0247649Y0112733D01*
X0247522Y0112659D01*
X0247393Y0112589D01*
X0247263Y0112522D01*
X0247131Y0112458D01*
X0246997Y0112399D01*
X0246862Y0112342D01*
X0246725Y0112290D01*
X0246586Y0112241D01*
X0246447Y0112196D01*
X0246306Y0112155D01*
X0246164Y0112118D01*
X0246022Y0112085D01*
X0245878Y0112055D01*
X0245734Y0112029D01*
X0245589Y0112008D01*
X0245443Y0111990D01*
X0245297Y0111976D01*
X0245151Y0111966D01*
X0245005Y0111960D01*
X0244858Y0111958D01*
X0244711Y0111960D01*
X0244565Y0111966D01*
X0244419Y0111976D01*
X0244273Y0111990D01*
X0244127Y0112008D01*
X0243982Y0112029D01*
X0243838Y0112055D01*
X0243694Y0112085D01*
X0243552Y0112118D01*
X0243410Y0112155D01*
X0243269Y0112196D01*
X0243130Y0112241D01*
X0242991Y0112290D01*
X0242854Y0112342D01*
X0242719Y0112399D01*
X0242585Y0112458D01*
X0242453Y0112522D01*
X0242323Y0112589D01*
X0242194Y0112659D01*
X0242067Y0112733D01*
X0241943Y0112810D01*
X0241820Y0112891D01*
X0241700Y0112975D01*
X0241582Y0113062D01*
X0241467Y0113152D01*
X0241354Y0113245D01*
X0241243Y0113342D01*
X0241135Y0113441D01*
X0241030Y0113543D01*
X0240928Y0113648D01*
X0240829Y0113756D01*
X0240732Y0113867D01*
X0240639Y0113980D01*
X0240549Y0114095D01*
X0240462Y0114213D01*
X0240378Y0114333D01*
X0240297Y0114456D01*
X0240220Y0114580D01*
X0240146Y0114707D01*
X0240076Y0114836D01*
X0240009Y0114966D01*
X0239945Y0115098D01*
X0239886Y0115232D01*
X0239829Y0115367D01*
X0239777Y0115504D01*
X0239728Y0115643D01*
X0239683Y0115782D01*
X0239642Y0115923D01*
X0239605Y0116065D01*
X0239572Y0116207D01*
X0239542Y0116351D01*
X0239516Y0116495D01*
X0239495Y0116640D01*
X0239477Y0116786D01*
X0239463Y0116932D01*
X0239453Y0117078D01*
X0239447Y0117224D01*
X0239445Y0117371D01*
X0239445Y0026820D02*
X0239447Y0026967D01*
X0239453Y0027113D01*
X0239463Y0027259D01*
X0239477Y0027405D01*
X0239495Y0027551D01*
X0239516Y0027696D01*
X0239542Y0027840D01*
X0239572Y0027984D01*
X0239605Y0028126D01*
X0239642Y0028268D01*
X0239683Y0028409D01*
X0239728Y0028548D01*
X0239777Y0028687D01*
X0239829Y0028824D01*
X0239886Y0028959D01*
X0239945Y0029093D01*
X0240009Y0029225D01*
X0240076Y0029355D01*
X0240146Y0029484D01*
X0240220Y0029611D01*
X0240297Y0029735D01*
X0240378Y0029858D01*
X0240462Y0029978D01*
X0240549Y0030096D01*
X0240639Y0030211D01*
X0240732Y0030324D01*
X0240829Y0030435D01*
X0240928Y0030543D01*
X0241030Y0030648D01*
X0241135Y0030750D01*
X0241243Y0030849D01*
X0241354Y0030946D01*
X0241467Y0031039D01*
X0241582Y0031129D01*
X0241700Y0031216D01*
X0241820Y0031300D01*
X0241943Y0031381D01*
X0242067Y0031458D01*
X0242194Y0031532D01*
X0242323Y0031602D01*
X0242453Y0031669D01*
X0242585Y0031733D01*
X0242719Y0031792D01*
X0242854Y0031849D01*
X0242991Y0031901D01*
X0243130Y0031950D01*
X0243269Y0031995D01*
X0243410Y0032036D01*
X0243552Y0032073D01*
X0243694Y0032106D01*
X0243838Y0032136D01*
X0243982Y0032162D01*
X0244127Y0032183D01*
X0244273Y0032201D01*
X0244419Y0032215D01*
X0244565Y0032225D01*
X0244711Y0032231D01*
X0244858Y0032233D01*
X0245005Y0032231D01*
X0245151Y0032225D01*
X0245297Y0032215D01*
X0245443Y0032201D01*
X0245589Y0032183D01*
X0245734Y0032162D01*
X0245878Y0032136D01*
X0246022Y0032106D01*
X0246164Y0032073D01*
X0246306Y0032036D01*
X0246447Y0031995D01*
X0246586Y0031950D01*
X0246725Y0031901D01*
X0246862Y0031849D01*
X0246997Y0031792D01*
X0247131Y0031733D01*
X0247263Y0031669D01*
X0247393Y0031602D01*
X0247522Y0031532D01*
X0247649Y0031458D01*
X0247773Y0031381D01*
X0247896Y0031300D01*
X0248016Y0031216D01*
X0248134Y0031129D01*
X0248249Y0031039D01*
X0248362Y0030946D01*
X0248473Y0030849D01*
X0248581Y0030750D01*
X0248686Y0030648D01*
X0248788Y0030543D01*
X0248887Y0030435D01*
X0248984Y0030324D01*
X0249077Y0030211D01*
X0249167Y0030096D01*
X0249254Y0029978D01*
X0249338Y0029858D01*
X0249419Y0029735D01*
X0249496Y0029611D01*
X0249570Y0029484D01*
X0249640Y0029355D01*
X0249707Y0029225D01*
X0249771Y0029093D01*
X0249830Y0028959D01*
X0249887Y0028824D01*
X0249939Y0028687D01*
X0249988Y0028548D01*
X0250033Y0028409D01*
X0250074Y0028268D01*
X0250111Y0028126D01*
X0250144Y0027984D01*
X0250174Y0027840D01*
X0250200Y0027696D01*
X0250221Y0027551D01*
X0250239Y0027405D01*
X0250253Y0027259D01*
X0250263Y0027113D01*
X0250269Y0026967D01*
X0250271Y0026820D01*
X0250269Y0026673D01*
X0250263Y0026527D01*
X0250253Y0026381D01*
X0250239Y0026235D01*
X0250221Y0026089D01*
X0250200Y0025944D01*
X0250174Y0025800D01*
X0250144Y0025656D01*
X0250111Y0025514D01*
X0250074Y0025372D01*
X0250033Y0025231D01*
X0249988Y0025092D01*
X0249939Y0024953D01*
X0249887Y0024816D01*
X0249830Y0024681D01*
X0249771Y0024547D01*
X0249707Y0024415D01*
X0249640Y0024285D01*
X0249570Y0024156D01*
X0249496Y0024029D01*
X0249419Y0023905D01*
X0249338Y0023782D01*
X0249254Y0023662D01*
X0249167Y0023544D01*
X0249077Y0023429D01*
X0248984Y0023316D01*
X0248887Y0023205D01*
X0248788Y0023097D01*
X0248686Y0022992D01*
X0248581Y0022890D01*
X0248473Y0022791D01*
X0248362Y0022694D01*
X0248249Y0022601D01*
X0248134Y0022511D01*
X0248016Y0022424D01*
X0247896Y0022340D01*
X0247773Y0022259D01*
X0247649Y0022182D01*
X0247522Y0022108D01*
X0247393Y0022038D01*
X0247263Y0021971D01*
X0247131Y0021907D01*
X0246997Y0021848D01*
X0246862Y0021791D01*
X0246725Y0021739D01*
X0246586Y0021690D01*
X0246447Y0021645D01*
X0246306Y0021604D01*
X0246164Y0021567D01*
X0246022Y0021534D01*
X0245878Y0021504D01*
X0245734Y0021478D01*
X0245589Y0021457D01*
X0245443Y0021439D01*
X0245297Y0021425D01*
X0245151Y0021415D01*
X0245005Y0021409D01*
X0244858Y0021407D01*
X0244711Y0021409D01*
X0244565Y0021415D01*
X0244419Y0021425D01*
X0244273Y0021439D01*
X0244127Y0021457D01*
X0243982Y0021478D01*
X0243838Y0021504D01*
X0243694Y0021534D01*
X0243552Y0021567D01*
X0243410Y0021604D01*
X0243269Y0021645D01*
X0243130Y0021690D01*
X0242991Y0021739D01*
X0242854Y0021791D01*
X0242719Y0021848D01*
X0242585Y0021907D01*
X0242453Y0021971D01*
X0242323Y0022038D01*
X0242194Y0022108D01*
X0242067Y0022182D01*
X0241943Y0022259D01*
X0241820Y0022340D01*
X0241700Y0022424D01*
X0241582Y0022511D01*
X0241467Y0022601D01*
X0241354Y0022694D01*
X0241243Y0022791D01*
X0241135Y0022890D01*
X0241030Y0022992D01*
X0240928Y0023097D01*
X0240829Y0023205D01*
X0240732Y0023316D01*
X0240639Y0023429D01*
X0240549Y0023544D01*
X0240462Y0023662D01*
X0240378Y0023782D01*
X0240297Y0023905D01*
X0240220Y0024029D01*
X0240146Y0024156D01*
X0240076Y0024285D01*
X0240009Y0024415D01*
X0239945Y0024547D01*
X0239886Y0024681D01*
X0239829Y0024816D01*
X0239777Y0024953D01*
X0239728Y0025092D01*
X0239683Y0025231D01*
X0239642Y0025372D01*
X0239605Y0025514D01*
X0239572Y0025656D01*
X0239542Y0025800D01*
X0239516Y0025944D01*
X0239495Y0026089D01*
X0239477Y0026235D01*
X0239463Y0026381D01*
X0239453Y0026527D01*
X0239447Y0026673D01*
X0239445Y0026820D01*
D11*
X0225685Y0112371D03*
X0215685Y0112371D03*
X0205685Y0112371D03*
X0195685Y0112371D03*
X0185685Y0112371D03*
X0175685Y0112371D03*
X0165685Y0112371D03*
X0155685Y0112371D03*
X0145685Y0112371D03*
X0135685Y0112371D03*
X0125685Y0112371D03*
X0115685Y0112371D03*
X0105685Y0112371D03*
X0095685Y0112371D03*
X0085685Y0112371D03*
X0075685Y0112371D03*
X0065685Y0112371D03*
X0055685Y0112371D03*
X0045685Y0112371D03*
X0035685Y0112371D03*
X0035685Y0122371D03*
X0045685Y0122371D03*
X0055685Y0122371D03*
X0065685Y0122371D03*
X0075685Y0122371D03*
X0085685Y0122371D03*
X0095685Y0122371D03*
X0105685Y0122371D03*
X0115685Y0122371D03*
X0125685Y0122371D03*
X0135685Y0122371D03*
X0145685Y0122371D03*
X0155685Y0122371D03*
X0165685Y0122371D03*
X0175685Y0122371D03*
X0185685Y0122371D03*
X0195685Y0122371D03*
X0205685Y0122371D03*
X0215685Y0122371D03*
X0225685Y0122371D03*
D12*
X0162181Y0083907D03*
X0162181Y0081938D03*
X0162181Y0079970D03*
X0162181Y0078001D03*
X0162181Y0076033D03*
X0162181Y0074064D03*
X0162181Y0072096D03*
X0162181Y0070127D03*
X0162181Y0068159D03*
X0162181Y0066190D03*
X0162181Y0064222D03*
X0162181Y0062253D03*
X0162181Y0060285D03*
X0162181Y0058316D03*
X0162181Y0056348D03*
X0162181Y0054379D03*
X0162181Y0052411D03*
X0162181Y0050442D03*
X0162181Y0048474D03*
X0162181Y0046505D03*
X0162181Y0044537D03*
X0162181Y0042568D03*
X0162181Y0040600D03*
X0162181Y0038631D03*
X0162181Y0036663D03*
X0099189Y0036663D03*
X0099189Y0038631D03*
X0099189Y0040600D03*
X0099189Y0042568D03*
X0099189Y0044537D03*
X0099189Y0046505D03*
X0099189Y0048474D03*
X0099189Y0050442D03*
X0099189Y0052411D03*
X0099189Y0054379D03*
X0099189Y0056348D03*
X0099189Y0058316D03*
X0099189Y0060285D03*
X0099189Y0062253D03*
X0099189Y0064222D03*
X0099189Y0066190D03*
X0099189Y0068159D03*
X0099189Y0070127D03*
X0099189Y0072096D03*
X0099189Y0074064D03*
X0099189Y0076033D03*
X0099189Y0078001D03*
X0099189Y0079970D03*
X0099189Y0081938D03*
X0099189Y0083907D03*
D13*
X0107063Y0091781D03*
X0109031Y0091781D03*
X0111000Y0091781D03*
X0112969Y0091781D03*
X0114937Y0091781D03*
X0116906Y0091781D03*
X0118874Y0091781D03*
X0120843Y0091781D03*
X0122811Y0091781D03*
X0124780Y0091781D03*
X0126748Y0091781D03*
X0128717Y0091781D03*
X0130685Y0091781D03*
X0132654Y0091781D03*
X0134622Y0091781D03*
X0136591Y0091781D03*
X0138559Y0091781D03*
X0140528Y0091781D03*
X0142496Y0091781D03*
X0144465Y0091781D03*
X0146433Y0091781D03*
X0148402Y0091781D03*
X0150370Y0091781D03*
X0152339Y0091781D03*
X0154307Y0091781D03*
X0154307Y0028789D03*
X0152339Y0028789D03*
X0150370Y0028789D03*
X0148402Y0028789D03*
X0146433Y0028789D03*
X0144465Y0028789D03*
X0142496Y0028789D03*
X0140528Y0028789D03*
X0138559Y0028789D03*
X0136591Y0028789D03*
X0134622Y0028789D03*
X0132654Y0028789D03*
X0130685Y0028789D03*
X0128717Y0028789D03*
X0126748Y0028789D03*
X0124780Y0028789D03*
X0122811Y0028789D03*
X0120843Y0028789D03*
X0118874Y0028789D03*
X0116906Y0028789D03*
X0114937Y0028789D03*
X0112969Y0028789D03*
X0111000Y0028789D03*
X0109031Y0028789D03*
X0107063Y0028789D03*
D14*
X0047218Y0053629D02*
X0047218Y0055129D01*
X0047924Y0055129D01*
X0047924Y0053629D01*
X0047218Y0053629D01*
X0040218Y0053629D02*
X0040218Y0055129D01*
X0040924Y0055129D01*
X0040924Y0053629D01*
X0040218Y0053629D01*
X0031192Y0053629D02*
X0031192Y0055129D01*
X0031192Y0053629D02*
X0030486Y0053629D01*
X0030486Y0055129D01*
X0031192Y0055129D01*
X0024192Y0055129D02*
X0024192Y0053629D01*
X0023486Y0053629D01*
X0023486Y0055129D01*
X0024192Y0055129D01*
X0023486Y0063472D02*
X0023486Y0064972D01*
X0024192Y0064972D01*
X0024192Y0063472D01*
X0023486Y0063472D01*
X0030486Y0063472D02*
X0030486Y0064972D01*
X0031192Y0064972D01*
X0031192Y0063472D01*
X0030486Y0063472D01*
X0040218Y0063472D02*
X0040218Y0064972D01*
X0040924Y0064972D01*
X0040924Y0063472D01*
X0040218Y0063472D01*
X0047218Y0063472D02*
X0047218Y0064972D01*
X0047924Y0064972D01*
X0047924Y0063472D01*
X0047218Y0063472D01*
X0047218Y0073314D02*
X0047218Y0074814D01*
X0047924Y0074814D01*
X0047924Y0073314D01*
X0047218Y0073314D01*
X0040218Y0073314D02*
X0040218Y0074814D01*
X0040924Y0074814D01*
X0040924Y0073314D01*
X0040218Y0073314D01*
X0031192Y0073314D02*
X0031192Y0074814D01*
X0031192Y0073314D02*
X0030486Y0073314D01*
X0030486Y0074814D01*
X0031192Y0074814D01*
X0024192Y0074814D02*
X0024192Y0073314D01*
X0023486Y0073314D01*
X0023486Y0074814D01*
X0024192Y0074814D01*
X0024192Y0083157D02*
X0024192Y0084657D01*
X0024192Y0083157D02*
X0023486Y0083157D01*
X0023486Y0084657D01*
X0024192Y0084657D01*
X0031192Y0084657D02*
X0031192Y0083157D01*
X0030486Y0083157D01*
X0030486Y0084657D01*
X0031192Y0084657D01*
X0040218Y0084657D02*
X0040218Y0083157D01*
X0040218Y0084657D02*
X0040924Y0084657D01*
X0040924Y0083157D01*
X0040218Y0083157D01*
X0047218Y0083157D02*
X0047218Y0084657D01*
X0047924Y0084657D01*
X0047924Y0083157D01*
X0047218Y0083157D01*
D15*
X0026354Y0098670D03*
X0011591Y0098670D03*
D16*
X0182693Y0080048D03*
X0192693Y0080048D03*
X0202693Y0080048D03*
X0202693Y0070048D03*
X0192693Y0070048D03*
X0182693Y0070048D03*
D17*
X0227236Y0069588D03*
X0229795Y0069588D03*
X0232354Y0069588D03*
X0234913Y0069588D03*
X0234913Y0084450D03*
X0232354Y0084450D03*
X0229795Y0084450D03*
X0227236Y0084450D03*
X0227236Y0101084D03*
X0229795Y0101084D03*
X0232354Y0101084D03*
X0234913Y0101084D03*
X0234913Y0052954D03*
X0232354Y0052954D03*
X0229795Y0052954D03*
X0227236Y0052954D03*
X0217197Y0043997D03*
X0214638Y0043997D03*
X0212079Y0043997D03*
X0209520Y0043997D03*
X0209520Y0027363D03*
X0212079Y0027363D03*
X0214638Y0027363D03*
X0217197Y0027363D03*
D18*
X0227142Y0030915D03*
X0227142Y0040915D03*
X0244858Y0046505D03*
X0244858Y0056505D03*
X0244858Y0066505D03*
X0244858Y0078001D03*
X0244858Y0088001D03*
X0244858Y0098001D03*
X0227142Y0020915D03*
X0034228Y0021584D03*
X0034228Y0031584D03*
X0034228Y0041584D03*
X0011582Y0054352D03*
X0011582Y0064352D03*
X0011582Y0074352D03*
X0011582Y0084352D03*
D19*
X0011582Y0090052D01*
X0011134Y0090052D01*
X0010248Y0089911D01*
X0009394Y0089634D01*
X0008595Y0089227D01*
X0007869Y0088699D01*
X0007235Y0088065D01*
X0006707Y0087339D01*
X0006300Y0086540D01*
X0006023Y0085686D01*
X0005882Y0084800D01*
X0005882Y0084352D01*
X0011582Y0084352D01*
X0011582Y0084352D01*
X0011582Y0084351D01*
X0005882Y0084351D01*
X0005882Y0083903D01*
X0006023Y0083017D01*
X0006300Y0082163D01*
X0006707Y0081364D01*
X0007235Y0080638D01*
X0007869Y0080004D01*
X0008595Y0079476D01*
X0008803Y0079370D01*
X0008353Y0079184D01*
X0006750Y0077580D01*
X0005882Y0075485D01*
X0005882Y0073218D01*
X0006750Y0071123D01*
X0008353Y0069519D01*
X0008759Y0069352D01*
X0008353Y0069184D01*
X0006750Y0067580D01*
X0005882Y0065485D01*
X0005882Y0063218D01*
X0006750Y0061123D01*
X0008353Y0059519D01*
X0008759Y0059352D01*
X0008353Y0059184D01*
X0006750Y0057580D01*
X0005882Y0055485D01*
X0005882Y0053218D01*
X0006750Y0051123D01*
X0008353Y0049519D01*
X0010448Y0048652D01*
X0012716Y0048652D01*
X0014811Y0049519D01*
X0016415Y0051123D01*
X0017282Y0053218D01*
X0017282Y0055485D01*
X0016415Y0057580D01*
X0014811Y0059184D01*
X0014406Y0059352D01*
X0014811Y0059519D01*
X0016415Y0061123D01*
X0017282Y0063218D01*
X0017282Y0065485D01*
X0016415Y0067580D01*
X0014811Y0069184D01*
X0014406Y0069352D01*
X0014811Y0069519D01*
X0016415Y0071123D01*
X0017282Y0073218D01*
X0017282Y0075485D01*
X0016415Y0077580D01*
X0014811Y0079184D01*
X0014361Y0079370D01*
X0014570Y0079476D01*
X0015296Y0080004D01*
X0015930Y0080638D01*
X0016457Y0081364D01*
X0016865Y0082163D01*
X0017142Y0083017D01*
X0017282Y0083903D01*
X0017282Y0084351D01*
X0011582Y0084351D01*
X0011582Y0084352D01*
X0011582Y0090052D01*
X0012031Y0090052D01*
X0012917Y0089911D01*
X0013770Y0089634D01*
X0014570Y0089227D01*
X0015296Y0088699D01*
X0015930Y0088065D01*
X0016457Y0087339D01*
X0016865Y0086540D01*
X0017142Y0085686D01*
X0017282Y0084800D01*
X0017282Y0084352D01*
X0011582Y0084352D01*
X0011582Y0084987D02*
X0011582Y0084987D01*
X0011582Y0086985D02*
X0011582Y0086985D01*
X0011582Y0088984D02*
X0011582Y0088984D01*
X0008261Y0088984D02*
X0004732Y0088984D01*
X0004732Y0090982D02*
X0020839Y0090982D01*
X0020839Y0088984D02*
X0014904Y0088984D01*
X0016638Y0086985D02*
X0020839Y0086985D01*
X0020839Y0086840D02*
X0020590Y0086592D01*
X0020070Y0085336D01*
X0020070Y0082477D01*
X0020590Y0081222D01*
X0020839Y0080973D01*
X0020839Y0076998D01*
X0020590Y0076749D01*
X0020070Y0075494D01*
X0020070Y0072634D01*
X0020590Y0071379D01*
X0020839Y0071131D01*
X0020839Y0067155D01*
X0020590Y0066907D01*
X0020070Y0065651D01*
X0020070Y0062792D01*
X0020590Y0061537D01*
X0020839Y0061288D01*
X0020839Y0057313D01*
X0020590Y0057064D01*
X0020070Y0055809D01*
X0020070Y0052949D01*
X0020590Y0051694D01*
X0021551Y0050734D01*
X0022806Y0050214D01*
X0024872Y0050214D01*
X0026127Y0050734D01*
X0027087Y0051694D01*
X0027339Y0052301D01*
X0027459Y0052011D01*
X0027832Y0051452D01*
X0028308Y0050976D01*
X0028867Y0050602D01*
X0029489Y0050345D01*
X0030149Y0050214D01*
X0030839Y0050214D01*
X0031529Y0050214D01*
X0032188Y0050345D01*
X0032810Y0050602D01*
X0033369Y0050976D01*
X0033845Y0051452D01*
X0034218Y0052011D01*
X0034476Y0052632D01*
X0034607Y0053292D01*
X0034607Y0054379D01*
X0030839Y0054379D01*
X0030839Y0054379D01*
X0034607Y0054379D01*
X0034607Y0055466D01*
X0034476Y0056126D01*
X0034218Y0056747D01*
X0033845Y0057306D01*
X0033369Y0057782D01*
X0032810Y0058156D01*
X0032188Y0058413D01*
X0031529Y0058544D01*
X0030839Y0058544D01*
X0030839Y0054379D01*
X0030839Y0050214D01*
X0030839Y0054379D01*
X0030839Y0054379D01*
X0030839Y0054379D01*
X0030839Y0058544D01*
X0030149Y0058544D01*
X0029489Y0058413D01*
X0028867Y0058156D01*
X0028308Y0057782D01*
X0027832Y0057306D01*
X0027459Y0056747D01*
X0027339Y0056457D01*
X0027087Y0057064D01*
X0026839Y0057313D01*
X0026839Y0061288D01*
X0027087Y0061537D01*
X0027339Y0062144D01*
X0027459Y0061854D01*
X0027832Y0061294D01*
X0028308Y0060819D01*
X0028867Y0060445D01*
X0029489Y0060187D01*
X0030149Y0060056D01*
X0030839Y0060056D01*
X0031529Y0060056D01*
X0032188Y0060187D01*
X0032810Y0060445D01*
X0033369Y0060819D01*
X0033845Y0061294D01*
X0034218Y0061854D01*
X0034476Y0062475D01*
X0034607Y0063135D01*
X0034607Y0064222D01*
X0034607Y0065309D01*
X0034476Y0065968D01*
X0034218Y0066590D01*
X0033845Y0067149D01*
X0033369Y0067625D01*
X0032810Y0067998D01*
X0032188Y0068256D01*
X0031529Y0068387D01*
X0030839Y0068387D01*
X0030839Y0064222D01*
X0034607Y0064222D01*
X0030839Y0064222D01*
X0030839Y0064222D01*
X0030839Y0064222D01*
X0030839Y0068387D01*
X0030149Y0068387D01*
X0029489Y0068256D01*
X0028867Y0067998D01*
X0028308Y0067625D01*
X0027832Y0067149D01*
X0027459Y0066590D01*
X0027339Y0066300D01*
X0027087Y0066907D01*
X0026839Y0067155D01*
X0026839Y0071131D01*
X0027087Y0071379D01*
X0027339Y0071986D01*
X0027459Y0071696D01*
X0027832Y0071137D01*
X0028308Y0070661D01*
X0028867Y0070287D01*
X0029489Y0070030D01*
X0030149Y0069899D01*
X0030839Y0069899D01*
X0031529Y0069899D01*
X0032188Y0070030D01*
X0032810Y0070287D01*
X0033369Y0070661D01*
X0033845Y0071137D01*
X0034218Y0071696D01*
X0034476Y0072318D01*
X0034607Y0072977D01*
X0034607Y0074064D01*
X0030839Y0074064D01*
X0030839Y0074064D01*
X0034607Y0074064D01*
X0034607Y0075151D01*
X0034476Y0075811D01*
X0034218Y0076432D01*
X0033845Y0076991D01*
X0033369Y0077467D01*
X0032810Y0077841D01*
X0032188Y0078098D01*
X0031529Y0078229D01*
X0030839Y0078229D01*
X0030839Y0074064D01*
X0030839Y0069899D01*
X0030839Y0074064D01*
X0030839Y0074064D01*
X0030839Y0074064D01*
X0030839Y0078229D01*
X0030149Y0078229D01*
X0029489Y0078098D01*
X0028867Y0077841D01*
X0028308Y0077467D01*
X0027832Y0076991D01*
X0027459Y0076432D01*
X0027339Y0076142D01*
X0027087Y0076749D01*
X0026839Y0076998D01*
X0026839Y0080973D01*
X0027087Y0081222D01*
X0027339Y0081829D01*
X0027459Y0081539D01*
X0027832Y0080979D01*
X0028308Y0080504D01*
X0028867Y0080130D01*
X0029489Y0079873D01*
X0030149Y0079741D01*
X0030839Y0079741D01*
X0031529Y0079741D01*
X0032188Y0079873D01*
X0032810Y0080130D01*
X0033369Y0080504D01*
X0033845Y0080979D01*
X0034218Y0081539D01*
X0034476Y0082160D01*
X0034607Y0082820D01*
X0034607Y0083907D01*
X0034607Y0084994D01*
X0034476Y0085653D01*
X0034218Y0086275D01*
X0033845Y0086834D01*
X0033369Y0087310D01*
X0032810Y0087683D01*
X0032188Y0087941D01*
X0031529Y0088072D01*
X0030839Y0088072D01*
X0030839Y0083907D01*
X0034607Y0083907D01*
X0030839Y0083907D01*
X0030839Y0083907D01*
X0030839Y0083907D01*
X0030839Y0088072D01*
X0030149Y0088072D01*
X0029489Y0087941D01*
X0028867Y0087683D01*
X0028308Y0087310D01*
X0027832Y0086834D01*
X0027459Y0086275D01*
X0027339Y0085985D01*
X0027087Y0086592D01*
X0026839Y0086840D01*
X0026839Y0091670D01*
X0029254Y0091670D01*
X0033354Y0095771D01*
X0033354Y0101570D01*
X0029254Y0105670D01*
X0023455Y0105670D01*
X0019354Y0101570D01*
X0019354Y0095771D01*
X0020839Y0094287D01*
X0020839Y0086840D01*
X0020070Y0084987D02*
X0017253Y0084987D01*
X0017133Y0082988D02*
X0020070Y0082988D01*
X0020822Y0080990D02*
X0016185Y0080990D01*
X0015003Y0078991D02*
X0020839Y0078991D01*
X0020834Y0076993D02*
X0016658Y0076993D01*
X0017282Y0074994D02*
X0020070Y0074994D01*
X0020070Y0072996D02*
X0017190Y0072996D01*
X0016289Y0070997D02*
X0020839Y0070997D01*
X0020839Y0068999D02*
X0014996Y0068999D01*
X0016655Y0067000D02*
X0020684Y0067000D01*
X0020070Y0065002D02*
X0017282Y0065002D01*
X0017193Y0063003D02*
X0020070Y0063003D01*
X0020839Y0061005D02*
X0016297Y0061005D01*
X0014989Y0059006D02*
X0020839Y0059006D01*
X0020567Y0057008D02*
X0016652Y0057008D01*
X0017282Y0055009D02*
X0020070Y0055009D01*
X0020070Y0053011D02*
X0017197Y0053011D01*
X0016304Y0051012D02*
X0021272Y0051012D01*
X0026405Y0051012D02*
X0028272Y0051012D01*
X0030839Y0051012D02*
X0030839Y0051012D01*
X0033405Y0051012D02*
X0037571Y0051012D01*
X0037571Y0051446D02*
X0037571Y0049169D01*
X0035591Y0047189D01*
X0035362Y0047284D01*
X0033095Y0047284D01*
X0031000Y0046416D01*
X0029396Y0044813D01*
X0028528Y0042718D01*
X0028528Y0040450D01*
X0029396Y0038355D01*
X0031000Y0036752D01*
X0031405Y0036584D01*
X0031000Y0036416D01*
X0029396Y0034813D01*
X0028528Y0032718D01*
X0028528Y0030450D01*
X0029396Y0028355D01*
X0031000Y0026752D01*
X0031405Y0026584D01*
X0031000Y0026416D01*
X0029396Y0024813D01*
X0028528Y0022718D01*
X0028528Y0020450D01*
X0029396Y0018355D01*
X0031000Y0016752D01*
X0033095Y0015884D01*
X0035362Y0015884D01*
X0037457Y0016752D01*
X0039061Y0018355D01*
X0039928Y0020450D01*
X0039928Y0022718D01*
X0039061Y0024813D01*
X0037457Y0026416D01*
X0037052Y0026584D01*
X0037457Y0026752D01*
X0039061Y0028355D01*
X0039928Y0030450D01*
X0039928Y0032718D01*
X0039061Y0034813D01*
X0037457Y0036416D01*
X0037052Y0036584D01*
X0037457Y0036752D01*
X0039061Y0038355D01*
X0039928Y0040450D01*
X0039928Y0042718D01*
X0039834Y0042946D01*
X0042270Y0045383D01*
X0043114Y0046227D01*
X0043571Y0047330D01*
X0043571Y0051446D01*
X0043819Y0051694D01*
X0044071Y0052301D01*
X0044191Y0052011D01*
X0044565Y0051452D01*
X0045040Y0050976D01*
X0045600Y0050602D01*
X0046221Y0050345D01*
X0046881Y0050214D01*
X0047571Y0050214D01*
X0048261Y0050214D01*
X0048921Y0050345D01*
X0049542Y0050602D01*
X0050101Y0050976D01*
X0050577Y0051452D01*
X0050951Y0052011D01*
X0051208Y0052632D01*
X0051339Y0053292D01*
X0051339Y0054379D01*
X0047571Y0054379D01*
X0047571Y0054379D01*
X0047571Y0050214D01*
X0047571Y0054379D01*
X0047571Y0054379D01*
X0051339Y0054379D01*
X0051339Y0055466D01*
X0051208Y0056126D01*
X0050951Y0056747D01*
X0050577Y0057306D01*
X0050101Y0057782D01*
X0049542Y0058156D01*
X0048921Y0058413D01*
X0048261Y0058544D01*
X0047571Y0058544D01*
X0047571Y0054379D01*
X0047571Y0054379D01*
X0047571Y0058544D01*
X0046881Y0058544D01*
X0046221Y0058413D01*
X0045600Y0058156D01*
X0045040Y0057782D01*
X0044565Y0057306D01*
X0044191Y0056747D01*
X0044071Y0056457D01*
X0043819Y0057064D01*
X0043571Y0057313D01*
X0043571Y0061288D01*
X0043819Y0061537D01*
X0044071Y0062144D01*
X0044191Y0061854D01*
X0044565Y0061294D01*
X0045040Y0060819D01*
X0045600Y0060445D01*
X0046221Y0060187D01*
X0046881Y0060056D01*
X0047571Y0060056D01*
X0048261Y0060056D01*
X0048921Y0060187D01*
X0049542Y0060445D01*
X0050101Y0060819D01*
X0050577Y0061294D01*
X0050951Y0061854D01*
X0051208Y0062475D01*
X0051339Y0063135D01*
X0051339Y0064222D01*
X0051339Y0065309D01*
X0051208Y0065968D01*
X0050951Y0066590D01*
X0050577Y0067149D01*
X0050101Y0067625D01*
X0049542Y0067998D01*
X0048921Y0068256D01*
X0048261Y0068387D01*
X0047571Y0068387D01*
X0047571Y0064222D01*
X0047571Y0064222D01*
X0047571Y0068387D01*
X0046881Y0068387D01*
X0046221Y0068256D01*
X0045600Y0067998D01*
X0045040Y0067625D01*
X0044565Y0067149D01*
X0044191Y0066590D01*
X0044071Y0066300D01*
X0043819Y0066907D01*
X0043571Y0067155D01*
X0043571Y0071131D01*
X0043819Y0071379D01*
X0044071Y0071986D01*
X0044191Y0071696D01*
X0044565Y0071137D01*
X0045040Y0070661D01*
X0045600Y0070287D01*
X0046221Y0070030D01*
X0046881Y0069899D01*
X0047571Y0069899D01*
X0048261Y0069899D01*
X0048921Y0070030D01*
X0049542Y0070287D01*
X0050101Y0070661D01*
X0050577Y0071137D01*
X0050951Y0071696D01*
X0051208Y0072318D01*
X0051339Y0072977D01*
X0051339Y0074064D01*
X0047571Y0074064D01*
X0047571Y0074064D01*
X0047571Y0069899D01*
X0047571Y0074064D01*
X0047571Y0074064D01*
X0051339Y0074064D01*
X0051339Y0075151D01*
X0051208Y0075811D01*
X0050951Y0076432D01*
X0050577Y0076991D01*
X0050101Y0077467D01*
X0049542Y0077841D01*
X0048921Y0078098D01*
X0048261Y0078229D01*
X0047571Y0078229D01*
X0047571Y0074064D01*
X0047571Y0074064D01*
X0047571Y0078229D01*
X0046881Y0078229D01*
X0046221Y0078098D01*
X0045600Y0077841D01*
X0045040Y0077467D01*
X0044565Y0076991D01*
X0044191Y0076432D01*
X0044071Y0076142D01*
X0043819Y0076749D01*
X0043571Y0076998D01*
X0043571Y0080973D01*
X0043819Y0081222D01*
X0044071Y0081829D01*
X0044191Y0081539D01*
X0044565Y0080979D01*
X0045040Y0080504D01*
X0045600Y0080130D01*
X0046221Y0079873D01*
X0046881Y0079741D01*
X0047571Y0079741D01*
X0048261Y0079741D01*
X0048921Y0079873D01*
X0049542Y0080130D01*
X0050101Y0080504D01*
X0050577Y0080979D01*
X0050951Y0081539D01*
X0051208Y0082160D01*
X0051339Y0082820D01*
X0051339Y0083907D01*
X0051339Y0084994D01*
X0051208Y0085653D01*
X0050951Y0086275D01*
X0050577Y0086834D01*
X0050101Y0087310D01*
X0049542Y0087683D01*
X0048921Y0087941D01*
X0048261Y0088072D01*
X0047571Y0088072D01*
X0047571Y0083907D01*
X0047571Y0083907D01*
X0051339Y0083907D01*
X0047571Y0083907D01*
X0047571Y0083907D01*
X0047571Y0088072D01*
X0046881Y0088072D01*
X0046221Y0087941D01*
X0045600Y0087683D01*
X0045040Y0087310D01*
X0044565Y0086834D01*
X0044191Y0086275D01*
X0044071Y0085985D01*
X0043819Y0086592D01*
X0042859Y0087552D01*
X0041604Y0088072D01*
X0039538Y0088072D01*
X0038283Y0087552D01*
X0037322Y0086592D01*
X0036802Y0085336D01*
X0036802Y0082477D01*
X0037322Y0081222D01*
X0037571Y0080973D01*
X0037571Y0076998D01*
X0037322Y0076749D01*
X0036802Y0075494D01*
X0036802Y0072634D01*
X0037322Y0071379D01*
X0037571Y0071131D01*
X0037571Y0067155D01*
X0037322Y0066907D01*
X0036802Y0065651D01*
X0036802Y0062792D01*
X0037322Y0061537D01*
X0037571Y0061288D01*
X0037571Y0057313D01*
X0037322Y0057064D01*
X0036802Y0055809D01*
X0036802Y0052949D01*
X0037322Y0051694D01*
X0037571Y0051446D01*
X0036802Y0053011D02*
X0034551Y0053011D01*
X0034607Y0055009D02*
X0036802Y0055009D01*
X0040571Y0054379D02*
X0040571Y0064222D01*
X0040571Y0074064D01*
X0040571Y0083907D01*
X0036802Y0082988D02*
X0034607Y0082988D01*
X0034607Y0084987D02*
X0036802Y0084987D01*
X0037716Y0086985D02*
X0033693Y0086985D01*
X0030839Y0086985D02*
X0030839Y0086985D01*
X0027984Y0086985D02*
X0026839Y0086985D01*
X0026839Y0088984D02*
X0100626Y0088984D01*
X0100626Y0089761D02*
X0100626Y0086497D01*
X0095408Y0086497D01*
X0094236Y0085326D01*
X0094236Y0064515D01*
X0093705Y0064295D01*
X0093001Y0063591D01*
X0080337Y0050927D01*
X0079957Y0050009D01*
X0079957Y0043168D01*
X0079418Y0042630D01*
X0078872Y0041313D01*
X0078872Y0039887D01*
X0079418Y0038569D01*
X0080426Y0037561D01*
X0081744Y0037015D01*
X0083170Y0037015D01*
X0084487Y0037561D01*
X0085495Y0038569D01*
X0086041Y0039887D01*
X0086041Y0041313D01*
X0085495Y0042630D01*
X0084957Y0043168D01*
X0084957Y0048476D01*
X0086846Y0050365D01*
X0086846Y0039231D01*
X0086308Y0038693D01*
X0085762Y0037376D01*
X0085762Y0035950D01*
X0086308Y0034632D01*
X0087316Y0033624D01*
X0088633Y0033078D01*
X0090059Y0033078D01*
X0091377Y0033624D01*
X0092385Y0034632D01*
X0092931Y0035950D01*
X0092931Y0037376D01*
X0092385Y0038693D01*
X0091846Y0039231D01*
X0091846Y0052820D01*
X0094236Y0055210D01*
X0094236Y0035244D01*
X0095408Y0034072D01*
X0102970Y0034072D01*
X0104142Y0035244D01*
X0104142Y0054749D01*
X0105447Y0053444D01*
X0105447Y0052682D01*
X0105993Y0051365D01*
X0107001Y0050356D01*
X0108319Y0049811D01*
X0109744Y0049811D01*
X0111062Y0050356D01*
X0112070Y0051365D01*
X0112461Y0052309D01*
X0116374Y0048396D01*
X0116374Y0033741D01*
X0105644Y0033741D01*
X0104472Y0032570D01*
X0104472Y0025007D01*
X0105644Y0023836D01*
X0112675Y0023836D01*
X0112896Y0023304D01*
X0119654Y0016546D01*
X0120357Y0015842D01*
X0121276Y0015462D01*
X0131069Y0015462D01*
X0131490Y0015041D01*
X0014543Y0015041D01*
X0013009Y0015161D01*
X0010089Y0016110D01*
X0007606Y0017914D01*
X0005802Y0020397D01*
X0004853Y0023317D01*
X0004732Y0024852D01*
X0004732Y0095629D01*
X0008691Y0091670D01*
X0011590Y0091670D01*
X0011590Y0098670D01*
X0011591Y0098670D01*
X0011591Y0098670D01*
X0018591Y0098670D01*
X0018591Y0095771D01*
X0014490Y0091670D01*
X0011591Y0091670D01*
X0011591Y0098670D01*
X0018591Y0098670D01*
X0018591Y0101570D01*
X0014490Y0105670D01*
X0011591Y0105670D01*
X0011591Y0098671D01*
X0011590Y0098671D01*
X0011590Y0105670D01*
X0008691Y0105670D01*
X0004732Y0101712D01*
X0004732Y0119340D01*
X0004853Y0120875D01*
X0005802Y0123794D01*
X0007606Y0126277D01*
X0010089Y0128081D01*
X0013009Y0129030D01*
X0014543Y0129151D01*
X0246827Y0129151D01*
X0248362Y0129030D01*
X0251281Y0128081D01*
X0253764Y0126277D01*
X0255568Y0123794D01*
X0256517Y0120875D01*
X0256638Y0119340D01*
X0256638Y0024852D01*
X0256517Y0023317D01*
X0255568Y0020397D01*
X0253764Y0017914D01*
X0251281Y0016110D01*
X0248362Y0015161D01*
X0246827Y0015041D01*
X0144589Y0015041D01*
X0145096Y0016265D01*
X0145096Y0017690D01*
X0144875Y0018224D01*
X0145535Y0018884D01*
X0146080Y0020202D01*
X0146080Y0021627D01*
X0145535Y0022945D01*
X0144644Y0023836D01*
X0155726Y0023836D01*
X0156898Y0025007D01*
X0156898Y0032570D01*
X0155726Y0033741D01*
X0148855Y0033741D01*
X0148855Y0034565D01*
X0149818Y0035527D01*
X0150521Y0036231D01*
X0150902Y0037150D01*
X0150902Y0037348D01*
X0151416Y0037561D01*
X0152424Y0038569D01*
X0152951Y0039840D01*
X0153261Y0039530D01*
X0154578Y0038984D01*
X0156004Y0038984D01*
X0157228Y0039491D01*
X0157228Y0035244D01*
X0158400Y0034072D01*
X0165962Y0034072D01*
X0167134Y0035244D01*
X0167134Y0042037D01*
X0169455Y0042037D01*
X0169993Y0041498D01*
X0171311Y0040952D01*
X0172737Y0040952D01*
X0174054Y0041498D01*
X0175062Y0042506D01*
X0175608Y0043824D01*
X0175608Y0045250D01*
X0175062Y0046567D01*
X0174054Y0047575D01*
X0172737Y0048121D01*
X0172655Y0048121D01*
X0172655Y0048823D01*
X0172109Y0050140D01*
X0171101Y0051148D01*
X0169784Y0051694D01*
X0168358Y0051694D01*
X0167134Y0051187D01*
X0167134Y0057785D01*
X0176592Y0057785D01*
X0197961Y0036416D01*
X0198880Y0036035D01*
X0212092Y0036035D01*
X0216401Y0031726D01*
X0210660Y0031726D01*
X0210599Y0031665D01*
X0210374Y0031726D01*
X0209520Y0031726D01*
X0209520Y0030586D01*
X0209520Y0030585D01*
X0209520Y0031726D01*
X0208666Y0031726D01*
X0208157Y0031589D01*
X0207701Y0031326D01*
X0207329Y0030954D01*
X0207065Y0030498D01*
X0206929Y0029989D01*
X0206929Y0028263D01*
X0206753Y0028336D01*
X0200183Y0028336D01*
X0199644Y0028874D01*
X0198327Y0029420D01*
X0196901Y0029420D01*
X0195584Y0028874D01*
X0194576Y0027866D01*
X0194030Y0026549D01*
X0194030Y0025123D01*
X0194576Y0023805D01*
X0195584Y0022797D01*
X0196901Y0022252D01*
X0198327Y0022252D01*
X0199644Y0022797D01*
X0200183Y0023336D01*
X0205220Y0023336D01*
X0206975Y0021582D01*
X0207893Y0021201D01*
X0211146Y0021201D01*
X0212065Y0021582D01*
X0212826Y0022343D01*
X0213484Y0023001D01*
X0218616Y0023001D01*
X0219787Y0024173D01*
X0219787Y0026418D01*
X0221784Y0028415D01*
X0222008Y0028415D01*
X0222309Y0027686D01*
X0223913Y0026082D01*
X0224318Y0025915D01*
X0223913Y0025747D01*
X0222309Y0024143D01*
X0221442Y0022048D01*
X0221442Y0019781D01*
X0222309Y0017686D01*
X0223913Y0016082D01*
X0226008Y0015215D01*
X0228276Y0015215D01*
X0230371Y0016082D01*
X0231974Y0017686D01*
X0232842Y0019781D01*
X0232842Y0022048D01*
X0231974Y0024143D01*
X0230371Y0025747D01*
X0229965Y0025915D01*
X0230371Y0026082D01*
X0231974Y0027686D01*
X0232842Y0029781D01*
X0232842Y0032048D01*
X0231974Y0034143D01*
X0230371Y0035747D01*
X0229965Y0035915D01*
X0230371Y0036082D01*
X0231974Y0037686D01*
X0232842Y0039781D01*
X0232842Y0042048D01*
X0231974Y0044143D01*
X0230371Y0045747D01*
X0228276Y0046615D01*
X0226008Y0046615D01*
X0223913Y0045747D01*
X0222309Y0044143D01*
X0222008Y0043415D01*
X0219787Y0043415D01*
X0219787Y0044473D01*
X0220203Y0044889D01*
X0220965Y0044889D01*
X0222282Y0045435D01*
X0223291Y0046443D01*
X0223836Y0047761D01*
X0223836Y0049187D01*
X0223291Y0050504D01*
X0222282Y0051512D01*
X0220965Y0052058D01*
X0219539Y0052058D01*
X0219469Y0052029D01*
X0221556Y0054116D01*
X0224646Y0054116D01*
X0224646Y0052954D01*
X0227205Y0052954D01*
X0227205Y0052954D01*
X0224646Y0052954D01*
X0224646Y0050328D01*
X0224782Y0049820D01*
X0225045Y0049364D01*
X0225418Y0048991D01*
X0225874Y0048728D01*
X0226382Y0048592D01*
X0227236Y0048592D01*
X0227236Y0049732D01*
X0227236Y0049732D01*
X0227236Y0048592D01*
X0228090Y0048592D01*
X0228316Y0048652D01*
X0228376Y0048592D01*
X0236332Y0048592D01*
X0237504Y0049763D01*
X0237504Y0050454D01*
X0240746Y0050454D01*
X0240026Y0049734D01*
X0239158Y0047639D01*
X0239158Y0045371D01*
X0240026Y0043276D01*
X0241629Y0041673D01*
X0243724Y0040805D01*
X0245992Y0040805D01*
X0248087Y0041673D01*
X0249690Y0043276D01*
X0250558Y0045371D01*
X0250558Y0047639D01*
X0249690Y0049734D01*
X0248087Y0051337D01*
X0247682Y0051505D01*
X0248087Y0051673D01*
X0249690Y0053276D01*
X0250558Y0055371D01*
X0250558Y0057639D01*
X0249690Y0059734D01*
X0248087Y0061337D01*
X0247682Y0061505D01*
X0248087Y0061673D01*
X0249690Y0063276D01*
X0250558Y0065371D01*
X0250558Y0067639D01*
X0249690Y0069734D01*
X0248087Y0071337D01*
X0245992Y0072205D01*
X0243724Y0072205D01*
X0241629Y0071337D01*
X0240026Y0069734D01*
X0239724Y0069005D01*
X0237504Y0069005D01*
X0237504Y0070808D01*
X0238030Y0071026D01*
X0239039Y0072034D01*
X0239584Y0073351D01*
X0239584Y0074777D01*
X0239039Y0076094D01*
X0238030Y0077103D01*
X0236713Y0077648D01*
X0235287Y0077648D01*
X0233970Y0077103D01*
X0232961Y0076094D01*
X0232416Y0074777D01*
X0232416Y0073950D01*
X0226410Y0073950D01*
X0225863Y0074496D01*
X0225160Y0075199D01*
X0224241Y0075580D01*
X0217900Y0075580D01*
X0217361Y0076118D01*
X0216044Y0076664D01*
X0214618Y0076664D01*
X0213300Y0076118D01*
X0212292Y0075110D01*
X0211746Y0073793D01*
X0211746Y0072367D01*
X0212292Y0071050D01*
X0213300Y0070041D01*
X0214618Y0069496D01*
X0216044Y0069496D01*
X0217361Y0070041D01*
X0217900Y0070580D01*
X0222709Y0070580D01*
X0224646Y0068643D01*
X0224646Y0068426D01*
X0218781Y0068426D01*
X0217863Y0068045D01*
X0217159Y0067342D01*
X0206659Y0056841D01*
X0205897Y0056841D01*
X0204580Y0056296D01*
X0203572Y0055287D01*
X0203026Y0053970D01*
X0203026Y0052725D01*
X0202474Y0052496D01*
X0201465Y0051488D01*
X0200920Y0050171D01*
X0200920Y0049253D01*
X0200629Y0049544D01*
X0199311Y0050089D01*
X0197885Y0050089D01*
X0196568Y0049544D01*
X0195560Y0048535D01*
X0195530Y0048463D01*
X0179621Y0064373D01*
X0178702Y0064753D01*
X0177105Y0064753D01*
X0177991Y0065120D01*
X0178999Y0066128D01*
X0179137Y0066461D01*
X0180601Y0064997D01*
X0184785Y0064997D01*
X0187693Y0067905D01*
X0190601Y0064997D01*
X0194785Y0064997D01*
X0197693Y0067905D01*
X0200601Y0064997D01*
X0202693Y0064997D01*
X0204785Y0064997D01*
X0207744Y0067956D01*
X0207744Y0070048D01*
X0202693Y0070048D01*
X0202693Y0064997D01*
X0202693Y0070048D01*
X0202693Y0070048D01*
X0202693Y0070048D01*
X0207744Y0070048D01*
X0207744Y0072141D01*
X0204836Y0075048D01*
X0207744Y0077956D01*
X0207744Y0082141D01*
X0204785Y0085100D01*
X0200601Y0085100D01*
X0197693Y0082192D01*
X0194785Y0085100D01*
X0190601Y0085100D01*
X0187693Y0082192D01*
X0184785Y0085100D01*
X0180601Y0085100D01*
X0177642Y0082141D01*
X0177642Y0077956D01*
X0178456Y0077142D01*
X0173841Y0072528D01*
X0173461Y0071609D01*
X0173461Y0070728D01*
X0172922Y0070189D01*
X0172376Y0068872D01*
X0172376Y0067446D01*
X0172922Y0066128D01*
X0173930Y0065120D01*
X0174816Y0064753D01*
X0167134Y0064753D01*
X0167134Y0065641D01*
X0167134Y0066190D01*
X0166584Y0066190D01*
X0166584Y0066190D01*
X0166584Y0066190D01*
X0167134Y0066190D01*
X0167134Y0077470D01*
X0169161Y0077470D01*
X0170080Y0077850D01*
X0180237Y0088008D01*
X0225027Y0088008D01*
X0224782Y0087584D01*
X0224646Y0087075D01*
X0224646Y0085350D01*
X0224470Y0085422D01*
X0217900Y0085422D01*
X0217361Y0085961D01*
X0216044Y0086507D01*
X0214618Y0086507D01*
X0213300Y0085961D01*
X0212292Y0084953D01*
X0211746Y0083635D01*
X0211746Y0082209D01*
X0212292Y0080892D01*
X0213300Y0079884D01*
X0214618Y0079338D01*
X0216044Y0079338D01*
X0217361Y0079884D01*
X0217900Y0080422D01*
X0222937Y0080422D01*
X0224691Y0078668D01*
X0225610Y0078288D01*
X0228863Y0078288D01*
X0229781Y0078668D01*
X0230543Y0079430D01*
X0231201Y0080088D01*
X0236332Y0080088D01*
X0237504Y0081259D01*
X0237504Y0083505D01*
X0239500Y0085501D01*
X0239724Y0085501D01*
X0240026Y0084772D01*
X0241629Y0083169D01*
X0242035Y0083001D01*
X0241629Y0082833D01*
X0240026Y0081230D01*
X0239158Y0079135D01*
X0239158Y0076867D01*
X0240026Y0074772D01*
X0241629Y0073169D01*
X0243724Y0072301D01*
X0245992Y0072301D01*
X0248087Y0073169D01*
X0249690Y0074772D01*
X0250558Y0076867D01*
X0250558Y0079135D01*
X0249690Y0081230D01*
X0248087Y0082833D01*
X0247682Y0083001D01*
X0248087Y0083169D01*
X0249690Y0084772D01*
X0250558Y0086867D01*
X0250558Y0089135D01*
X0249690Y0091230D01*
X0248087Y0092833D01*
X0247682Y0093001D01*
X0248087Y0093169D01*
X0249690Y0094772D01*
X0250558Y0096867D01*
X0250558Y0099135D01*
X0249690Y0101230D01*
X0248087Y0102833D01*
X0245992Y0103701D01*
X0243724Y0103701D01*
X0241629Y0102833D01*
X0240026Y0101230D01*
X0239724Y0100501D01*
X0237504Y0100501D01*
X0237504Y0100660D01*
X0237516Y0100689D01*
X0237516Y0102991D01*
X0238054Y0103530D01*
X0238600Y0104847D01*
X0238600Y0106273D01*
X0238054Y0107591D01*
X0237046Y0108599D01*
X0235729Y0109144D01*
X0234303Y0109144D01*
X0232985Y0108599D01*
X0231977Y0107591D01*
X0231431Y0106273D01*
X0231431Y0105446D01*
X0226410Y0105446D01*
X0225863Y0105992D01*
X0225160Y0106695D01*
X0224241Y0107076D01*
X0217900Y0107076D01*
X0217604Y0107371D01*
X0217756Y0107371D01*
X0220685Y0110300D01*
X0223614Y0107371D01*
X0227756Y0107371D01*
X0230685Y0110300D01*
X0230685Y0114442D01*
X0227756Y0117371D01*
X0223614Y0117371D01*
X0220685Y0114442D01*
X0220685Y0110300D01*
X0220685Y0114442D01*
X0217756Y0117371D01*
X0213614Y0117371D01*
X0210685Y0114442D01*
X0207756Y0117371D01*
X0203614Y0117371D01*
X0200685Y0114442D01*
X0197756Y0117371D01*
X0193614Y0117371D01*
X0190685Y0114442D01*
X0190685Y0110300D01*
X0193614Y0107371D01*
X0197756Y0107371D01*
X0200685Y0110300D01*
X0200685Y0114442D01*
X0200685Y0110300D01*
X0203614Y0107371D01*
X0207756Y0107371D01*
X0210685Y0110300D01*
X0210685Y0114442D01*
X0210685Y0110300D01*
X0213350Y0107635D01*
X0213300Y0107615D01*
X0212292Y0106606D01*
X0211746Y0105289D01*
X0211746Y0103863D01*
X0212292Y0102546D01*
X0213300Y0101537D01*
X0214618Y0100992D01*
X0216044Y0100992D01*
X0217361Y0101537D01*
X0217900Y0102076D01*
X0222709Y0102076D01*
X0224646Y0100139D01*
X0224646Y0097893D01*
X0225817Y0096722D01*
X0230949Y0096722D01*
X0231357Y0096314D01*
X0229851Y0094808D01*
X0203342Y0094808D01*
X0203424Y0095005D01*
X0203424Y0096431D01*
X0202878Y0097748D01*
X0201870Y0098756D01*
X0200552Y0099302D01*
X0199850Y0099302D01*
X0199850Y0100368D01*
X0199305Y0101685D01*
X0198296Y0102693D01*
X0196979Y0103239D01*
X0196277Y0103239D01*
X0196277Y0104305D01*
X0195731Y0105622D01*
X0194723Y0106630D01*
X0193406Y0107176D01*
X0192644Y0107176D01*
X0191156Y0108664D01*
X0190237Y0109044D01*
X0189429Y0109044D01*
X0190685Y0110300D01*
X0190685Y0114442D01*
X0187756Y0117371D01*
X0183614Y0117371D01*
X0180685Y0114442D01*
X0177756Y0117371D01*
X0173614Y0117371D01*
X0170685Y0114442D01*
X0167756Y0117371D01*
X0163614Y0117371D01*
X0160685Y0114442D01*
X0157756Y0117371D01*
X0153614Y0117371D01*
X0150685Y0114442D01*
X0147756Y0117371D01*
X0143614Y0117371D01*
X0140685Y0114442D01*
X0137756Y0117371D01*
X0133614Y0117371D01*
X0130685Y0114442D01*
X0127756Y0117371D01*
X0123614Y0117371D01*
X0121958Y0115715D01*
X0121401Y0116272D01*
X0119029Y0118644D01*
X0120685Y0120300D01*
X0123614Y0117371D01*
X0127756Y0117371D01*
X0130685Y0120300D01*
X0130685Y0124442D01*
X0127756Y0127371D01*
X0123614Y0127371D01*
X0120685Y0124442D01*
X0120685Y0120300D01*
X0120685Y0124442D01*
X0117756Y0127371D01*
X0113614Y0127371D01*
X0110685Y0124442D01*
X0107756Y0127371D01*
X0103614Y0127371D01*
X0100685Y0124442D01*
X0097756Y0127371D01*
X0093614Y0127371D01*
X0090685Y0124442D01*
X0090685Y0120300D01*
X0093614Y0117371D01*
X0093248Y0117005D01*
X0092731Y0117522D01*
X0090319Y0119934D01*
X0090685Y0120300D01*
X0090685Y0124442D01*
X0087756Y0127371D01*
X0083614Y0127371D01*
X0080685Y0124442D01*
X0077756Y0127371D01*
X0073614Y0127371D01*
X0070685Y0124442D01*
X0067756Y0127371D01*
X0063614Y0127371D01*
X0060685Y0124442D01*
X0057756Y0127371D01*
X0053614Y0127371D01*
X0050685Y0124442D01*
X0047756Y0127371D01*
X0045685Y0127371D01*
X0043614Y0127371D01*
X0040685Y0124442D01*
X0040685Y0122371D01*
X0040685Y0120300D01*
X0043614Y0117371D01*
X0040685Y0114442D01*
X0037756Y0117371D01*
X0033614Y0117371D01*
X0030685Y0114442D01*
X0030685Y0110300D01*
X0033614Y0107371D01*
X0037756Y0107371D01*
X0040685Y0110300D01*
X0040685Y0114442D01*
X0040685Y0110300D01*
X0043614Y0107371D01*
X0047149Y0107371D01*
X0052345Y0102176D01*
X0053048Y0101472D01*
X0053967Y0101092D01*
X0089295Y0101092D01*
X0100626Y0089761D01*
X0099404Y0090982D02*
X0026839Y0090982D01*
X0030564Y0092981D02*
X0097406Y0092981D01*
X0095407Y0094979D02*
X0032563Y0094979D01*
X0033354Y0096978D02*
X0093409Y0096978D01*
X0091410Y0098977D02*
X0033354Y0098977D01*
X0033354Y0100975D02*
X0089412Y0100975D01*
X0096976Y0107371D02*
X0097756Y0107371D01*
X0100685Y0110300D01*
X0100685Y0114442D01*
X0097756Y0117371D01*
X0093614Y0117371D01*
X0097756Y0117371D01*
X0100685Y0120300D01*
X0100685Y0124442D01*
X0100685Y0120300D01*
X0103614Y0117371D01*
X0100685Y0114442D01*
X0100685Y0110300D01*
X0103614Y0107371D01*
X0107756Y0107371D01*
X0109412Y0109027D01*
X0109969Y0108471D01*
X0113332Y0105107D01*
X0099240Y0105107D01*
X0096976Y0107371D01*
X0097377Y0106971D02*
X0111469Y0106971D01*
X0109969Y0108471D02*
X0109969Y0108471D01*
X0109471Y0108969D02*
X0109354Y0108969D01*
X0102016Y0108969D02*
X0099354Y0108969D01*
X0100685Y0110968D02*
X0100685Y0110968D01*
X0100685Y0112966D02*
X0100685Y0112966D01*
X0100163Y0114965D02*
X0101207Y0114965D01*
X0103206Y0116963D02*
X0098164Y0116963D01*
X0099346Y0118962D02*
X0102024Y0118962D01*
X0103614Y0117371D02*
X0107150Y0117371D01*
X0103614Y0117371D01*
X0107150Y0117371D02*
X0107150Y0117371D01*
X0110685Y0120907D02*
X0110685Y0124442D01*
X0110685Y0120907D01*
X0110685Y0120907D01*
X0110685Y0120960D02*
X0110685Y0120960D01*
X0110685Y0122959D02*
X0110685Y0122959D01*
X0110170Y0124957D02*
X0111200Y0124957D01*
X0113198Y0126956D02*
X0108172Y0126956D01*
X0103198Y0126956D02*
X0098172Y0126956D01*
X0100170Y0124957D02*
X0101200Y0124957D01*
X0100685Y0122959D02*
X0100685Y0122959D01*
X0100685Y0120960D02*
X0100685Y0120960D01*
X0092024Y0118962D02*
X0091292Y0118962D01*
X0090685Y0120960D02*
X0090685Y0120960D01*
X0090685Y0122959D02*
X0090685Y0122959D01*
X0090170Y0124957D02*
X0091200Y0124957D01*
X0093198Y0126956D02*
X0088172Y0126956D01*
X0083198Y0126956D02*
X0078172Y0126956D01*
X0080170Y0124957D02*
X0081200Y0124957D01*
X0080685Y0124442D02*
X0080685Y0120300D01*
X0077756Y0117371D01*
X0073614Y0117371D01*
X0070685Y0114442D01*
X0067756Y0117371D01*
X0063614Y0117371D01*
X0060685Y0114442D01*
X0057756Y0117371D01*
X0053614Y0117371D01*
X0050685Y0114442D01*
X0047756Y0117371D01*
X0043614Y0117371D01*
X0045685Y0117371D01*
X0045685Y0122371D01*
X0045685Y0122371D01*
X0045685Y0117371D01*
X0047756Y0117371D01*
X0050685Y0120300D01*
X0050685Y0122371D01*
X0045685Y0122371D01*
X0040685Y0122371D01*
X0035685Y0122371D01*
X0035685Y0122371D01*
X0035685Y0117371D01*
X0033614Y0117371D01*
X0030685Y0120300D01*
X0030685Y0122371D01*
X0035685Y0122371D01*
X0035685Y0117371D01*
X0037756Y0117371D01*
X0040685Y0120300D01*
X0040685Y0122371D01*
X0045685Y0122371D01*
X0045685Y0122371D01*
X0045685Y0122371D01*
X0050685Y0122371D01*
X0050685Y0124442D01*
X0050685Y0120300D01*
X0053614Y0117371D01*
X0057756Y0117371D01*
X0060685Y0120300D01*
X0060685Y0124442D01*
X0060685Y0120300D01*
X0063614Y0117371D01*
X0067756Y0117371D01*
X0070685Y0120300D01*
X0070685Y0124442D01*
X0070685Y0120300D01*
X0073614Y0117371D01*
X0077756Y0117371D01*
X0080685Y0114442D01*
X0080685Y0110300D01*
X0078445Y0108060D01*
X0082925Y0108060D01*
X0080685Y0110300D01*
X0080685Y0114442D01*
X0083614Y0117371D01*
X0085811Y0117371D01*
X0085811Y0117371D01*
X0083614Y0117371D01*
X0080685Y0120300D01*
X0080685Y0124442D01*
X0080685Y0122959D02*
X0080685Y0122959D01*
X0080685Y0120960D02*
X0080685Y0120960D01*
X0079346Y0118962D02*
X0082024Y0118962D01*
X0083206Y0116963D02*
X0078164Y0116963D01*
X0080163Y0114965D02*
X0081207Y0114965D01*
X0080685Y0112966D02*
X0080685Y0112966D01*
X0080685Y0110968D02*
X0080685Y0110968D01*
X0079354Y0108969D02*
X0082016Y0108969D01*
X0072925Y0108060D02*
X0068445Y0108060D01*
X0070685Y0110300D01*
X0070685Y0114442D01*
X0070685Y0110300D01*
X0072925Y0108060D01*
X0072016Y0108969D02*
X0069354Y0108969D01*
X0070685Y0110968D02*
X0070685Y0110968D01*
X0070685Y0112966D02*
X0070685Y0112966D01*
X0070163Y0114965D02*
X0071207Y0114965D01*
X0073206Y0116963D02*
X0068164Y0116963D01*
X0069346Y0118962D02*
X0072024Y0118962D01*
X0070685Y0120960D02*
X0070685Y0120960D01*
X0070685Y0122959D02*
X0070685Y0122959D01*
X0070170Y0124957D02*
X0071200Y0124957D01*
X0073198Y0126956D02*
X0068172Y0126956D01*
X0063198Y0126956D02*
X0058172Y0126956D01*
X0060170Y0124957D02*
X0061200Y0124957D01*
X0060685Y0122959D02*
X0060685Y0122959D01*
X0060685Y0120960D02*
X0060685Y0120960D01*
X0059346Y0118962D02*
X0062024Y0118962D01*
X0063206Y0116963D02*
X0058164Y0116963D01*
X0060163Y0114965D02*
X0061207Y0114965D01*
X0060685Y0114442D02*
X0060685Y0110907D01*
X0060685Y0110907D01*
X0060685Y0114442D01*
X0060685Y0112966D02*
X0060685Y0112966D01*
X0060685Y0110968D02*
X0060685Y0110968D01*
X0053206Y0116963D02*
X0048164Y0116963D01*
X0050163Y0114965D02*
X0051207Y0114965D01*
X0050685Y0114442D02*
X0050685Y0110907D01*
X0050685Y0110907D01*
X0050685Y0114442D01*
X0050685Y0112966D02*
X0050685Y0112966D01*
X0050685Y0110968D02*
X0050685Y0110968D01*
X0047550Y0106971D02*
X0004732Y0106971D01*
X0004732Y0108969D02*
X0032016Y0108969D01*
X0030685Y0110968D02*
X0020424Y0110968D01*
X0020711Y0111086D02*
X0022797Y0113172D01*
X0023925Y0115897D01*
X0023925Y0118846D01*
X0022797Y0121571D01*
X0020711Y0123656D01*
X0017986Y0124785D01*
X0015037Y0124785D01*
X0012312Y0123656D01*
X0010227Y0121571D01*
X0009098Y0118846D01*
X0009098Y0115897D01*
X0010227Y0113172D01*
X0012312Y0111086D01*
X0015037Y0109958D01*
X0017986Y0109958D01*
X0020711Y0111086D01*
X0022591Y0112966D02*
X0030685Y0112966D01*
X0031207Y0114965D02*
X0023539Y0114965D01*
X0023925Y0116963D02*
X0033206Y0116963D01*
X0032024Y0118962D02*
X0023877Y0118962D01*
X0023049Y0120960D02*
X0030685Y0120960D01*
X0030685Y0122371D02*
X0035685Y0122371D01*
X0035685Y0122371D01*
X0035685Y0122371D01*
X0040685Y0122371D01*
X0040685Y0124442D01*
X0037756Y0127371D01*
X0035685Y0127371D01*
X0033614Y0127371D01*
X0030685Y0124442D01*
X0030685Y0122371D01*
X0030685Y0122959D02*
X0021408Y0122959D01*
X0031200Y0124957D02*
X0006647Y0124957D01*
X0005530Y0122959D02*
X0011615Y0122959D01*
X0009974Y0120960D02*
X0004881Y0120960D01*
X0004732Y0118962D02*
X0009146Y0118962D01*
X0009098Y0116963D02*
X0004732Y0116963D01*
X0004732Y0114965D02*
X0009484Y0114965D01*
X0010433Y0112966D02*
X0004732Y0112966D01*
X0004732Y0110968D02*
X0012599Y0110968D01*
X0011590Y0104972D02*
X0011591Y0104972D01*
X0015188Y0104972D02*
X0022756Y0104972D01*
X0020758Y0102974D02*
X0017187Y0102974D01*
X0018591Y0100975D02*
X0019354Y0100975D01*
X0019354Y0098977D02*
X0018591Y0098977D01*
X0018591Y0096978D02*
X0019354Y0096978D01*
X0020146Y0094979D02*
X0017799Y0094979D01*
X0015801Y0092981D02*
X0020839Y0092981D01*
X0023839Y0096155D02*
X0026354Y0098670D01*
X0023839Y0096155D02*
X0023839Y0083907D01*
X0023839Y0074064D01*
X0023839Y0064222D01*
X0023839Y0054379D01*
X0027110Y0057008D02*
X0027633Y0057008D01*
X0026839Y0059006D02*
X0037571Y0059006D01*
X0037299Y0057008D02*
X0034044Y0057008D01*
X0030839Y0057008D02*
X0030839Y0057008D01*
X0030839Y0055009D02*
X0030839Y0055009D01*
X0030839Y0053011D02*
X0030839Y0053011D01*
X0037416Y0049014D02*
X0013590Y0049014D01*
X0009574Y0049014D02*
X0004732Y0049014D01*
X0004732Y0051012D02*
X0006861Y0051012D01*
X0005968Y0053011D02*
X0004732Y0053011D01*
X0004732Y0055009D02*
X0005882Y0055009D01*
X0006513Y0057008D02*
X0004732Y0057008D01*
X0004732Y0059006D02*
X0008176Y0059006D01*
X0006868Y0061005D02*
X0004732Y0061005D01*
X0004732Y0063003D02*
X0005971Y0063003D01*
X0005882Y0065002D02*
X0004732Y0065002D01*
X0004732Y0067000D02*
X0006510Y0067000D01*
X0008169Y0068999D02*
X0004732Y0068999D01*
X0004732Y0070997D02*
X0006875Y0070997D01*
X0005974Y0072996D02*
X0004732Y0072996D01*
X0004732Y0074994D02*
X0005882Y0074994D01*
X0006507Y0076993D02*
X0004732Y0076993D01*
X0004732Y0078991D02*
X0008161Y0078991D01*
X0006979Y0080990D02*
X0004732Y0080990D01*
X0004732Y0082988D02*
X0006032Y0082988D01*
X0005912Y0084987D02*
X0004732Y0084987D01*
X0004732Y0086985D02*
X0006527Y0086985D01*
X0007381Y0092981D02*
X0004732Y0092981D01*
X0004732Y0094979D02*
X0005382Y0094979D01*
X0011590Y0094979D02*
X0011591Y0094979D01*
X0011590Y0092981D02*
X0011591Y0092981D01*
X0011590Y0096978D02*
X0011591Y0096978D01*
X0011590Y0098977D02*
X0011591Y0098977D01*
X0011590Y0100975D02*
X0011591Y0100975D01*
X0011590Y0102974D02*
X0011591Y0102974D01*
X0007993Y0104972D02*
X0004732Y0104972D01*
X0004732Y0102974D02*
X0005994Y0102974D01*
X0029952Y0104972D02*
X0049549Y0104972D01*
X0051547Y0102974D02*
X0031951Y0102974D01*
X0039354Y0108969D02*
X0042016Y0108969D01*
X0040685Y0110968D02*
X0040685Y0110968D01*
X0040685Y0112966D02*
X0040685Y0112966D01*
X0040163Y0114965D02*
X0041207Y0114965D01*
X0043206Y0116963D02*
X0038164Y0116963D01*
X0039346Y0118962D02*
X0042024Y0118962D01*
X0040685Y0120960D02*
X0040685Y0120960D01*
X0040685Y0122959D02*
X0040685Y0122959D01*
X0040170Y0124957D02*
X0041200Y0124957D01*
X0043198Y0126956D02*
X0038172Y0126956D01*
X0035685Y0126956D02*
X0035685Y0126956D01*
X0035685Y0127371D02*
X0035685Y0122371D01*
X0035685Y0127371D01*
X0033198Y0126956D02*
X0008540Y0126956D01*
X0012775Y0128954D02*
X0248595Y0128954D01*
X0252830Y0126956D02*
X0228172Y0126956D01*
X0227756Y0127371D02*
X0223614Y0127371D01*
X0220685Y0124442D01*
X0217756Y0127371D01*
X0213614Y0127371D01*
X0210685Y0124442D01*
X0207756Y0127371D01*
X0203614Y0127371D01*
X0200685Y0124442D01*
X0197756Y0127371D01*
X0193614Y0127371D01*
X0190685Y0124442D01*
X0187756Y0127371D01*
X0183614Y0127371D01*
X0180685Y0124442D01*
X0177756Y0127371D01*
X0173614Y0127371D01*
X0170685Y0124442D01*
X0167756Y0127371D01*
X0163614Y0127371D01*
X0160685Y0124442D01*
X0157756Y0127371D01*
X0153614Y0127371D01*
X0150685Y0124442D01*
X0147756Y0127371D01*
X0143614Y0127371D01*
X0140685Y0124442D01*
X0137756Y0127371D01*
X0133614Y0127371D01*
X0130685Y0124442D01*
X0130685Y0120300D01*
X0133614Y0117371D01*
X0137756Y0117371D01*
X0140685Y0120300D01*
X0140685Y0124442D01*
X0140685Y0120300D01*
X0143614Y0117371D01*
X0147756Y0117371D01*
X0150685Y0120300D01*
X0150685Y0124442D01*
X0150685Y0120300D01*
X0153614Y0117371D01*
X0157756Y0117371D01*
X0160685Y0120300D01*
X0160685Y0124442D01*
X0160685Y0120300D01*
X0163614Y0117371D01*
X0167756Y0117371D01*
X0170685Y0120300D01*
X0170685Y0124442D01*
X0170685Y0120300D01*
X0173614Y0117371D01*
X0177756Y0117371D01*
X0180685Y0120300D01*
X0180685Y0124442D01*
X0180685Y0120300D01*
X0183614Y0117371D01*
X0187756Y0117371D01*
X0190685Y0120300D01*
X0190685Y0124442D01*
X0190685Y0120300D01*
X0193614Y0117371D01*
X0197756Y0117371D01*
X0200685Y0120300D01*
X0200685Y0124442D01*
X0200685Y0120300D01*
X0203614Y0117371D01*
X0207756Y0117371D01*
X0210685Y0120300D01*
X0210685Y0124442D01*
X0210685Y0120300D01*
X0213614Y0117371D01*
X0217756Y0117371D01*
X0220685Y0120300D01*
X0220685Y0124442D01*
X0220685Y0120300D01*
X0223614Y0117371D01*
X0227756Y0117371D01*
X0230685Y0120300D01*
X0230685Y0124442D01*
X0227756Y0127371D01*
X0230170Y0124957D02*
X0254723Y0124957D01*
X0255840Y0122959D02*
X0249755Y0122959D01*
X0249058Y0123656D02*
X0246333Y0124785D01*
X0243384Y0124785D01*
X0240659Y0123656D01*
X0238573Y0121571D01*
X0237445Y0118846D01*
X0237445Y0115897D01*
X0238573Y0113172D01*
X0240659Y0111086D01*
X0243384Y0109958D01*
X0246333Y0109958D01*
X0249058Y0111086D01*
X0251143Y0113172D01*
X0252272Y0115897D01*
X0252272Y0118846D01*
X0251143Y0121571D01*
X0249058Y0123656D01*
X0251396Y0120960D02*
X0256489Y0120960D01*
X0256638Y0118962D02*
X0252224Y0118962D01*
X0252272Y0116963D02*
X0256638Y0116963D01*
X0256638Y0114965D02*
X0251886Y0114965D01*
X0250937Y0112966D02*
X0256638Y0112966D01*
X0256638Y0110968D02*
X0248771Y0110968D01*
X0240946Y0110968D02*
X0230685Y0110968D01*
X0230685Y0112966D02*
X0238779Y0112966D01*
X0237831Y0114965D02*
X0230163Y0114965D01*
X0228164Y0116963D02*
X0237445Y0116963D01*
X0237493Y0118962D02*
X0229346Y0118962D01*
X0230685Y0120960D02*
X0238321Y0120960D01*
X0239962Y0122959D02*
X0230685Y0122959D01*
X0223198Y0126956D02*
X0218172Y0126956D01*
X0220170Y0124957D02*
X0221200Y0124957D01*
X0220685Y0122959D02*
X0220685Y0122959D01*
X0220685Y0120960D02*
X0220685Y0120960D01*
X0219346Y0118962D02*
X0222024Y0118962D01*
X0223206Y0116963D02*
X0218164Y0116963D01*
X0220163Y0114965D02*
X0221207Y0114965D01*
X0220685Y0112966D02*
X0220685Y0112966D01*
X0220685Y0110968D02*
X0220685Y0110968D01*
X0219354Y0108969D02*
X0222016Y0108969D01*
X0224496Y0106971D02*
X0231720Y0106971D01*
X0233879Y0108969D02*
X0229354Y0108969D01*
X0236152Y0108969D02*
X0256638Y0108969D01*
X0256638Y0106971D02*
X0238311Y0106971D01*
X0238600Y0104972D02*
X0256638Y0104972D01*
X0256638Y0102974D02*
X0247749Y0102974D01*
X0249796Y0100975D02*
X0256638Y0100975D01*
X0256638Y0098977D02*
X0250558Y0098977D01*
X0250558Y0096978D02*
X0256638Y0096978D01*
X0256638Y0094979D02*
X0249776Y0094979D01*
X0247731Y0092981D02*
X0256638Y0092981D01*
X0256638Y0090982D02*
X0249793Y0090982D01*
X0250558Y0088984D02*
X0256638Y0088984D01*
X0256638Y0086985D02*
X0250558Y0086985D01*
X0249779Y0084987D02*
X0256638Y0084987D01*
X0256638Y0082988D02*
X0247713Y0082988D01*
X0249790Y0080990D02*
X0256638Y0080990D01*
X0256638Y0078991D02*
X0250558Y0078991D01*
X0250558Y0076993D02*
X0256638Y0076993D01*
X0256638Y0074994D02*
X0249782Y0074994D01*
X0247669Y0072996D02*
X0256638Y0072996D01*
X0256638Y0070997D02*
X0248427Y0070997D01*
X0249995Y0068999D02*
X0256638Y0068999D01*
X0256638Y0067000D02*
X0250558Y0067000D01*
X0250405Y0065002D02*
X0256638Y0065002D01*
X0256638Y0063003D02*
X0249418Y0063003D01*
X0248420Y0061005D02*
X0256638Y0061005D01*
X0256638Y0059006D02*
X0249992Y0059006D01*
X0250558Y0057008D02*
X0256638Y0057008D01*
X0256638Y0055009D02*
X0250408Y0055009D01*
X0249425Y0053011D02*
X0256638Y0053011D01*
X0256638Y0051012D02*
X0248412Y0051012D01*
X0249989Y0049014D02*
X0256638Y0049014D01*
X0256638Y0047015D02*
X0250558Y0047015D01*
X0250411Y0045017D02*
X0256638Y0045017D01*
X0256638Y0043018D02*
X0249432Y0043018D01*
X0246510Y0041020D02*
X0256638Y0041020D01*
X0256638Y0039021D02*
X0232527Y0039021D01*
X0232842Y0041020D02*
X0243206Y0041020D01*
X0240284Y0043018D02*
X0232440Y0043018D01*
X0232642Y0043193D02*
X0232642Y0026241D01*
X0233047Y0025836D01*
X0232642Y0025430D01*
X0232642Y0018636D01*
X0229420Y0015415D01*
X0203249Y0015415D01*
X0194230Y0024434D01*
X0194230Y0027238D01*
X0196212Y0029220D01*
X0206124Y0029220D01*
X0207981Y0027363D01*
X0206929Y0029029D02*
X0199272Y0029029D01*
X0195956Y0029029D02*
X0156898Y0029029D01*
X0156898Y0031027D02*
X0207402Y0031027D01*
X0209520Y0031027D02*
X0209520Y0031027D01*
X0215101Y0033026D02*
X0156442Y0033026D01*
X0157448Y0035024D02*
X0149314Y0035024D01*
X0149818Y0035527D02*
X0149818Y0035527D01*
X0150849Y0037023D02*
X0157228Y0037023D01*
X0157228Y0039021D02*
X0156094Y0039021D01*
X0154488Y0039021D02*
X0152612Y0039021D01*
X0147356Y0043638D02*
X0146347Y0042630D01*
X0145802Y0041313D01*
X0145802Y0039887D01*
X0145902Y0039645D01*
X0145902Y0038682D01*
X0144939Y0037720D01*
X0144236Y0037016D01*
X0143855Y0036098D01*
X0143855Y0034902D01*
X0143028Y0035730D01*
X0143028Y0039128D01*
X0142647Y0040047D01*
X0142143Y0040551D01*
X0142143Y0041313D01*
X0141598Y0042630D01*
X0140589Y0043638D01*
X0139272Y0044184D01*
X0137846Y0044184D01*
X0136529Y0043638D01*
X0135520Y0042630D01*
X0134975Y0041313D01*
X0134975Y0039887D01*
X0135520Y0038569D01*
X0136529Y0037561D01*
X0137846Y0037015D01*
X0138028Y0037015D01*
X0138028Y0034197D01*
X0138216Y0033741D01*
X0123343Y0033741D01*
X0123343Y0050506D01*
X0122962Y0051425D01*
X0122517Y0051870D01*
X0122589Y0051900D01*
X0123598Y0052908D01*
X0123916Y0053676D01*
X0129269Y0048323D01*
X0130188Y0047942D01*
X0157228Y0047942D01*
X0157228Y0047924D01*
X0157228Y0045645D01*
X0156004Y0046152D01*
X0154578Y0046152D01*
X0153261Y0045607D01*
X0152253Y0044598D01*
X0151726Y0043328D01*
X0151416Y0043638D01*
X0150099Y0044184D01*
X0148673Y0044184D01*
X0147356Y0043638D01*
X0146736Y0043018D02*
X0141209Y0043018D01*
X0142143Y0041020D02*
X0145802Y0041020D01*
X0145902Y0039021D02*
X0143028Y0039021D01*
X0144939Y0037720D02*
X0144939Y0037720D01*
X0144242Y0037023D02*
X0143028Y0037023D01*
X0143733Y0035024D02*
X0143855Y0035024D01*
X0138028Y0035024D02*
X0123343Y0035024D01*
X0123343Y0037023D02*
X0137828Y0037023D01*
X0135333Y0039021D02*
X0123343Y0039021D01*
X0123343Y0041020D02*
X0134975Y0041020D01*
X0135909Y0043018D02*
X0123343Y0043018D01*
X0123343Y0045017D02*
X0152671Y0045017D01*
X0157228Y0047015D02*
X0123343Y0047015D01*
X0123343Y0049014D02*
X0128578Y0049014D01*
X0126579Y0051012D02*
X0123133Y0051012D01*
X0123640Y0053011D02*
X0124581Y0053011D01*
X0132301Y0057008D02*
X0157228Y0057008D01*
X0157228Y0059006D02*
X0130302Y0059006D01*
X0128303Y0061005D02*
X0152707Y0061005D01*
X0152277Y0061183D02*
X0153594Y0060637D01*
X0155020Y0060637D01*
X0156337Y0061183D01*
X0156876Y0061722D01*
X0157228Y0061722D01*
X0157228Y0054911D01*
X0134398Y0054911D01*
X0125494Y0063814D01*
X0126035Y0063590D01*
X0127461Y0063590D01*
X0128778Y0064136D01*
X0129209Y0064566D01*
X0129639Y0064136D01*
X0130956Y0063590D01*
X0132382Y0063590D01*
X0133700Y0064136D01*
X0134622Y0065058D01*
X0135544Y0064136D01*
X0136862Y0063590D01*
X0138288Y0063590D01*
X0139605Y0064136D01*
X0140035Y0064566D01*
X0140466Y0064136D01*
X0141783Y0063590D01*
X0143209Y0063590D01*
X0144526Y0064136D01*
X0145535Y0065144D01*
X0146080Y0066461D01*
X0146080Y0067223D01*
X0150521Y0071664D01*
X0150902Y0072583D01*
X0150902Y0082591D01*
X0151626Y0082291D01*
X0153052Y0082291D01*
X0154369Y0082837D01*
X0155377Y0083845D01*
X0155923Y0085162D01*
X0155923Y0086588D01*
X0155748Y0087010D01*
X0156126Y0087228D01*
X0156498Y0087600D01*
X0156761Y0088056D01*
X0156898Y0088565D01*
X0156898Y0091781D01*
X0156898Y0094997D01*
X0156761Y0095505D01*
X0156498Y0095961D01*
X0156126Y0096334D01*
X0155670Y0096597D01*
X0155161Y0096733D01*
X0154307Y0096733D01*
X0114937Y0096733D01*
X0105644Y0096733D01*
X0104661Y0095750D01*
X0100303Y0100107D01*
X0184466Y0100107D01*
X0189766Y0094808D01*
X0177959Y0094808D01*
X0177040Y0094427D01*
X0176337Y0093724D01*
X0175283Y0092670D01*
X0175283Y0092670D01*
X0167134Y0084521D01*
X0167134Y0085326D01*
X0165962Y0086497D01*
X0158400Y0086497D01*
X0157228Y0085326D01*
X0157228Y0066722D01*
X0156876Y0066722D01*
X0156337Y0067260D01*
X0155020Y0067806D01*
X0153594Y0067806D01*
X0152277Y0067260D01*
X0151269Y0066252D01*
X0150723Y0064935D01*
X0150723Y0063509D01*
X0151269Y0062191D01*
X0152277Y0061183D01*
X0150932Y0063003D02*
X0126305Y0063003D01*
X0134566Y0065002D02*
X0134678Y0065002D01*
X0145392Y0065002D02*
X0150751Y0065002D01*
X0152017Y0067000D02*
X0146080Y0067000D01*
X0147856Y0068999D02*
X0157228Y0068999D01*
X0157228Y0067000D02*
X0156597Y0067000D01*
X0157228Y0070997D02*
X0149855Y0070997D01*
X0150902Y0072996D02*
X0157228Y0072996D01*
X0157228Y0074994D02*
X0150902Y0074994D01*
X0150902Y0076993D02*
X0157228Y0076993D01*
X0157228Y0078991D02*
X0150902Y0078991D01*
X0150902Y0080990D02*
X0157228Y0080990D01*
X0157228Y0082988D02*
X0154521Y0082988D01*
X0155850Y0084987D02*
X0157228Y0084987D01*
X0155758Y0086985D02*
X0169598Y0086985D01*
X0171597Y0088984D02*
X0156898Y0088984D01*
X0156898Y0090982D02*
X0173595Y0090982D01*
X0175594Y0092981D02*
X0156898Y0092981D01*
X0156898Y0091781D02*
X0154929Y0091781D01*
X0154929Y0091781D01*
X0156898Y0091781D01*
X0156898Y0094979D02*
X0189594Y0094979D01*
X0187596Y0096978D02*
X0103433Y0096978D01*
X0101434Y0098977D02*
X0185597Y0098977D01*
X0176337Y0093724D02*
X0176337Y0093724D01*
X0179215Y0086985D02*
X0224646Y0086985D01*
X0230022Y0094979D02*
X0203413Y0094979D01*
X0203197Y0096978D02*
X0225561Y0096978D01*
X0224646Y0098977D02*
X0201338Y0098977D01*
X0199599Y0100975D02*
X0223809Y0100975D01*
X0212115Y0102974D02*
X0197620Y0102974D01*
X0196001Y0104972D02*
X0211746Y0104972D01*
X0212656Y0106971D02*
X0193902Y0106971D01*
X0192016Y0108969D02*
X0190419Y0108969D01*
X0190685Y0110968D02*
X0190685Y0110968D01*
X0190685Y0112966D02*
X0190685Y0112966D01*
X0190163Y0114965D02*
X0191207Y0114965D01*
X0193206Y0116963D02*
X0188164Y0116963D01*
X0189346Y0118962D02*
X0192024Y0118962D01*
X0190685Y0120960D02*
X0190685Y0120960D01*
X0190685Y0122959D02*
X0190685Y0122959D01*
X0190170Y0124957D02*
X0191200Y0124957D01*
X0193198Y0126956D02*
X0188172Y0126956D01*
X0183198Y0126956D02*
X0178172Y0126956D01*
X0180170Y0124957D02*
X0181200Y0124957D01*
X0180685Y0122959D02*
X0180685Y0122959D01*
X0180685Y0120960D02*
X0180685Y0120960D01*
X0179346Y0118962D02*
X0182024Y0118962D01*
X0183206Y0116963D02*
X0178164Y0116963D01*
X0180163Y0114965D02*
X0181207Y0114965D01*
X0180685Y0114442D02*
X0180685Y0110300D01*
X0179429Y0109044D01*
X0181941Y0109044D01*
X0180685Y0110300D01*
X0180685Y0114442D01*
X0180685Y0112966D02*
X0180685Y0112966D01*
X0180685Y0110968D02*
X0180685Y0110968D01*
X0171941Y0109044D02*
X0169429Y0109044D01*
X0170685Y0110300D01*
X0170685Y0114442D01*
X0170685Y0110300D01*
X0171941Y0109044D01*
X0170685Y0110968D02*
X0170685Y0110968D01*
X0170685Y0112966D02*
X0170685Y0112966D01*
X0170163Y0114965D02*
X0171207Y0114965D01*
X0173206Y0116963D02*
X0168164Y0116963D01*
X0169346Y0118962D02*
X0172024Y0118962D01*
X0170685Y0120960D02*
X0170685Y0120960D01*
X0170685Y0122959D02*
X0170685Y0122959D01*
X0170170Y0124957D02*
X0171200Y0124957D01*
X0173198Y0126956D02*
X0168172Y0126956D01*
X0163198Y0126956D02*
X0158172Y0126956D01*
X0160170Y0124957D02*
X0161200Y0124957D01*
X0160685Y0122959D02*
X0160685Y0122959D01*
X0160685Y0120960D02*
X0160685Y0120960D01*
X0159346Y0118962D02*
X0162024Y0118962D01*
X0163206Y0116963D02*
X0158164Y0116963D01*
X0160163Y0114965D02*
X0161207Y0114965D01*
X0160685Y0114442D02*
X0160685Y0110300D01*
X0159429Y0109044D01*
X0161941Y0109044D01*
X0160685Y0110300D01*
X0160685Y0114442D01*
X0160685Y0112966D02*
X0160685Y0112966D01*
X0160685Y0110968D02*
X0160685Y0110968D01*
X0151941Y0109044D02*
X0149429Y0109044D01*
X0150685Y0110300D01*
X0150685Y0114442D01*
X0150685Y0110300D01*
X0151941Y0109044D01*
X0150685Y0110968D02*
X0150685Y0110968D01*
X0150685Y0112966D02*
X0150685Y0112966D01*
X0150163Y0114965D02*
X0151207Y0114965D01*
X0153206Y0116963D02*
X0148164Y0116963D01*
X0149346Y0118962D02*
X0152024Y0118962D01*
X0150685Y0120960D02*
X0150685Y0120960D01*
X0150685Y0122959D02*
X0150685Y0122959D01*
X0150170Y0124957D02*
X0151200Y0124957D01*
X0153198Y0126956D02*
X0148172Y0126956D01*
X0143198Y0126956D02*
X0138172Y0126956D01*
X0140170Y0124957D02*
X0141200Y0124957D01*
X0140685Y0122959D02*
X0140685Y0122959D01*
X0140685Y0120960D02*
X0140685Y0120960D01*
X0139346Y0118962D02*
X0142024Y0118962D01*
X0143206Y0116963D02*
X0138164Y0116963D01*
X0140163Y0114965D02*
X0141207Y0114965D01*
X0140685Y0114442D02*
X0140685Y0110300D01*
X0139429Y0109044D01*
X0141941Y0109044D01*
X0140685Y0110300D01*
X0140685Y0114442D01*
X0140685Y0112966D02*
X0140685Y0112966D01*
X0140685Y0110968D02*
X0140685Y0110968D01*
X0131941Y0109044D02*
X0129429Y0109044D01*
X0130685Y0110300D01*
X0130685Y0114442D01*
X0130685Y0110300D01*
X0131941Y0109044D01*
X0130685Y0110968D02*
X0130685Y0110968D01*
X0130685Y0112966D02*
X0130685Y0112966D01*
X0130163Y0114965D02*
X0131207Y0114965D01*
X0133206Y0116963D02*
X0128164Y0116963D01*
X0129346Y0118962D02*
X0132024Y0118962D01*
X0130685Y0120960D02*
X0130685Y0120960D01*
X0130685Y0122959D02*
X0130685Y0122959D01*
X0130170Y0124957D02*
X0131200Y0124957D01*
X0133198Y0126956D02*
X0128172Y0126956D01*
X0123198Y0126956D02*
X0118172Y0126956D01*
X0120170Y0124957D02*
X0121200Y0124957D01*
X0120685Y0122959D02*
X0120685Y0122959D01*
X0120685Y0120960D02*
X0120685Y0120960D01*
X0119346Y0118962D02*
X0122024Y0118962D01*
X0123206Y0116963D02*
X0120710Y0116963D01*
X0114937Y0096733D02*
X0114937Y0096184D01*
X0114937Y0096733D01*
X0114937Y0096184D02*
X0114937Y0096184D01*
X0114937Y0096184D01*
X0100626Y0086985D02*
X0050426Y0086985D01*
X0047571Y0086985D02*
X0047571Y0086985D01*
X0044716Y0086985D02*
X0043426Y0086985D01*
X0047571Y0084987D02*
X0047571Y0084987D01*
X0047571Y0083907D02*
X0047571Y0079741D01*
X0047571Y0083907D01*
X0047571Y0083907D01*
X0047571Y0082988D02*
X0047571Y0082988D01*
X0051339Y0082988D02*
X0094236Y0082988D01*
X0094236Y0084987D02*
X0051339Y0084987D01*
X0050584Y0080990D02*
X0094236Y0080990D01*
X0094236Y0078991D02*
X0043571Y0078991D01*
X0043588Y0080990D02*
X0044558Y0080990D01*
X0047571Y0080990D02*
X0047571Y0080990D01*
X0047571Y0076993D02*
X0047571Y0076993D01*
X0047571Y0074994D02*
X0047571Y0074994D01*
X0050576Y0076993D02*
X0094236Y0076993D01*
X0094236Y0074994D02*
X0051339Y0074994D01*
X0051339Y0072996D02*
X0094236Y0072996D01*
X0094236Y0070997D02*
X0050438Y0070997D01*
X0047571Y0070997D02*
X0047571Y0070997D01*
X0047571Y0072996D02*
X0047571Y0072996D01*
X0044704Y0070997D02*
X0043571Y0070997D01*
X0043571Y0068999D02*
X0094236Y0068999D01*
X0094236Y0067000D02*
X0050676Y0067000D01*
X0051339Y0065002D02*
X0094236Y0065002D01*
X0092413Y0063003D02*
X0051313Y0063003D01*
X0051339Y0064222D02*
X0047571Y0064222D01*
X0051339Y0064222D01*
X0047571Y0064222D02*
X0047571Y0064222D01*
X0047571Y0064221D02*
X0047571Y0060056D01*
X0047571Y0064221D01*
X0047571Y0064221D01*
X0047571Y0065002D02*
X0047571Y0065002D01*
X0047571Y0067000D02*
X0047571Y0067000D01*
X0044465Y0067000D02*
X0043726Y0067000D01*
X0037416Y0067000D02*
X0033944Y0067000D01*
X0034607Y0065002D02*
X0036802Y0065002D01*
X0036802Y0063003D02*
X0034581Y0063003D01*
X0033555Y0061005D02*
X0037571Y0061005D01*
X0043571Y0061005D02*
X0044854Y0061005D01*
X0047571Y0061005D02*
X0047571Y0061005D01*
X0047571Y0063003D02*
X0047571Y0063003D01*
X0050288Y0061005D02*
X0090415Y0061005D01*
X0088416Y0059006D02*
X0043571Y0059006D01*
X0043843Y0057008D02*
X0044365Y0057008D01*
X0047571Y0057008D02*
X0047571Y0057008D01*
X0050777Y0057008D02*
X0086418Y0057008D01*
X0084419Y0055009D02*
X0051339Y0055009D01*
X0051283Y0053011D02*
X0082421Y0053011D01*
X0080422Y0051012D02*
X0050137Y0051012D01*
X0047571Y0051012D02*
X0047571Y0051012D01*
X0045004Y0051012D02*
X0043571Y0051012D01*
X0043571Y0049014D02*
X0079957Y0049014D01*
X0079957Y0047015D02*
X0043441Y0047015D01*
X0040571Y0047926D02*
X0040571Y0054379D01*
X0047571Y0055009D02*
X0047571Y0055009D01*
X0047571Y0053011D02*
X0047571Y0053011D01*
X0040571Y0047926D02*
X0034228Y0041584D01*
X0029120Y0039021D02*
X0004732Y0039021D01*
X0004732Y0041020D02*
X0028528Y0041020D01*
X0028653Y0043018D02*
X0004732Y0043018D01*
X0004732Y0045017D02*
X0029600Y0045017D01*
X0032446Y0047015D02*
X0004732Y0047015D01*
X0004732Y0037023D02*
X0030728Y0037023D01*
X0029608Y0035024D02*
X0004732Y0035024D01*
X0004732Y0033026D02*
X0012233Y0033026D01*
X0012312Y0033105D02*
X0010227Y0031019D01*
X0009098Y0028295D01*
X0009098Y0025345D01*
X0010227Y0022621D01*
X0012312Y0020535D01*
X0015037Y0019407D01*
X0017986Y0019407D01*
X0020711Y0020535D01*
X0022797Y0022621D01*
X0023925Y0025345D01*
X0023925Y0028295D01*
X0022797Y0031019D01*
X0020711Y0033105D01*
X0017986Y0034233D01*
X0015037Y0034233D01*
X0012312Y0033105D01*
X0010235Y0031027D02*
X0004732Y0031027D01*
X0004732Y0029029D02*
X0009402Y0029029D01*
X0009098Y0027030D02*
X0004732Y0027030D01*
X0004732Y0025032D02*
X0009228Y0025032D01*
X0010056Y0023033D02*
X0004945Y0023033D01*
X0005595Y0021035D02*
X0011813Y0021035D01*
X0006791Y0019036D02*
X0029114Y0019036D01*
X0030714Y0017038D02*
X0008812Y0017038D01*
X0021210Y0021035D02*
X0028528Y0021035D01*
X0028659Y0023033D02*
X0022967Y0023033D01*
X0023795Y0025032D02*
X0029615Y0025032D01*
X0030721Y0027030D02*
X0023925Y0027030D01*
X0023621Y0029029D02*
X0029117Y0029029D01*
X0028528Y0031027D02*
X0022789Y0031027D01*
X0020790Y0033026D02*
X0028656Y0033026D01*
X0037728Y0037023D02*
X0081726Y0037023D01*
X0083187Y0037023D02*
X0085762Y0037023D01*
X0086146Y0035024D02*
X0038849Y0035024D01*
X0039801Y0033026D02*
X0104928Y0033026D01*
X0104472Y0031027D02*
X0039928Y0031027D01*
X0039340Y0029029D02*
X0104472Y0029029D01*
X0104472Y0027030D02*
X0037736Y0027030D01*
X0038842Y0025032D02*
X0104472Y0025032D01*
X0113167Y0023033D02*
X0039798Y0023033D01*
X0039928Y0021035D02*
X0115165Y0021035D01*
X0117164Y0019036D02*
X0039343Y0019036D01*
X0037743Y0017038D02*
X0119162Y0017038D01*
X0145096Y0017038D02*
X0222958Y0017038D01*
X0221750Y0019036D02*
X0145598Y0019036D01*
X0146080Y0021035D02*
X0221442Y0021035D01*
X0221850Y0023033D02*
X0218648Y0023033D01*
X0219787Y0025032D02*
X0223198Y0025032D01*
X0222965Y0027030D02*
X0220399Y0027030D01*
X0231086Y0025032D02*
X0237575Y0025032D01*
X0237445Y0025345D02*
X0238573Y0022621D01*
X0240659Y0020535D01*
X0243384Y0019407D01*
X0246333Y0019407D01*
X0249058Y0020535D01*
X0251143Y0022621D01*
X0252272Y0025345D01*
X0252272Y0028295D01*
X0251143Y0031019D01*
X0249058Y0033105D01*
X0246333Y0034233D01*
X0243384Y0034233D01*
X0240659Y0033105D01*
X0238573Y0031019D01*
X0237445Y0028295D01*
X0237445Y0025345D01*
X0237445Y0027030D02*
X0231318Y0027030D01*
X0232530Y0029029D02*
X0237749Y0029029D01*
X0238581Y0031027D02*
X0232842Y0031027D01*
X0232437Y0033026D02*
X0240580Y0033026D01*
X0249137Y0033026D02*
X0256638Y0033026D01*
X0256638Y0031027D02*
X0251135Y0031027D01*
X0251968Y0029029D02*
X0256638Y0029029D01*
X0256638Y0027030D02*
X0252272Y0027030D01*
X0252142Y0025032D02*
X0256638Y0025032D01*
X0256425Y0023033D02*
X0251314Y0023033D01*
X0249557Y0021035D02*
X0255775Y0021035D01*
X0254579Y0019036D02*
X0232533Y0019036D01*
X0231326Y0017038D02*
X0252558Y0017038D01*
X0240160Y0021035D02*
X0232842Y0021035D01*
X0232434Y0023033D02*
X0238403Y0023033D01*
X0231093Y0035024D02*
X0256638Y0035024D01*
X0256638Y0037023D02*
X0231311Y0037023D01*
X0232642Y0043193D02*
X0229420Y0046415D01*
X0229201Y0046415D01*
X0227142Y0048474D01*
X0227236Y0048568D01*
X0227236Y0052954D01*
X0224646Y0053011D02*
X0220451Y0053011D01*
X0222782Y0051012D02*
X0224646Y0051012D01*
X0225395Y0049014D02*
X0223836Y0049014D01*
X0223527Y0047015D02*
X0239158Y0047015D01*
X0239728Y0049014D02*
X0236754Y0049014D01*
X0239305Y0045017D02*
X0231101Y0045017D01*
X0227236Y0049014D02*
X0227236Y0049014D01*
X0223183Y0045017D02*
X0221272Y0045017D01*
X0213103Y0035024D02*
X0166914Y0035024D01*
X0167134Y0037023D02*
X0197354Y0037023D01*
X0195356Y0039021D02*
X0167134Y0039021D01*
X0167134Y0041020D02*
X0171148Y0041020D01*
X0172899Y0041020D02*
X0193357Y0041020D01*
X0191359Y0043018D02*
X0175274Y0043018D01*
X0175608Y0045017D02*
X0189360Y0045017D01*
X0187362Y0047015D02*
X0174614Y0047015D01*
X0172576Y0049014D02*
X0185363Y0049014D01*
X0183365Y0051012D02*
X0171237Y0051012D01*
X0167134Y0053011D02*
X0181366Y0053011D01*
X0179367Y0055009D02*
X0167134Y0055009D01*
X0167134Y0057008D02*
X0177369Y0057008D01*
X0184987Y0059006D02*
X0208824Y0059006D01*
X0206825Y0057008D02*
X0186986Y0057008D01*
X0188984Y0055009D02*
X0203456Y0055009D01*
X0203026Y0053011D02*
X0190983Y0053011D01*
X0192981Y0051012D02*
X0201268Y0051012D01*
X0196038Y0049014D02*
X0194980Y0049014D01*
X0182989Y0061005D02*
X0210822Y0061005D01*
X0212821Y0063003D02*
X0180990Y0063003D01*
X0180596Y0065002D02*
X0177705Y0065002D01*
X0174216Y0065002D02*
X0167134Y0065002D01*
X0167134Y0065641D02*
X0167134Y0065641D01*
X0167134Y0067000D02*
X0172561Y0067000D01*
X0172429Y0068999D02*
X0167134Y0068999D01*
X0167134Y0070997D02*
X0173461Y0070997D01*
X0174310Y0072996D02*
X0167134Y0072996D01*
X0167134Y0074994D02*
X0176308Y0074994D01*
X0178307Y0076993D02*
X0167134Y0076993D01*
X0171221Y0078991D02*
X0177642Y0078991D01*
X0177642Y0080990D02*
X0173219Y0080990D01*
X0175218Y0082988D02*
X0178489Y0082988D01*
X0177217Y0084987D02*
X0180488Y0084987D01*
X0184898Y0084987D02*
X0190488Y0084987D01*
X0188490Y0082988D02*
X0186896Y0082988D01*
X0194898Y0084987D02*
X0200488Y0084987D01*
X0198490Y0082988D02*
X0196896Y0082988D01*
X0204898Y0084987D02*
X0212326Y0084987D01*
X0211746Y0082988D02*
X0206896Y0082988D01*
X0207744Y0080990D02*
X0212252Y0080990D01*
X0207744Y0078991D02*
X0224368Y0078991D01*
X0230104Y0078991D02*
X0239158Y0078991D01*
X0239927Y0080990D02*
X0237234Y0080990D01*
X0237504Y0082988D02*
X0242004Y0082988D01*
X0239937Y0084987D02*
X0238986Y0084987D01*
X0239158Y0076993D02*
X0238140Y0076993D01*
X0239494Y0074994D02*
X0239934Y0074994D01*
X0239437Y0072996D02*
X0242047Y0072996D01*
X0241290Y0070997D02*
X0237962Y0070997D01*
X0232506Y0074994D02*
X0225365Y0074994D01*
X0233860Y0076993D02*
X0206781Y0076993D01*
X0204890Y0074994D02*
X0212244Y0074994D01*
X0211746Y0072996D02*
X0206889Y0072996D01*
X0207744Y0070997D02*
X0212344Y0070997D01*
X0207744Y0068999D02*
X0224290Y0068999D01*
X0216818Y0067000D02*
X0206788Y0067000D01*
X0204790Y0065002D02*
X0214820Y0065002D01*
X0202693Y0065002D02*
X0202693Y0065002D01*
X0202693Y0067000D02*
X0202693Y0067000D01*
X0202693Y0068999D02*
X0202693Y0068999D01*
X0198598Y0067000D02*
X0196788Y0067000D01*
X0194790Y0065002D02*
X0200596Y0065002D01*
X0190596Y0065002D02*
X0184790Y0065002D01*
X0186788Y0067000D02*
X0188598Y0067000D01*
X0157228Y0061005D02*
X0155907Y0061005D01*
X0157228Y0055009D02*
X0134299Y0055009D01*
X0115757Y0049014D02*
X0104142Y0049014D01*
X0104142Y0051012D02*
X0106345Y0051012D01*
X0105447Y0053011D02*
X0104142Y0053011D01*
X0111718Y0051012D02*
X0113758Y0051012D01*
X0116374Y0047015D02*
X0104142Y0047015D01*
X0104142Y0045017D02*
X0116374Y0045017D01*
X0116374Y0043018D02*
X0104142Y0043018D01*
X0104142Y0041020D02*
X0116374Y0041020D01*
X0116374Y0039021D02*
X0104142Y0039021D01*
X0104142Y0037023D02*
X0116374Y0037023D01*
X0116374Y0035024D02*
X0103922Y0035024D01*
X0094456Y0035024D02*
X0092547Y0035024D01*
X0092931Y0037023D02*
X0094236Y0037023D01*
X0094236Y0039021D02*
X0092057Y0039021D01*
X0091846Y0041020D02*
X0094236Y0041020D01*
X0094236Y0043018D02*
X0091846Y0043018D01*
X0091846Y0045017D02*
X0094236Y0045017D01*
X0094236Y0047015D02*
X0091846Y0047015D01*
X0091846Y0049014D02*
X0094236Y0049014D01*
X0094236Y0051012D02*
X0091846Y0051012D01*
X0092037Y0053011D02*
X0094236Y0053011D01*
X0094236Y0055009D02*
X0094036Y0055009D01*
X0086846Y0049014D02*
X0085495Y0049014D01*
X0084957Y0047015D02*
X0086846Y0047015D01*
X0086846Y0045017D02*
X0084957Y0045017D01*
X0085107Y0043018D02*
X0086846Y0043018D01*
X0086846Y0041020D02*
X0086041Y0041020D01*
X0085682Y0039021D02*
X0086636Y0039021D01*
X0079231Y0039021D02*
X0039336Y0039021D01*
X0039928Y0041020D02*
X0078872Y0041020D01*
X0079806Y0043018D02*
X0039905Y0043018D01*
X0041904Y0045017D02*
X0079957Y0045017D01*
X0037571Y0068999D02*
X0026839Y0068999D01*
X0026993Y0067000D02*
X0027733Y0067000D01*
X0030839Y0067000D02*
X0030839Y0067000D01*
X0030839Y0065002D02*
X0030839Y0065002D01*
X0030839Y0064221D02*
X0030839Y0060056D01*
X0030839Y0064221D01*
X0030839Y0064221D01*
X0030839Y0063003D02*
X0030839Y0063003D01*
X0030839Y0061005D02*
X0030839Y0061005D01*
X0028122Y0061005D02*
X0026839Y0061005D01*
X0026839Y0070997D02*
X0027972Y0070997D01*
X0030839Y0070997D02*
X0030839Y0070997D01*
X0030839Y0072996D02*
X0030839Y0072996D01*
X0033705Y0070997D02*
X0037571Y0070997D01*
X0036802Y0072996D02*
X0034607Y0072996D01*
X0034607Y0074994D02*
X0036802Y0074994D01*
X0037566Y0076993D02*
X0033843Y0076993D01*
X0030839Y0076993D02*
X0030839Y0076993D01*
X0030839Y0074994D02*
X0030839Y0074994D01*
X0027834Y0076993D02*
X0026843Y0076993D01*
X0026839Y0078991D02*
X0037571Y0078991D01*
X0037554Y0080990D02*
X0033852Y0080990D01*
X0030839Y0080990D02*
X0030839Y0080990D01*
X0030839Y0079741D02*
X0030839Y0083907D01*
X0030839Y0083907D01*
X0030839Y0079741D01*
X0027825Y0080990D02*
X0026855Y0080990D01*
X0030839Y0082988D02*
X0030839Y0082988D01*
X0030839Y0084987D02*
X0030839Y0084987D01*
X0043576Y0076993D02*
X0044566Y0076993D01*
X0045685Y0118962D02*
X0045685Y0118962D01*
X0045685Y0120960D02*
X0045685Y0120960D01*
X0045685Y0122371D02*
X0045685Y0127371D01*
X0045685Y0122371D01*
X0045685Y0122371D01*
X0045685Y0122959D02*
X0045685Y0122959D01*
X0045685Y0124957D02*
X0045685Y0124957D01*
X0045685Y0126956D02*
X0045685Y0126956D01*
X0048172Y0126956D02*
X0053198Y0126956D01*
X0051200Y0124957D02*
X0050170Y0124957D01*
X0050685Y0122959D02*
X0050685Y0122959D01*
X0050685Y0120960D02*
X0050685Y0120960D01*
X0049346Y0118962D02*
X0052024Y0118962D01*
X0035685Y0118962D02*
X0035685Y0118962D01*
X0035685Y0120960D02*
X0035685Y0120960D01*
X0035685Y0122371D02*
X0035685Y0122371D01*
X0035685Y0122959D02*
X0035685Y0122959D01*
X0035685Y0124957D02*
X0035685Y0124957D01*
X0154307Y0096733D02*
X0154307Y0096184D01*
X0154307Y0096184D01*
X0154307Y0096733D01*
X0167134Y0084987D02*
X0167600Y0084987D01*
X0199354Y0108969D02*
X0202016Y0108969D01*
X0200685Y0110968D02*
X0200685Y0110968D01*
X0200685Y0112966D02*
X0200685Y0112966D01*
X0200163Y0114965D02*
X0201207Y0114965D01*
X0203206Y0116963D02*
X0198164Y0116963D01*
X0199346Y0118962D02*
X0202024Y0118962D01*
X0200685Y0120960D02*
X0200685Y0120960D01*
X0200685Y0122959D02*
X0200685Y0122959D01*
X0200170Y0124957D02*
X0201200Y0124957D01*
X0203198Y0126956D02*
X0198172Y0126956D01*
X0208172Y0126956D02*
X0213198Y0126956D01*
X0211200Y0124957D02*
X0210170Y0124957D01*
X0210685Y0122959D02*
X0210685Y0122959D01*
X0210685Y0120960D02*
X0210685Y0120960D01*
X0209346Y0118962D02*
X0212024Y0118962D01*
X0213206Y0116963D02*
X0208164Y0116963D01*
X0210163Y0114965D02*
X0211207Y0114965D01*
X0210685Y0112966D02*
X0210685Y0112966D01*
X0210685Y0110968D02*
X0210685Y0110968D01*
X0209354Y0108969D02*
X0212016Y0108969D01*
X0237516Y0102974D02*
X0241968Y0102974D01*
X0239920Y0100975D02*
X0237516Y0100975D01*
X0194229Y0027030D02*
X0156898Y0027030D01*
X0156898Y0025032D02*
X0194068Y0025032D01*
X0195348Y0023033D02*
X0145446Y0023033D01*
X0199880Y0023033D02*
X0205523Y0023033D01*
D20*
X0206256Y0025836D02*
X0208391Y0023701D01*
X0210649Y0023701D01*
X0211410Y0024463D01*
X0211410Y0026695D01*
X0212079Y0027363D01*
X0214638Y0027363D01*
X0217197Y0027363D02*
X0220748Y0030915D01*
X0213128Y0038535D01*
X0199377Y0038535D01*
X0177628Y0060285D01*
X0162181Y0060285D01*
X0162181Y0062253D02*
X0178205Y0062253D01*
X0200123Y0040335D01*
X0216068Y0040335D01*
X0215306Y0041097D01*
X0215306Y0043329D01*
X0214638Y0043997D01*
X0217197Y0043997D02*
X0217197Y0045418D01*
X0220252Y0048474D01*
X0215331Y0051426D02*
X0220520Y0056616D01*
X0228842Y0056616D01*
X0230094Y0055363D01*
X0230094Y0052954D01*
X0229795Y0052954D01*
X0230094Y0052954D02*
X0232354Y0052954D01*
X0234913Y0052954D02*
X0241307Y0052954D01*
X0244858Y0056505D01*
X0240094Y0061269D01*
X0219268Y0061269D01*
X0207457Y0049458D01*
X0204504Y0049458D01*
X0207012Y0046505D02*
X0198598Y0046505D01*
X0207012Y0046505D02*
X0209520Y0043997D01*
X0212079Y0043997D01*
X0216068Y0040335D02*
X0218326Y0040335D01*
X0218905Y0040915D01*
X0227142Y0040915D01*
X0227142Y0030915D02*
X0220748Y0030915D01*
X0209520Y0027363D02*
X0207981Y0027363D01*
X0206256Y0025836D02*
X0197614Y0025836D01*
X0162181Y0042568D02*
X0155291Y0042568D01*
X0149386Y0040600D02*
X0148402Y0039615D01*
X0148402Y0037647D01*
X0146355Y0035600D01*
X0146355Y0028867D01*
X0146433Y0028789D01*
X0144465Y0028789D02*
X0144465Y0043552D01*
X0142496Y0045521D01*
X0124780Y0045521D01*
X0118874Y0049432D02*
X0112685Y0055621D01*
X0112685Y0075792D01*
X0103126Y0085351D01*
X0103126Y0090796D01*
X0090331Y0103592D01*
X0054465Y0103592D01*
X0045685Y0112371D01*
X0055685Y0112371D02*
X0062496Y0105560D01*
X0091315Y0105560D01*
X0105094Y0091781D01*
X0105094Y0086859D01*
X0114485Y0077469D01*
X0114485Y0056367D01*
X0120843Y0050009D01*
X0120843Y0028789D01*
X0118874Y0028789D02*
X0118874Y0049432D01*
X0114937Y0045521D02*
X0109947Y0050511D01*
X0107837Y0050511D01*
X0106147Y0052200D01*
X0106147Y0053326D01*
X0103126Y0056348D01*
X0099189Y0056348D01*
X0099189Y0058316D02*
X0104110Y0058316D01*
X0109031Y0053395D01*
X0116285Y0059212D02*
X0120559Y0054938D01*
X0116285Y0059212D02*
X0116285Y0063326D01*
X0117802Y0064842D01*
X0120931Y0064842D01*
X0133362Y0052411D01*
X0162181Y0052411D01*
X0162181Y0050442D02*
X0130685Y0050442D01*
X0119858Y0061269D01*
X0126748Y0067174D02*
X0142496Y0082922D01*
X0142496Y0091781D01*
X0144465Y0091781D02*
X0144465Y0079970D01*
X0131669Y0067174D01*
X0137575Y0067174D02*
X0146433Y0075048D01*
X0146433Y0091781D01*
X0148402Y0091781D02*
X0148402Y0073080D01*
X0142496Y0067174D01*
X0154307Y0064222D02*
X0162181Y0064222D01*
X0175961Y0068159D02*
X0175961Y0071111D01*
X0179898Y0075048D01*
X0197693Y0075048D01*
X0202693Y0080048D01*
X0215331Y0082922D02*
X0223973Y0082922D01*
X0226107Y0080788D01*
X0228365Y0080788D01*
X0229127Y0081549D01*
X0229127Y0083482D01*
X0230094Y0084450D01*
X0229795Y0084450D01*
X0230094Y0084450D02*
X0232354Y0084450D01*
X0234913Y0084450D02*
X0238465Y0088001D01*
X0244858Y0088001D01*
X0242352Y0090508D01*
X0179202Y0090508D01*
X0168664Y0079970D01*
X0162181Y0079970D01*
X0162181Y0081938D02*
X0168087Y0081938D01*
X0177402Y0091253D01*
X0177402Y0091253D01*
X0178456Y0092308D01*
X0230886Y0092308D01*
X0236000Y0097422D01*
X0236042Y0097422D01*
X0236622Y0098001D01*
X0244858Y0098001D01*
X0236000Y0097422D02*
X0233784Y0097422D01*
X0233023Y0098183D01*
X0233023Y0100415D01*
X0232354Y0101084D01*
X0229795Y0101084D02*
X0227236Y0101084D01*
X0223744Y0104576D01*
X0215331Y0104576D01*
X0199839Y0095718D02*
X0199476Y0096081D01*
X0192028Y0096081D01*
X0185502Y0102607D01*
X0098205Y0102607D01*
X0091315Y0109497D01*
X0091315Y0115403D01*
X0085685Y0121033D01*
X0085685Y0122371D01*
X0105685Y0122371D02*
X0111385Y0116671D01*
X0111385Y0110590D01*
X0117231Y0104744D01*
X0186895Y0104744D01*
X0191621Y0100018D01*
X0194918Y0100018D01*
X0196266Y0099655D01*
X0192693Y0103592D02*
X0189740Y0106544D01*
X0122811Y0106544D01*
X0119985Y0109370D01*
X0119985Y0114152D01*
X0115685Y0118452D01*
X0115685Y0122371D01*
X0114937Y0097686D02*
X0114937Y0091781D01*
X0116906Y0091781D02*
X0116906Y0084891D01*
X0152339Y0085875D02*
X0152339Y0091781D01*
X0154307Y0091781D02*
X0154307Y0095718D01*
X0215331Y0073080D02*
X0223744Y0073080D01*
X0227236Y0069588D01*
X0229795Y0069588D01*
X0232354Y0069588D02*
X0233023Y0068919D01*
X0233023Y0066687D01*
X0233784Y0065926D01*
X0219279Y0065926D01*
X0206610Y0053257D01*
X0233784Y0065926D02*
X0236042Y0065926D01*
X0236622Y0066505D01*
X0244858Y0066505D01*
X0234913Y0069588D02*
X0234913Y0072978D01*
X0236000Y0074064D01*
X0234913Y0101084D02*
X0235016Y0101186D01*
X0235016Y0105560D01*
X0169071Y0048110D02*
X0167466Y0046505D01*
X0162181Y0046505D01*
X0162181Y0044537D02*
X0172024Y0044537D01*
X0144465Y0028789D02*
X0144465Y0024852D01*
X0140528Y0022883D02*
X0142496Y0020915D01*
X0140528Y0022883D02*
X0140528Y0028789D01*
X0142496Y0028789D02*
X0142496Y0032726D01*
X0140528Y0034694D01*
X0140528Y0038631D01*
X0138559Y0040600D01*
X0138559Y0028789D02*
X0138559Y0019930D01*
X0141512Y0016978D01*
X0133638Y0017962D02*
X0121773Y0017962D01*
X0115015Y0024720D01*
X0115015Y0028711D01*
X0114937Y0028789D01*
X0116906Y0028789D02*
X0116983Y0028711D01*
X0116983Y0025297D01*
X0121366Y0020915D01*
X0126748Y0020915D01*
X0089346Y0036663D02*
X0089346Y0053855D01*
X0095698Y0060207D01*
X0099111Y0060207D01*
X0099189Y0060285D01*
X0099111Y0062175D02*
X0095121Y0062175D01*
X0082457Y0049511D01*
X0082457Y0040600D01*
X0099111Y0062175D02*
X0099189Y0062253D01*
D21*
X0109031Y0053395D03*
X0120559Y0054938D03*
X0119858Y0061269D03*
X0126748Y0067174D03*
X0131669Y0067174D03*
X0137575Y0067174D03*
X0142496Y0067174D03*
X0154307Y0064222D03*
X0175961Y0068159D03*
X0173992Y0078985D03*
X0168087Y0088828D03*
X0152339Y0085875D03*
X0141512Y0098670D03*
X0116906Y0084891D03*
X0052929Y0074064D03*
X0082457Y0040600D03*
X0089346Y0036663D03*
X0070646Y0037647D03*
X0102142Y0022883D03*
X0126748Y0020915D03*
X0133638Y0017962D03*
X0141512Y0016978D03*
X0142496Y0020915D03*
X0138559Y0040600D03*
X0149386Y0040600D03*
X0155291Y0042568D03*
X0169071Y0048110D03*
X0172024Y0044537D03*
X0198598Y0046505D03*
X0204504Y0049458D03*
X0206610Y0053257D03*
X0215331Y0051426D03*
X0220252Y0048474D03*
X0215331Y0073080D03*
X0215331Y0082922D03*
X0236000Y0074064D03*
X0199839Y0095718D03*
X0196266Y0099655D03*
X0192693Y0103592D03*
X0215331Y0104576D03*
X0235016Y0105560D03*
X0124780Y0045521D03*
X0114937Y0045521D03*
X0197614Y0025836D03*
D22*
X0167102Y0066190D02*
X0162181Y0066190D01*
X0157260Y0066190D01*
X0167102Y0066190D02*
X0170055Y0069143D01*
X0170055Y0075048D01*
X0173992Y0078985D01*
X0154307Y0091781D02*
X0154307Y0098670D01*
X0224189Y0085875D02*
X0225614Y0084450D01*
X0227236Y0084450D01*
X0099189Y0056348D02*
X0095252Y0056348D01*
X0094268Y0055363D01*
M02*
