G75*
%MOIN*%
%OFA0B0*%
%FSLAX25Y25*%
%IPPOS*%
%LPD*%
%AMOC8*
5,1,8,0,0,1.08239X$1,22.5*
%
%ADD10C,0.00000*%
%ADD11C,0.11227*%
%ADD12OC8,0.06400*%
%ADD13R,0.05124X0.05124*%
%ADD14C,0.03150*%
%ADD15R,0.08274X0.03156*%
%ADD16R,0.05912X0.07487*%
%ADD17R,0.01581X0.05124*%
%ADD18OC8,0.10400*%
%ADD19OC8,0.06502*%
%ADD20C,0.07800*%
%ADD21R,0.04337X0.04731*%
%ADD22R,0.04731X0.04337*%
%ADD23R,0.01187X0.04731*%
%ADD24R,0.01187X0.04337*%
%ADD25R,0.06400X0.03400*%
D10*
X0014543Y0013041D02*
X0246827Y0013041D01*
X0247112Y0013044D01*
X0247398Y0013055D01*
X0247683Y0013072D01*
X0247967Y0013096D01*
X0248251Y0013127D01*
X0248534Y0013165D01*
X0248815Y0013210D01*
X0249096Y0013261D01*
X0249376Y0013319D01*
X0249654Y0013384D01*
X0249930Y0013456D01*
X0250204Y0013534D01*
X0250477Y0013619D01*
X0250747Y0013711D01*
X0251015Y0013809D01*
X0251281Y0013913D01*
X0251544Y0014024D01*
X0251804Y0014141D01*
X0252062Y0014264D01*
X0252316Y0014394D01*
X0252567Y0014530D01*
X0252815Y0014671D01*
X0253059Y0014819D01*
X0253300Y0014972D01*
X0253536Y0015132D01*
X0253769Y0015297D01*
X0253998Y0015467D01*
X0254223Y0015643D01*
X0254443Y0015825D01*
X0254659Y0016011D01*
X0254870Y0016203D01*
X0255077Y0016400D01*
X0255279Y0016602D01*
X0255476Y0016809D01*
X0255668Y0017020D01*
X0255854Y0017236D01*
X0256036Y0017456D01*
X0256212Y0017681D01*
X0256382Y0017910D01*
X0256547Y0018143D01*
X0256707Y0018379D01*
X0256860Y0018620D01*
X0257008Y0018864D01*
X0257149Y0019112D01*
X0257285Y0019363D01*
X0257415Y0019617D01*
X0257538Y0019875D01*
X0257655Y0020135D01*
X0257766Y0020398D01*
X0257870Y0020664D01*
X0257968Y0020932D01*
X0258060Y0021202D01*
X0258145Y0021475D01*
X0258223Y0021749D01*
X0258295Y0022025D01*
X0258360Y0022303D01*
X0258418Y0022583D01*
X0258469Y0022864D01*
X0258514Y0023145D01*
X0258552Y0023428D01*
X0258583Y0023712D01*
X0258607Y0023996D01*
X0258624Y0024281D01*
X0258635Y0024567D01*
X0258638Y0024852D01*
X0258638Y0119340D01*
X0258635Y0119625D01*
X0258624Y0119911D01*
X0258607Y0120196D01*
X0258583Y0120480D01*
X0258552Y0120764D01*
X0258514Y0121047D01*
X0258469Y0121328D01*
X0258418Y0121609D01*
X0258360Y0121889D01*
X0258295Y0122167D01*
X0258223Y0122443D01*
X0258145Y0122717D01*
X0258060Y0122990D01*
X0257968Y0123260D01*
X0257870Y0123528D01*
X0257766Y0123794D01*
X0257655Y0124057D01*
X0257538Y0124317D01*
X0257415Y0124575D01*
X0257285Y0124829D01*
X0257149Y0125080D01*
X0257008Y0125328D01*
X0256860Y0125572D01*
X0256707Y0125813D01*
X0256547Y0126049D01*
X0256382Y0126282D01*
X0256212Y0126511D01*
X0256036Y0126736D01*
X0255854Y0126956D01*
X0255668Y0127172D01*
X0255476Y0127383D01*
X0255279Y0127590D01*
X0255077Y0127792D01*
X0254870Y0127989D01*
X0254659Y0128181D01*
X0254443Y0128367D01*
X0254223Y0128549D01*
X0253998Y0128725D01*
X0253769Y0128895D01*
X0253536Y0129060D01*
X0253300Y0129220D01*
X0253059Y0129373D01*
X0252815Y0129521D01*
X0252567Y0129662D01*
X0252316Y0129798D01*
X0252062Y0129928D01*
X0251804Y0130051D01*
X0251544Y0130168D01*
X0251281Y0130279D01*
X0251015Y0130383D01*
X0250747Y0130481D01*
X0250477Y0130573D01*
X0250204Y0130658D01*
X0249930Y0130736D01*
X0249654Y0130808D01*
X0249376Y0130873D01*
X0249096Y0130931D01*
X0248815Y0130982D01*
X0248534Y0131027D01*
X0248251Y0131065D01*
X0247967Y0131096D01*
X0247683Y0131120D01*
X0247398Y0131137D01*
X0247112Y0131148D01*
X0246827Y0131151D01*
X0014543Y0131151D01*
X0014258Y0131148D01*
X0013972Y0131137D01*
X0013687Y0131120D01*
X0013403Y0131096D01*
X0013119Y0131065D01*
X0012836Y0131027D01*
X0012555Y0130982D01*
X0012274Y0130931D01*
X0011994Y0130873D01*
X0011716Y0130808D01*
X0011440Y0130736D01*
X0011166Y0130658D01*
X0010893Y0130573D01*
X0010623Y0130481D01*
X0010355Y0130383D01*
X0010089Y0130279D01*
X0009826Y0130168D01*
X0009566Y0130051D01*
X0009308Y0129928D01*
X0009054Y0129798D01*
X0008803Y0129662D01*
X0008555Y0129521D01*
X0008311Y0129373D01*
X0008070Y0129220D01*
X0007834Y0129060D01*
X0007601Y0128895D01*
X0007372Y0128725D01*
X0007147Y0128549D01*
X0006927Y0128367D01*
X0006711Y0128181D01*
X0006500Y0127989D01*
X0006293Y0127792D01*
X0006091Y0127590D01*
X0005894Y0127383D01*
X0005702Y0127172D01*
X0005516Y0126956D01*
X0005334Y0126736D01*
X0005158Y0126511D01*
X0004988Y0126282D01*
X0004823Y0126049D01*
X0004663Y0125813D01*
X0004510Y0125572D01*
X0004362Y0125328D01*
X0004221Y0125080D01*
X0004085Y0124829D01*
X0003955Y0124575D01*
X0003832Y0124317D01*
X0003715Y0124057D01*
X0003604Y0123794D01*
X0003500Y0123528D01*
X0003402Y0123260D01*
X0003310Y0122990D01*
X0003225Y0122717D01*
X0003147Y0122443D01*
X0003075Y0122167D01*
X0003010Y0121889D01*
X0002952Y0121609D01*
X0002901Y0121328D01*
X0002856Y0121047D01*
X0002818Y0120764D01*
X0002787Y0120480D01*
X0002763Y0120196D01*
X0002746Y0119911D01*
X0002735Y0119625D01*
X0002732Y0119340D01*
X0002732Y0024852D01*
X0002735Y0024567D01*
X0002746Y0024281D01*
X0002763Y0023996D01*
X0002787Y0023712D01*
X0002818Y0023428D01*
X0002856Y0023145D01*
X0002901Y0022864D01*
X0002952Y0022583D01*
X0003010Y0022303D01*
X0003075Y0022025D01*
X0003147Y0021749D01*
X0003225Y0021475D01*
X0003310Y0021202D01*
X0003402Y0020932D01*
X0003500Y0020664D01*
X0003604Y0020398D01*
X0003715Y0020135D01*
X0003832Y0019875D01*
X0003955Y0019617D01*
X0004085Y0019363D01*
X0004221Y0019112D01*
X0004362Y0018864D01*
X0004510Y0018620D01*
X0004663Y0018379D01*
X0004823Y0018143D01*
X0004988Y0017910D01*
X0005158Y0017681D01*
X0005334Y0017456D01*
X0005516Y0017236D01*
X0005702Y0017020D01*
X0005894Y0016809D01*
X0006091Y0016602D01*
X0006293Y0016400D01*
X0006500Y0016203D01*
X0006711Y0016011D01*
X0006927Y0015825D01*
X0007147Y0015643D01*
X0007372Y0015467D01*
X0007601Y0015297D01*
X0007834Y0015132D01*
X0008070Y0014972D01*
X0008311Y0014819D01*
X0008555Y0014671D01*
X0008803Y0014530D01*
X0009054Y0014394D01*
X0009308Y0014264D01*
X0009566Y0014141D01*
X0009826Y0014024D01*
X0010089Y0013913D01*
X0010355Y0013809D01*
X0010623Y0013711D01*
X0010893Y0013619D01*
X0011166Y0013534D01*
X0011440Y0013456D01*
X0011716Y0013384D01*
X0011994Y0013319D01*
X0012274Y0013261D01*
X0012555Y0013210D01*
X0012836Y0013165D01*
X0013119Y0013127D01*
X0013403Y0013096D01*
X0013687Y0013072D01*
X0013972Y0013055D01*
X0014258Y0013044D01*
X0014543Y0013041D01*
X0011099Y0026820D02*
X0011101Y0026967D01*
X0011107Y0027113D01*
X0011117Y0027259D01*
X0011131Y0027405D01*
X0011149Y0027551D01*
X0011170Y0027696D01*
X0011196Y0027840D01*
X0011226Y0027984D01*
X0011259Y0028126D01*
X0011296Y0028268D01*
X0011337Y0028409D01*
X0011382Y0028548D01*
X0011431Y0028687D01*
X0011483Y0028824D01*
X0011540Y0028959D01*
X0011599Y0029093D01*
X0011663Y0029225D01*
X0011730Y0029355D01*
X0011800Y0029484D01*
X0011874Y0029611D01*
X0011951Y0029735D01*
X0012032Y0029858D01*
X0012116Y0029978D01*
X0012203Y0030096D01*
X0012293Y0030211D01*
X0012386Y0030324D01*
X0012483Y0030435D01*
X0012582Y0030543D01*
X0012684Y0030648D01*
X0012789Y0030750D01*
X0012897Y0030849D01*
X0013008Y0030946D01*
X0013121Y0031039D01*
X0013236Y0031129D01*
X0013354Y0031216D01*
X0013474Y0031300D01*
X0013597Y0031381D01*
X0013721Y0031458D01*
X0013848Y0031532D01*
X0013977Y0031602D01*
X0014107Y0031669D01*
X0014239Y0031733D01*
X0014373Y0031792D01*
X0014508Y0031849D01*
X0014645Y0031901D01*
X0014784Y0031950D01*
X0014923Y0031995D01*
X0015064Y0032036D01*
X0015206Y0032073D01*
X0015348Y0032106D01*
X0015492Y0032136D01*
X0015636Y0032162D01*
X0015781Y0032183D01*
X0015927Y0032201D01*
X0016073Y0032215D01*
X0016219Y0032225D01*
X0016365Y0032231D01*
X0016512Y0032233D01*
X0016659Y0032231D01*
X0016805Y0032225D01*
X0016951Y0032215D01*
X0017097Y0032201D01*
X0017243Y0032183D01*
X0017388Y0032162D01*
X0017532Y0032136D01*
X0017676Y0032106D01*
X0017818Y0032073D01*
X0017960Y0032036D01*
X0018101Y0031995D01*
X0018240Y0031950D01*
X0018379Y0031901D01*
X0018516Y0031849D01*
X0018651Y0031792D01*
X0018785Y0031733D01*
X0018917Y0031669D01*
X0019047Y0031602D01*
X0019176Y0031532D01*
X0019303Y0031458D01*
X0019427Y0031381D01*
X0019550Y0031300D01*
X0019670Y0031216D01*
X0019788Y0031129D01*
X0019903Y0031039D01*
X0020016Y0030946D01*
X0020127Y0030849D01*
X0020235Y0030750D01*
X0020340Y0030648D01*
X0020442Y0030543D01*
X0020541Y0030435D01*
X0020638Y0030324D01*
X0020731Y0030211D01*
X0020821Y0030096D01*
X0020908Y0029978D01*
X0020992Y0029858D01*
X0021073Y0029735D01*
X0021150Y0029611D01*
X0021224Y0029484D01*
X0021294Y0029355D01*
X0021361Y0029225D01*
X0021425Y0029093D01*
X0021484Y0028959D01*
X0021541Y0028824D01*
X0021593Y0028687D01*
X0021642Y0028548D01*
X0021687Y0028409D01*
X0021728Y0028268D01*
X0021765Y0028126D01*
X0021798Y0027984D01*
X0021828Y0027840D01*
X0021854Y0027696D01*
X0021875Y0027551D01*
X0021893Y0027405D01*
X0021907Y0027259D01*
X0021917Y0027113D01*
X0021923Y0026967D01*
X0021925Y0026820D01*
X0021923Y0026673D01*
X0021917Y0026527D01*
X0021907Y0026381D01*
X0021893Y0026235D01*
X0021875Y0026089D01*
X0021854Y0025944D01*
X0021828Y0025800D01*
X0021798Y0025656D01*
X0021765Y0025514D01*
X0021728Y0025372D01*
X0021687Y0025231D01*
X0021642Y0025092D01*
X0021593Y0024953D01*
X0021541Y0024816D01*
X0021484Y0024681D01*
X0021425Y0024547D01*
X0021361Y0024415D01*
X0021294Y0024285D01*
X0021224Y0024156D01*
X0021150Y0024029D01*
X0021073Y0023905D01*
X0020992Y0023782D01*
X0020908Y0023662D01*
X0020821Y0023544D01*
X0020731Y0023429D01*
X0020638Y0023316D01*
X0020541Y0023205D01*
X0020442Y0023097D01*
X0020340Y0022992D01*
X0020235Y0022890D01*
X0020127Y0022791D01*
X0020016Y0022694D01*
X0019903Y0022601D01*
X0019788Y0022511D01*
X0019670Y0022424D01*
X0019550Y0022340D01*
X0019427Y0022259D01*
X0019303Y0022182D01*
X0019176Y0022108D01*
X0019047Y0022038D01*
X0018917Y0021971D01*
X0018785Y0021907D01*
X0018651Y0021848D01*
X0018516Y0021791D01*
X0018379Y0021739D01*
X0018240Y0021690D01*
X0018101Y0021645D01*
X0017960Y0021604D01*
X0017818Y0021567D01*
X0017676Y0021534D01*
X0017532Y0021504D01*
X0017388Y0021478D01*
X0017243Y0021457D01*
X0017097Y0021439D01*
X0016951Y0021425D01*
X0016805Y0021415D01*
X0016659Y0021409D01*
X0016512Y0021407D01*
X0016365Y0021409D01*
X0016219Y0021415D01*
X0016073Y0021425D01*
X0015927Y0021439D01*
X0015781Y0021457D01*
X0015636Y0021478D01*
X0015492Y0021504D01*
X0015348Y0021534D01*
X0015206Y0021567D01*
X0015064Y0021604D01*
X0014923Y0021645D01*
X0014784Y0021690D01*
X0014645Y0021739D01*
X0014508Y0021791D01*
X0014373Y0021848D01*
X0014239Y0021907D01*
X0014107Y0021971D01*
X0013977Y0022038D01*
X0013848Y0022108D01*
X0013721Y0022182D01*
X0013597Y0022259D01*
X0013474Y0022340D01*
X0013354Y0022424D01*
X0013236Y0022511D01*
X0013121Y0022601D01*
X0013008Y0022694D01*
X0012897Y0022791D01*
X0012789Y0022890D01*
X0012684Y0022992D01*
X0012582Y0023097D01*
X0012483Y0023205D01*
X0012386Y0023316D01*
X0012293Y0023429D01*
X0012203Y0023544D01*
X0012116Y0023662D01*
X0012032Y0023782D01*
X0011951Y0023905D01*
X0011874Y0024029D01*
X0011800Y0024156D01*
X0011730Y0024285D01*
X0011663Y0024415D01*
X0011599Y0024547D01*
X0011540Y0024681D01*
X0011483Y0024816D01*
X0011431Y0024953D01*
X0011382Y0025092D01*
X0011337Y0025231D01*
X0011296Y0025372D01*
X0011259Y0025514D01*
X0011226Y0025656D01*
X0011196Y0025800D01*
X0011170Y0025944D01*
X0011149Y0026089D01*
X0011131Y0026235D01*
X0011117Y0026381D01*
X0011107Y0026527D01*
X0011101Y0026673D01*
X0011099Y0026820D01*
X0011099Y0117371D02*
X0011101Y0117518D01*
X0011107Y0117664D01*
X0011117Y0117810D01*
X0011131Y0117956D01*
X0011149Y0118102D01*
X0011170Y0118247D01*
X0011196Y0118391D01*
X0011226Y0118535D01*
X0011259Y0118677D01*
X0011296Y0118819D01*
X0011337Y0118960D01*
X0011382Y0119099D01*
X0011431Y0119238D01*
X0011483Y0119375D01*
X0011540Y0119510D01*
X0011599Y0119644D01*
X0011663Y0119776D01*
X0011730Y0119906D01*
X0011800Y0120035D01*
X0011874Y0120162D01*
X0011951Y0120286D01*
X0012032Y0120409D01*
X0012116Y0120529D01*
X0012203Y0120647D01*
X0012293Y0120762D01*
X0012386Y0120875D01*
X0012483Y0120986D01*
X0012582Y0121094D01*
X0012684Y0121199D01*
X0012789Y0121301D01*
X0012897Y0121400D01*
X0013008Y0121497D01*
X0013121Y0121590D01*
X0013236Y0121680D01*
X0013354Y0121767D01*
X0013474Y0121851D01*
X0013597Y0121932D01*
X0013721Y0122009D01*
X0013848Y0122083D01*
X0013977Y0122153D01*
X0014107Y0122220D01*
X0014239Y0122284D01*
X0014373Y0122343D01*
X0014508Y0122400D01*
X0014645Y0122452D01*
X0014784Y0122501D01*
X0014923Y0122546D01*
X0015064Y0122587D01*
X0015206Y0122624D01*
X0015348Y0122657D01*
X0015492Y0122687D01*
X0015636Y0122713D01*
X0015781Y0122734D01*
X0015927Y0122752D01*
X0016073Y0122766D01*
X0016219Y0122776D01*
X0016365Y0122782D01*
X0016512Y0122784D01*
X0016659Y0122782D01*
X0016805Y0122776D01*
X0016951Y0122766D01*
X0017097Y0122752D01*
X0017243Y0122734D01*
X0017388Y0122713D01*
X0017532Y0122687D01*
X0017676Y0122657D01*
X0017818Y0122624D01*
X0017960Y0122587D01*
X0018101Y0122546D01*
X0018240Y0122501D01*
X0018379Y0122452D01*
X0018516Y0122400D01*
X0018651Y0122343D01*
X0018785Y0122284D01*
X0018917Y0122220D01*
X0019047Y0122153D01*
X0019176Y0122083D01*
X0019303Y0122009D01*
X0019427Y0121932D01*
X0019550Y0121851D01*
X0019670Y0121767D01*
X0019788Y0121680D01*
X0019903Y0121590D01*
X0020016Y0121497D01*
X0020127Y0121400D01*
X0020235Y0121301D01*
X0020340Y0121199D01*
X0020442Y0121094D01*
X0020541Y0120986D01*
X0020638Y0120875D01*
X0020731Y0120762D01*
X0020821Y0120647D01*
X0020908Y0120529D01*
X0020992Y0120409D01*
X0021073Y0120286D01*
X0021150Y0120162D01*
X0021224Y0120035D01*
X0021294Y0119906D01*
X0021361Y0119776D01*
X0021425Y0119644D01*
X0021484Y0119510D01*
X0021541Y0119375D01*
X0021593Y0119238D01*
X0021642Y0119099D01*
X0021687Y0118960D01*
X0021728Y0118819D01*
X0021765Y0118677D01*
X0021798Y0118535D01*
X0021828Y0118391D01*
X0021854Y0118247D01*
X0021875Y0118102D01*
X0021893Y0117956D01*
X0021907Y0117810D01*
X0021917Y0117664D01*
X0021923Y0117518D01*
X0021925Y0117371D01*
X0021923Y0117224D01*
X0021917Y0117078D01*
X0021907Y0116932D01*
X0021893Y0116786D01*
X0021875Y0116640D01*
X0021854Y0116495D01*
X0021828Y0116351D01*
X0021798Y0116207D01*
X0021765Y0116065D01*
X0021728Y0115923D01*
X0021687Y0115782D01*
X0021642Y0115643D01*
X0021593Y0115504D01*
X0021541Y0115367D01*
X0021484Y0115232D01*
X0021425Y0115098D01*
X0021361Y0114966D01*
X0021294Y0114836D01*
X0021224Y0114707D01*
X0021150Y0114580D01*
X0021073Y0114456D01*
X0020992Y0114333D01*
X0020908Y0114213D01*
X0020821Y0114095D01*
X0020731Y0113980D01*
X0020638Y0113867D01*
X0020541Y0113756D01*
X0020442Y0113648D01*
X0020340Y0113543D01*
X0020235Y0113441D01*
X0020127Y0113342D01*
X0020016Y0113245D01*
X0019903Y0113152D01*
X0019788Y0113062D01*
X0019670Y0112975D01*
X0019550Y0112891D01*
X0019427Y0112810D01*
X0019303Y0112733D01*
X0019176Y0112659D01*
X0019047Y0112589D01*
X0018917Y0112522D01*
X0018785Y0112458D01*
X0018651Y0112399D01*
X0018516Y0112342D01*
X0018379Y0112290D01*
X0018240Y0112241D01*
X0018101Y0112196D01*
X0017960Y0112155D01*
X0017818Y0112118D01*
X0017676Y0112085D01*
X0017532Y0112055D01*
X0017388Y0112029D01*
X0017243Y0112008D01*
X0017097Y0111990D01*
X0016951Y0111976D01*
X0016805Y0111966D01*
X0016659Y0111960D01*
X0016512Y0111958D01*
X0016365Y0111960D01*
X0016219Y0111966D01*
X0016073Y0111976D01*
X0015927Y0111990D01*
X0015781Y0112008D01*
X0015636Y0112029D01*
X0015492Y0112055D01*
X0015348Y0112085D01*
X0015206Y0112118D01*
X0015064Y0112155D01*
X0014923Y0112196D01*
X0014784Y0112241D01*
X0014645Y0112290D01*
X0014508Y0112342D01*
X0014373Y0112399D01*
X0014239Y0112458D01*
X0014107Y0112522D01*
X0013977Y0112589D01*
X0013848Y0112659D01*
X0013721Y0112733D01*
X0013597Y0112810D01*
X0013474Y0112891D01*
X0013354Y0112975D01*
X0013236Y0113062D01*
X0013121Y0113152D01*
X0013008Y0113245D01*
X0012897Y0113342D01*
X0012789Y0113441D01*
X0012684Y0113543D01*
X0012582Y0113648D01*
X0012483Y0113756D01*
X0012386Y0113867D01*
X0012293Y0113980D01*
X0012203Y0114095D01*
X0012116Y0114213D01*
X0012032Y0114333D01*
X0011951Y0114456D01*
X0011874Y0114580D01*
X0011800Y0114707D01*
X0011730Y0114836D01*
X0011663Y0114966D01*
X0011599Y0115098D01*
X0011540Y0115232D01*
X0011483Y0115367D01*
X0011431Y0115504D01*
X0011382Y0115643D01*
X0011337Y0115782D01*
X0011296Y0115923D01*
X0011259Y0116065D01*
X0011226Y0116207D01*
X0011196Y0116351D01*
X0011170Y0116495D01*
X0011149Y0116640D01*
X0011131Y0116786D01*
X0011117Y0116932D01*
X0011107Y0117078D01*
X0011101Y0117224D01*
X0011099Y0117371D01*
X0239445Y0117371D02*
X0239447Y0117518D01*
X0239453Y0117664D01*
X0239463Y0117810D01*
X0239477Y0117956D01*
X0239495Y0118102D01*
X0239516Y0118247D01*
X0239542Y0118391D01*
X0239572Y0118535D01*
X0239605Y0118677D01*
X0239642Y0118819D01*
X0239683Y0118960D01*
X0239728Y0119099D01*
X0239777Y0119238D01*
X0239829Y0119375D01*
X0239886Y0119510D01*
X0239945Y0119644D01*
X0240009Y0119776D01*
X0240076Y0119906D01*
X0240146Y0120035D01*
X0240220Y0120162D01*
X0240297Y0120286D01*
X0240378Y0120409D01*
X0240462Y0120529D01*
X0240549Y0120647D01*
X0240639Y0120762D01*
X0240732Y0120875D01*
X0240829Y0120986D01*
X0240928Y0121094D01*
X0241030Y0121199D01*
X0241135Y0121301D01*
X0241243Y0121400D01*
X0241354Y0121497D01*
X0241467Y0121590D01*
X0241582Y0121680D01*
X0241700Y0121767D01*
X0241820Y0121851D01*
X0241943Y0121932D01*
X0242067Y0122009D01*
X0242194Y0122083D01*
X0242323Y0122153D01*
X0242453Y0122220D01*
X0242585Y0122284D01*
X0242719Y0122343D01*
X0242854Y0122400D01*
X0242991Y0122452D01*
X0243130Y0122501D01*
X0243269Y0122546D01*
X0243410Y0122587D01*
X0243552Y0122624D01*
X0243694Y0122657D01*
X0243838Y0122687D01*
X0243982Y0122713D01*
X0244127Y0122734D01*
X0244273Y0122752D01*
X0244419Y0122766D01*
X0244565Y0122776D01*
X0244711Y0122782D01*
X0244858Y0122784D01*
X0245005Y0122782D01*
X0245151Y0122776D01*
X0245297Y0122766D01*
X0245443Y0122752D01*
X0245589Y0122734D01*
X0245734Y0122713D01*
X0245878Y0122687D01*
X0246022Y0122657D01*
X0246164Y0122624D01*
X0246306Y0122587D01*
X0246447Y0122546D01*
X0246586Y0122501D01*
X0246725Y0122452D01*
X0246862Y0122400D01*
X0246997Y0122343D01*
X0247131Y0122284D01*
X0247263Y0122220D01*
X0247393Y0122153D01*
X0247522Y0122083D01*
X0247649Y0122009D01*
X0247773Y0121932D01*
X0247896Y0121851D01*
X0248016Y0121767D01*
X0248134Y0121680D01*
X0248249Y0121590D01*
X0248362Y0121497D01*
X0248473Y0121400D01*
X0248581Y0121301D01*
X0248686Y0121199D01*
X0248788Y0121094D01*
X0248887Y0120986D01*
X0248984Y0120875D01*
X0249077Y0120762D01*
X0249167Y0120647D01*
X0249254Y0120529D01*
X0249338Y0120409D01*
X0249419Y0120286D01*
X0249496Y0120162D01*
X0249570Y0120035D01*
X0249640Y0119906D01*
X0249707Y0119776D01*
X0249771Y0119644D01*
X0249830Y0119510D01*
X0249887Y0119375D01*
X0249939Y0119238D01*
X0249988Y0119099D01*
X0250033Y0118960D01*
X0250074Y0118819D01*
X0250111Y0118677D01*
X0250144Y0118535D01*
X0250174Y0118391D01*
X0250200Y0118247D01*
X0250221Y0118102D01*
X0250239Y0117956D01*
X0250253Y0117810D01*
X0250263Y0117664D01*
X0250269Y0117518D01*
X0250271Y0117371D01*
X0250269Y0117224D01*
X0250263Y0117078D01*
X0250253Y0116932D01*
X0250239Y0116786D01*
X0250221Y0116640D01*
X0250200Y0116495D01*
X0250174Y0116351D01*
X0250144Y0116207D01*
X0250111Y0116065D01*
X0250074Y0115923D01*
X0250033Y0115782D01*
X0249988Y0115643D01*
X0249939Y0115504D01*
X0249887Y0115367D01*
X0249830Y0115232D01*
X0249771Y0115098D01*
X0249707Y0114966D01*
X0249640Y0114836D01*
X0249570Y0114707D01*
X0249496Y0114580D01*
X0249419Y0114456D01*
X0249338Y0114333D01*
X0249254Y0114213D01*
X0249167Y0114095D01*
X0249077Y0113980D01*
X0248984Y0113867D01*
X0248887Y0113756D01*
X0248788Y0113648D01*
X0248686Y0113543D01*
X0248581Y0113441D01*
X0248473Y0113342D01*
X0248362Y0113245D01*
X0248249Y0113152D01*
X0248134Y0113062D01*
X0248016Y0112975D01*
X0247896Y0112891D01*
X0247773Y0112810D01*
X0247649Y0112733D01*
X0247522Y0112659D01*
X0247393Y0112589D01*
X0247263Y0112522D01*
X0247131Y0112458D01*
X0246997Y0112399D01*
X0246862Y0112342D01*
X0246725Y0112290D01*
X0246586Y0112241D01*
X0246447Y0112196D01*
X0246306Y0112155D01*
X0246164Y0112118D01*
X0246022Y0112085D01*
X0245878Y0112055D01*
X0245734Y0112029D01*
X0245589Y0112008D01*
X0245443Y0111990D01*
X0245297Y0111976D01*
X0245151Y0111966D01*
X0245005Y0111960D01*
X0244858Y0111958D01*
X0244711Y0111960D01*
X0244565Y0111966D01*
X0244419Y0111976D01*
X0244273Y0111990D01*
X0244127Y0112008D01*
X0243982Y0112029D01*
X0243838Y0112055D01*
X0243694Y0112085D01*
X0243552Y0112118D01*
X0243410Y0112155D01*
X0243269Y0112196D01*
X0243130Y0112241D01*
X0242991Y0112290D01*
X0242854Y0112342D01*
X0242719Y0112399D01*
X0242585Y0112458D01*
X0242453Y0112522D01*
X0242323Y0112589D01*
X0242194Y0112659D01*
X0242067Y0112733D01*
X0241943Y0112810D01*
X0241820Y0112891D01*
X0241700Y0112975D01*
X0241582Y0113062D01*
X0241467Y0113152D01*
X0241354Y0113245D01*
X0241243Y0113342D01*
X0241135Y0113441D01*
X0241030Y0113543D01*
X0240928Y0113648D01*
X0240829Y0113756D01*
X0240732Y0113867D01*
X0240639Y0113980D01*
X0240549Y0114095D01*
X0240462Y0114213D01*
X0240378Y0114333D01*
X0240297Y0114456D01*
X0240220Y0114580D01*
X0240146Y0114707D01*
X0240076Y0114836D01*
X0240009Y0114966D01*
X0239945Y0115098D01*
X0239886Y0115232D01*
X0239829Y0115367D01*
X0239777Y0115504D01*
X0239728Y0115643D01*
X0239683Y0115782D01*
X0239642Y0115923D01*
X0239605Y0116065D01*
X0239572Y0116207D01*
X0239542Y0116351D01*
X0239516Y0116495D01*
X0239495Y0116640D01*
X0239477Y0116786D01*
X0239463Y0116932D01*
X0239453Y0117078D01*
X0239447Y0117224D01*
X0239445Y0117371D01*
X0239445Y0026820D02*
X0239447Y0026967D01*
X0239453Y0027113D01*
X0239463Y0027259D01*
X0239477Y0027405D01*
X0239495Y0027551D01*
X0239516Y0027696D01*
X0239542Y0027840D01*
X0239572Y0027984D01*
X0239605Y0028126D01*
X0239642Y0028268D01*
X0239683Y0028409D01*
X0239728Y0028548D01*
X0239777Y0028687D01*
X0239829Y0028824D01*
X0239886Y0028959D01*
X0239945Y0029093D01*
X0240009Y0029225D01*
X0240076Y0029355D01*
X0240146Y0029484D01*
X0240220Y0029611D01*
X0240297Y0029735D01*
X0240378Y0029858D01*
X0240462Y0029978D01*
X0240549Y0030096D01*
X0240639Y0030211D01*
X0240732Y0030324D01*
X0240829Y0030435D01*
X0240928Y0030543D01*
X0241030Y0030648D01*
X0241135Y0030750D01*
X0241243Y0030849D01*
X0241354Y0030946D01*
X0241467Y0031039D01*
X0241582Y0031129D01*
X0241700Y0031216D01*
X0241820Y0031300D01*
X0241943Y0031381D01*
X0242067Y0031458D01*
X0242194Y0031532D01*
X0242323Y0031602D01*
X0242453Y0031669D01*
X0242585Y0031733D01*
X0242719Y0031792D01*
X0242854Y0031849D01*
X0242991Y0031901D01*
X0243130Y0031950D01*
X0243269Y0031995D01*
X0243410Y0032036D01*
X0243552Y0032073D01*
X0243694Y0032106D01*
X0243838Y0032136D01*
X0243982Y0032162D01*
X0244127Y0032183D01*
X0244273Y0032201D01*
X0244419Y0032215D01*
X0244565Y0032225D01*
X0244711Y0032231D01*
X0244858Y0032233D01*
X0245005Y0032231D01*
X0245151Y0032225D01*
X0245297Y0032215D01*
X0245443Y0032201D01*
X0245589Y0032183D01*
X0245734Y0032162D01*
X0245878Y0032136D01*
X0246022Y0032106D01*
X0246164Y0032073D01*
X0246306Y0032036D01*
X0246447Y0031995D01*
X0246586Y0031950D01*
X0246725Y0031901D01*
X0246862Y0031849D01*
X0246997Y0031792D01*
X0247131Y0031733D01*
X0247263Y0031669D01*
X0247393Y0031602D01*
X0247522Y0031532D01*
X0247649Y0031458D01*
X0247773Y0031381D01*
X0247896Y0031300D01*
X0248016Y0031216D01*
X0248134Y0031129D01*
X0248249Y0031039D01*
X0248362Y0030946D01*
X0248473Y0030849D01*
X0248581Y0030750D01*
X0248686Y0030648D01*
X0248788Y0030543D01*
X0248887Y0030435D01*
X0248984Y0030324D01*
X0249077Y0030211D01*
X0249167Y0030096D01*
X0249254Y0029978D01*
X0249338Y0029858D01*
X0249419Y0029735D01*
X0249496Y0029611D01*
X0249570Y0029484D01*
X0249640Y0029355D01*
X0249707Y0029225D01*
X0249771Y0029093D01*
X0249830Y0028959D01*
X0249887Y0028824D01*
X0249939Y0028687D01*
X0249988Y0028548D01*
X0250033Y0028409D01*
X0250074Y0028268D01*
X0250111Y0028126D01*
X0250144Y0027984D01*
X0250174Y0027840D01*
X0250200Y0027696D01*
X0250221Y0027551D01*
X0250239Y0027405D01*
X0250253Y0027259D01*
X0250263Y0027113D01*
X0250269Y0026967D01*
X0250271Y0026820D01*
X0250269Y0026673D01*
X0250263Y0026527D01*
X0250253Y0026381D01*
X0250239Y0026235D01*
X0250221Y0026089D01*
X0250200Y0025944D01*
X0250174Y0025800D01*
X0250144Y0025656D01*
X0250111Y0025514D01*
X0250074Y0025372D01*
X0250033Y0025231D01*
X0249988Y0025092D01*
X0249939Y0024953D01*
X0249887Y0024816D01*
X0249830Y0024681D01*
X0249771Y0024547D01*
X0249707Y0024415D01*
X0249640Y0024285D01*
X0249570Y0024156D01*
X0249496Y0024029D01*
X0249419Y0023905D01*
X0249338Y0023782D01*
X0249254Y0023662D01*
X0249167Y0023544D01*
X0249077Y0023429D01*
X0248984Y0023316D01*
X0248887Y0023205D01*
X0248788Y0023097D01*
X0248686Y0022992D01*
X0248581Y0022890D01*
X0248473Y0022791D01*
X0248362Y0022694D01*
X0248249Y0022601D01*
X0248134Y0022511D01*
X0248016Y0022424D01*
X0247896Y0022340D01*
X0247773Y0022259D01*
X0247649Y0022182D01*
X0247522Y0022108D01*
X0247393Y0022038D01*
X0247263Y0021971D01*
X0247131Y0021907D01*
X0246997Y0021848D01*
X0246862Y0021791D01*
X0246725Y0021739D01*
X0246586Y0021690D01*
X0246447Y0021645D01*
X0246306Y0021604D01*
X0246164Y0021567D01*
X0246022Y0021534D01*
X0245878Y0021504D01*
X0245734Y0021478D01*
X0245589Y0021457D01*
X0245443Y0021439D01*
X0245297Y0021425D01*
X0245151Y0021415D01*
X0245005Y0021409D01*
X0244858Y0021407D01*
X0244711Y0021409D01*
X0244565Y0021415D01*
X0244419Y0021425D01*
X0244273Y0021439D01*
X0244127Y0021457D01*
X0243982Y0021478D01*
X0243838Y0021504D01*
X0243694Y0021534D01*
X0243552Y0021567D01*
X0243410Y0021604D01*
X0243269Y0021645D01*
X0243130Y0021690D01*
X0242991Y0021739D01*
X0242854Y0021791D01*
X0242719Y0021848D01*
X0242585Y0021907D01*
X0242453Y0021971D01*
X0242323Y0022038D01*
X0242194Y0022108D01*
X0242067Y0022182D01*
X0241943Y0022259D01*
X0241820Y0022340D01*
X0241700Y0022424D01*
X0241582Y0022511D01*
X0241467Y0022601D01*
X0241354Y0022694D01*
X0241243Y0022791D01*
X0241135Y0022890D01*
X0241030Y0022992D01*
X0240928Y0023097D01*
X0240829Y0023205D01*
X0240732Y0023316D01*
X0240639Y0023429D01*
X0240549Y0023544D01*
X0240462Y0023662D01*
X0240378Y0023782D01*
X0240297Y0023905D01*
X0240220Y0024029D01*
X0240146Y0024156D01*
X0240076Y0024285D01*
X0240009Y0024415D01*
X0239945Y0024547D01*
X0239886Y0024681D01*
X0239829Y0024816D01*
X0239777Y0024953D01*
X0239728Y0025092D01*
X0239683Y0025231D01*
X0239642Y0025372D01*
X0239605Y0025514D01*
X0239572Y0025656D01*
X0239542Y0025800D01*
X0239516Y0025944D01*
X0239495Y0026089D01*
X0239477Y0026235D01*
X0239463Y0026381D01*
X0239453Y0026527D01*
X0239447Y0026673D01*
X0239445Y0026820D01*
D11*
X0244858Y0026820D03*
X0244858Y0117371D03*
X0016512Y0117371D03*
X0016512Y0026820D03*
D12*
X0035685Y0112371D03*
X0045685Y0112371D03*
X0055685Y0112371D03*
X0065685Y0112371D03*
X0075685Y0112371D03*
X0085685Y0112371D03*
X0095685Y0112371D03*
X0105685Y0112371D03*
X0115685Y0112371D03*
X0125685Y0112371D03*
X0135685Y0112371D03*
X0145685Y0112371D03*
X0155685Y0112371D03*
X0165685Y0112371D03*
X0175685Y0112371D03*
X0185685Y0112371D03*
X0195685Y0112371D03*
X0205685Y0112371D03*
X0215685Y0112371D03*
X0225685Y0112371D03*
X0225685Y0122371D03*
X0215685Y0122371D03*
X0205685Y0122371D03*
X0195685Y0122371D03*
X0185685Y0122371D03*
X0175685Y0122371D03*
X0165685Y0122371D03*
X0155685Y0122371D03*
X0145685Y0122371D03*
X0135685Y0122371D03*
X0125685Y0122371D03*
X0115685Y0122371D03*
X0105685Y0122371D03*
X0095685Y0122371D03*
X0085685Y0122371D03*
X0075685Y0122371D03*
X0065685Y0122371D03*
X0055685Y0122371D03*
X0045685Y0122371D03*
X0035685Y0122371D03*
D13*
X0030488Y0075048D03*
X0022220Y0075048D03*
X0022220Y0064222D03*
X0030488Y0064222D03*
X0030488Y0053395D03*
X0022220Y0053395D03*
X0044858Y0031741D03*
X0053126Y0031741D03*
X0053126Y0020915D03*
X0044858Y0020915D03*
X0208244Y0030757D03*
X0216512Y0030757D03*
X0216512Y0041584D03*
X0208244Y0041584D03*
X0225961Y0056348D03*
X0234228Y0056348D03*
X0234228Y0067174D03*
X0225961Y0067174D03*
X0225961Y0087844D03*
X0234228Y0087844D03*
X0234228Y0098670D03*
X0225961Y0098670D03*
D14*
X0162971Y0024808D02*
X0162971Y0024022D01*
X0161391Y0024022D01*
X0161391Y0024808D01*
X0162971Y0024808D01*
X0162971Y0017808D02*
X0162971Y0017022D01*
X0161391Y0017022D01*
X0161391Y0017808D01*
X0162971Y0017808D01*
X0096981Y0017959D02*
X0096981Y0019539D01*
X0097767Y0019539D01*
X0097767Y0017959D01*
X0096981Y0017959D01*
X0089981Y0017959D02*
X0089981Y0019539D01*
X0090767Y0019539D01*
X0090767Y0017959D01*
X0089981Y0017959D01*
D15*
X0151551Y0017174D03*
X0151551Y0021111D03*
X0151551Y0025048D03*
D16*
X0108835Y0027804D03*
X0095449Y0027804D03*
D17*
X0082354Y0035135D03*
X0079795Y0035135D03*
X0077236Y0035135D03*
X0074677Y0035135D03*
X0059717Y0050981D03*
X0057157Y0050981D03*
X0054598Y0050981D03*
X0052039Y0050981D03*
X0052039Y0067615D03*
X0054598Y0067615D03*
X0057157Y0067615D03*
X0059717Y0067615D03*
X0074677Y0018501D03*
X0077236Y0018501D03*
X0079795Y0018501D03*
X0082354Y0018501D03*
D18*
X0026354Y0098670D03*
X0011591Y0098670D03*
D19*
X0182693Y0080048D03*
X0192693Y0080048D03*
X0202693Y0080048D03*
X0202693Y0070048D03*
X0192693Y0070048D03*
X0182693Y0070048D03*
D20*
X0227142Y0040915D03*
X0244858Y0046505D03*
X0244858Y0056505D03*
X0244858Y0066505D03*
X0244858Y0078001D03*
X0244858Y0088001D03*
X0244858Y0098001D03*
X0227142Y0030915D03*
X0227142Y0020915D03*
X0034228Y0021584D03*
X0034228Y0031584D03*
X0034228Y0041584D03*
X0011582Y0054352D03*
X0011582Y0064352D03*
X0011582Y0074352D03*
X0011582Y0084352D03*
D21*
X0023008Y0083907D03*
X0029701Y0083907D03*
X0038756Y0064222D03*
X0045449Y0064222D03*
X0045449Y0053395D03*
X0038756Y0053395D03*
X0060409Y0031741D03*
X0067102Y0031741D03*
X0067102Y0020915D03*
X0060409Y0020915D03*
X0106669Y0018946D03*
X0113362Y0018946D03*
X0194268Y0030757D03*
X0200961Y0030757D03*
X0200961Y0041584D03*
X0194268Y0041584D03*
X0211984Y0056348D03*
X0218677Y0056348D03*
X0218677Y0067174D03*
X0211984Y0067174D03*
X0211984Y0087844D03*
X0218677Y0087844D03*
X0218677Y0098670D03*
X0211984Y0098670D03*
D22*
X0055882Y0101033D03*
X0046039Y0101033D03*
X0046039Y0094340D03*
X0055882Y0094340D03*
D23*
X0132457Y0075639D03*
D24*
X0134031Y0075442D03*
X0135606Y0075442D03*
X0137181Y0075442D03*
X0138756Y0075442D03*
X0140331Y0075442D03*
X0141906Y0075442D03*
X0143480Y0075442D03*
X0145055Y0075442D03*
X0146630Y0075442D03*
X0146630Y0082529D03*
X0145055Y0082529D03*
X0143480Y0082529D03*
X0141906Y0082529D03*
X0140331Y0082529D03*
X0138756Y0082529D03*
X0137181Y0082529D03*
X0135606Y0082529D03*
X0134031Y0082529D03*
X0132457Y0082529D03*
D25*
X0129874Y0049084D03*
X0107874Y0049084D03*
X0107874Y0034084D03*
X0129874Y0034084D03*
M02*
