G75*
%MOIN*%
%OFA0B0*%
%FSLAX25Y25*%
%IPPOS*%
%LPD*%
%AMOC8*
5,1,8,0,0,1.08239X$1,22.5*
%
%ADD10C,0.00000*%
%ADD11C,0.00500*%
%ADD12C,0.01000*%
%ADD13C,0.00600*%
%ADD14C,0.00200*%
D10*
X0014543Y0013041D02*
X0246827Y0013041D01*
X0247112Y0013044D01*
X0247398Y0013055D01*
X0247683Y0013072D01*
X0247967Y0013096D01*
X0248251Y0013127D01*
X0248534Y0013165D01*
X0248815Y0013210D01*
X0249096Y0013261D01*
X0249376Y0013319D01*
X0249654Y0013384D01*
X0249930Y0013456D01*
X0250204Y0013534D01*
X0250477Y0013619D01*
X0250747Y0013711D01*
X0251015Y0013809D01*
X0251281Y0013913D01*
X0251544Y0014024D01*
X0251804Y0014141D01*
X0252062Y0014264D01*
X0252316Y0014394D01*
X0252567Y0014530D01*
X0252815Y0014671D01*
X0253059Y0014819D01*
X0253300Y0014972D01*
X0253536Y0015132D01*
X0253769Y0015297D01*
X0253998Y0015467D01*
X0254223Y0015643D01*
X0254443Y0015825D01*
X0254659Y0016011D01*
X0254870Y0016203D01*
X0255077Y0016400D01*
X0255279Y0016602D01*
X0255476Y0016809D01*
X0255668Y0017020D01*
X0255854Y0017236D01*
X0256036Y0017456D01*
X0256212Y0017681D01*
X0256382Y0017910D01*
X0256547Y0018143D01*
X0256707Y0018379D01*
X0256860Y0018620D01*
X0257008Y0018864D01*
X0257149Y0019112D01*
X0257285Y0019363D01*
X0257415Y0019617D01*
X0257538Y0019875D01*
X0257655Y0020135D01*
X0257766Y0020398D01*
X0257870Y0020664D01*
X0257968Y0020932D01*
X0258060Y0021202D01*
X0258145Y0021475D01*
X0258223Y0021749D01*
X0258295Y0022025D01*
X0258360Y0022303D01*
X0258418Y0022583D01*
X0258469Y0022864D01*
X0258514Y0023145D01*
X0258552Y0023428D01*
X0258583Y0023712D01*
X0258607Y0023996D01*
X0258624Y0024281D01*
X0258635Y0024567D01*
X0258638Y0024852D01*
X0258638Y0119340D01*
X0258635Y0119625D01*
X0258624Y0119911D01*
X0258607Y0120196D01*
X0258583Y0120480D01*
X0258552Y0120764D01*
X0258514Y0121047D01*
X0258469Y0121328D01*
X0258418Y0121609D01*
X0258360Y0121889D01*
X0258295Y0122167D01*
X0258223Y0122443D01*
X0258145Y0122717D01*
X0258060Y0122990D01*
X0257968Y0123260D01*
X0257870Y0123528D01*
X0257766Y0123794D01*
X0257655Y0124057D01*
X0257538Y0124317D01*
X0257415Y0124575D01*
X0257285Y0124829D01*
X0257149Y0125080D01*
X0257008Y0125328D01*
X0256860Y0125572D01*
X0256707Y0125813D01*
X0256547Y0126049D01*
X0256382Y0126282D01*
X0256212Y0126511D01*
X0256036Y0126736D01*
X0255854Y0126956D01*
X0255668Y0127172D01*
X0255476Y0127383D01*
X0255279Y0127590D01*
X0255077Y0127792D01*
X0254870Y0127989D01*
X0254659Y0128181D01*
X0254443Y0128367D01*
X0254223Y0128549D01*
X0253998Y0128725D01*
X0253769Y0128895D01*
X0253536Y0129060D01*
X0253300Y0129220D01*
X0253059Y0129373D01*
X0252815Y0129521D01*
X0252567Y0129662D01*
X0252316Y0129798D01*
X0252062Y0129928D01*
X0251804Y0130051D01*
X0251544Y0130168D01*
X0251281Y0130279D01*
X0251015Y0130383D01*
X0250747Y0130481D01*
X0250477Y0130573D01*
X0250204Y0130658D01*
X0249930Y0130736D01*
X0249654Y0130808D01*
X0249376Y0130873D01*
X0249096Y0130931D01*
X0248815Y0130982D01*
X0248534Y0131027D01*
X0248251Y0131065D01*
X0247967Y0131096D01*
X0247683Y0131120D01*
X0247398Y0131137D01*
X0247112Y0131148D01*
X0246827Y0131151D01*
X0014543Y0131151D01*
X0014258Y0131148D01*
X0013972Y0131137D01*
X0013687Y0131120D01*
X0013403Y0131096D01*
X0013119Y0131065D01*
X0012836Y0131027D01*
X0012555Y0130982D01*
X0012274Y0130931D01*
X0011994Y0130873D01*
X0011716Y0130808D01*
X0011440Y0130736D01*
X0011166Y0130658D01*
X0010893Y0130573D01*
X0010623Y0130481D01*
X0010355Y0130383D01*
X0010089Y0130279D01*
X0009826Y0130168D01*
X0009566Y0130051D01*
X0009308Y0129928D01*
X0009054Y0129798D01*
X0008803Y0129662D01*
X0008555Y0129521D01*
X0008311Y0129373D01*
X0008070Y0129220D01*
X0007834Y0129060D01*
X0007601Y0128895D01*
X0007372Y0128725D01*
X0007147Y0128549D01*
X0006927Y0128367D01*
X0006711Y0128181D01*
X0006500Y0127989D01*
X0006293Y0127792D01*
X0006091Y0127590D01*
X0005894Y0127383D01*
X0005702Y0127172D01*
X0005516Y0126956D01*
X0005334Y0126736D01*
X0005158Y0126511D01*
X0004988Y0126282D01*
X0004823Y0126049D01*
X0004663Y0125813D01*
X0004510Y0125572D01*
X0004362Y0125328D01*
X0004221Y0125080D01*
X0004085Y0124829D01*
X0003955Y0124575D01*
X0003832Y0124317D01*
X0003715Y0124057D01*
X0003604Y0123794D01*
X0003500Y0123528D01*
X0003402Y0123260D01*
X0003310Y0122990D01*
X0003225Y0122717D01*
X0003147Y0122443D01*
X0003075Y0122167D01*
X0003010Y0121889D01*
X0002952Y0121609D01*
X0002901Y0121328D01*
X0002856Y0121047D01*
X0002818Y0120764D01*
X0002787Y0120480D01*
X0002763Y0120196D01*
X0002746Y0119911D01*
X0002735Y0119625D01*
X0002732Y0119340D01*
X0002732Y0024852D01*
X0002735Y0024567D01*
X0002746Y0024281D01*
X0002763Y0023996D01*
X0002787Y0023712D01*
X0002818Y0023428D01*
X0002856Y0023145D01*
X0002901Y0022864D01*
X0002952Y0022583D01*
X0003010Y0022303D01*
X0003075Y0022025D01*
X0003147Y0021749D01*
X0003225Y0021475D01*
X0003310Y0021202D01*
X0003402Y0020932D01*
X0003500Y0020664D01*
X0003604Y0020398D01*
X0003715Y0020135D01*
X0003832Y0019875D01*
X0003955Y0019617D01*
X0004085Y0019363D01*
X0004221Y0019112D01*
X0004362Y0018864D01*
X0004510Y0018620D01*
X0004663Y0018379D01*
X0004823Y0018143D01*
X0004988Y0017910D01*
X0005158Y0017681D01*
X0005334Y0017456D01*
X0005516Y0017236D01*
X0005702Y0017020D01*
X0005894Y0016809D01*
X0006091Y0016602D01*
X0006293Y0016400D01*
X0006500Y0016203D01*
X0006711Y0016011D01*
X0006927Y0015825D01*
X0007147Y0015643D01*
X0007372Y0015467D01*
X0007601Y0015297D01*
X0007834Y0015132D01*
X0008070Y0014972D01*
X0008311Y0014819D01*
X0008555Y0014671D01*
X0008803Y0014530D01*
X0009054Y0014394D01*
X0009308Y0014264D01*
X0009566Y0014141D01*
X0009826Y0014024D01*
X0010089Y0013913D01*
X0010355Y0013809D01*
X0010623Y0013711D01*
X0010893Y0013619D01*
X0011166Y0013534D01*
X0011440Y0013456D01*
X0011716Y0013384D01*
X0011994Y0013319D01*
X0012274Y0013261D01*
X0012555Y0013210D01*
X0012836Y0013165D01*
X0013119Y0013127D01*
X0013403Y0013096D01*
X0013687Y0013072D01*
X0013972Y0013055D01*
X0014258Y0013044D01*
X0014543Y0013041D01*
X0011099Y0026820D02*
X0011101Y0026967D01*
X0011107Y0027113D01*
X0011117Y0027259D01*
X0011131Y0027405D01*
X0011149Y0027551D01*
X0011170Y0027696D01*
X0011196Y0027840D01*
X0011226Y0027984D01*
X0011259Y0028126D01*
X0011296Y0028268D01*
X0011337Y0028409D01*
X0011382Y0028548D01*
X0011431Y0028687D01*
X0011483Y0028824D01*
X0011540Y0028959D01*
X0011599Y0029093D01*
X0011663Y0029225D01*
X0011730Y0029355D01*
X0011800Y0029484D01*
X0011874Y0029611D01*
X0011951Y0029735D01*
X0012032Y0029858D01*
X0012116Y0029978D01*
X0012203Y0030096D01*
X0012293Y0030211D01*
X0012386Y0030324D01*
X0012483Y0030435D01*
X0012582Y0030543D01*
X0012684Y0030648D01*
X0012789Y0030750D01*
X0012897Y0030849D01*
X0013008Y0030946D01*
X0013121Y0031039D01*
X0013236Y0031129D01*
X0013354Y0031216D01*
X0013474Y0031300D01*
X0013597Y0031381D01*
X0013721Y0031458D01*
X0013848Y0031532D01*
X0013977Y0031602D01*
X0014107Y0031669D01*
X0014239Y0031733D01*
X0014373Y0031792D01*
X0014508Y0031849D01*
X0014645Y0031901D01*
X0014784Y0031950D01*
X0014923Y0031995D01*
X0015064Y0032036D01*
X0015206Y0032073D01*
X0015348Y0032106D01*
X0015492Y0032136D01*
X0015636Y0032162D01*
X0015781Y0032183D01*
X0015927Y0032201D01*
X0016073Y0032215D01*
X0016219Y0032225D01*
X0016365Y0032231D01*
X0016512Y0032233D01*
X0016659Y0032231D01*
X0016805Y0032225D01*
X0016951Y0032215D01*
X0017097Y0032201D01*
X0017243Y0032183D01*
X0017388Y0032162D01*
X0017532Y0032136D01*
X0017676Y0032106D01*
X0017818Y0032073D01*
X0017960Y0032036D01*
X0018101Y0031995D01*
X0018240Y0031950D01*
X0018379Y0031901D01*
X0018516Y0031849D01*
X0018651Y0031792D01*
X0018785Y0031733D01*
X0018917Y0031669D01*
X0019047Y0031602D01*
X0019176Y0031532D01*
X0019303Y0031458D01*
X0019427Y0031381D01*
X0019550Y0031300D01*
X0019670Y0031216D01*
X0019788Y0031129D01*
X0019903Y0031039D01*
X0020016Y0030946D01*
X0020127Y0030849D01*
X0020235Y0030750D01*
X0020340Y0030648D01*
X0020442Y0030543D01*
X0020541Y0030435D01*
X0020638Y0030324D01*
X0020731Y0030211D01*
X0020821Y0030096D01*
X0020908Y0029978D01*
X0020992Y0029858D01*
X0021073Y0029735D01*
X0021150Y0029611D01*
X0021224Y0029484D01*
X0021294Y0029355D01*
X0021361Y0029225D01*
X0021425Y0029093D01*
X0021484Y0028959D01*
X0021541Y0028824D01*
X0021593Y0028687D01*
X0021642Y0028548D01*
X0021687Y0028409D01*
X0021728Y0028268D01*
X0021765Y0028126D01*
X0021798Y0027984D01*
X0021828Y0027840D01*
X0021854Y0027696D01*
X0021875Y0027551D01*
X0021893Y0027405D01*
X0021907Y0027259D01*
X0021917Y0027113D01*
X0021923Y0026967D01*
X0021925Y0026820D01*
X0021923Y0026673D01*
X0021917Y0026527D01*
X0021907Y0026381D01*
X0021893Y0026235D01*
X0021875Y0026089D01*
X0021854Y0025944D01*
X0021828Y0025800D01*
X0021798Y0025656D01*
X0021765Y0025514D01*
X0021728Y0025372D01*
X0021687Y0025231D01*
X0021642Y0025092D01*
X0021593Y0024953D01*
X0021541Y0024816D01*
X0021484Y0024681D01*
X0021425Y0024547D01*
X0021361Y0024415D01*
X0021294Y0024285D01*
X0021224Y0024156D01*
X0021150Y0024029D01*
X0021073Y0023905D01*
X0020992Y0023782D01*
X0020908Y0023662D01*
X0020821Y0023544D01*
X0020731Y0023429D01*
X0020638Y0023316D01*
X0020541Y0023205D01*
X0020442Y0023097D01*
X0020340Y0022992D01*
X0020235Y0022890D01*
X0020127Y0022791D01*
X0020016Y0022694D01*
X0019903Y0022601D01*
X0019788Y0022511D01*
X0019670Y0022424D01*
X0019550Y0022340D01*
X0019427Y0022259D01*
X0019303Y0022182D01*
X0019176Y0022108D01*
X0019047Y0022038D01*
X0018917Y0021971D01*
X0018785Y0021907D01*
X0018651Y0021848D01*
X0018516Y0021791D01*
X0018379Y0021739D01*
X0018240Y0021690D01*
X0018101Y0021645D01*
X0017960Y0021604D01*
X0017818Y0021567D01*
X0017676Y0021534D01*
X0017532Y0021504D01*
X0017388Y0021478D01*
X0017243Y0021457D01*
X0017097Y0021439D01*
X0016951Y0021425D01*
X0016805Y0021415D01*
X0016659Y0021409D01*
X0016512Y0021407D01*
X0016365Y0021409D01*
X0016219Y0021415D01*
X0016073Y0021425D01*
X0015927Y0021439D01*
X0015781Y0021457D01*
X0015636Y0021478D01*
X0015492Y0021504D01*
X0015348Y0021534D01*
X0015206Y0021567D01*
X0015064Y0021604D01*
X0014923Y0021645D01*
X0014784Y0021690D01*
X0014645Y0021739D01*
X0014508Y0021791D01*
X0014373Y0021848D01*
X0014239Y0021907D01*
X0014107Y0021971D01*
X0013977Y0022038D01*
X0013848Y0022108D01*
X0013721Y0022182D01*
X0013597Y0022259D01*
X0013474Y0022340D01*
X0013354Y0022424D01*
X0013236Y0022511D01*
X0013121Y0022601D01*
X0013008Y0022694D01*
X0012897Y0022791D01*
X0012789Y0022890D01*
X0012684Y0022992D01*
X0012582Y0023097D01*
X0012483Y0023205D01*
X0012386Y0023316D01*
X0012293Y0023429D01*
X0012203Y0023544D01*
X0012116Y0023662D01*
X0012032Y0023782D01*
X0011951Y0023905D01*
X0011874Y0024029D01*
X0011800Y0024156D01*
X0011730Y0024285D01*
X0011663Y0024415D01*
X0011599Y0024547D01*
X0011540Y0024681D01*
X0011483Y0024816D01*
X0011431Y0024953D01*
X0011382Y0025092D01*
X0011337Y0025231D01*
X0011296Y0025372D01*
X0011259Y0025514D01*
X0011226Y0025656D01*
X0011196Y0025800D01*
X0011170Y0025944D01*
X0011149Y0026089D01*
X0011131Y0026235D01*
X0011117Y0026381D01*
X0011107Y0026527D01*
X0011101Y0026673D01*
X0011099Y0026820D01*
X0011099Y0117371D02*
X0011101Y0117518D01*
X0011107Y0117664D01*
X0011117Y0117810D01*
X0011131Y0117956D01*
X0011149Y0118102D01*
X0011170Y0118247D01*
X0011196Y0118391D01*
X0011226Y0118535D01*
X0011259Y0118677D01*
X0011296Y0118819D01*
X0011337Y0118960D01*
X0011382Y0119099D01*
X0011431Y0119238D01*
X0011483Y0119375D01*
X0011540Y0119510D01*
X0011599Y0119644D01*
X0011663Y0119776D01*
X0011730Y0119906D01*
X0011800Y0120035D01*
X0011874Y0120162D01*
X0011951Y0120286D01*
X0012032Y0120409D01*
X0012116Y0120529D01*
X0012203Y0120647D01*
X0012293Y0120762D01*
X0012386Y0120875D01*
X0012483Y0120986D01*
X0012582Y0121094D01*
X0012684Y0121199D01*
X0012789Y0121301D01*
X0012897Y0121400D01*
X0013008Y0121497D01*
X0013121Y0121590D01*
X0013236Y0121680D01*
X0013354Y0121767D01*
X0013474Y0121851D01*
X0013597Y0121932D01*
X0013721Y0122009D01*
X0013848Y0122083D01*
X0013977Y0122153D01*
X0014107Y0122220D01*
X0014239Y0122284D01*
X0014373Y0122343D01*
X0014508Y0122400D01*
X0014645Y0122452D01*
X0014784Y0122501D01*
X0014923Y0122546D01*
X0015064Y0122587D01*
X0015206Y0122624D01*
X0015348Y0122657D01*
X0015492Y0122687D01*
X0015636Y0122713D01*
X0015781Y0122734D01*
X0015927Y0122752D01*
X0016073Y0122766D01*
X0016219Y0122776D01*
X0016365Y0122782D01*
X0016512Y0122784D01*
X0016659Y0122782D01*
X0016805Y0122776D01*
X0016951Y0122766D01*
X0017097Y0122752D01*
X0017243Y0122734D01*
X0017388Y0122713D01*
X0017532Y0122687D01*
X0017676Y0122657D01*
X0017818Y0122624D01*
X0017960Y0122587D01*
X0018101Y0122546D01*
X0018240Y0122501D01*
X0018379Y0122452D01*
X0018516Y0122400D01*
X0018651Y0122343D01*
X0018785Y0122284D01*
X0018917Y0122220D01*
X0019047Y0122153D01*
X0019176Y0122083D01*
X0019303Y0122009D01*
X0019427Y0121932D01*
X0019550Y0121851D01*
X0019670Y0121767D01*
X0019788Y0121680D01*
X0019903Y0121590D01*
X0020016Y0121497D01*
X0020127Y0121400D01*
X0020235Y0121301D01*
X0020340Y0121199D01*
X0020442Y0121094D01*
X0020541Y0120986D01*
X0020638Y0120875D01*
X0020731Y0120762D01*
X0020821Y0120647D01*
X0020908Y0120529D01*
X0020992Y0120409D01*
X0021073Y0120286D01*
X0021150Y0120162D01*
X0021224Y0120035D01*
X0021294Y0119906D01*
X0021361Y0119776D01*
X0021425Y0119644D01*
X0021484Y0119510D01*
X0021541Y0119375D01*
X0021593Y0119238D01*
X0021642Y0119099D01*
X0021687Y0118960D01*
X0021728Y0118819D01*
X0021765Y0118677D01*
X0021798Y0118535D01*
X0021828Y0118391D01*
X0021854Y0118247D01*
X0021875Y0118102D01*
X0021893Y0117956D01*
X0021907Y0117810D01*
X0021917Y0117664D01*
X0021923Y0117518D01*
X0021925Y0117371D01*
X0021923Y0117224D01*
X0021917Y0117078D01*
X0021907Y0116932D01*
X0021893Y0116786D01*
X0021875Y0116640D01*
X0021854Y0116495D01*
X0021828Y0116351D01*
X0021798Y0116207D01*
X0021765Y0116065D01*
X0021728Y0115923D01*
X0021687Y0115782D01*
X0021642Y0115643D01*
X0021593Y0115504D01*
X0021541Y0115367D01*
X0021484Y0115232D01*
X0021425Y0115098D01*
X0021361Y0114966D01*
X0021294Y0114836D01*
X0021224Y0114707D01*
X0021150Y0114580D01*
X0021073Y0114456D01*
X0020992Y0114333D01*
X0020908Y0114213D01*
X0020821Y0114095D01*
X0020731Y0113980D01*
X0020638Y0113867D01*
X0020541Y0113756D01*
X0020442Y0113648D01*
X0020340Y0113543D01*
X0020235Y0113441D01*
X0020127Y0113342D01*
X0020016Y0113245D01*
X0019903Y0113152D01*
X0019788Y0113062D01*
X0019670Y0112975D01*
X0019550Y0112891D01*
X0019427Y0112810D01*
X0019303Y0112733D01*
X0019176Y0112659D01*
X0019047Y0112589D01*
X0018917Y0112522D01*
X0018785Y0112458D01*
X0018651Y0112399D01*
X0018516Y0112342D01*
X0018379Y0112290D01*
X0018240Y0112241D01*
X0018101Y0112196D01*
X0017960Y0112155D01*
X0017818Y0112118D01*
X0017676Y0112085D01*
X0017532Y0112055D01*
X0017388Y0112029D01*
X0017243Y0112008D01*
X0017097Y0111990D01*
X0016951Y0111976D01*
X0016805Y0111966D01*
X0016659Y0111960D01*
X0016512Y0111958D01*
X0016365Y0111960D01*
X0016219Y0111966D01*
X0016073Y0111976D01*
X0015927Y0111990D01*
X0015781Y0112008D01*
X0015636Y0112029D01*
X0015492Y0112055D01*
X0015348Y0112085D01*
X0015206Y0112118D01*
X0015064Y0112155D01*
X0014923Y0112196D01*
X0014784Y0112241D01*
X0014645Y0112290D01*
X0014508Y0112342D01*
X0014373Y0112399D01*
X0014239Y0112458D01*
X0014107Y0112522D01*
X0013977Y0112589D01*
X0013848Y0112659D01*
X0013721Y0112733D01*
X0013597Y0112810D01*
X0013474Y0112891D01*
X0013354Y0112975D01*
X0013236Y0113062D01*
X0013121Y0113152D01*
X0013008Y0113245D01*
X0012897Y0113342D01*
X0012789Y0113441D01*
X0012684Y0113543D01*
X0012582Y0113648D01*
X0012483Y0113756D01*
X0012386Y0113867D01*
X0012293Y0113980D01*
X0012203Y0114095D01*
X0012116Y0114213D01*
X0012032Y0114333D01*
X0011951Y0114456D01*
X0011874Y0114580D01*
X0011800Y0114707D01*
X0011730Y0114836D01*
X0011663Y0114966D01*
X0011599Y0115098D01*
X0011540Y0115232D01*
X0011483Y0115367D01*
X0011431Y0115504D01*
X0011382Y0115643D01*
X0011337Y0115782D01*
X0011296Y0115923D01*
X0011259Y0116065D01*
X0011226Y0116207D01*
X0011196Y0116351D01*
X0011170Y0116495D01*
X0011149Y0116640D01*
X0011131Y0116786D01*
X0011117Y0116932D01*
X0011107Y0117078D01*
X0011101Y0117224D01*
X0011099Y0117371D01*
X0239445Y0117371D02*
X0239447Y0117518D01*
X0239453Y0117664D01*
X0239463Y0117810D01*
X0239477Y0117956D01*
X0239495Y0118102D01*
X0239516Y0118247D01*
X0239542Y0118391D01*
X0239572Y0118535D01*
X0239605Y0118677D01*
X0239642Y0118819D01*
X0239683Y0118960D01*
X0239728Y0119099D01*
X0239777Y0119238D01*
X0239829Y0119375D01*
X0239886Y0119510D01*
X0239945Y0119644D01*
X0240009Y0119776D01*
X0240076Y0119906D01*
X0240146Y0120035D01*
X0240220Y0120162D01*
X0240297Y0120286D01*
X0240378Y0120409D01*
X0240462Y0120529D01*
X0240549Y0120647D01*
X0240639Y0120762D01*
X0240732Y0120875D01*
X0240829Y0120986D01*
X0240928Y0121094D01*
X0241030Y0121199D01*
X0241135Y0121301D01*
X0241243Y0121400D01*
X0241354Y0121497D01*
X0241467Y0121590D01*
X0241582Y0121680D01*
X0241700Y0121767D01*
X0241820Y0121851D01*
X0241943Y0121932D01*
X0242067Y0122009D01*
X0242194Y0122083D01*
X0242323Y0122153D01*
X0242453Y0122220D01*
X0242585Y0122284D01*
X0242719Y0122343D01*
X0242854Y0122400D01*
X0242991Y0122452D01*
X0243130Y0122501D01*
X0243269Y0122546D01*
X0243410Y0122587D01*
X0243552Y0122624D01*
X0243694Y0122657D01*
X0243838Y0122687D01*
X0243982Y0122713D01*
X0244127Y0122734D01*
X0244273Y0122752D01*
X0244419Y0122766D01*
X0244565Y0122776D01*
X0244711Y0122782D01*
X0244858Y0122784D01*
X0245005Y0122782D01*
X0245151Y0122776D01*
X0245297Y0122766D01*
X0245443Y0122752D01*
X0245589Y0122734D01*
X0245734Y0122713D01*
X0245878Y0122687D01*
X0246022Y0122657D01*
X0246164Y0122624D01*
X0246306Y0122587D01*
X0246447Y0122546D01*
X0246586Y0122501D01*
X0246725Y0122452D01*
X0246862Y0122400D01*
X0246997Y0122343D01*
X0247131Y0122284D01*
X0247263Y0122220D01*
X0247393Y0122153D01*
X0247522Y0122083D01*
X0247649Y0122009D01*
X0247773Y0121932D01*
X0247896Y0121851D01*
X0248016Y0121767D01*
X0248134Y0121680D01*
X0248249Y0121590D01*
X0248362Y0121497D01*
X0248473Y0121400D01*
X0248581Y0121301D01*
X0248686Y0121199D01*
X0248788Y0121094D01*
X0248887Y0120986D01*
X0248984Y0120875D01*
X0249077Y0120762D01*
X0249167Y0120647D01*
X0249254Y0120529D01*
X0249338Y0120409D01*
X0249419Y0120286D01*
X0249496Y0120162D01*
X0249570Y0120035D01*
X0249640Y0119906D01*
X0249707Y0119776D01*
X0249771Y0119644D01*
X0249830Y0119510D01*
X0249887Y0119375D01*
X0249939Y0119238D01*
X0249988Y0119099D01*
X0250033Y0118960D01*
X0250074Y0118819D01*
X0250111Y0118677D01*
X0250144Y0118535D01*
X0250174Y0118391D01*
X0250200Y0118247D01*
X0250221Y0118102D01*
X0250239Y0117956D01*
X0250253Y0117810D01*
X0250263Y0117664D01*
X0250269Y0117518D01*
X0250271Y0117371D01*
X0250269Y0117224D01*
X0250263Y0117078D01*
X0250253Y0116932D01*
X0250239Y0116786D01*
X0250221Y0116640D01*
X0250200Y0116495D01*
X0250174Y0116351D01*
X0250144Y0116207D01*
X0250111Y0116065D01*
X0250074Y0115923D01*
X0250033Y0115782D01*
X0249988Y0115643D01*
X0249939Y0115504D01*
X0249887Y0115367D01*
X0249830Y0115232D01*
X0249771Y0115098D01*
X0249707Y0114966D01*
X0249640Y0114836D01*
X0249570Y0114707D01*
X0249496Y0114580D01*
X0249419Y0114456D01*
X0249338Y0114333D01*
X0249254Y0114213D01*
X0249167Y0114095D01*
X0249077Y0113980D01*
X0248984Y0113867D01*
X0248887Y0113756D01*
X0248788Y0113648D01*
X0248686Y0113543D01*
X0248581Y0113441D01*
X0248473Y0113342D01*
X0248362Y0113245D01*
X0248249Y0113152D01*
X0248134Y0113062D01*
X0248016Y0112975D01*
X0247896Y0112891D01*
X0247773Y0112810D01*
X0247649Y0112733D01*
X0247522Y0112659D01*
X0247393Y0112589D01*
X0247263Y0112522D01*
X0247131Y0112458D01*
X0246997Y0112399D01*
X0246862Y0112342D01*
X0246725Y0112290D01*
X0246586Y0112241D01*
X0246447Y0112196D01*
X0246306Y0112155D01*
X0246164Y0112118D01*
X0246022Y0112085D01*
X0245878Y0112055D01*
X0245734Y0112029D01*
X0245589Y0112008D01*
X0245443Y0111990D01*
X0245297Y0111976D01*
X0245151Y0111966D01*
X0245005Y0111960D01*
X0244858Y0111958D01*
X0244711Y0111960D01*
X0244565Y0111966D01*
X0244419Y0111976D01*
X0244273Y0111990D01*
X0244127Y0112008D01*
X0243982Y0112029D01*
X0243838Y0112055D01*
X0243694Y0112085D01*
X0243552Y0112118D01*
X0243410Y0112155D01*
X0243269Y0112196D01*
X0243130Y0112241D01*
X0242991Y0112290D01*
X0242854Y0112342D01*
X0242719Y0112399D01*
X0242585Y0112458D01*
X0242453Y0112522D01*
X0242323Y0112589D01*
X0242194Y0112659D01*
X0242067Y0112733D01*
X0241943Y0112810D01*
X0241820Y0112891D01*
X0241700Y0112975D01*
X0241582Y0113062D01*
X0241467Y0113152D01*
X0241354Y0113245D01*
X0241243Y0113342D01*
X0241135Y0113441D01*
X0241030Y0113543D01*
X0240928Y0113648D01*
X0240829Y0113756D01*
X0240732Y0113867D01*
X0240639Y0113980D01*
X0240549Y0114095D01*
X0240462Y0114213D01*
X0240378Y0114333D01*
X0240297Y0114456D01*
X0240220Y0114580D01*
X0240146Y0114707D01*
X0240076Y0114836D01*
X0240009Y0114966D01*
X0239945Y0115098D01*
X0239886Y0115232D01*
X0239829Y0115367D01*
X0239777Y0115504D01*
X0239728Y0115643D01*
X0239683Y0115782D01*
X0239642Y0115923D01*
X0239605Y0116065D01*
X0239572Y0116207D01*
X0239542Y0116351D01*
X0239516Y0116495D01*
X0239495Y0116640D01*
X0239477Y0116786D01*
X0239463Y0116932D01*
X0239453Y0117078D01*
X0239447Y0117224D01*
X0239445Y0117371D01*
X0239445Y0026820D02*
X0239447Y0026967D01*
X0239453Y0027113D01*
X0239463Y0027259D01*
X0239477Y0027405D01*
X0239495Y0027551D01*
X0239516Y0027696D01*
X0239542Y0027840D01*
X0239572Y0027984D01*
X0239605Y0028126D01*
X0239642Y0028268D01*
X0239683Y0028409D01*
X0239728Y0028548D01*
X0239777Y0028687D01*
X0239829Y0028824D01*
X0239886Y0028959D01*
X0239945Y0029093D01*
X0240009Y0029225D01*
X0240076Y0029355D01*
X0240146Y0029484D01*
X0240220Y0029611D01*
X0240297Y0029735D01*
X0240378Y0029858D01*
X0240462Y0029978D01*
X0240549Y0030096D01*
X0240639Y0030211D01*
X0240732Y0030324D01*
X0240829Y0030435D01*
X0240928Y0030543D01*
X0241030Y0030648D01*
X0241135Y0030750D01*
X0241243Y0030849D01*
X0241354Y0030946D01*
X0241467Y0031039D01*
X0241582Y0031129D01*
X0241700Y0031216D01*
X0241820Y0031300D01*
X0241943Y0031381D01*
X0242067Y0031458D01*
X0242194Y0031532D01*
X0242323Y0031602D01*
X0242453Y0031669D01*
X0242585Y0031733D01*
X0242719Y0031792D01*
X0242854Y0031849D01*
X0242991Y0031901D01*
X0243130Y0031950D01*
X0243269Y0031995D01*
X0243410Y0032036D01*
X0243552Y0032073D01*
X0243694Y0032106D01*
X0243838Y0032136D01*
X0243982Y0032162D01*
X0244127Y0032183D01*
X0244273Y0032201D01*
X0244419Y0032215D01*
X0244565Y0032225D01*
X0244711Y0032231D01*
X0244858Y0032233D01*
X0245005Y0032231D01*
X0245151Y0032225D01*
X0245297Y0032215D01*
X0245443Y0032201D01*
X0245589Y0032183D01*
X0245734Y0032162D01*
X0245878Y0032136D01*
X0246022Y0032106D01*
X0246164Y0032073D01*
X0246306Y0032036D01*
X0246447Y0031995D01*
X0246586Y0031950D01*
X0246725Y0031901D01*
X0246862Y0031849D01*
X0246997Y0031792D01*
X0247131Y0031733D01*
X0247263Y0031669D01*
X0247393Y0031602D01*
X0247522Y0031532D01*
X0247649Y0031458D01*
X0247773Y0031381D01*
X0247896Y0031300D01*
X0248016Y0031216D01*
X0248134Y0031129D01*
X0248249Y0031039D01*
X0248362Y0030946D01*
X0248473Y0030849D01*
X0248581Y0030750D01*
X0248686Y0030648D01*
X0248788Y0030543D01*
X0248887Y0030435D01*
X0248984Y0030324D01*
X0249077Y0030211D01*
X0249167Y0030096D01*
X0249254Y0029978D01*
X0249338Y0029858D01*
X0249419Y0029735D01*
X0249496Y0029611D01*
X0249570Y0029484D01*
X0249640Y0029355D01*
X0249707Y0029225D01*
X0249771Y0029093D01*
X0249830Y0028959D01*
X0249887Y0028824D01*
X0249939Y0028687D01*
X0249988Y0028548D01*
X0250033Y0028409D01*
X0250074Y0028268D01*
X0250111Y0028126D01*
X0250144Y0027984D01*
X0250174Y0027840D01*
X0250200Y0027696D01*
X0250221Y0027551D01*
X0250239Y0027405D01*
X0250253Y0027259D01*
X0250263Y0027113D01*
X0250269Y0026967D01*
X0250271Y0026820D01*
X0250269Y0026673D01*
X0250263Y0026527D01*
X0250253Y0026381D01*
X0250239Y0026235D01*
X0250221Y0026089D01*
X0250200Y0025944D01*
X0250174Y0025800D01*
X0250144Y0025656D01*
X0250111Y0025514D01*
X0250074Y0025372D01*
X0250033Y0025231D01*
X0249988Y0025092D01*
X0249939Y0024953D01*
X0249887Y0024816D01*
X0249830Y0024681D01*
X0249771Y0024547D01*
X0249707Y0024415D01*
X0249640Y0024285D01*
X0249570Y0024156D01*
X0249496Y0024029D01*
X0249419Y0023905D01*
X0249338Y0023782D01*
X0249254Y0023662D01*
X0249167Y0023544D01*
X0249077Y0023429D01*
X0248984Y0023316D01*
X0248887Y0023205D01*
X0248788Y0023097D01*
X0248686Y0022992D01*
X0248581Y0022890D01*
X0248473Y0022791D01*
X0248362Y0022694D01*
X0248249Y0022601D01*
X0248134Y0022511D01*
X0248016Y0022424D01*
X0247896Y0022340D01*
X0247773Y0022259D01*
X0247649Y0022182D01*
X0247522Y0022108D01*
X0247393Y0022038D01*
X0247263Y0021971D01*
X0247131Y0021907D01*
X0246997Y0021848D01*
X0246862Y0021791D01*
X0246725Y0021739D01*
X0246586Y0021690D01*
X0246447Y0021645D01*
X0246306Y0021604D01*
X0246164Y0021567D01*
X0246022Y0021534D01*
X0245878Y0021504D01*
X0245734Y0021478D01*
X0245589Y0021457D01*
X0245443Y0021439D01*
X0245297Y0021425D01*
X0245151Y0021415D01*
X0245005Y0021409D01*
X0244858Y0021407D01*
X0244711Y0021409D01*
X0244565Y0021415D01*
X0244419Y0021425D01*
X0244273Y0021439D01*
X0244127Y0021457D01*
X0243982Y0021478D01*
X0243838Y0021504D01*
X0243694Y0021534D01*
X0243552Y0021567D01*
X0243410Y0021604D01*
X0243269Y0021645D01*
X0243130Y0021690D01*
X0242991Y0021739D01*
X0242854Y0021791D01*
X0242719Y0021848D01*
X0242585Y0021907D01*
X0242453Y0021971D01*
X0242323Y0022038D01*
X0242194Y0022108D01*
X0242067Y0022182D01*
X0241943Y0022259D01*
X0241820Y0022340D01*
X0241700Y0022424D01*
X0241582Y0022511D01*
X0241467Y0022601D01*
X0241354Y0022694D01*
X0241243Y0022791D01*
X0241135Y0022890D01*
X0241030Y0022992D01*
X0240928Y0023097D01*
X0240829Y0023205D01*
X0240732Y0023316D01*
X0240639Y0023429D01*
X0240549Y0023544D01*
X0240462Y0023662D01*
X0240378Y0023782D01*
X0240297Y0023905D01*
X0240220Y0024029D01*
X0240146Y0024156D01*
X0240076Y0024285D01*
X0240009Y0024415D01*
X0239945Y0024547D01*
X0239886Y0024681D01*
X0239829Y0024816D01*
X0239777Y0024953D01*
X0239728Y0025092D01*
X0239683Y0025231D01*
X0239642Y0025372D01*
X0239605Y0025514D01*
X0239572Y0025656D01*
X0239542Y0025800D01*
X0239516Y0025944D01*
X0239495Y0026089D01*
X0239477Y0026235D01*
X0239463Y0026381D01*
X0239453Y0026527D01*
X0239447Y0026673D01*
X0239445Y0026820D01*
D11*
X0205238Y0031257D02*
X0205238Y0032021D01*
X0205238Y0031639D02*
X0201801Y0031639D01*
X0201801Y0031257D02*
X0201801Y0032021D01*
X0202565Y0033506D02*
X0204474Y0033506D01*
X0204474Y0033505D02*
X0204529Y0033507D01*
X0204583Y0033513D01*
X0204636Y0033522D01*
X0204689Y0033536D01*
X0204741Y0033553D01*
X0204791Y0033574D01*
X0204840Y0033598D01*
X0204887Y0033626D01*
X0204932Y0033657D01*
X0204974Y0033692D01*
X0205014Y0033729D01*
X0205051Y0033769D01*
X0205086Y0033811D01*
X0205117Y0033856D01*
X0205145Y0033903D01*
X0205169Y0033952D01*
X0205190Y0034002D01*
X0205207Y0034054D01*
X0205221Y0034107D01*
X0205230Y0034160D01*
X0205236Y0034214D01*
X0205238Y0034269D01*
X0205238Y0035033D01*
X0202565Y0033505D02*
X0202510Y0033507D01*
X0202456Y0033513D01*
X0202403Y0033522D01*
X0202350Y0033536D01*
X0202298Y0033553D01*
X0202248Y0033574D01*
X0202199Y0033598D01*
X0202152Y0033626D01*
X0202107Y0033657D01*
X0202065Y0033692D01*
X0202025Y0033729D01*
X0201988Y0033769D01*
X0201953Y0033811D01*
X0201922Y0033856D01*
X0201894Y0033903D01*
X0201870Y0033952D01*
X0201849Y0034002D01*
X0201832Y0034054D01*
X0201818Y0034107D01*
X0201809Y0034160D01*
X0201803Y0034214D01*
X0201801Y0034269D01*
X0201801Y0035033D01*
X0202756Y0036471D02*
X0202696Y0036473D01*
X0202636Y0036479D01*
X0202577Y0036488D01*
X0202519Y0036501D01*
X0202461Y0036518D01*
X0202404Y0036538D01*
X0202349Y0036562D01*
X0202296Y0036589D01*
X0202244Y0036620D01*
X0202195Y0036653D01*
X0202147Y0036690D01*
X0202102Y0036730D01*
X0202060Y0036772D01*
X0202020Y0036817D01*
X0201983Y0036865D01*
X0201950Y0036914D01*
X0201919Y0036966D01*
X0201892Y0037019D01*
X0201868Y0037074D01*
X0201848Y0037131D01*
X0201831Y0037189D01*
X0201818Y0037247D01*
X0201809Y0037306D01*
X0201803Y0037366D01*
X0201801Y0037426D01*
X0201803Y0037486D01*
X0201809Y0037546D01*
X0201818Y0037605D01*
X0201831Y0037663D01*
X0201848Y0037721D01*
X0201868Y0037778D01*
X0201892Y0037833D01*
X0201919Y0037886D01*
X0201950Y0037938D01*
X0201983Y0037987D01*
X0202020Y0038035D01*
X0202060Y0038080D01*
X0202102Y0038122D01*
X0202147Y0038162D01*
X0202195Y0038199D01*
X0202244Y0038232D01*
X0202296Y0038263D01*
X0202349Y0038290D01*
X0202404Y0038314D01*
X0202461Y0038334D01*
X0202519Y0038351D01*
X0202577Y0038364D01*
X0202636Y0038373D01*
X0202696Y0038379D01*
X0202756Y0038381D01*
X0202816Y0038379D01*
X0202876Y0038373D01*
X0202935Y0038364D01*
X0202993Y0038351D01*
X0203051Y0038334D01*
X0203108Y0038314D01*
X0203163Y0038290D01*
X0203216Y0038263D01*
X0203268Y0038232D01*
X0203317Y0038199D01*
X0203365Y0038162D01*
X0203410Y0038122D01*
X0203452Y0038080D01*
X0203492Y0038035D01*
X0203529Y0037987D01*
X0203562Y0037938D01*
X0203593Y0037886D01*
X0203620Y0037833D01*
X0203644Y0037778D01*
X0203664Y0037721D01*
X0203681Y0037663D01*
X0203694Y0037605D01*
X0203703Y0037546D01*
X0203709Y0037486D01*
X0203711Y0037426D01*
X0203709Y0037366D01*
X0203703Y0037306D01*
X0203694Y0037247D01*
X0203681Y0037189D01*
X0203664Y0037131D01*
X0203644Y0037074D01*
X0203620Y0037019D01*
X0203593Y0036966D01*
X0203562Y0036914D01*
X0203529Y0036865D01*
X0203492Y0036817D01*
X0203452Y0036772D01*
X0203410Y0036730D01*
X0203365Y0036690D01*
X0203317Y0036653D01*
X0203268Y0036620D01*
X0203216Y0036589D01*
X0203163Y0036562D01*
X0203108Y0036538D01*
X0203051Y0036518D01*
X0202993Y0036501D01*
X0202935Y0036488D01*
X0202876Y0036479D01*
X0202816Y0036473D01*
X0202756Y0036471D01*
X0204474Y0036662D02*
X0204419Y0036664D01*
X0204365Y0036670D01*
X0204312Y0036679D01*
X0204259Y0036693D01*
X0204207Y0036710D01*
X0204157Y0036731D01*
X0204108Y0036755D01*
X0204061Y0036783D01*
X0204016Y0036814D01*
X0203974Y0036849D01*
X0203934Y0036886D01*
X0203897Y0036926D01*
X0203862Y0036968D01*
X0203831Y0037013D01*
X0203803Y0037060D01*
X0203779Y0037109D01*
X0203758Y0037159D01*
X0203741Y0037211D01*
X0203727Y0037264D01*
X0203718Y0037317D01*
X0203712Y0037371D01*
X0203710Y0037426D01*
X0203712Y0037481D01*
X0203718Y0037535D01*
X0203727Y0037588D01*
X0203741Y0037641D01*
X0203758Y0037693D01*
X0203779Y0037743D01*
X0203803Y0037792D01*
X0203831Y0037839D01*
X0203862Y0037884D01*
X0203897Y0037926D01*
X0203934Y0037966D01*
X0203974Y0038003D01*
X0204016Y0038038D01*
X0204061Y0038069D01*
X0204108Y0038097D01*
X0204157Y0038121D01*
X0204207Y0038142D01*
X0204259Y0038159D01*
X0204312Y0038173D01*
X0204365Y0038182D01*
X0204419Y0038188D01*
X0204474Y0038190D01*
X0204529Y0038188D01*
X0204583Y0038182D01*
X0204636Y0038173D01*
X0204689Y0038159D01*
X0204741Y0038142D01*
X0204791Y0038121D01*
X0204840Y0038097D01*
X0204887Y0038069D01*
X0204932Y0038038D01*
X0204974Y0038003D01*
X0205014Y0037966D01*
X0205051Y0037926D01*
X0205086Y0037884D01*
X0205117Y0037839D01*
X0205145Y0037792D01*
X0205169Y0037743D01*
X0205190Y0037693D01*
X0205207Y0037641D01*
X0205221Y0037588D01*
X0205230Y0037535D01*
X0205236Y0037481D01*
X0205238Y0037426D01*
X0205236Y0037371D01*
X0205230Y0037317D01*
X0205221Y0037264D01*
X0205207Y0037211D01*
X0205190Y0037159D01*
X0205169Y0037109D01*
X0205145Y0037060D01*
X0205117Y0037013D01*
X0205086Y0036968D01*
X0205051Y0036926D01*
X0205014Y0036886D01*
X0204974Y0036849D01*
X0204932Y0036814D01*
X0204887Y0036783D01*
X0204840Y0036755D01*
X0204791Y0036731D01*
X0204741Y0036710D01*
X0204689Y0036693D01*
X0204636Y0036679D01*
X0204583Y0036670D01*
X0204529Y0036664D01*
X0204474Y0036662D01*
X0219518Y0056848D02*
X0219518Y0057611D01*
X0219518Y0057230D02*
X0222955Y0057230D01*
X0222955Y0057611D02*
X0222955Y0056848D01*
X0222191Y0059096D02*
X0220281Y0059096D01*
X0220226Y0059098D01*
X0220172Y0059104D01*
X0220119Y0059113D01*
X0220066Y0059127D01*
X0220014Y0059144D01*
X0219964Y0059165D01*
X0219915Y0059189D01*
X0219868Y0059217D01*
X0219823Y0059248D01*
X0219781Y0059283D01*
X0219741Y0059320D01*
X0219704Y0059360D01*
X0219669Y0059402D01*
X0219638Y0059447D01*
X0219610Y0059494D01*
X0219586Y0059543D01*
X0219565Y0059593D01*
X0219548Y0059645D01*
X0219534Y0059698D01*
X0219525Y0059751D01*
X0219519Y0059805D01*
X0219517Y0059860D01*
X0219518Y0059860D02*
X0219518Y0060624D01*
X0219518Y0062062D02*
X0219518Y0063208D01*
X0219517Y0063208D02*
X0219519Y0063263D01*
X0219525Y0063317D01*
X0219534Y0063370D01*
X0219548Y0063423D01*
X0219565Y0063475D01*
X0219586Y0063525D01*
X0219610Y0063574D01*
X0219638Y0063621D01*
X0219669Y0063666D01*
X0219704Y0063708D01*
X0219741Y0063748D01*
X0219781Y0063785D01*
X0219823Y0063820D01*
X0219868Y0063851D01*
X0219915Y0063879D01*
X0219964Y0063903D01*
X0220014Y0063924D01*
X0220066Y0063941D01*
X0220119Y0063955D01*
X0220172Y0063964D01*
X0220226Y0063970D01*
X0220281Y0063972D01*
X0220663Y0063972D01*
X0220718Y0063970D01*
X0220772Y0063964D01*
X0220825Y0063955D01*
X0220878Y0063941D01*
X0220930Y0063924D01*
X0220980Y0063903D01*
X0221029Y0063879D01*
X0221076Y0063851D01*
X0221121Y0063820D01*
X0221163Y0063785D01*
X0221203Y0063748D01*
X0221240Y0063708D01*
X0221275Y0063666D01*
X0221306Y0063621D01*
X0221334Y0063574D01*
X0221358Y0063525D01*
X0221379Y0063475D01*
X0221396Y0063423D01*
X0221410Y0063370D01*
X0221419Y0063317D01*
X0221425Y0063263D01*
X0221427Y0063208D01*
X0221427Y0062062D01*
X0222955Y0062062D01*
X0222955Y0063972D01*
X0222955Y0060624D02*
X0222955Y0059860D01*
X0222953Y0059805D01*
X0222947Y0059751D01*
X0222938Y0059698D01*
X0222924Y0059645D01*
X0222907Y0059593D01*
X0222886Y0059543D01*
X0222862Y0059494D01*
X0222834Y0059447D01*
X0222803Y0059402D01*
X0222768Y0059360D01*
X0222731Y0059320D01*
X0222691Y0059283D01*
X0222649Y0059248D01*
X0222604Y0059217D01*
X0222557Y0059189D01*
X0222508Y0059165D01*
X0222458Y0059144D01*
X0222406Y0059127D01*
X0222353Y0059113D01*
X0222300Y0059104D01*
X0222246Y0059098D01*
X0222191Y0059096D01*
X0222955Y0088344D02*
X0222955Y0089107D01*
X0222955Y0088726D02*
X0219518Y0088726D01*
X0219518Y0089107D02*
X0219518Y0088344D01*
X0220281Y0090592D02*
X0222191Y0090592D01*
X0222246Y0090594D01*
X0222300Y0090600D01*
X0222353Y0090609D01*
X0222406Y0090623D01*
X0222458Y0090640D01*
X0222508Y0090661D01*
X0222557Y0090685D01*
X0222604Y0090713D01*
X0222649Y0090744D01*
X0222691Y0090779D01*
X0222731Y0090816D01*
X0222768Y0090856D01*
X0222803Y0090898D01*
X0222834Y0090943D01*
X0222862Y0090990D01*
X0222886Y0091039D01*
X0222907Y0091089D01*
X0222924Y0091141D01*
X0222938Y0091194D01*
X0222947Y0091247D01*
X0222953Y0091301D01*
X0222955Y0091356D01*
X0222955Y0092120D01*
X0222000Y0093558D02*
X0221809Y0093558D01*
X0221754Y0093560D01*
X0221700Y0093566D01*
X0221647Y0093575D01*
X0221594Y0093589D01*
X0221542Y0093606D01*
X0221492Y0093627D01*
X0221443Y0093651D01*
X0221396Y0093679D01*
X0221351Y0093710D01*
X0221309Y0093745D01*
X0221269Y0093782D01*
X0221232Y0093822D01*
X0221197Y0093864D01*
X0221166Y0093909D01*
X0221138Y0093956D01*
X0221114Y0094005D01*
X0221093Y0094055D01*
X0221076Y0094107D01*
X0221062Y0094160D01*
X0221053Y0094213D01*
X0221047Y0094267D01*
X0221045Y0094322D01*
X0221045Y0095468D01*
X0222000Y0095468D01*
X0222060Y0095466D01*
X0222120Y0095460D01*
X0222179Y0095451D01*
X0222237Y0095438D01*
X0222295Y0095421D01*
X0222352Y0095401D01*
X0222407Y0095377D01*
X0222460Y0095350D01*
X0222512Y0095319D01*
X0222561Y0095286D01*
X0222609Y0095249D01*
X0222654Y0095209D01*
X0222696Y0095167D01*
X0222736Y0095122D01*
X0222773Y0095074D01*
X0222806Y0095025D01*
X0222837Y0094973D01*
X0222864Y0094920D01*
X0222888Y0094865D01*
X0222908Y0094808D01*
X0222925Y0094750D01*
X0222938Y0094692D01*
X0222947Y0094633D01*
X0222953Y0094573D01*
X0222955Y0094513D01*
X0222953Y0094453D01*
X0222947Y0094393D01*
X0222938Y0094334D01*
X0222925Y0094276D01*
X0222908Y0094218D01*
X0222888Y0094161D01*
X0222864Y0094106D01*
X0222837Y0094053D01*
X0222806Y0094001D01*
X0222773Y0093952D01*
X0222736Y0093904D01*
X0222696Y0093859D01*
X0222654Y0093817D01*
X0222609Y0093777D01*
X0222561Y0093740D01*
X0222512Y0093707D01*
X0222460Y0093676D01*
X0222407Y0093649D01*
X0222352Y0093625D01*
X0222295Y0093605D01*
X0222237Y0093588D01*
X0222179Y0093575D01*
X0222120Y0093566D01*
X0222060Y0093560D01*
X0222000Y0093558D01*
X0221045Y0095468D02*
X0220968Y0095466D01*
X0220890Y0095460D01*
X0220814Y0095450D01*
X0220737Y0095437D01*
X0220662Y0095419D01*
X0220588Y0095398D01*
X0220514Y0095373D01*
X0220442Y0095344D01*
X0220372Y0095312D01*
X0220303Y0095276D01*
X0220237Y0095237D01*
X0220172Y0095194D01*
X0220110Y0095148D01*
X0220050Y0095099D01*
X0219992Y0095047D01*
X0219938Y0094993D01*
X0219886Y0094935D01*
X0219837Y0094875D01*
X0219791Y0094813D01*
X0219748Y0094748D01*
X0219709Y0094682D01*
X0219673Y0094613D01*
X0219641Y0094543D01*
X0219612Y0094471D01*
X0219587Y0094397D01*
X0219566Y0094323D01*
X0219548Y0094248D01*
X0219535Y0094171D01*
X0219525Y0094095D01*
X0219519Y0094017D01*
X0219517Y0093940D01*
X0219518Y0092120D02*
X0219518Y0091356D01*
X0219517Y0091356D02*
X0219519Y0091301D01*
X0219525Y0091247D01*
X0219534Y0091194D01*
X0219548Y0091141D01*
X0219565Y0091089D01*
X0219586Y0091039D01*
X0219610Y0090990D01*
X0219638Y0090943D01*
X0219669Y0090898D01*
X0219704Y0090856D01*
X0219741Y0090816D01*
X0219781Y0090779D01*
X0219823Y0090744D01*
X0219868Y0090713D01*
X0219915Y0090685D01*
X0219964Y0090661D01*
X0220014Y0090640D01*
X0220066Y0090623D01*
X0220119Y0090609D01*
X0220172Y0090600D01*
X0220226Y0090594D01*
X0220281Y0090592D01*
X0093033Y0086830D02*
X0093033Y0085684D01*
X0093034Y0086830D02*
X0093032Y0086885D01*
X0093026Y0086939D01*
X0093017Y0086992D01*
X0093003Y0087045D01*
X0092986Y0087097D01*
X0092965Y0087147D01*
X0092941Y0087196D01*
X0092913Y0087243D01*
X0092882Y0087288D01*
X0092847Y0087330D01*
X0092810Y0087370D01*
X0092770Y0087407D01*
X0092728Y0087442D01*
X0092683Y0087473D01*
X0092636Y0087501D01*
X0092587Y0087525D01*
X0092537Y0087546D01*
X0092485Y0087563D01*
X0092432Y0087577D01*
X0092379Y0087586D01*
X0092325Y0087592D01*
X0092270Y0087594D01*
X0092215Y0087592D01*
X0092161Y0087586D01*
X0092108Y0087577D01*
X0092055Y0087563D01*
X0092003Y0087546D01*
X0091953Y0087525D01*
X0091904Y0087501D01*
X0091857Y0087473D01*
X0091812Y0087442D01*
X0091770Y0087407D01*
X0091730Y0087370D01*
X0091693Y0087330D01*
X0091658Y0087288D01*
X0091627Y0087243D01*
X0091599Y0087196D01*
X0091575Y0087147D01*
X0091554Y0087097D01*
X0091537Y0087045D01*
X0091523Y0086992D01*
X0091514Y0086939D01*
X0091508Y0086885D01*
X0091506Y0086830D01*
X0091506Y0086066D01*
X0091506Y0086639D02*
X0091504Y0086699D01*
X0091498Y0086759D01*
X0091489Y0086818D01*
X0091476Y0086876D01*
X0091459Y0086934D01*
X0091439Y0086991D01*
X0091415Y0087046D01*
X0091388Y0087099D01*
X0091357Y0087151D01*
X0091324Y0087200D01*
X0091287Y0087248D01*
X0091247Y0087293D01*
X0091205Y0087335D01*
X0091160Y0087375D01*
X0091112Y0087412D01*
X0091063Y0087445D01*
X0091011Y0087476D01*
X0090958Y0087503D01*
X0090903Y0087527D01*
X0090846Y0087547D01*
X0090788Y0087564D01*
X0090730Y0087577D01*
X0090671Y0087586D01*
X0090611Y0087592D01*
X0090551Y0087594D01*
X0090491Y0087592D01*
X0090431Y0087586D01*
X0090372Y0087577D01*
X0090314Y0087564D01*
X0090256Y0087547D01*
X0090199Y0087527D01*
X0090144Y0087503D01*
X0090091Y0087476D01*
X0090039Y0087445D01*
X0089990Y0087412D01*
X0089942Y0087375D01*
X0089897Y0087335D01*
X0089855Y0087293D01*
X0089815Y0087248D01*
X0089778Y0087200D01*
X0089745Y0087151D01*
X0089714Y0087099D01*
X0089687Y0087046D01*
X0089663Y0086991D01*
X0089643Y0086934D01*
X0089626Y0086876D01*
X0089613Y0086818D01*
X0089604Y0086759D01*
X0089598Y0086699D01*
X0089596Y0086639D01*
X0089596Y0085684D01*
X0089596Y0084246D02*
X0089596Y0083482D01*
X0089598Y0083427D01*
X0089604Y0083373D01*
X0089613Y0083320D01*
X0089627Y0083267D01*
X0089644Y0083215D01*
X0089665Y0083165D01*
X0089689Y0083116D01*
X0089717Y0083069D01*
X0089748Y0083024D01*
X0089783Y0082982D01*
X0089820Y0082942D01*
X0089860Y0082905D01*
X0089902Y0082870D01*
X0089947Y0082839D01*
X0089994Y0082811D01*
X0090043Y0082787D01*
X0090093Y0082766D01*
X0090145Y0082749D01*
X0090198Y0082735D01*
X0090251Y0082726D01*
X0090305Y0082720D01*
X0090360Y0082718D01*
X0092270Y0082718D01*
X0092325Y0082720D01*
X0092379Y0082726D01*
X0092432Y0082735D01*
X0092485Y0082749D01*
X0092537Y0082766D01*
X0092587Y0082787D01*
X0092636Y0082811D01*
X0092683Y0082839D01*
X0092728Y0082870D01*
X0092770Y0082905D01*
X0092810Y0082942D01*
X0092847Y0082982D01*
X0092882Y0083024D01*
X0092913Y0083069D01*
X0092941Y0083116D01*
X0092965Y0083165D01*
X0092986Y0083215D01*
X0093003Y0083267D01*
X0093017Y0083320D01*
X0093026Y0083373D01*
X0093032Y0083427D01*
X0093034Y0083482D01*
X0093033Y0083482D02*
X0093033Y0084246D01*
X0093033Y0081233D02*
X0093033Y0080470D01*
X0093033Y0080852D02*
X0089596Y0080852D01*
X0089596Y0081233D02*
X0089596Y0080470D01*
X0037915Y0081127D02*
X0034478Y0081127D01*
X0034478Y0080172D02*
X0034478Y0082082D01*
X0037152Y0080172D02*
X0037915Y0081127D01*
X0037915Y0078734D02*
X0037915Y0077970D01*
X0037916Y0077970D02*
X0037914Y0077915D01*
X0037908Y0077861D01*
X0037899Y0077808D01*
X0037885Y0077755D01*
X0037868Y0077703D01*
X0037847Y0077653D01*
X0037823Y0077604D01*
X0037795Y0077557D01*
X0037764Y0077512D01*
X0037729Y0077470D01*
X0037692Y0077430D01*
X0037652Y0077393D01*
X0037610Y0077358D01*
X0037565Y0077327D01*
X0037518Y0077299D01*
X0037469Y0077275D01*
X0037419Y0077254D01*
X0037367Y0077237D01*
X0037314Y0077223D01*
X0037261Y0077214D01*
X0037207Y0077208D01*
X0037152Y0077206D01*
X0035242Y0077206D01*
X0035187Y0077208D01*
X0035133Y0077214D01*
X0035080Y0077223D01*
X0035027Y0077237D01*
X0034975Y0077254D01*
X0034925Y0077275D01*
X0034876Y0077299D01*
X0034829Y0077327D01*
X0034784Y0077358D01*
X0034742Y0077393D01*
X0034702Y0077430D01*
X0034665Y0077470D01*
X0034630Y0077512D01*
X0034599Y0077557D01*
X0034571Y0077604D01*
X0034547Y0077653D01*
X0034526Y0077703D01*
X0034509Y0077755D01*
X0034495Y0077808D01*
X0034486Y0077861D01*
X0034480Y0077915D01*
X0034478Y0077970D01*
X0034478Y0078734D01*
X0035433Y0075783D02*
X0035624Y0075783D01*
X0035679Y0075781D01*
X0035733Y0075775D01*
X0035786Y0075766D01*
X0035839Y0075752D01*
X0035891Y0075735D01*
X0035941Y0075714D01*
X0035990Y0075690D01*
X0036037Y0075662D01*
X0036082Y0075631D01*
X0036124Y0075596D01*
X0036164Y0075559D01*
X0036201Y0075519D01*
X0036236Y0075477D01*
X0036267Y0075432D01*
X0036295Y0075385D01*
X0036319Y0075336D01*
X0036340Y0075286D01*
X0036357Y0075234D01*
X0036371Y0075181D01*
X0036380Y0075128D01*
X0036386Y0075074D01*
X0036388Y0075019D01*
X0036388Y0073873D01*
X0035433Y0073873D01*
X0035373Y0073875D01*
X0035313Y0073881D01*
X0035254Y0073890D01*
X0035196Y0073903D01*
X0035138Y0073920D01*
X0035081Y0073940D01*
X0035026Y0073964D01*
X0034973Y0073991D01*
X0034921Y0074022D01*
X0034872Y0074055D01*
X0034824Y0074092D01*
X0034779Y0074132D01*
X0034737Y0074174D01*
X0034697Y0074219D01*
X0034660Y0074267D01*
X0034627Y0074316D01*
X0034596Y0074368D01*
X0034569Y0074421D01*
X0034545Y0074476D01*
X0034525Y0074533D01*
X0034508Y0074591D01*
X0034495Y0074649D01*
X0034486Y0074708D01*
X0034480Y0074768D01*
X0034478Y0074828D01*
X0034480Y0074888D01*
X0034486Y0074948D01*
X0034495Y0075007D01*
X0034508Y0075065D01*
X0034525Y0075123D01*
X0034545Y0075180D01*
X0034569Y0075235D01*
X0034596Y0075288D01*
X0034627Y0075340D01*
X0034660Y0075389D01*
X0034697Y0075437D01*
X0034737Y0075482D01*
X0034779Y0075524D01*
X0034824Y0075564D01*
X0034872Y0075601D01*
X0034921Y0075634D01*
X0034973Y0075665D01*
X0035026Y0075692D01*
X0035081Y0075716D01*
X0035138Y0075736D01*
X0035196Y0075753D01*
X0035254Y0075766D01*
X0035313Y0075775D01*
X0035373Y0075781D01*
X0035433Y0075783D01*
X0036388Y0073873D02*
X0036465Y0073875D01*
X0036543Y0073881D01*
X0036619Y0073891D01*
X0036696Y0073904D01*
X0036771Y0073922D01*
X0036845Y0073943D01*
X0036919Y0073968D01*
X0036991Y0073997D01*
X0037061Y0074029D01*
X0037130Y0074065D01*
X0037196Y0074104D01*
X0037261Y0074147D01*
X0037323Y0074193D01*
X0037383Y0074242D01*
X0037441Y0074294D01*
X0037495Y0074348D01*
X0037547Y0074406D01*
X0037596Y0074466D01*
X0037642Y0074528D01*
X0037685Y0074593D01*
X0037724Y0074659D01*
X0037760Y0074728D01*
X0037792Y0074798D01*
X0037821Y0074870D01*
X0037846Y0074944D01*
X0037867Y0075018D01*
X0037885Y0075093D01*
X0037898Y0075170D01*
X0037908Y0075246D01*
X0037914Y0075324D01*
X0037916Y0075401D01*
X0034478Y0072239D02*
X0034478Y0070330D01*
X0034478Y0071285D02*
X0037915Y0071285D01*
X0037152Y0070330D01*
X0037915Y0068891D02*
X0037915Y0068128D01*
X0037916Y0068128D02*
X0037914Y0068073D01*
X0037908Y0068019D01*
X0037899Y0067966D01*
X0037885Y0067913D01*
X0037868Y0067861D01*
X0037847Y0067811D01*
X0037823Y0067762D01*
X0037795Y0067715D01*
X0037764Y0067670D01*
X0037729Y0067628D01*
X0037692Y0067588D01*
X0037652Y0067551D01*
X0037610Y0067516D01*
X0037565Y0067485D01*
X0037518Y0067457D01*
X0037469Y0067433D01*
X0037419Y0067412D01*
X0037367Y0067395D01*
X0037314Y0067381D01*
X0037261Y0067372D01*
X0037207Y0067366D01*
X0037152Y0067364D01*
X0035242Y0067364D01*
X0035187Y0067366D01*
X0035133Y0067372D01*
X0035080Y0067381D01*
X0035027Y0067395D01*
X0034975Y0067412D01*
X0034925Y0067433D01*
X0034876Y0067457D01*
X0034829Y0067485D01*
X0034784Y0067516D01*
X0034742Y0067551D01*
X0034702Y0067588D01*
X0034665Y0067628D01*
X0034630Y0067670D01*
X0034599Y0067715D01*
X0034571Y0067762D01*
X0034547Y0067811D01*
X0034526Y0067861D01*
X0034509Y0067913D01*
X0034495Y0067966D01*
X0034486Y0068019D01*
X0034480Y0068073D01*
X0034478Y0068128D01*
X0034478Y0068891D01*
X0035433Y0065940D02*
X0035373Y0065938D01*
X0035313Y0065932D01*
X0035254Y0065923D01*
X0035196Y0065910D01*
X0035138Y0065893D01*
X0035081Y0065873D01*
X0035026Y0065849D01*
X0034973Y0065822D01*
X0034921Y0065791D01*
X0034872Y0065758D01*
X0034824Y0065721D01*
X0034779Y0065681D01*
X0034737Y0065639D01*
X0034697Y0065594D01*
X0034660Y0065546D01*
X0034627Y0065497D01*
X0034596Y0065445D01*
X0034569Y0065392D01*
X0034545Y0065337D01*
X0034525Y0065280D01*
X0034508Y0065222D01*
X0034495Y0065164D01*
X0034486Y0065105D01*
X0034480Y0065045D01*
X0034478Y0064985D01*
X0034480Y0064925D01*
X0034486Y0064865D01*
X0034495Y0064806D01*
X0034508Y0064748D01*
X0034525Y0064690D01*
X0034545Y0064633D01*
X0034569Y0064578D01*
X0034596Y0064525D01*
X0034627Y0064473D01*
X0034660Y0064424D01*
X0034697Y0064376D01*
X0034737Y0064331D01*
X0034779Y0064289D01*
X0034824Y0064249D01*
X0034872Y0064212D01*
X0034921Y0064179D01*
X0034973Y0064148D01*
X0035026Y0064121D01*
X0035081Y0064097D01*
X0035138Y0064077D01*
X0035196Y0064060D01*
X0035254Y0064047D01*
X0035313Y0064038D01*
X0035373Y0064032D01*
X0035433Y0064030D01*
X0035493Y0064032D01*
X0035553Y0064038D01*
X0035612Y0064047D01*
X0035670Y0064060D01*
X0035728Y0064077D01*
X0035785Y0064097D01*
X0035840Y0064121D01*
X0035893Y0064148D01*
X0035945Y0064179D01*
X0035994Y0064212D01*
X0036042Y0064249D01*
X0036087Y0064289D01*
X0036129Y0064331D01*
X0036169Y0064376D01*
X0036206Y0064424D01*
X0036239Y0064473D01*
X0036270Y0064525D01*
X0036297Y0064578D01*
X0036321Y0064633D01*
X0036341Y0064690D01*
X0036358Y0064748D01*
X0036371Y0064806D01*
X0036380Y0064865D01*
X0036386Y0064925D01*
X0036388Y0064985D01*
X0036386Y0065045D01*
X0036380Y0065105D01*
X0036371Y0065164D01*
X0036358Y0065222D01*
X0036341Y0065280D01*
X0036321Y0065337D01*
X0036297Y0065392D01*
X0036270Y0065445D01*
X0036239Y0065497D01*
X0036206Y0065546D01*
X0036169Y0065594D01*
X0036129Y0065639D01*
X0036087Y0065681D01*
X0036042Y0065721D01*
X0035994Y0065758D01*
X0035945Y0065791D01*
X0035893Y0065822D01*
X0035840Y0065849D01*
X0035785Y0065873D01*
X0035728Y0065893D01*
X0035670Y0065910D01*
X0035612Y0065923D01*
X0035553Y0065932D01*
X0035493Y0065938D01*
X0035433Y0065940D01*
X0037152Y0065749D02*
X0037097Y0065747D01*
X0037043Y0065741D01*
X0036990Y0065732D01*
X0036937Y0065718D01*
X0036885Y0065701D01*
X0036835Y0065680D01*
X0036786Y0065656D01*
X0036739Y0065628D01*
X0036694Y0065597D01*
X0036652Y0065562D01*
X0036612Y0065525D01*
X0036575Y0065485D01*
X0036540Y0065443D01*
X0036509Y0065398D01*
X0036481Y0065351D01*
X0036457Y0065302D01*
X0036436Y0065252D01*
X0036419Y0065200D01*
X0036405Y0065147D01*
X0036396Y0065094D01*
X0036390Y0065040D01*
X0036388Y0064985D01*
X0036390Y0064930D01*
X0036396Y0064876D01*
X0036405Y0064823D01*
X0036419Y0064770D01*
X0036436Y0064718D01*
X0036457Y0064668D01*
X0036481Y0064619D01*
X0036509Y0064572D01*
X0036540Y0064527D01*
X0036575Y0064485D01*
X0036612Y0064445D01*
X0036652Y0064408D01*
X0036694Y0064373D01*
X0036739Y0064342D01*
X0036786Y0064314D01*
X0036835Y0064290D01*
X0036885Y0064269D01*
X0036937Y0064252D01*
X0036990Y0064238D01*
X0037043Y0064229D01*
X0037097Y0064223D01*
X0037152Y0064221D01*
X0037207Y0064223D01*
X0037261Y0064229D01*
X0037314Y0064238D01*
X0037367Y0064252D01*
X0037419Y0064269D01*
X0037469Y0064290D01*
X0037518Y0064314D01*
X0037565Y0064342D01*
X0037610Y0064373D01*
X0037652Y0064408D01*
X0037692Y0064445D01*
X0037729Y0064485D01*
X0037764Y0064527D01*
X0037795Y0064572D01*
X0037823Y0064619D01*
X0037847Y0064668D01*
X0037868Y0064718D01*
X0037885Y0064770D01*
X0037899Y0064823D01*
X0037908Y0064876D01*
X0037914Y0064930D01*
X0037916Y0064985D01*
X0037914Y0065040D01*
X0037908Y0065094D01*
X0037899Y0065147D01*
X0037885Y0065200D01*
X0037868Y0065252D01*
X0037847Y0065302D01*
X0037823Y0065351D01*
X0037795Y0065398D01*
X0037764Y0065443D01*
X0037729Y0065485D01*
X0037692Y0065525D01*
X0037652Y0065562D01*
X0037610Y0065597D01*
X0037565Y0065628D01*
X0037518Y0065656D01*
X0037469Y0065680D01*
X0037419Y0065701D01*
X0037367Y0065718D01*
X0037314Y0065732D01*
X0037261Y0065741D01*
X0037207Y0065747D01*
X0037152Y0065749D01*
X0034478Y0062397D02*
X0034478Y0060487D01*
X0034478Y0061442D02*
X0037915Y0061442D01*
X0037152Y0060487D01*
X0037915Y0059049D02*
X0037915Y0058285D01*
X0037916Y0058285D02*
X0037914Y0058230D01*
X0037908Y0058176D01*
X0037899Y0058123D01*
X0037885Y0058070D01*
X0037868Y0058018D01*
X0037847Y0057968D01*
X0037823Y0057919D01*
X0037795Y0057872D01*
X0037764Y0057827D01*
X0037729Y0057785D01*
X0037692Y0057745D01*
X0037652Y0057708D01*
X0037610Y0057673D01*
X0037565Y0057642D01*
X0037518Y0057614D01*
X0037469Y0057590D01*
X0037419Y0057569D01*
X0037367Y0057552D01*
X0037314Y0057538D01*
X0037261Y0057529D01*
X0037207Y0057523D01*
X0037152Y0057521D01*
X0035242Y0057521D01*
X0035187Y0057523D01*
X0035133Y0057529D01*
X0035080Y0057538D01*
X0035027Y0057552D01*
X0034975Y0057569D01*
X0034925Y0057590D01*
X0034876Y0057614D01*
X0034829Y0057642D01*
X0034784Y0057673D01*
X0034742Y0057708D01*
X0034702Y0057745D01*
X0034665Y0057785D01*
X0034630Y0057827D01*
X0034599Y0057872D01*
X0034571Y0057919D01*
X0034547Y0057968D01*
X0034526Y0058018D01*
X0034509Y0058070D01*
X0034495Y0058123D01*
X0034486Y0058176D01*
X0034480Y0058230D01*
X0034478Y0058285D01*
X0034478Y0059049D01*
X0034478Y0056098D02*
X0034478Y0054188D01*
X0036388Y0055811D01*
X0037915Y0055238D02*
X0037913Y0055175D01*
X0037908Y0055112D01*
X0037899Y0055050D01*
X0037886Y0054988D01*
X0037870Y0054927D01*
X0037851Y0054867D01*
X0037828Y0054808D01*
X0037802Y0054751D01*
X0037772Y0054695D01*
X0037739Y0054641D01*
X0037704Y0054589D01*
X0037665Y0054539D01*
X0037624Y0054491D01*
X0037580Y0054446D01*
X0037533Y0054403D01*
X0037485Y0054363D01*
X0037433Y0054326D01*
X0037380Y0054292D01*
X0037325Y0054261D01*
X0037269Y0054233D01*
X0037211Y0054209D01*
X0037151Y0054188D01*
X0036388Y0055812D02*
X0036429Y0055852D01*
X0036472Y0055890D01*
X0036518Y0055925D01*
X0036565Y0055957D01*
X0036615Y0055986D01*
X0036666Y0056012D01*
X0036719Y0056034D01*
X0036773Y0056054D01*
X0036828Y0056069D01*
X0036885Y0056082D01*
X0036941Y0056091D01*
X0036999Y0056096D01*
X0037056Y0056098D01*
X0037056Y0056097D02*
X0037112Y0056095D01*
X0037168Y0056090D01*
X0037224Y0056080D01*
X0037278Y0056068D01*
X0037332Y0056051D01*
X0037385Y0056032D01*
X0037436Y0056008D01*
X0037486Y0055982D01*
X0037533Y0055952D01*
X0037579Y0055919D01*
X0037622Y0055884D01*
X0037663Y0055845D01*
X0037702Y0055804D01*
X0037737Y0055761D01*
X0037770Y0055715D01*
X0037800Y0055668D01*
X0037826Y0055618D01*
X0037850Y0055567D01*
X0037869Y0055514D01*
X0037886Y0055460D01*
X0037898Y0055406D01*
X0037908Y0055350D01*
X0037913Y0055294D01*
X0037915Y0055238D01*
X0037915Y0052750D02*
X0037915Y0051986D01*
X0037916Y0051986D02*
X0037914Y0051931D01*
X0037908Y0051877D01*
X0037899Y0051824D01*
X0037885Y0051771D01*
X0037868Y0051719D01*
X0037847Y0051669D01*
X0037823Y0051620D01*
X0037795Y0051573D01*
X0037764Y0051528D01*
X0037729Y0051486D01*
X0037692Y0051446D01*
X0037652Y0051409D01*
X0037610Y0051374D01*
X0037565Y0051343D01*
X0037518Y0051315D01*
X0037469Y0051291D01*
X0037419Y0051270D01*
X0037367Y0051253D01*
X0037314Y0051239D01*
X0037261Y0051230D01*
X0037207Y0051224D01*
X0037152Y0051222D01*
X0035242Y0051222D01*
X0035187Y0051224D01*
X0035133Y0051230D01*
X0035080Y0051239D01*
X0035027Y0051253D01*
X0034975Y0051270D01*
X0034925Y0051291D01*
X0034876Y0051315D01*
X0034829Y0051343D01*
X0034784Y0051374D01*
X0034742Y0051409D01*
X0034702Y0051446D01*
X0034665Y0051486D01*
X0034630Y0051528D01*
X0034599Y0051573D01*
X0034571Y0051620D01*
X0034547Y0051669D01*
X0034526Y0051719D01*
X0034509Y0051771D01*
X0034495Y0051824D01*
X0034486Y0051877D01*
X0034480Y0051931D01*
X0034478Y0051986D01*
X0034478Y0052750D01*
X0021183Y0052750D02*
X0021183Y0051986D01*
X0021181Y0051931D01*
X0021175Y0051877D01*
X0021166Y0051824D01*
X0021152Y0051771D01*
X0021135Y0051719D01*
X0021114Y0051669D01*
X0021090Y0051620D01*
X0021062Y0051573D01*
X0021031Y0051528D01*
X0020996Y0051486D01*
X0020959Y0051446D01*
X0020919Y0051409D01*
X0020877Y0051374D01*
X0020832Y0051343D01*
X0020785Y0051315D01*
X0020736Y0051291D01*
X0020686Y0051270D01*
X0020634Y0051253D01*
X0020581Y0051239D01*
X0020528Y0051230D01*
X0020474Y0051224D01*
X0020419Y0051222D01*
X0018510Y0051222D01*
X0018455Y0051224D01*
X0018401Y0051230D01*
X0018348Y0051239D01*
X0018295Y0051253D01*
X0018243Y0051270D01*
X0018193Y0051291D01*
X0018144Y0051315D01*
X0018097Y0051343D01*
X0018052Y0051374D01*
X0018010Y0051409D01*
X0017970Y0051446D01*
X0017933Y0051486D01*
X0017898Y0051528D01*
X0017867Y0051573D01*
X0017839Y0051620D01*
X0017815Y0051669D01*
X0017794Y0051719D01*
X0017777Y0051771D01*
X0017763Y0051824D01*
X0017754Y0051877D01*
X0017748Y0051931D01*
X0017746Y0051986D01*
X0017746Y0052750D01*
X0018510Y0054188D02*
X0018510Y0056098D01*
X0019274Y0055525D02*
X0017746Y0055525D01*
X0018510Y0054188D02*
X0021183Y0054952D01*
X0020419Y0057521D02*
X0018510Y0057521D01*
X0018455Y0057523D01*
X0018401Y0057529D01*
X0018348Y0057538D01*
X0018295Y0057552D01*
X0018243Y0057569D01*
X0018193Y0057590D01*
X0018144Y0057614D01*
X0018097Y0057642D01*
X0018052Y0057673D01*
X0018010Y0057708D01*
X0017970Y0057745D01*
X0017933Y0057785D01*
X0017898Y0057827D01*
X0017867Y0057872D01*
X0017839Y0057919D01*
X0017815Y0057968D01*
X0017794Y0058018D01*
X0017777Y0058070D01*
X0017763Y0058123D01*
X0017754Y0058176D01*
X0017748Y0058230D01*
X0017746Y0058285D01*
X0017746Y0059049D01*
X0017746Y0060487D02*
X0017746Y0062397D01*
X0017746Y0061442D02*
X0021183Y0061442D01*
X0020419Y0060487D01*
X0021183Y0059049D02*
X0021183Y0058285D01*
X0021181Y0058230D01*
X0021175Y0058176D01*
X0021166Y0058123D01*
X0021152Y0058070D01*
X0021135Y0058018D01*
X0021114Y0057968D01*
X0021090Y0057919D01*
X0021062Y0057872D01*
X0021031Y0057827D01*
X0020996Y0057785D01*
X0020959Y0057745D01*
X0020919Y0057708D01*
X0020877Y0057673D01*
X0020832Y0057642D01*
X0020785Y0057614D01*
X0020736Y0057590D01*
X0020686Y0057569D01*
X0020634Y0057552D01*
X0020581Y0057538D01*
X0020528Y0057529D01*
X0020474Y0057523D01*
X0020419Y0057521D01*
X0020228Y0064031D02*
X0020037Y0064031D01*
X0020037Y0064030D02*
X0019982Y0064032D01*
X0019928Y0064038D01*
X0019875Y0064047D01*
X0019822Y0064061D01*
X0019770Y0064078D01*
X0019720Y0064099D01*
X0019671Y0064123D01*
X0019624Y0064151D01*
X0019579Y0064182D01*
X0019537Y0064217D01*
X0019497Y0064254D01*
X0019460Y0064294D01*
X0019425Y0064336D01*
X0019394Y0064381D01*
X0019366Y0064428D01*
X0019342Y0064477D01*
X0019321Y0064527D01*
X0019304Y0064579D01*
X0019290Y0064632D01*
X0019281Y0064685D01*
X0019275Y0064739D01*
X0019273Y0064794D01*
X0019274Y0064794D02*
X0019274Y0065940D01*
X0020228Y0065940D01*
X0020288Y0065938D01*
X0020348Y0065932D01*
X0020407Y0065923D01*
X0020465Y0065910D01*
X0020523Y0065893D01*
X0020580Y0065873D01*
X0020635Y0065849D01*
X0020688Y0065822D01*
X0020740Y0065791D01*
X0020789Y0065758D01*
X0020837Y0065721D01*
X0020882Y0065681D01*
X0020924Y0065639D01*
X0020964Y0065594D01*
X0021001Y0065546D01*
X0021034Y0065497D01*
X0021065Y0065445D01*
X0021092Y0065392D01*
X0021116Y0065337D01*
X0021136Y0065280D01*
X0021153Y0065222D01*
X0021166Y0065164D01*
X0021175Y0065105D01*
X0021181Y0065045D01*
X0021183Y0064985D01*
X0021181Y0064925D01*
X0021175Y0064865D01*
X0021166Y0064806D01*
X0021153Y0064748D01*
X0021136Y0064690D01*
X0021116Y0064633D01*
X0021092Y0064578D01*
X0021065Y0064525D01*
X0021034Y0064473D01*
X0021001Y0064424D01*
X0020964Y0064376D01*
X0020924Y0064331D01*
X0020882Y0064289D01*
X0020837Y0064249D01*
X0020789Y0064212D01*
X0020740Y0064179D01*
X0020688Y0064148D01*
X0020635Y0064121D01*
X0020580Y0064097D01*
X0020523Y0064077D01*
X0020465Y0064060D01*
X0020407Y0064047D01*
X0020348Y0064038D01*
X0020288Y0064032D01*
X0020228Y0064030D01*
X0019274Y0065941D02*
X0019197Y0065939D01*
X0019119Y0065933D01*
X0019043Y0065923D01*
X0018966Y0065910D01*
X0018891Y0065892D01*
X0018817Y0065871D01*
X0018743Y0065846D01*
X0018671Y0065817D01*
X0018601Y0065785D01*
X0018532Y0065749D01*
X0018466Y0065710D01*
X0018401Y0065667D01*
X0018339Y0065621D01*
X0018279Y0065572D01*
X0018221Y0065520D01*
X0018167Y0065466D01*
X0018115Y0065408D01*
X0018066Y0065348D01*
X0018020Y0065286D01*
X0017977Y0065221D01*
X0017938Y0065155D01*
X0017902Y0065086D01*
X0017870Y0065016D01*
X0017841Y0064944D01*
X0017816Y0064870D01*
X0017795Y0064796D01*
X0017777Y0064721D01*
X0017764Y0064644D01*
X0017754Y0064568D01*
X0017748Y0064490D01*
X0017746Y0064413D01*
X0018510Y0070907D02*
X0020419Y0070907D01*
X0020474Y0070909D01*
X0020528Y0070915D01*
X0020581Y0070924D01*
X0020634Y0070938D01*
X0020686Y0070955D01*
X0020736Y0070976D01*
X0020785Y0071000D01*
X0020832Y0071028D01*
X0020877Y0071059D01*
X0020919Y0071094D01*
X0020959Y0071131D01*
X0020996Y0071171D01*
X0021031Y0071213D01*
X0021062Y0071258D01*
X0021090Y0071305D01*
X0021114Y0071354D01*
X0021135Y0071404D01*
X0021152Y0071456D01*
X0021166Y0071509D01*
X0021175Y0071562D01*
X0021181Y0071616D01*
X0021183Y0071671D01*
X0021183Y0072435D01*
X0021183Y0073873D02*
X0019656Y0073873D01*
X0019656Y0075019D01*
X0019654Y0075074D01*
X0019648Y0075128D01*
X0019639Y0075181D01*
X0019625Y0075234D01*
X0019608Y0075286D01*
X0019587Y0075336D01*
X0019563Y0075385D01*
X0019535Y0075432D01*
X0019504Y0075477D01*
X0019469Y0075519D01*
X0019432Y0075559D01*
X0019392Y0075596D01*
X0019350Y0075631D01*
X0019305Y0075662D01*
X0019258Y0075690D01*
X0019209Y0075714D01*
X0019159Y0075735D01*
X0019107Y0075752D01*
X0019054Y0075766D01*
X0019001Y0075775D01*
X0018947Y0075781D01*
X0018892Y0075783D01*
X0018510Y0075783D01*
X0018455Y0075781D01*
X0018401Y0075775D01*
X0018348Y0075766D01*
X0018295Y0075752D01*
X0018243Y0075735D01*
X0018193Y0075714D01*
X0018144Y0075690D01*
X0018097Y0075662D01*
X0018052Y0075631D01*
X0018010Y0075596D01*
X0017970Y0075559D01*
X0017933Y0075519D01*
X0017898Y0075477D01*
X0017867Y0075432D01*
X0017839Y0075385D01*
X0017815Y0075336D01*
X0017794Y0075286D01*
X0017777Y0075234D01*
X0017763Y0075181D01*
X0017754Y0075128D01*
X0017748Y0075074D01*
X0017746Y0075019D01*
X0017746Y0073873D01*
X0017746Y0072435D02*
X0017746Y0071671D01*
X0017748Y0071616D01*
X0017754Y0071562D01*
X0017763Y0071509D01*
X0017777Y0071456D01*
X0017794Y0071404D01*
X0017815Y0071354D01*
X0017839Y0071305D01*
X0017867Y0071258D01*
X0017898Y0071213D01*
X0017933Y0071171D01*
X0017970Y0071131D01*
X0018010Y0071094D01*
X0018052Y0071059D01*
X0018097Y0071028D01*
X0018144Y0071000D01*
X0018193Y0070976D01*
X0018243Y0070955D01*
X0018295Y0070938D01*
X0018348Y0070924D01*
X0018401Y0070915D01*
X0018455Y0070909D01*
X0018510Y0070907D01*
X0021183Y0073873D02*
X0021183Y0075783D01*
X0020419Y0080750D02*
X0018510Y0080750D01*
X0018510Y0080749D02*
X0018455Y0080751D01*
X0018401Y0080757D01*
X0018348Y0080766D01*
X0018295Y0080780D01*
X0018243Y0080797D01*
X0018193Y0080818D01*
X0018144Y0080842D01*
X0018097Y0080870D01*
X0018052Y0080901D01*
X0018010Y0080936D01*
X0017970Y0080973D01*
X0017933Y0081013D01*
X0017898Y0081055D01*
X0017867Y0081100D01*
X0017839Y0081147D01*
X0017815Y0081196D01*
X0017794Y0081246D01*
X0017777Y0081298D01*
X0017763Y0081351D01*
X0017754Y0081404D01*
X0017748Y0081458D01*
X0017746Y0081513D01*
X0017746Y0082277D01*
X0017746Y0083716D02*
X0017746Y0084670D01*
X0017748Y0084730D01*
X0017754Y0084790D01*
X0017763Y0084849D01*
X0017776Y0084907D01*
X0017793Y0084965D01*
X0017813Y0085022D01*
X0017837Y0085077D01*
X0017864Y0085130D01*
X0017895Y0085182D01*
X0017928Y0085231D01*
X0017965Y0085279D01*
X0018005Y0085324D01*
X0018047Y0085366D01*
X0018092Y0085406D01*
X0018140Y0085443D01*
X0018189Y0085476D01*
X0018241Y0085507D01*
X0018294Y0085534D01*
X0018349Y0085558D01*
X0018406Y0085578D01*
X0018464Y0085595D01*
X0018522Y0085608D01*
X0018581Y0085617D01*
X0018641Y0085623D01*
X0018701Y0085625D01*
X0018761Y0085623D01*
X0018821Y0085617D01*
X0018880Y0085608D01*
X0018938Y0085595D01*
X0018996Y0085578D01*
X0019053Y0085558D01*
X0019108Y0085534D01*
X0019161Y0085507D01*
X0019213Y0085476D01*
X0019262Y0085443D01*
X0019310Y0085406D01*
X0019355Y0085366D01*
X0019397Y0085324D01*
X0019437Y0085279D01*
X0019474Y0085231D01*
X0019507Y0085182D01*
X0019538Y0085130D01*
X0019565Y0085077D01*
X0019589Y0085022D01*
X0019609Y0084965D01*
X0019626Y0084907D01*
X0019639Y0084849D01*
X0019648Y0084790D01*
X0019654Y0084730D01*
X0019656Y0084670D01*
X0019656Y0084861D02*
X0019656Y0084098D01*
X0019655Y0084861D02*
X0019657Y0084916D01*
X0019663Y0084970D01*
X0019672Y0085023D01*
X0019686Y0085076D01*
X0019703Y0085128D01*
X0019724Y0085178D01*
X0019748Y0085227D01*
X0019776Y0085274D01*
X0019807Y0085319D01*
X0019842Y0085361D01*
X0019879Y0085401D01*
X0019919Y0085438D01*
X0019961Y0085473D01*
X0020006Y0085504D01*
X0020053Y0085532D01*
X0020102Y0085556D01*
X0020152Y0085577D01*
X0020204Y0085594D01*
X0020257Y0085608D01*
X0020310Y0085617D01*
X0020364Y0085623D01*
X0020419Y0085625D01*
X0020474Y0085623D01*
X0020528Y0085617D01*
X0020581Y0085608D01*
X0020634Y0085594D01*
X0020686Y0085577D01*
X0020736Y0085556D01*
X0020785Y0085532D01*
X0020832Y0085504D01*
X0020877Y0085473D01*
X0020919Y0085438D01*
X0020959Y0085401D01*
X0020996Y0085361D01*
X0021031Y0085319D01*
X0021062Y0085274D01*
X0021090Y0085227D01*
X0021114Y0085178D01*
X0021135Y0085128D01*
X0021152Y0085076D01*
X0021166Y0085023D01*
X0021175Y0084970D01*
X0021181Y0084916D01*
X0021183Y0084861D01*
X0021183Y0083716D01*
X0021183Y0082277D02*
X0021183Y0081513D01*
X0021181Y0081458D01*
X0021175Y0081404D01*
X0021166Y0081351D01*
X0021152Y0081298D01*
X0021135Y0081246D01*
X0021114Y0081196D01*
X0021090Y0081147D01*
X0021062Y0081100D01*
X0021031Y0081055D01*
X0020996Y0081013D01*
X0020959Y0080973D01*
X0020919Y0080936D01*
X0020877Y0080901D01*
X0020832Y0080870D01*
X0020785Y0080842D01*
X0020736Y0080818D01*
X0020686Y0080797D01*
X0020634Y0080780D01*
X0020581Y0080766D01*
X0020528Y0080757D01*
X0020474Y0080751D01*
X0020419Y0080749D01*
X0034478Y0084670D02*
X0037915Y0085625D01*
X0037915Y0083716D01*
X0037533Y0083716D01*
D12*
X0103126Y0086859D02*
X0103126Y0033710D01*
X0104110Y0032726D01*
X0157260Y0032726D01*
X0158244Y0033710D01*
X0158244Y0084891D01*
X0155291Y0087844D01*
X0104110Y0087844D01*
X0103126Y0086859D01*
X0153323Y0083907D02*
X0153325Y0083969D01*
X0153331Y0084032D01*
X0153341Y0084093D01*
X0153355Y0084154D01*
X0153372Y0084214D01*
X0153393Y0084273D01*
X0153419Y0084330D01*
X0153447Y0084385D01*
X0153479Y0084439D01*
X0153515Y0084490D01*
X0153553Y0084540D01*
X0153595Y0084586D01*
X0153639Y0084630D01*
X0153687Y0084671D01*
X0153736Y0084709D01*
X0153788Y0084743D01*
X0153842Y0084774D01*
X0153898Y0084802D01*
X0153956Y0084826D01*
X0154015Y0084847D01*
X0154075Y0084863D01*
X0154136Y0084876D01*
X0154198Y0084885D01*
X0154260Y0084890D01*
X0154323Y0084891D01*
X0154385Y0084888D01*
X0154447Y0084881D01*
X0154509Y0084870D01*
X0154569Y0084855D01*
X0154629Y0084837D01*
X0154687Y0084815D01*
X0154744Y0084789D01*
X0154799Y0084759D01*
X0154852Y0084726D01*
X0154903Y0084690D01*
X0154951Y0084651D01*
X0154997Y0084608D01*
X0155040Y0084563D01*
X0155080Y0084515D01*
X0155117Y0084465D01*
X0155151Y0084412D01*
X0155182Y0084358D01*
X0155208Y0084302D01*
X0155232Y0084244D01*
X0155251Y0084184D01*
X0155267Y0084124D01*
X0155279Y0084062D01*
X0155287Y0084001D01*
X0155291Y0083938D01*
X0155291Y0083876D01*
X0155287Y0083813D01*
X0155279Y0083752D01*
X0155267Y0083690D01*
X0155251Y0083630D01*
X0155232Y0083570D01*
X0155208Y0083512D01*
X0155182Y0083456D01*
X0155151Y0083402D01*
X0155117Y0083349D01*
X0155080Y0083299D01*
X0155040Y0083251D01*
X0154997Y0083206D01*
X0154951Y0083163D01*
X0154903Y0083124D01*
X0154852Y0083088D01*
X0154799Y0083055D01*
X0154744Y0083025D01*
X0154687Y0082999D01*
X0154629Y0082977D01*
X0154569Y0082959D01*
X0154509Y0082944D01*
X0154447Y0082933D01*
X0154385Y0082926D01*
X0154323Y0082923D01*
X0154260Y0082924D01*
X0154198Y0082929D01*
X0154136Y0082938D01*
X0154075Y0082951D01*
X0154015Y0082967D01*
X0153956Y0082988D01*
X0153898Y0083012D01*
X0153842Y0083040D01*
X0153788Y0083071D01*
X0153736Y0083105D01*
X0153687Y0083143D01*
X0153639Y0083184D01*
X0153595Y0083228D01*
X0153553Y0083274D01*
X0153515Y0083324D01*
X0153479Y0083375D01*
X0153447Y0083429D01*
X0153419Y0083484D01*
X0153393Y0083541D01*
X0153372Y0083600D01*
X0153355Y0083660D01*
X0153341Y0083721D01*
X0153331Y0083782D01*
X0153325Y0083845D01*
X0153323Y0083907D01*
D13*
X0224677Y0087651D02*
X0224677Y0097887D01*
X0224679Y0097956D01*
X0224685Y0098025D01*
X0224694Y0098094D01*
X0224707Y0098162D01*
X0224724Y0098229D01*
X0224744Y0098296D01*
X0224768Y0098361D01*
X0224795Y0098424D01*
X0224826Y0098487D01*
X0224860Y0098547D01*
X0224898Y0098605D01*
X0224938Y0098662D01*
X0224981Y0098716D01*
X0225028Y0098767D01*
X0225077Y0098816D01*
X0225128Y0098863D01*
X0225182Y0098906D01*
X0225239Y0098946D01*
X0225297Y0098984D01*
X0225357Y0099018D01*
X0225420Y0099049D01*
X0225483Y0099076D01*
X0225548Y0099100D01*
X0225615Y0099120D01*
X0225682Y0099137D01*
X0225750Y0099150D01*
X0225819Y0099159D01*
X0225888Y0099165D01*
X0225957Y0099167D01*
X0236193Y0099167D02*
X0236262Y0099165D01*
X0236331Y0099159D01*
X0236400Y0099150D01*
X0236468Y0099137D01*
X0236535Y0099120D01*
X0236602Y0099100D01*
X0236667Y0099076D01*
X0236730Y0099049D01*
X0236793Y0099018D01*
X0236853Y0098984D01*
X0236911Y0098946D01*
X0236968Y0098906D01*
X0237022Y0098863D01*
X0237073Y0098816D01*
X0237122Y0098767D01*
X0237169Y0098716D01*
X0237212Y0098662D01*
X0237252Y0098605D01*
X0237290Y0098547D01*
X0237324Y0098487D01*
X0237355Y0098424D01*
X0237382Y0098361D01*
X0237406Y0098296D01*
X0237426Y0098229D01*
X0237443Y0098162D01*
X0237456Y0098094D01*
X0237465Y0098025D01*
X0237471Y0097956D01*
X0237473Y0097887D01*
X0237472Y0097887D02*
X0237472Y0087651D01*
X0237473Y0087651D02*
X0237471Y0087582D01*
X0237465Y0087513D01*
X0237456Y0087444D01*
X0237443Y0087376D01*
X0237426Y0087309D01*
X0237406Y0087242D01*
X0237382Y0087177D01*
X0237355Y0087114D01*
X0237324Y0087051D01*
X0237290Y0086991D01*
X0237252Y0086933D01*
X0237212Y0086876D01*
X0237169Y0086822D01*
X0237122Y0086771D01*
X0237073Y0086722D01*
X0237022Y0086675D01*
X0236968Y0086632D01*
X0236911Y0086592D01*
X0236853Y0086554D01*
X0236793Y0086520D01*
X0236730Y0086489D01*
X0236667Y0086462D01*
X0236602Y0086438D01*
X0236535Y0086418D01*
X0236468Y0086401D01*
X0236400Y0086388D01*
X0236331Y0086379D01*
X0236262Y0086373D01*
X0236193Y0086371D01*
X0225957Y0086371D02*
X0225888Y0086373D01*
X0225819Y0086379D01*
X0225750Y0086388D01*
X0225682Y0086401D01*
X0225615Y0086418D01*
X0225548Y0086438D01*
X0225483Y0086462D01*
X0225420Y0086489D01*
X0225357Y0086520D01*
X0225297Y0086554D01*
X0225239Y0086592D01*
X0225182Y0086632D01*
X0225128Y0086675D01*
X0225077Y0086722D01*
X0225028Y0086771D01*
X0224981Y0086822D01*
X0224938Y0086876D01*
X0224898Y0086933D01*
X0224860Y0086991D01*
X0224826Y0087051D01*
X0224795Y0087114D01*
X0224768Y0087177D01*
X0224744Y0087242D01*
X0224724Y0087309D01*
X0224707Y0087376D01*
X0224694Y0087444D01*
X0224685Y0087513D01*
X0224679Y0087582D01*
X0224677Y0087651D01*
X0224677Y0066391D02*
X0224677Y0056155D01*
X0224679Y0056086D01*
X0224685Y0056017D01*
X0224694Y0055948D01*
X0224707Y0055880D01*
X0224724Y0055813D01*
X0224744Y0055746D01*
X0224768Y0055681D01*
X0224795Y0055618D01*
X0224826Y0055555D01*
X0224860Y0055495D01*
X0224898Y0055437D01*
X0224938Y0055380D01*
X0224981Y0055326D01*
X0225028Y0055275D01*
X0225077Y0055226D01*
X0225128Y0055179D01*
X0225182Y0055136D01*
X0225239Y0055096D01*
X0225297Y0055058D01*
X0225357Y0055024D01*
X0225420Y0054993D01*
X0225483Y0054966D01*
X0225548Y0054942D01*
X0225615Y0054922D01*
X0225682Y0054905D01*
X0225750Y0054892D01*
X0225819Y0054883D01*
X0225888Y0054877D01*
X0225957Y0054875D01*
X0236193Y0054875D02*
X0236262Y0054877D01*
X0236331Y0054883D01*
X0236400Y0054892D01*
X0236468Y0054905D01*
X0236535Y0054922D01*
X0236602Y0054942D01*
X0236667Y0054966D01*
X0236730Y0054993D01*
X0236793Y0055024D01*
X0236853Y0055058D01*
X0236911Y0055096D01*
X0236968Y0055136D01*
X0237022Y0055179D01*
X0237073Y0055226D01*
X0237122Y0055275D01*
X0237169Y0055326D01*
X0237212Y0055380D01*
X0237252Y0055437D01*
X0237290Y0055495D01*
X0237324Y0055555D01*
X0237355Y0055618D01*
X0237382Y0055681D01*
X0237406Y0055746D01*
X0237426Y0055813D01*
X0237443Y0055880D01*
X0237456Y0055948D01*
X0237465Y0056017D01*
X0237471Y0056086D01*
X0237473Y0056155D01*
X0237472Y0056155D02*
X0237472Y0066391D01*
X0237473Y0066391D02*
X0237471Y0066460D01*
X0237465Y0066529D01*
X0237456Y0066598D01*
X0237443Y0066666D01*
X0237426Y0066733D01*
X0237406Y0066800D01*
X0237382Y0066865D01*
X0237355Y0066928D01*
X0237324Y0066991D01*
X0237290Y0067051D01*
X0237252Y0067109D01*
X0237212Y0067166D01*
X0237169Y0067220D01*
X0237122Y0067271D01*
X0237073Y0067320D01*
X0237022Y0067367D01*
X0236968Y0067410D01*
X0236911Y0067450D01*
X0236853Y0067488D01*
X0236793Y0067522D01*
X0236730Y0067553D01*
X0236667Y0067580D01*
X0236602Y0067604D01*
X0236535Y0067624D01*
X0236468Y0067641D01*
X0236400Y0067654D01*
X0236331Y0067663D01*
X0236262Y0067669D01*
X0236193Y0067671D01*
X0225957Y0067671D02*
X0225888Y0067669D01*
X0225819Y0067663D01*
X0225750Y0067654D01*
X0225682Y0067641D01*
X0225615Y0067624D01*
X0225548Y0067604D01*
X0225483Y0067580D01*
X0225420Y0067553D01*
X0225357Y0067522D01*
X0225297Y0067488D01*
X0225239Y0067450D01*
X0225182Y0067410D01*
X0225128Y0067367D01*
X0225077Y0067320D01*
X0225028Y0067271D01*
X0224981Y0067220D01*
X0224938Y0067166D01*
X0224898Y0067109D01*
X0224860Y0067051D01*
X0224826Y0066991D01*
X0224795Y0066928D01*
X0224768Y0066865D01*
X0224744Y0066800D01*
X0224724Y0066733D01*
X0224707Y0066666D01*
X0224694Y0066598D01*
X0224685Y0066529D01*
X0224679Y0066460D01*
X0224677Y0066391D01*
X0219756Y0040800D02*
X0219756Y0030564D01*
X0219754Y0030495D01*
X0219748Y0030426D01*
X0219739Y0030357D01*
X0219726Y0030289D01*
X0219709Y0030222D01*
X0219689Y0030155D01*
X0219665Y0030090D01*
X0219638Y0030027D01*
X0219607Y0029964D01*
X0219573Y0029904D01*
X0219535Y0029846D01*
X0219495Y0029789D01*
X0219452Y0029735D01*
X0219405Y0029684D01*
X0219356Y0029635D01*
X0219305Y0029588D01*
X0219251Y0029545D01*
X0219194Y0029505D01*
X0219136Y0029467D01*
X0219076Y0029433D01*
X0219013Y0029402D01*
X0218950Y0029375D01*
X0218885Y0029351D01*
X0218818Y0029331D01*
X0218751Y0029314D01*
X0218683Y0029301D01*
X0218614Y0029292D01*
X0218545Y0029286D01*
X0218476Y0029284D01*
X0208240Y0029284D02*
X0208171Y0029286D01*
X0208102Y0029292D01*
X0208033Y0029301D01*
X0207965Y0029314D01*
X0207898Y0029331D01*
X0207831Y0029351D01*
X0207766Y0029375D01*
X0207703Y0029402D01*
X0207640Y0029433D01*
X0207580Y0029467D01*
X0207522Y0029505D01*
X0207465Y0029545D01*
X0207411Y0029588D01*
X0207360Y0029635D01*
X0207311Y0029684D01*
X0207264Y0029735D01*
X0207221Y0029789D01*
X0207181Y0029846D01*
X0207143Y0029904D01*
X0207109Y0029964D01*
X0207078Y0030027D01*
X0207051Y0030090D01*
X0207027Y0030155D01*
X0207007Y0030222D01*
X0206990Y0030289D01*
X0206977Y0030357D01*
X0206968Y0030426D01*
X0206962Y0030495D01*
X0206960Y0030564D01*
X0206961Y0030564D02*
X0206961Y0040800D01*
X0206960Y0040800D02*
X0206962Y0040869D01*
X0206968Y0040938D01*
X0206977Y0041007D01*
X0206990Y0041075D01*
X0207007Y0041142D01*
X0207027Y0041209D01*
X0207051Y0041274D01*
X0207078Y0041337D01*
X0207109Y0041400D01*
X0207143Y0041460D01*
X0207181Y0041518D01*
X0207221Y0041575D01*
X0207264Y0041629D01*
X0207311Y0041680D01*
X0207360Y0041729D01*
X0207411Y0041776D01*
X0207465Y0041819D01*
X0207522Y0041859D01*
X0207580Y0041897D01*
X0207640Y0041931D01*
X0207703Y0041962D01*
X0207766Y0041989D01*
X0207831Y0042013D01*
X0207898Y0042033D01*
X0207965Y0042050D01*
X0208033Y0042063D01*
X0208102Y0042072D01*
X0208171Y0042078D01*
X0208240Y0042080D01*
X0218476Y0042080D02*
X0218545Y0042078D01*
X0218614Y0042072D01*
X0218683Y0042063D01*
X0218751Y0042050D01*
X0218818Y0042033D01*
X0218885Y0042013D01*
X0218950Y0041989D01*
X0219013Y0041962D01*
X0219076Y0041931D01*
X0219136Y0041897D01*
X0219194Y0041859D01*
X0219251Y0041819D01*
X0219305Y0041776D01*
X0219356Y0041729D01*
X0219405Y0041680D01*
X0219452Y0041629D01*
X0219495Y0041575D01*
X0219535Y0041518D01*
X0219573Y0041460D01*
X0219607Y0041400D01*
X0219638Y0041337D01*
X0219665Y0041274D01*
X0219689Y0041209D01*
X0219709Y0041142D01*
X0219726Y0041075D01*
X0219739Y0041007D01*
X0219748Y0040938D01*
X0219754Y0040869D01*
X0219756Y0040800D01*
D14*
X0207670Y0038791D02*
X0207672Y0038879D01*
X0207678Y0038967D01*
X0207688Y0039055D01*
X0207702Y0039143D01*
X0207719Y0039229D01*
X0207741Y0039315D01*
X0207766Y0039399D01*
X0207796Y0039483D01*
X0207828Y0039565D01*
X0207865Y0039645D01*
X0207905Y0039724D01*
X0207949Y0039801D01*
X0207996Y0039876D01*
X0208046Y0039948D01*
X0208100Y0040019D01*
X0208156Y0040086D01*
X0208216Y0040152D01*
X0208278Y0040214D01*
X0208344Y0040274D01*
X0208411Y0040330D01*
X0208482Y0040384D01*
X0208554Y0040434D01*
X0208629Y0040481D01*
X0208706Y0040525D01*
X0208785Y0040565D01*
X0208865Y0040602D01*
X0208947Y0040634D01*
X0209031Y0040664D01*
X0209115Y0040689D01*
X0209201Y0040711D01*
X0209287Y0040728D01*
X0209375Y0040742D01*
X0209463Y0040752D01*
X0209551Y0040758D01*
X0209639Y0040760D01*
X0209727Y0040758D01*
X0209815Y0040752D01*
X0209903Y0040742D01*
X0209991Y0040728D01*
X0210077Y0040711D01*
X0210163Y0040689D01*
X0210247Y0040664D01*
X0210331Y0040634D01*
X0210413Y0040602D01*
X0210493Y0040565D01*
X0210572Y0040525D01*
X0210649Y0040481D01*
X0210724Y0040434D01*
X0210796Y0040384D01*
X0210867Y0040330D01*
X0210934Y0040274D01*
X0211000Y0040214D01*
X0211062Y0040152D01*
X0211122Y0040086D01*
X0211178Y0040019D01*
X0211232Y0039948D01*
X0211282Y0039876D01*
X0211329Y0039801D01*
X0211373Y0039724D01*
X0211413Y0039645D01*
X0211450Y0039565D01*
X0211482Y0039483D01*
X0211512Y0039399D01*
X0211537Y0039315D01*
X0211559Y0039229D01*
X0211576Y0039143D01*
X0211590Y0039055D01*
X0211600Y0038967D01*
X0211606Y0038879D01*
X0211608Y0038791D01*
X0211606Y0038703D01*
X0211600Y0038615D01*
X0211590Y0038527D01*
X0211576Y0038439D01*
X0211559Y0038353D01*
X0211537Y0038267D01*
X0211512Y0038183D01*
X0211482Y0038099D01*
X0211450Y0038017D01*
X0211413Y0037937D01*
X0211373Y0037858D01*
X0211329Y0037781D01*
X0211282Y0037706D01*
X0211232Y0037634D01*
X0211178Y0037563D01*
X0211122Y0037496D01*
X0211062Y0037430D01*
X0211000Y0037368D01*
X0210934Y0037308D01*
X0210867Y0037252D01*
X0210796Y0037198D01*
X0210724Y0037148D01*
X0210649Y0037101D01*
X0210572Y0037057D01*
X0210493Y0037017D01*
X0210413Y0036980D01*
X0210331Y0036948D01*
X0210247Y0036918D01*
X0210163Y0036893D01*
X0210077Y0036871D01*
X0209991Y0036854D01*
X0209903Y0036840D01*
X0209815Y0036830D01*
X0209727Y0036824D01*
X0209639Y0036822D01*
X0209551Y0036824D01*
X0209463Y0036830D01*
X0209375Y0036840D01*
X0209287Y0036854D01*
X0209201Y0036871D01*
X0209115Y0036893D01*
X0209031Y0036918D01*
X0208947Y0036948D01*
X0208865Y0036980D01*
X0208785Y0037017D01*
X0208706Y0037057D01*
X0208629Y0037101D01*
X0208554Y0037148D01*
X0208482Y0037198D01*
X0208411Y0037252D01*
X0208344Y0037308D01*
X0208278Y0037368D01*
X0208216Y0037430D01*
X0208156Y0037496D01*
X0208100Y0037563D01*
X0208046Y0037634D01*
X0207996Y0037706D01*
X0207949Y0037781D01*
X0207905Y0037858D01*
X0207865Y0037937D01*
X0207828Y0038017D01*
X0207796Y0038099D01*
X0207766Y0038183D01*
X0207741Y0038267D01*
X0207719Y0038353D01*
X0207702Y0038439D01*
X0207688Y0038527D01*
X0207678Y0038615D01*
X0207672Y0038703D01*
X0207670Y0038791D01*
X0225387Y0064381D02*
X0225389Y0064469D01*
X0225395Y0064557D01*
X0225405Y0064645D01*
X0225419Y0064733D01*
X0225436Y0064819D01*
X0225458Y0064905D01*
X0225483Y0064989D01*
X0225513Y0065073D01*
X0225545Y0065155D01*
X0225582Y0065235D01*
X0225622Y0065314D01*
X0225666Y0065391D01*
X0225713Y0065466D01*
X0225763Y0065538D01*
X0225817Y0065609D01*
X0225873Y0065676D01*
X0225933Y0065742D01*
X0225995Y0065804D01*
X0226061Y0065864D01*
X0226128Y0065920D01*
X0226199Y0065974D01*
X0226271Y0066024D01*
X0226346Y0066071D01*
X0226423Y0066115D01*
X0226502Y0066155D01*
X0226582Y0066192D01*
X0226664Y0066224D01*
X0226748Y0066254D01*
X0226832Y0066279D01*
X0226918Y0066301D01*
X0227004Y0066318D01*
X0227092Y0066332D01*
X0227180Y0066342D01*
X0227268Y0066348D01*
X0227356Y0066350D01*
X0227444Y0066348D01*
X0227532Y0066342D01*
X0227620Y0066332D01*
X0227708Y0066318D01*
X0227794Y0066301D01*
X0227880Y0066279D01*
X0227964Y0066254D01*
X0228048Y0066224D01*
X0228130Y0066192D01*
X0228210Y0066155D01*
X0228289Y0066115D01*
X0228366Y0066071D01*
X0228441Y0066024D01*
X0228513Y0065974D01*
X0228584Y0065920D01*
X0228651Y0065864D01*
X0228717Y0065804D01*
X0228779Y0065742D01*
X0228839Y0065676D01*
X0228895Y0065609D01*
X0228949Y0065538D01*
X0228999Y0065466D01*
X0229046Y0065391D01*
X0229090Y0065314D01*
X0229130Y0065235D01*
X0229167Y0065155D01*
X0229199Y0065073D01*
X0229229Y0064989D01*
X0229254Y0064905D01*
X0229276Y0064819D01*
X0229293Y0064733D01*
X0229307Y0064645D01*
X0229317Y0064557D01*
X0229323Y0064469D01*
X0229325Y0064381D01*
X0229323Y0064293D01*
X0229317Y0064205D01*
X0229307Y0064117D01*
X0229293Y0064029D01*
X0229276Y0063943D01*
X0229254Y0063857D01*
X0229229Y0063773D01*
X0229199Y0063689D01*
X0229167Y0063607D01*
X0229130Y0063527D01*
X0229090Y0063448D01*
X0229046Y0063371D01*
X0228999Y0063296D01*
X0228949Y0063224D01*
X0228895Y0063153D01*
X0228839Y0063086D01*
X0228779Y0063020D01*
X0228717Y0062958D01*
X0228651Y0062898D01*
X0228584Y0062842D01*
X0228513Y0062788D01*
X0228441Y0062738D01*
X0228366Y0062691D01*
X0228289Y0062647D01*
X0228210Y0062607D01*
X0228130Y0062570D01*
X0228048Y0062538D01*
X0227964Y0062508D01*
X0227880Y0062483D01*
X0227794Y0062461D01*
X0227708Y0062444D01*
X0227620Y0062430D01*
X0227532Y0062420D01*
X0227444Y0062414D01*
X0227356Y0062412D01*
X0227268Y0062414D01*
X0227180Y0062420D01*
X0227092Y0062430D01*
X0227004Y0062444D01*
X0226918Y0062461D01*
X0226832Y0062483D01*
X0226748Y0062508D01*
X0226664Y0062538D01*
X0226582Y0062570D01*
X0226502Y0062607D01*
X0226423Y0062647D01*
X0226346Y0062691D01*
X0226271Y0062738D01*
X0226199Y0062788D01*
X0226128Y0062842D01*
X0226061Y0062898D01*
X0225995Y0062958D01*
X0225933Y0063020D01*
X0225873Y0063086D01*
X0225817Y0063153D01*
X0225763Y0063224D01*
X0225713Y0063296D01*
X0225666Y0063371D01*
X0225622Y0063448D01*
X0225582Y0063527D01*
X0225545Y0063607D01*
X0225513Y0063689D01*
X0225483Y0063773D01*
X0225458Y0063857D01*
X0225436Y0063943D01*
X0225419Y0064029D01*
X0225405Y0064117D01*
X0225395Y0064205D01*
X0225389Y0064293D01*
X0225387Y0064381D01*
X0225387Y0095878D02*
X0225389Y0095966D01*
X0225395Y0096054D01*
X0225405Y0096142D01*
X0225419Y0096230D01*
X0225436Y0096316D01*
X0225458Y0096402D01*
X0225483Y0096486D01*
X0225513Y0096570D01*
X0225545Y0096652D01*
X0225582Y0096732D01*
X0225622Y0096811D01*
X0225666Y0096888D01*
X0225713Y0096963D01*
X0225763Y0097035D01*
X0225817Y0097106D01*
X0225873Y0097173D01*
X0225933Y0097239D01*
X0225995Y0097301D01*
X0226061Y0097361D01*
X0226128Y0097417D01*
X0226199Y0097471D01*
X0226271Y0097521D01*
X0226346Y0097568D01*
X0226423Y0097612D01*
X0226502Y0097652D01*
X0226582Y0097689D01*
X0226664Y0097721D01*
X0226748Y0097751D01*
X0226832Y0097776D01*
X0226918Y0097798D01*
X0227004Y0097815D01*
X0227092Y0097829D01*
X0227180Y0097839D01*
X0227268Y0097845D01*
X0227356Y0097847D01*
X0227444Y0097845D01*
X0227532Y0097839D01*
X0227620Y0097829D01*
X0227708Y0097815D01*
X0227794Y0097798D01*
X0227880Y0097776D01*
X0227964Y0097751D01*
X0228048Y0097721D01*
X0228130Y0097689D01*
X0228210Y0097652D01*
X0228289Y0097612D01*
X0228366Y0097568D01*
X0228441Y0097521D01*
X0228513Y0097471D01*
X0228584Y0097417D01*
X0228651Y0097361D01*
X0228717Y0097301D01*
X0228779Y0097239D01*
X0228839Y0097173D01*
X0228895Y0097106D01*
X0228949Y0097035D01*
X0228999Y0096963D01*
X0229046Y0096888D01*
X0229090Y0096811D01*
X0229130Y0096732D01*
X0229167Y0096652D01*
X0229199Y0096570D01*
X0229229Y0096486D01*
X0229254Y0096402D01*
X0229276Y0096316D01*
X0229293Y0096230D01*
X0229307Y0096142D01*
X0229317Y0096054D01*
X0229323Y0095966D01*
X0229325Y0095878D01*
X0229323Y0095790D01*
X0229317Y0095702D01*
X0229307Y0095614D01*
X0229293Y0095526D01*
X0229276Y0095440D01*
X0229254Y0095354D01*
X0229229Y0095270D01*
X0229199Y0095186D01*
X0229167Y0095104D01*
X0229130Y0095024D01*
X0229090Y0094945D01*
X0229046Y0094868D01*
X0228999Y0094793D01*
X0228949Y0094721D01*
X0228895Y0094650D01*
X0228839Y0094583D01*
X0228779Y0094517D01*
X0228717Y0094455D01*
X0228651Y0094395D01*
X0228584Y0094339D01*
X0228513Y0094285D01*
X0228441Y0094235D01*
X0228366Y0094188D01*
X0228289Y0094144D01*
X0228210Y0094104D01*
X0228130Y0094067D01*
X0228048Y0094035D01*
X0227964Y0094005D01*
X0227880Y0093980D01*
X0227794Y0093958D01*
X0227708Y0093941D01*
X0227620Y0093927D01*
X0227532Y0093917D01*
X0227444Y0093911D01*
X0227356Y0093909D01*
X0227268Y0093911D01*
X0227180Y0093917D01*
X0227092Y0093927D01*
X0227004Y0093941D01*
X0226918Y0093958D01*
X0226832Y0093980D01*
X0226748Y0094005D01*
X0226664Y0094035D01*
X0226582Y0094067D01*
X0226502Y0094104D01*
X0226423Y0094144D01*
X0226346Y0094188D01*
X0226271Y0094235D01*
X0226199Y0094285D01*
X0226128Y0094339D01*
X0226061Y0094395D01*
X0225995Y0094455D01*
X0225933Y0094517D01*
X0225873Y0094583D01*
X0225817Y0094650D01*
X0225763Y0094721D01*
X0225713Y0094793D01*
X0225666Y0094868D01*
X0225622Y0094945D01*
X0225582Y0095024D01*
X0225545Y0095104D01*
X0225513Y0095186D01*
X0225483Y0095270D01*
X0225458Y0095354D01*
X0225436Y0095440D01*
X0225419Y0095526D01*
X0225405Y0095614D01*
X0225395Y0095702D01*
X0225389Y0095790D01*
X0225387Y0095878D01*
M02*
