%
M48
M72
T01C0.01969
T02C0.03740
T03C0.04000
T04C0.10827
%
T01
X198598Y46505
X204504Y49458
X206610Y53257
X215331Y51426
X220252Y48474
X215331Y73080
X215331Y82922
X236000Y74064
X199839Y95718
X196266Y99655
X192693Y103592
X215331Y104576
X235016Y105560
X168087Y88828
X152339Y85875
X173992Y78985
X175961Y68159
X154307Y64222
X142496Y67174
X137575Y67174
X131669Y67174
X126748Y67174
X119858Y61269
X120559Y54938
X109031Y53395
X114937Y45521
X124780Y45521
X138559Y40600
X149386Y40600
X155291Y42568
X169071Y48110
X172024Y44537
X197614Y25836
X142496Y20915
X141512Y16978
X133638Y17962
X126748Y20915
X102142Y22883
X89346Y36663
X82457Y40600
X70646Y37647
X52929Y74064
X116906Y84891
X141512Y98670
T02
X182693Y80048
X192693Y80048
X202693Y80048
X202693Y70048
X192693Y70048
X182693Y70048
T03
X227142Y20915
X227142Y30915
X227142Y40915
X244858Y46505
X244858Y56505
X244858Y66505
X244858Y78001
X244858Y88001
X244858Y98001
X225685Y112371
X215685Y112371
X205685Y112371
X195685Y112371
X185685Y112371
X175685Y112371
X165685Y112371
X155685Y112371
X145685Y112371
X135685Y112371
X125685Y112371
X115685Y112371
X105685Y112371
X95685Y112371
X85685Y112371
X75685Y112371
X65685Y112371
X55685Y112371
X45685Y112371
X35685Y112371
X35685Y122371
X45685Y122371
X55685Y122371
X65685Y122371
X75685Y122371
X85685Y122371
X95685Y122371
X105685Y122371
X115685Y122371
X125685Y122371
X135685Y122371
X145685Y122371
X155685Y122371
X165685Y122371
X175685Y122371
X185685Y122371
X195685Y122371
X205685Y122371
X215685Y122371
X225685Y122371
X34228Y41584
X34228Y31584
X34228Y21584
X11582Y54352
X11582Y64352
X11582Y74352
X11582Y84352
X11591Y98670
X26354Y98670
T04
X16512Y26820
X16512Y117371
X244858Y117371
X244858Y26820
M30
